<svg xmlns="http://www.w3.org/2000/svg" width="1512" height="982" fill="none"><g clip-path="url(#a)"><path fill="#fff" d="M0 6a6 6 0 0 1 6-6h1500c3.31 0 6 2.686 6 6v970c0 3.314-2.69 6-6 6H6a6 6 0 0 1-6-6V6Z"/><g clip-path="url(#b)" opacity=".5"><path fill="#fff" d="M-280-175h1988v1216H-280z"/><mask id="d" width="1710" height="756" x="-334" y="-132" maskUnits="userSpaceOnUse" style="mask-type:alpha"><path fill="url(#c)" d="M-334-131.609h1710v755.525H-334z"/></mask><g mask="url(#d)"><path stroke="#B2ADBE" stroke-width=".6" d="M-40.749-34.211h42v42h-42z"/><path stroke="#B2ADBE" stroke-width=".6" d="M1.25-34.211h42v42h-42zM43.251-34.211h42v42h-42zM85.251-34.211h42v42h-42z"/><path stroke="#B2ADBE" stroke-width=".6" d="M127.25-34.211h42v42h-42zM169.25-34.211h42v42h-42zM211.25-34.211h42v42h-42zM253.25-34.211h42v42h-42zM295.25-34.211h42v42h-42zM379.25-34.211h42v42h-42zM421.25-34.211h42v42h-42zM463.25-34.211h42v42h-42zM505.25-34.211h42v42h-42zM547.25-34.211h42v42h-42zM589.25-34.211h42v42h-42zM631.25-34.211h42v42h-42zM673.25-34.211h42v42h-42zM715.25-34.211h42v42h-42zM757.25-34.211h42v42h-42zM799.25-34.211h42v42h-42zM841.25-34.211h42v42h-42zM883.25-34.211h42v42h-42zM925.25-34.211h42v42h-42zM967.25-34.211h42v42h-42zM1009.25-34.211h42v42h-42zM1051.25-34.211h42v42h-42zM1093.25-34.211h42v42h-42zM-40.749 49.789h42v42h-42z"/><path stroke="#B2ADBE" stroke-width=".6" d="M1.25 49.789h42v42h-42zM43.251 49.789h42v42h-42zM85.251 49.789h42v42h-42z"/><path stroke="#B2ADBE" stroke-width=".6" d="M127.25 49.789h42v42h-42zM211.25 49.789h42v42h-42zM253.25 49.789h42v42h-42zM295.25 49.789h42v42h-42zM337.25 49.789h42v42h-42zM379.25 49.789h42v42h-42zM421.25 49.789h42v42h-42zM463.25 49.789h42v42h-42zM505.25 49.789h42v42h-42zM547.25 49.789h42v42h-42zM589.25 49.789h42v42h-42zM631.25 49.789h42v42h-42zM673.25 49.789h42v42h-42zM715.25 49.789h42v42h-42zM757.25 49.789h42v42h-42zM799.25 49.789h42v42h-42zM841.25 49.789h42v42h-42zM883.25 49.789h42v42h-42zM925.25 49.789h42v42h-42zM967.25 49.789h42v42h-42zM1009.25 49.789h42v42h-42zM1051.25 49.789h42v42h-42zM1093.25 49.789h42v42h-42zM-40.749 7.789h42v42h-42z"/><path stroke="#B2ADBE" stroke-width=".6" d="M1.25 7.789h42v42h-42zM43.251 7.789h42v42h-42zM85.251 7.789h42v42h-42z"/><path stroke="#B2ADBE" stroke-width=".6" d="M127.25 7.789h42v42h-42zM169.25 7.789h42v42h-42zM211.25 7.789h42v42h-42zM253.25 7.789h42v42h-42zM295.25 7.789h42v42h-42zM337.25 7.789h42v42h-42zM379.25 7.789h42v42h-42zM421.25 7.789h42v42h-42zM463.25 7.789h42v42h-42zM505.25 7.789h42v42h-42zM589.25 7.789h42v42h-42z"/><path fill="#FF006A" fill-opacity=".2" stroke="#FF006A" stroke-width=".6" d="M547.25 7.789h42v42h-42z"/><path stroke="#B2ADBE" stroke-width=".6" d="M631.25 7.789h42v42h-42zM673.25 7.789h42v42h-42zM715.25 7.789h42v42h-42zM757.25 7.789h42v42h-42zM799.25 7.789h42v42h-42zM841.25 7.789h42v42h-42zM883.25 7.789h42v42h-42zM925.25 7.789h42v42h-42zM967.25 7.789h42v42h-42zM1009.25 7.789h42v42h-42zM1051.25 7.789h42v42h-42zM1093.25 7.789h42v42h-42zM-40.749 133.789h42v42h-42z"/><path stroke="#B2ADBE" stroke-width=".6" d="M1.25 133.789h42v42h-42zM43.251 133.789h42v42h-42zM85.251 133.789h42v42h-42z"/><path stroke="#B2ADBE" stroke-width=".6" d="M127.25 133.789h42v42h-42zM169.25 133.789h42v42h-42zM211.25 133.789h42v42h-42zM253.25 133.789h42v42h-42zM295.25 133.789h42v42h-42zM337.25 133.789h42v42h-42zM421.25 133.789h42v42h-42zM463.25 133.789h42v42h-42zM505.25 133.789h42v42h-42zM547.25 133.789h42v42h-42zM589.25 133.789h42v42h-42zM631.25 133.789h42v42h-42zM673.25 133.789h42v42h-42zM715.25 133.789h42v42h-42zM757.25 133.789h42v42h-42zM799.25 133.789h42v42h-42zM841.25 133.789h42v42h-42zM883.25 133.789h42v42h-42zM925.25 133.789h42v42h-42zM967.25 133.789h42v42h-42zM1009.25 133.789h42v42h-42zM1051.25 133.789h42v42h-42zM1093.25 133.789h42v42h-42zM-40.749 91.789h42v42h-42z"/><path stroke="#B2ADBE" stroke-width=".6" d="M1.25 91.789h42v42h-42zM85.251 91.789h42v42h-42z"/><path fill="#FF30B7" fill-opacity=".2" stroke="#E300BD" stroke-width=".6" d="M43.251 91.789h42v42h-42z"/><path stroke="#B2ADBE" stroke-width=".6" d="M127.25 91.789h42v42h-42zM169.25 91.789h42v42h-42zM211.25 91.789h42v42h-42zM253.25 91.789h42v42h-42zM295.25 91.789h42v42h-42zM337.25 91.789h42v42h-42zM379.25 91.789h42v42h-42zM421.25 91.789h42v42h-42zM463.25 91.789h42v42h-42zM505.25 91.789h42v42h-42zM547.25 91.789h42v42h-42zM589.25 91.789h42v42h-42zM631.25 91.789h42v42h-42zM673.25 91.789h42v42h-42zM715.25 91.789h42v42h-42zM757.25 91.789h42v42h-42zM799.25 91.789h42v42h-42zM841.25 91.789h42v42h-42zM883.25 91.789h42v42h-42zM925.25 91.789h42v42h-42z"/><path fill="#FFB661" fill-opacity=".2" stroke="#FFBA33" stroke-width=".6" d="M169.25 49.789h42v42h-42z"/><path stroke="#B2ADBE" stroke-width=".6" d="M967.25 91.789h42v42h-42zM1009.25 91.789h42v42h-42zM1051.25 91.789h42v42h-42zM1093.25 91.789h42v42h-42zM-40.749 175.789h42v42h-42z"/><path stroke="#B2ADBE" stroke-width=".6" d="M1.25 175.789h42v42h-42zM43.251 175.789h42v42h-42zM85.251 175.789h42v42h-42z"/><path stroke="#B2ADBE" stroke-width=".6" d="M127.25 175.789h42v42h-42zM169.25 175.789h42v42h-42zM211.25 175.789h42v42h-42zM253.25 175.789h42v42h-42zM295.25 175.789h42v42h-42zM337.25 175.789h42v42h-42zM379.25 175.789h42v42h-42zM421.25 175.789h42v42h-42zM463.25 175.789h42v42h-42zM505.25 175.789h42v42h-42zM547.25 175.789h42v42h-42zM589.25 175.789h42v42h-42zM631.25 175.789h42v42h-42zM673.25 175.789h42v42h-42zM715.25 175.789h42v42h-42zM757.25 175.789h42v42h-42zM799.25 175.789h42v42h-42zM841.25 175.789h42v42h-42zM883.25 175.789h42v42h-42zM925.25 175.789h42v42h-42zM967.25 175.789h42v42h-42zM1009.25 175.789h42v42h-42zM1051.25 175.789h42v42h-42zM1093.25 175.789h42v42h-42zM-40.749 217.789h42v42h-42z"/><path stroke="#B2ADBE" stroke-width=".6" d="M1.25 217.789h42v42h-42zM43.251 217.789h42v42h-42zM85.251 217.789h42v42h-42z"/><path stroke="#B2ADBE" stroke-width=".6" d="M127.25 217.789h42v42h-42zM169.25 217.789h42v42h-42zM211.25 217.789h42v42h-42zM253.25 217.789h42v42h-42zM295.25 217.789h42v42h-42zM337.25 217.789h42v42h-42zM379.25 217.789h42v42h-42zM421.25 217.789h42v42h-42zM463.25 217.789h42v42h-42zM505.25 217.789h42v42h-42zM547.25 217.789h42v42h-42zM589.25 217.789h42v42h-42zM631.25 217.789h42v42h-42zM715.25 217.789h42v42h-42zM757.25 217.789h42v42h-42zM799.25 217.789h42v42h-42zM841.25 217.789h42v42h-42zM883.25 217.789h42v42h-42zM925.25 217.789h42v42h-42zM967.25 217.789h42v42h-42zM1009.25 217.789h42v42h-42zM1051.25 217.789h42v42h-42zM1093.25 217.789h42v42h-42zM-40.749 259.789h42v42h-42z"/><path stroke="#B2ADBE" stroke-width=".6" d="M1.25 259.789h42v42h-42zM43.251 259.789h42v42h-42zM85.251 259.789h42v42h-42z"/><path stroke="#B2ADBE" stroke-width=".6" d="M127.25 259.789h42v42h-42zM169.25 259.789h42v42h-42zM211.25 259.789h42v42h-42zM295.25 259.789h42v42h-42zM337.25 259.789h42v42h-42zM379.25 259.789h42v42h-42zM421.25 259.789h42v42h-42zM463.25 259.789h42v42h-42zM505.25 259.789h42v42h-42zM547.25 259.789h42v42h-42zM589.25 259.789h42v42h-42zM631.25 259.789h42v42h-42zM673.25 259.789h42v42h-42zM715.25 259.789h42v42h-42zM757.25 259.789h42v42h-42zM799.25 259.789h42v42h-42zM841.25 259.789h42v42h-42zM883.25 259.789h42v42h-42zM925.25 259.789h42v42h-42zM967.25 259.789h42v42h-42zM1009.25 259.789h42v42h-42zM1051.25 259.789h42v42h-42zM1093.25 259.789h42v42h-42zM-40.749 301.789h42v42h-42z"/><path stroke="#B2ADBE" stroke-width=".6" d="M1.25 301.789h42v42h-42zM43.251 301.789h42v42h-42zM85.251 301.789h42v42h-42zM169.25 301.789h42v42h-42zM211.25 301.789h42v42h-42zM253.25 301.789h42v42h-42zM295.25 301.789h42v42h-42zM337.25 301.789h42v42h-42zM379.25 301.789h42v42h-42zM421.25 301.789h42v42h-42zM463.25 301.789h42v42h-42zM505.25 301.789h42v42h-42zM547.25 301.789h42v42h-42zM589.25 301.789h42v42h-42zM631.25 301.789h42v42h-42zM673.25 301.789h42v42h-42zM715.25 301.789h42v42h-42zM757.25 301.789h42v42h-42zM799.25 301.789h42v42h-42zM841.25 301.789h42v42h-42zM883.25 301.789h42v42h-42zM925.25 301.789h42v42h-42zM967.25 301.789h42v42h-42zM1009.25 301.789h42v42h-42zM1051.25 301.789h42v42h-42zM1093.25 301.789h42v42h-42zM-40.749 343.789h42v42h-42z"/><path stroke="#B2ADBE" stroke-width=".6" d="M1.25 343.789h42v42h-42zM43.251 343.789h42v42h-42zM85.251 343.789h42v42h-42z"/><path stroke="#B2ADBE" stroke-width=".6" d="M127.25 343.789h42v42h-42zM169.25 343.789h42v42h-42zM211.25 343.789h42v42h-42zM253.25 343.789h42v42h-42zM295.25 343.789h42v42h-42zM337.25 343.789h42v42h-42zM379.25 343.789h42v42h-42zM421.25 343.789h42v42h-42zM463.25 343.789h42v42h-42zM505.25 343.789h42v42h-42zM547.25 343.789h42v42h-42zM589.25 343.789h42v42h-42zM631.25 343.789h42v42h-42zM673.25 343.789h42v42h-42zM715.25 343.789h42v42h-42zM757.25 343.789h42v42h-42zM799.25 343.789h42v42h-42zM841.25 343.789h42v42h-42zM883.25 343.789h42v42h-42zM925.25 343.789h42v42h-42zM967.25 343.789h42v42h-42zM1009.25 343.789h42v42h-42zM1051.25 343.789h42v42h-42zM1093.25 343.789h42v42h-42zM-40.749 385.789h42v42h-42z"/><path stroke="#B2ADBE" stroke-width=".6" d="M1.25 385.789h42v42h-42zM43.251 385.789h42v42h-42zM85.251 385.789h42v42h-42z"/><path stroke="#B2ADBE" stroke-width=".6" d="M127.25 385.789h42v42h-42zM169.25 385.789h42v42h-42zM211.25 385.789h42v42h-42zM253.25 385.789h42v42h-42zM295.25 385.789h42v42h-42zM337.25 385.789h42v42h-42zM379.25 385.789h42v42h-42zM421.25 385.789h42v42h-42zM463.25 385.789h42v42h-42zM505.25 385.789h42v42h-42zM547.25 385.789h42v42h-42zM589.25 385.789h42v42h-42zM631.25 385.789h42v42h-42zM673.25 385.789h42v42h-42zM715.25 385.789h42v42h-42zM757.25 385.789h42v42h-42zM799.25 385.789h42v42h-42zM841.25 385.789h42v42h-42zM883.25 385.789h42v42h-42zM925.25 385.789h42v42h-42zM967.25 385.789h42v42h-42zM1009.25 385.789h42v42h-42zM1051.25 385.789h42v42h-42zM1093.25 385.789h42v42h-42zM379.25 133.789h42v42h-42z"/><path fill="#FF30B7" fill-opacity=".2" stroke="#E300BD" stroke-width=".6" d="M337.25-34.211h42v42h-42z"/><path fill="#FFB661" fill-opacity=".2" stroke="#FFBA33" stroke-width=".6" d="M295.25 259.789h42v42h-42z"/><path fill="#FF30B7" fill-opacity=".2" stroke="#E300BD" stroke-width=".6" d="M673.25 217.789h42v42h-42z"/><path fill="#FF006A" fill-opacity=".2" stroke="#FF006A" stroke-width=".6" d="M127.25 301.789h42v42h-42z"/><circle cx="337.25" cy="49.789" r="2" fill="#6B6382"/><circle cx="505.25" cy="91.789" r="2" fill="#6B6382"/><circle cx="43.251" cy="7.789" r="2" fill="#6B6382"/><circle cx="85.251" cy="217.789" r="2" fill="#6B6382"/><circle cx="421.25" cy="301.789" r="2" fill="#6B6382"/><circle cx="715.25" cy="7.789" r="2" fill="#6B6382"/><circle cx="589.25" cy="343.789" r="2" fill="#6B6382"/><circle cx="715.25" cy="343.789" r="2" fill="#6B6382"/></g><g filter="url(#e)" opacity=".2"><ellipse cx="263.5" cy="143" fill="#FFBA33" rx="240.5" ry="245"/></g><g filter="url(#f)" opacity=".15"><ellipse cx="1003" cy="128" fill="#FF006A" rx="437" ry="369"/></g><g filter="url(#g)" opacity=".15"><ellipse cx="601.5" cy="23" fill="#E300BD" rx="315.5" ry="280"/></g></g></g><defs><filter id="e" width="875" height="884" x="-174" y="-299" color-interpolation-filters="sRGB" filterUnits="userSpaceOnUse"><feFlood flood-opacity="0" result="BackgroundImageFix"/><feBlend in="SourceGraphic" in2="BackgroundImageFix" result="shape"/><feGaussianBlur result="effect1_foregroundBlur_7751_280216" stdDeviation="98.5"/></filter><filter id="f" width="1268" height="1132" x="369" y="-438" color-interpolation-filters="sRGB" filterUnits="userSpaceOnUse"><feFlood flood-opacity="0" result="BackgroundImageFix"/><feBlend in="SourceGraphic" in2="BackgroundImageFix" result="shape"/><feGaussianBlur result="effect1_foregroundBlur_7751_280216" stdDeviation="98.5"/></filter><filter id="g" width="1025" height="954" x="89" y="-454" color-interpolation-filters="sRGB" filterUnits="userSpaceOnUse"><feFlood flood-opacity="0" result="BackgroundImageFix"/><feBlend in="SourceGraphic" in2="BackgroundImageFix" result="shape"/><feGaussianBlur result="effect1_foregroundBlur_7751_280216" stdDeviation="98.5"/></filter><clipPath id="a"><path fill="#fff" d="M0 6a6 6 0 0 1 6-6h1500c3.31 0 6 2.686 6 6v970c0 3.314-2.69 6-6 6H6a6 6 0 0 1-6-6V6Z"/></clipPath><clipPath id="b"><path fill="#fff" d="M-280-175h1988v1216H-280z"/></clipPath><radialGradient id="c" cx="0" cy="0" r="1" gradientTransform="matrix(0 377.763 -855 0 521 246.153)" gradientUnits="userSpaceOnUse"><stop stop-color="#D9D9D9" stop-opacity=".4"/><stop offset="1" stop-color="#D9D9D9" stop-opacity="0"/></radialGradient></defs></svg>