<svg width="66" height="20" viewBox="0 0 66 20" fill="none" xmlns="http://www.w3.org/2000/svg">
<g id="hemnet-69bd8f63b6d17db3dfff5dd6c59825dd.svg" clip-path="url(#clip0_6850_192884)">
<g id="Vector">
<path fill-rule="evenodd" clip-rule="evenodd" d="M0.516275 9.98423C0.516275 5.56623 4.11187 1.99023 8.55427 1.99023C12.9315 1.99023 16.4863 5.46223 16.5899 9.79023C16.6931 14.1102 13.1387 17.8474 8.79547 17.9742C6.98987 18.0274 5.29827 17.4846 3.93027 16.5182C3.88154 16.4831 3.82195 16.4664 3.76207 16.471C3.70218 16.4756 3.64586 16.5013 3.60307 16.5434L2.49187 17.6486C2.38423 17.7571 2.25617 17.8431 2.11507 17.9017C1.97398 17.9604 1.82266 17.9904 1.66987 17.9902C1.37507 17.9902 1.06827 17.8802 0.847475 17.6486C0.739536 17.5415 0.653864 17.4141 0.5954 17.2738C0.536936 17.1334 0.506836 16.9829 0.506836 16.8308C0.506836 16.6788 0.536936 16.5282 0.5954 16.3879C0.653864 16.2475 0.739536 16.1201 0.847475 16.013L1.95867 14.9078C2.00067 14.8666 2.02663 14.8118 2.0319 14.7531C2.03718 14.6945 2.02143 14.6359 1.98747 14.5878C1.02619 13.2456 0.511625 11.6348 0.516675 9.98383L0.516275 9.98423ZM2.55307 9.98423C2.55307 13.2794 5.45707 15.9522 8.55427 15.9522C11.9159 15.9522 14.6331 13.201 14.5535 9.83983C14.4783 6.67423 11.8823 4.09263 8.69947 4.01783C5.31947 3.93823 2.55307 6.64103 2.55307 9.98423ZM22.3903 8.67903H26.1191V5.13183H27.9839V14.0802H26.1191V10.4522H22.3903V14.0802H20.6071V5.13183H22.3903V8.67903ZM30.1535 8.53343C30.4334 8.25006 30.7668 8.02513 31.1344 7.87172C31.502 7.71832 31.8964 7.6395 32.2947 7.63983C34.2295 7.63983 35.3851 8.84463 35.3851 10.863C35.3838 11.0336 35.3755 11.204 35.3603 11.3738V11.4194L35.3139 11.4198H30.9539C31.0135 12.1662 31.6515 12.7226 32.4575 12.7226C33.1403 12.7226 33.5975 12.4186 33.8171 11.819L33.8319 11.7782L35.3087 12.2142L35.2959 12.2586C35.0131 13.2142 34.1159 14.2354 32.4447 14.2354C31.5775 14.2354 30.7759 13.9242 30.1875 13.3594C29.5519 12.7498 29.2163 11.9034 29.2163 10.9126C29.2163 9.98463 29.5491 9.13943 30.1535 8.53343ZM32.3187 9.09423C31.5275 9.09423 31.0523 9.66063 30.9911 10.2106H33.6471C33.6055 9.66223 33.2379 9.09423 32.3187 9.09423ZM43.8219 7.68383C42.9591 7.68383 42.3407 7.99463 41.8823 8.66023C41.5539 8.03863 40.8931 7.68423 40.0559 7.68423C39.4735 7.68423 38.7059 7.93863 38.3063 8.49423V7.87303H36.6039V14.0806H38.3871V10.4462C38.3871 9.75023 38.8399 9.28343 39.5135 9.28343C40.1887 9.28343 40.5759 9.68903 40.5759 10.3962V14.0802H42.2783V10.4462C42.2783 9.76143 42.7219 9.28343 43.3571 9.28343C44.2519 9.28343 44.3859 9.98063 44.3859 10.3962V14.0802H46.0883V10.0602C46.0883 9.28943 45.8463 8.66143 45.3887 8.24423C44.9923 7.88263 44.4359 7.68383 43.8219 7.68383ZM49.4591 8.50823C49.8847 7.91223 50.6115 7.69623 51.1755 7.69623C52.5667 7.69623 53.4311 8.64423 53.4311 10.1718V14.0798H51.6479V10.4582C51.6479 9.71143 51.2515 9.28303 50.5599 9.28303C49.9015 9.28303 49.4591 9.77543 49.4591 10.5078V14.0798H47.6759V7.87183H49.4591V8.50823ZM57.7003 7.63983C57.302 7.6395 56.9077 7.71833 56.5402 7.87174C56.1727 8.02515 55.8393 8.25007 55.5595 8.53343C54.9555 9.13943 54.6227 9.98423 54.6227 10.9126C54.6227 11.9038 54.9583 12.7498 55.5939 13.3598C56.1819 13.9242 56.9835 14.2358 57.8511 14.2358C59.5219 14.2358 60.4191 13.2142 60.7015 12.2586L60.7147 12.2146L59.2379 11.7782L59.2231 11.819C59.0031 12.419 58.5459 12.723 57.8635 12.723C57.0575 12.723 56.4195 12.1662 56.3595 11.4198H60.7659L60.7663 11.3738C60.7663 11.3674 60.7679 11.349 60.7699 11.3218C60.7767 11.231 60.7911 11.043 60.7911 10.863C60.7911 8.84463 59.6355 7.63983 57.7003 7.63983ZM56.3615 10.2106C56.4235 9.66063 56.8983 9.09463 57.6887 9.09463C58.6087 9.09463 58.9763 9.66223 59.0179 10.2106H56.3615ZM65.7067 7.87343V9.40543H64.4907V11.8758C64.4907 12.3438 64.6779 12.5266 65.1579 12.5266C65.3515 12.5266 65.5679 12.5022 65.6487 12.4794L65.7067 12.463V13.987L65.6779 13.999C65.5403 14.0558 65.2315 14.1518 64.7167 14.1518C63.4771 14.1518 62.7075 13.4082 62.7075 12.2118V9.40543H61.5727V7.87343H61.9411C62.5227 7.87343 62.8695 7.53423 62.8695 6.96623V6.01943H64.4907V7.87343H65.7067ZM12.0187 12.6246V8.27783C12.0187 8.23724 12.0087 8.19726 11.9898 8.16136C11.9708 8.12547 11.9434 8.09474 11.9099 8.07183L8.63467 5.87423C8.5928 5.84574 8.54332 5.8305 8.49267 5.8305C8.44203 5.8305 8.39255 5.84574 8.35067 5.87423L5.07548 8.07183C5.04186 8.09467 5.01433 8.12537 4.9953 8.16128C4.97626 8.19718 4.9663 8.2372 4.96627 8.27783V12.621C4.96627 12.759 5.07867 12.8706 5.21747 12.8706H7.22827C7.36667 12.8706 7.47947 12.7586 7.47947 12.621V10.541C7.47947 10.4026 7.59148 10.291 7.73067 10.291H9.25467C9.39347 10.291 9.50587 10.403 9.50587 10.5406V12.6246C9.50587 12.7606 9.61667 12.8706 9.75347 12.8706H11.7711C11.8035 12.8708 11.8357 12.8646 11.8657 12.8523C11.8957 12.84 11.923 12.8219 11.9461 12.7991C11.9691 12.7762 11.9874 12.749 11.9999 12.7191C12.0125 12.6892 12.0186 12.6571 12.0187 12.6246Z" fill="url(#paint0_linear_6850_192884)"/>
<path fill-rule="evenodd" clip-rule="evenodd" d="M0.516275 9.98423C0.516275 5.56623 4.11187 1.99023 8.55427 1.99023C12.9315 1.99023 16.4863 5.46223 16.5899 9.79023C16.6931 14.1102 13.1387 17.8474 8.79547 17.9742C6.98987 18.0274 5.29827 17.4846 3.93027 16.5182C3.88154 16.4831 3.82195 16.4664 3.76207 16.471C3.70218 16.4756 3.64586 16.5013 3.60307 16.5434L2.49187 17.6486C2.38423 17.7571 2.25617 17.8431 2.11507 17.9017C1.97398 17.9604 1.82266 17.9904 1.66987 17.9902C1.37507 17.9902 1.06827 17.8802 0.847475 17.6486C0.739536 17.5415 0.653864 17.4141 0.5954 17.2738C0.536936 17.1334 0.506836 16.9829 0.506836 16.8308C0.506836 16.6788 0.536936 16.5282 0.5954 16.3879C0.653864 16.2475 0.739536 16.1201 0.847475 16.013L1.95867 14.9078C2.00067 14.8666 2.02663 14.8118 2.0319 14.7531C2.03718 14.6945 2.02143 14.6359 1.98747 14.5878C1.02619 13.2456 0.511625 11.6348 0.516675 9.98383L0.516275 9.98423ZM2.55307 9.98423C2.55307 13.2794 5.45707 15.9522 8.55427 15.9522C11.9159 15.9522 14.6331 13.201 14.5535 9.83983C14.4783 6.67423 11.8823 4.09263 8.69947 4.01783C5.31947 3.93823 2.55307 6.64103 2.55307 9.98423ZM22.3903 8.67903H26.1191V5.13183H27.9839V14.0802H26.1191V10.4522H22.3903V14.0802H20.6071V5.13183H22.3903V8.67903ZM30.1535 8.53343C30.4334 8.25006 30.7668 8.02513 31.1344 7.87172C31.502 7.71832 31.8964 7.6395 32.2947 7.63983C34.2295 7.63983 35.3851 8.84463 35.3851 10.863C35.3838 11.0336 35.3755 11.204 35.3603 11.3738V11.4194L35.3139 11.4198H30.9539C31.0135 12.1662 31.6515 12.7226 32.4575 12.7226C33.1403 12.7226 33.5975 12.4186 33.8171 11.819L33.8319 11.7782L35.3087 12.2142L35.2959 12.2586C35.0131 13.2142 34.1159 14.2354 32.4447 14.2354C31.5775 14.2354 30.7759 13.9242 30.1875 13.3594C29.5519 12.7498 29.2163 11.9034 29.2163 10.9126C29.2163 9.98463 29.5491 9.13943 30.1535 8.53343ZM32.3187 9.09423C31.5275 9.09423 31.0523 9.66063 30.9911 10.2106H33.6471C33.6055 9.66223 33.2379 9.09423 32.3187 9.09423ZM43.8219 7.68383C42.9591 7.68383 42.3407 7.99463 41.8823 8.66023C41.5539 8.03863 40.8931 7.68423 40.0559 7.68423C39.4735 7.68423 38.7059 7.93863 38.3063 8.49423V7.87303H36.6039V14.0806H38.3871V10.4462C38.3871 9.75023 38.8399 9.28343 39.5135 9.28343C40.1887 9.28343 40.5759 9.68903 40.5759 10.3962V14.0802H42.2783V10.4462C42.2783 9.76143 42.7219 9.28343 43.3571 9.28343C44.2519 9.28343 44.3859 9.98063 44.3859 10.3962V14.0802H46.0883V10.0602C46.0883 9.28943 45.8463 8.66143 45.3887 8.24423C44.9923 7.88263 44.4359 7.68383 43.8219 7.68383ZM49.4591 8.50823C49.8847 7.91223 50.6115 7.69623 51.1755 7.69623C52.5667 7.69623 53.4311 8.64423 53.4311 10.1718V14.0798H51.6479V10.4582C51.6479 9.71143 51.2515 9.28303 50.5599 9.28303C49.9015 9.28303 49.4591 9.77543 49.4591 10.5078V14.0798H47.6759V7.87183H49.4591V8.50823ZM57.7003 7.63983C57.302 7.6395 56.9077 7.71833 56.5402 7.87174C56.1727 8.02515 55.8393 8.25007 55.5595 8.53343C54.9555 9.13943 54.6227 9.98423 54.6227 10.9126C54.6227 11.9038 54.9583 12.7498 55.5939 13.3598C56.1819 13.9242 56.9835 14.2358 57.8511 14.2358C59.5219 14.2358 60.4191 13.2142 60.7015 12.2586L60.7147 12.2146L59.2379 11.7782L59.2231 11.819C59.0031 12.419 58.5459 12.723 57.8635 12.723C57.0575 12.723 56.4195 12.1662 56.3595 11.4198H60.7659L60.7663 11.3738C60.7663 11.3674 60.7679 11.349 60.7699 11.3218C60.7767 11.231 60.7911 11.043 60.7911 10.863C60.7911 8.84463 59.6355 7.63983 57.7003 7.63983ZM56.3615 10.2106C56.4235 9.66063 56.8983 9.09463 57.6887 9.09463C58.6087 9.09463 58.9763 9.66223 59.0179 10.2106H56.3615ZM65.7067 7.87343V9.40543H64.4907V11.8758C64.4907 12.3438 64.6779 12.5266 65.1579 12.5266C65.3515 12.5266 65.5679 12.5022 65.6487 12.4794L65.7067 12.463V13.987L65.6779 13.999C65.5403 14.0558 65.2315 14.1518 64.7167 14.1518C63.4771 14.1518 62.7075 13.4082 62.7075 12.2118V9.40543H61.5727V7.87343H61.9411C62.5227 7.87343 62.8695 7.53423 62.8695 6.96623V6.01943H64.4907V7.87343H65.7067ZM12.0187 12.6246V8.27783C12.0187 8.23724 12.0087 8.19726 11.9898 8.16136C11.9708 8.12547 11.9434 8.09474 11.9099 8.07183L8.63467 5.87423C8.5928 5.84574 8.54332 5.8305 8.49267 5.8305C8.44203 5.8305 8.39255 5.84574 8.35067 5.87423L5.07548 8.07183C5.04186 8.09467 5.01433 8.12537 4.9953 8.16128C4.97626 8.19718 4.9663 8.2372 4.96627 8.27783V12.621C4.96627 12.759 5.07867 12.8706 5.21747 12.8706H7.22827C7.36667 12.8706 7.47947 12.7586 7.47947 12.621V10.541C7.47947 10.4026 7.59148 10.291 7.73067 10.291H9.25467C9.39347 10.291 9.50587 10.403 9.50587 10.5406V12.6246C9.50587 12.7606 9.61667 12.8706 9.75347 12.8706H11.7711C11.8035 12.8708 11.8357 12.8646 11.8657 12.8523C11.8957 12.84 11.923 12.8219 11.9461 12.7991C11.9691 12.7762 11.9874 12.749 11.9999 12.7191C12.0125 12.6892 12.0186 12.6571 12.0187 12.6246Z" fill="url(#paint1_linear_6850_192884)"/>
</g>
</g>
<defs>
<linearGradient id="paint0_linear_6850_192884" x1="33.1071" y1="1.99023" x2="33.1071" y2="17.9902" gradientUnits="userSpaceOnUse">
<stop stop-color="white"/>
<stop offset="1" stop-color="white" stop-opacity="0.8"/>
</linearGradient>
<linearGradient id="paint1_linear_6850_192884" x1="33.1068" y1="1.99101" x2="33.1068" y2="17.991" gradientUnits="userSpaceOnUse">
<stop stop-color="#0D0D0D"/>
<stop offset="1" stop-color="#1A1A1A" stop-opacity="0.8"/>
</linearGradient>
<clipPath id="clip0_6850_192884">
<rect width="65.6" height="20" fill="white" transform="translate(0.400391 -0.00976562)"/>
</clipPath>
</defs>
</svg>
