<svg xmlns="http://www.w3.org/2000/svg" width="72" height="20" fill="none"><g clip-path="url(#a)"><path fill="url(#b)" d="M5.824 1.828A29.25 29.25 0 0 1 4.414 0a.03.03 0 0 0-.045 0 29.255 29.255 0 0 1-1.41 1.828c-5.941 7.577.936 12.69.936 12.69l.057.038c.052.79.18 1.925.18 1.925h.512s.128-1.13.18-1.925l.058-.044c.006 0 6.882-5.107.942-12.684ZM4.388 14.402s-.308-.263-.39-.398v-.012l.37-8.25c0-.026.04-.026.04 0l.371 8.25v.012c-.084.135-.391.398-.391.398Z"/><path fill="url(#c)" d="M5.824 1.828A29.25 29.25 0 0 1 4.414 0a.03.03 0 0 0-.045 0 29.255 29.255 0 0 1-1.41 1.828c-5.941 7.577.936 12.69.936 12.69l.057.038c.052.79.18 1.925.18 1.925h.512s.128-1.13.18-1.925l.058-.044c.006 0 6.882-5.107.942-12.684ZM4.388 14.402s-.308-.263-.39-.398v-.012l.37-8.25c0-.026.04-.026.04 0l.371 8.25v.012c-.084.135-.391.398-.391.398Z"/><path fill="url(#d)" d="m17.26 12.67-2.866-6.95-.007-.019h-2.229v.467h.36c.109 0 .212.045.289.122a.4.4 0 0 1 .116.288l-.064 6.993a.41.41 0 0 1-.399.403l-.366.007v.46h2.172v-.46l-.225-.007a.41.41 0 0 1-.399-.403v-6.59l3.123 7.46c.045.11.148.18.263.18.116 0 .219-.07.264-.18l3.052-7.294.044 6.424c0 .224-.18.403-.404.41h-.232v.46h2.544v-.46h-.347a.415.415 0 0 1-.404-.403l-.02-6.994a.41.41 0 0 1 .399-.41l.373-.006v-.467h-2.172l-2.866 6.968Z"/><path fill="url(#e)" d="m17.26 12.67-2.866-6.95-.007-.019h-2.229v.467h.36c.109 0 .212.045.289.122a.4.4 0 0 1 .116.288l-.064 6.993a.41.41 0 0 1-.399.403l-.366.007v.46h2.172v-.46l-.225-.007a.41.41 0 0 1-.399-.403v-6.59l3.123 7.46c.045.11.148.18.263.18.116 0 .219-.07.264-.18l3.052-7.294.044 6.424c0 .224-.18.403-.404.41h-.232v.46h2.544v-.46h-.347a.415.415 0 0 1-.404-.403l-.02-6.994a.41.41 0 0 1 .399-.41l.373-.006v-.467h-2.172l-2.866 6.968Z"/><path fill="url(#f)" d="M37.237 13.912a.389.389 0 0 1-.11-.284V10.17c0-.658-.193-1.174-.58-1.541-.38-.368-.908-.555-1.565-.555-.921 0-1.649.374-2.158 1.11-.006.012-.025.019-.045.019-.02 0-.032-.013-.032-.032l-.238-.923h-.4l-1.024.587v.322h.264c.122 0 .226.033.296.097.071.065.11.162.11.297v4.07a.39.39 0 0 1-.11.283.388.388 0 0 1-.283.11h-.258v.47h2.358v-.47h-.258a.386.386 0 0 1-.283-.11.388.388 0 0 1-.11-.284v-2.683c0-.341.078-.683.22-1.018.143-.326.37-.609.656-.82.29-.212.638-.316 1.038-.316.45 0 .792.142 1.004.426.213.284.322.652.322 1.09v3.328a.39.39 0 0 1-.11.284.39.39 0 0 1-.282.11H35.4v.47h2.357v-.47H37.5a.36.36 0 0 1-.263-.11Z"/><path fill="url(#g)" d="M37.237 13.912a.389.389 0 0 1-.11-.284V10.17c0-.658-.193-1.174-.58-1.541-.38-.368-.908-.555-1.565-.555-.921 0-1.649.374-2.158 1.11-.006.012-.025.019-.045.019-.02 0-.032-.013-.032-.032l-.238-.923h-.4l-1.024.587v.322h.264c.122 0 .226.033.296.097.071.065.11.162.11.297v4.07a.39.39 0 0 1-.11.283.388.388 0 0 1-.283.11h-.258v.47h2.358v-.47h-.258a.386.386 0 0 1-.283-.11.388.388 0 0 1-.11-.284v-2.683c0-.341.078-.683.22-1.018.143-.326.37-.609.656-.82.29-.212.638-.316 1.038-.316.45 0 .792.142 1.004.426.213.284.322.652.322 1.09v3.328a.39.39 0 0 1-.11.284.39.39 0 0 1-.282.11H35.4v.47h2.357v-.47H37.5a.36.36 0 0 1-.263-.11Z"/><path fill="url(#h)" d="M58.777 6.228a4.556 4.556 0 0 0-2.166-.527h-3.067v.47h.3c.115 0 .218.044.32.147a.454.454 0 0 1 .147.322v6.914a.454.454 0 0 1-.147.321.45.45 0 0 1-.32.148h-.3v.47h3.067c.786 0 1.514-.18 2.166-.528a3.953 3.953 0 0 0 1.565-1.516c.383-.656.581-1.446.581-2.346 0-.9-.198-1.683-.581-2.345a3.942 3.942 0 0 0-1.565-1.53Zm.913 3.862c0 .823-.146 1.517-.434 2.076-.288.56-.67.977-1.144 1.247-.473.27-.997.405-1.559.405h-.62a.437.437 0 0 1-.32-.148.454.454 0 0 1-.146-.322V6.832c0-.116.045-.218.147-.321a.452.452 0 0 1 .32-.148h.62a3.1 3.1 0 0 1 1.558.405c.473.27.856.688 1.144 1.247.288.559.434 1.253.434 2.075Z"/><path fill="url(#i)" d="M58.777 6.228a4.556 4.556 0 0 0-2.166-.527h-3.067v.47h.3c.115 0 .218.044.32.147a.454.454 0 0 1 .147.322v6.914a.454.454 0 0 1-.147.321.45.45 0 0 1-.32.148h-.3v.47h3.067c.786 0 1.514-.18 2.166-.528a3.953 3.953 0 0 0 1.565-1.516c.383-.656.581-1.446.581-2.346 0-.9-.198-1.683-.581-2.345a3.942 3.942 0 0 0-1.565-1.53Zm.913 3.862c0 .823-.146 1.517-.434 2.076-.288.56-.67.977-1.144 1.247-.473.27-.997.405-1.559.405h-.62a.437.437 0 0 1-.32-.148.454.454 0 0 1-.146-.322V6.832c0-.116.045-.218.147-.321a.452.452 0 0 1 .32-.148h.62a3.1 3.1 0 0 1 1.558.405c.473.27.856.688 1.144 1.247.288.559.434 1.253.434 2.075Z"/><path fill="url(#j)" d="M68.175 10.56c-.284-.328-.831-.604-1.475-.752.889-.444 1.346-1.067 1.346-1.87a2 2 0 0 0-.348-1.164 2.316 2.316 0 0 0-.979-.79c-.418-.186-.908-.283-1.462-.283h-3.471v.47h.277c.116 0 .219.044.322.147a.451.451 0 0 1 .148.322v6.914a.451.451 0 0 1-.148.321.454.454 0 0 1-.322.148h-.303v.47h3.768a4.27 4.27 0 0 0 1.59-.29c.484-.193.87-.476 1.147-.848.283-.373.425-.829.425-1.356-.006-.566-.174-1.04-.515-1.44Zm-4.322 3.116a.452.452 0 0 1-.148-.321V10.25h1.79c.632 0 1.115.16 1.45.482.335.321.502.739.502 1.253a1.949 1.949 0 0 1-.219.887 1.687 1.687 0 0 1-.663.681c-.29.174-.65.264-1.07.264h-1.32c-.116.006-.219-.04-.322-.142Zm-.142-4.087V6.832a.44.44 0 0 1 .148-.321.457.457 0 0 1 .323-.148h.85c.611 0 1.063.155 1.346.45.283.302.425.688.425 1.163 0 .488-.136.88-.4 1.176-.264.29-.663.437-1.19.437H63.71Z"/><path fill="url(#k)" d="M68.175 10.56c-.284-.328-.831-.604-1.475-.752.889-.444 1.346-1.067 1.346-1.87a2 2 0 0 0-.348-1.164 2.316 2.316 0 0 0-.979-.79c-.418-.186-.908-.283-1.462-.283h-3.471v.47h.277c.116 0 .219.044.322.147a.451.451 0 0 1 .148.322v6.914a.451.451 0 0 1-.148.321.454.454 0 0 1-.322.148h-.303v.47h3.768a4.27 4.27 0 0 0 1.59-.29c.484-.193.87-.476 1.147-.848.283-.373.425-.829.425-1.356-.006-.566-.174-1.04-.515-1.44Zm-4.322 3.116a.452.452 0 0 1-.148-.321V10.25h1.79c.632 0 1.115.16 1.45.482.335.321.502.739.502 1.253a1.949 1.949 0 0 1-.219.887 1.687 1.687 0 0 1-.663.681c-.29.174-.65.264-1.07.264h-1.32c-.116.006-.219-.04-.322-.142Zm-.142-4.087V6.832a.44.44 0 0 1 .148-.321.457.457 0 0 1 .323-.148h.85c.611 0 1.063.155 1.346.45.283.302.425.688.425 1.163 0 .488-.136.88-.4 1.176-.264.29-.663.437-1.19.437H63.71Z"/><path fill="url(#l)" d="M28.262 8.485a3.373 3.373 0 0 0-1.636-.41c-.595 0-1.151.135-1.637.41-.492.27-.882.66-1.17 1.153-.287.493-.434 1.07-.434 1.71 0 .64.147 1.216.435 1.71.287.493.677.884 1.17 1.152a3.373 3.373 0 0 0 1.635.41c.595 0 1.15-.134 1.636-.41.493-.268.883-.66 1.17-1.152.288-.493.435-1.07.435-1.71 0-.64-.147-1.217-.435-1.71a2.983 2.983 0 0 0-1.17-1.153Zm.472 2.863c0 .788-.192 1.428-.575 1.889-.377.461-.895.698-1.534.698s-1.157-.237-1.534-.698c-.383-.46-.575-1.101-.575-1.89 0-.787.192-1.427.575-1.889.377-.46.895-.698 1.534-.698.64 0 1.157.237 1.534.698.384.462.575 1.096.575 1.89Z"/><path fill="url(#m)" d="M28.262 8.485a3.373 3.373 0 0 0-1.636-.41c-.595 0-1.151.135-1.637.41-.492.27-.882.66-1.17 1.153-.287.493-.434 1.07-.434 1.71 0 .64.147 1.216.435 1.71.287.493.677.884 1.17 1.152a3.373 3.373 0 0 0 1.635.41c.595 0 1.15-.134 1.636-.41.493-.268.883-.66 1.17-1.152.288-.493.435-1.07.435-1.71 0-.64-.147-1.217-.435-1.71a2.983 2.983 0 0 0-1.17-1.153Zm.472 2.863c0 .788-.192 1.428-.575 1.889-.377.461-.895.698-1.534.698s-1.157-.237-1.534-.698c-.383-.46-.575-1.101-.575-1.89 0-.787.192-1.427.575-1.889.377-.46.895-.698 1.534-.698.64 0 1.157.237 1.534.698.384.462.575 1.096.575 1.89Z"/><path fill="url(#n)" d="M50.914 8.485a3.371 3.371 0 0 0-1.636-.41c-.594 0-1.15.135-1.636.41-.492.27-.882.66-1.17 1.153-.287.493-.434 1.07-.434 1.71 0 .64.147 1.216.434 1.71a3.02 3.02 0 0 0 1.17 1.152 3.374 3.374 0 0 0 1.636.41c.595 0 1.15-.134 1.636-.41a3.02 3.02 0 0 0 1.17-1.152c.288-.493.435-1.07.435-1.71 0-.64-.147-1.217-.435-1.71a3.02 3.02 0 0 0-1.17-1.153Zm.474 2.863c0 .788-.192 1.428-.575 1.889-.378.461-.895.698-1.535.698-.639 0-1.156-.237-1.533-.698-.384-.46-.576-1.101-.576-1.89 0-.793.192-1.427.576-1.889.377-.46.894-.698 1.534-.698.639 0 1.156.237 1.533.698.377.462.576 1.096.576 1.89Z"/><path fill="url(#o)" d="M50.914 8.485a3.371 3.371 0 0 0-1.636-.41c-.594 0-1.15.135-1.636.41-.492.27-.882.66-1.17 1.153-.287.493-.434 1.07-.434 1.71 0 .64.147 1.216.434 1.71a3.02 3.02 0 0 0 1.17 1.152 3.374 3.374 0 0 0 1.636.41c.595 0 1.15-.134 1.636-.41a3.02 3.02 0 0 0 1.17-1.152c.288-.493.435-1.07.435-1.71 0-.64-.147-1.217-.435-1.71a3.02 3.02 0 0 0-1.17-1.153Zm.474 2.863c0 .788-.192 1.428-.575 1.889-.378.461-.895.698-1.535.698-.639 0-1.156-.237-1.533-.698-.384-.46-.576-1.101-.576-1.89 0-.793.192-1.427.576-1.889.377-.46.894-.698 1.534-.698.639 0 1.156.237 1.533.698.377.462.576 1.096.576 1.89Z"/><path fill="url(#p)" d="M41.776 8.075c-.514 0-.984.11-1.41.328-.424.219-.759.515-.997.895a2.269 2.269 0 0 0-.36 1.235c0 .399.09.765.277 1.093.182.317.433.59.733.798l-.92 1.248a.505.505 0 0 0 .406.804h.264c-.258.174-.465.38-.606.624a1.648 1.648 0 0 0-.25.863c0 .553.244 1.01.727 1.351.476.34 1.145.515 1.989.515.586 0 1.145-.097 1.654-.283.515-.187.933-.464 1.242-.824.316-.36.476-.798.476-1.3 0-.527-.192-.9-.643-1.26-.386-.303-.991-.464-1.745-.464h-2.575c-.006 0-.012-.006-.012-.006s-.007-.013 0-.02l.67-.9c.18.084.347.135.495.167.154.032.328.045.521.045.54 0 1.03-.11 1.455-.328a2.578 2.578 0 0 0 1.01-.894c.242-.367.37-.797.367-1.236 0-.476-.231-1.344-.862-1.788 0-.007.006-.007.006-.007l1.384.155v-.637h-2.214a3.398 3.398 0 0 0-1.081-.174Zm.773 4.028a1.662 1.662 0 0 1-.773.199c-.43 0-.81-.154-1.132-.457-.322-.302-.483-.746-.483-1.312 0-.566.16-1.01.483-1.313a1.608 1.608 0 0 1 1.133-.456c.27 0 .527.064.772.199.245.129.444.328.605.592.154.264.238.592.238.978 0 .392-.077.72-.238.978-.144.249-.353.454-.605.592Zm-1.745 2.367h1.745c.483 0 .792.096.998.303.206.205.309.482.309.804 0 .47-.187.856-.56 1.145-.373.29-.876.438-1.493.438-.541 0-.992-.123-1.32-.354-.328-.232-.496-.586-.496-1.036 0-.283.078-.547.232-.779.154-.231.341-.398.585-.52Z"/><path fill="url(#q)" d="M41.776 8.075c-.514 0-.984.11-1.41.328-.424.219-.759.515-.997.895a2.269 2.269 0 0 0-.36 1.235c0 .399.09.765.277 1.093.182.317.433.59.733.798l-.92 1.248a.505.505 0 0 0 .406.804h.264c-.258.174-.465.38-.606.624a1.648 1.648 0 0 0-.25.863c0 .553.244 1.01.727 1.351.476.34 1.145.515 1.989.515.586 0 1.145-.097 1.654-.283.515-.187.933-.464 1.242-.824.316-.36.476-.798.476-1.3 0-.527-.192-.9-.643-1.26-.386-.303-.991-.464-1.745-.464h-2.575c-.006 0-.012-.006-.012-.006s-.007-.013 0-.02l.67-.9c.18.084.347.135.495.167.154.032.328.045.521.045.54 0 1.03-.11 1.455-.328a2.578 2.578 0 0 0 1.01-.894c.242-.367.37-.797.367-1.236 0-.476-.231-1.344-.862-1.788 0-.007.006-.007.006-.007l1.384.155v-.637h-2.214a3.398 3.398 0 0 0-1.081-.174Zm.773 4.028a1.662 1.662 0 0 1-.773.199c-.43 0-.81-.154-1.132-.457-.322-.302-.483-.746-.483-1.312 0-.566.16-1.01.483-1.313a1.608 1.608 0 0 1 1.133-.456c.27 0 .527.064.772.199.245.129.444.328.605.592.154.264.238.592.238.978 0 .392-.077.72-.238.978-.144.249-.353.454-.605.592Zm-1.745 2.367h1.745c.483 0 .792.096.998.303.206.205.309.482.309.804 0 .47-.187.856-.56 1.145-.373.29-.876.438-1.493.438-.541 0-.992-.123-1.32-.354-.328-.232-.496-.586-.496-1.036 0-.283.078-.547.232-.779.154-.231.341-.398.585-.52Z"/><path fill="url(#r)" d="M69.993 14.386a.822.822 0 0 1-.3-.29.8.8 0 0 1 0-.808.735.735 0 0 1 .3-.292.873.873 0 0 1 .426-.107.824.824 0 0 1 .726.398.8.8 0 0 1 0 .808.733.733 0 0 1-.3.29.892.892 0 0 1-.853 0Zm.783-.095a.663.663 0 0 0 .248-.246.757.757 0 0 0 .09-.36.755.755 0 0 0-.09-.36.585.585 0 0 0-.248-.247.748.748 0 0 0-.357-.088.665.665 0 0 0-.694.695c0 .132.032.252.09.36.057.107.14.189.247.246a.75.75 0 0 0 .357.088.67.67 0 0 0 .357-.088Zm-.7-.221v-.057l.012-.006h.039a.048.048 0 0 0 .03-.013c.014-.012.014-.019.014-.032v-.587a.046.046 0 0 0-.013-.031c-.013-.013-.02-.013-.031-.013h-.039l-.013-.006v-.057l.013-.007h.331c.096 0 .166.02.223.064.057.044.083.1.083.177a.195.195 0 0 1-.064.151.252.252 0 0 1-.16.076l.077.025.147.234c.012.019.025.025.044.025h.038l.007.006v.057l-.007.006h-.197l-.013-.006-.204-.34h-.05v.226c0 .012.004.024.013.032.013.012.019.012.031.012h.038l.014.007v.057l-.014.006h-.337l-.013-.006Zm.324-.41c.051 0 .095-.013.121-.045a.174.174 0 0 0 .044-.12.183.183 0 0 0-.038-.12c-.025-.031-.064-.044-.108-.044h-.026a.047.047 0 0 0-.03.013c-.014.012-.014.018-.014.031v.284h.05Z"/><path fill="url(#s)" d="M69.993 14.386a.822.822 0 0 1-.3-.29.8.8 0 0 1 0-.808.735.735 0 0 1 .3-.292.873.873 0 0 1 .426-.107.824.824 0 0 1 .726.398.8.8 0 0 1 0 .808.733.733 0 0 1-.3.29.892.892 0 0 1-.853 0Zm.783-.095a.663.663 0 0 0 .248-.246.757.757 0 0 0 .09-.36.755.755 0 0 0-.09-.36.585.585 0 0 0-.248-.247.748.748 0 0 0-.357-.088.665.665 0 0 0-.694.695c0 .132.032.252.09.36.057.107.14.189.247.246a.75.75 0 0 0 .357.088.67.67 0 0 0 .357-.088Zm-.7-.221v-.057l.012-.006h.039a.048.048 0 0 0 .03-.013c.014-.012.014-.019.014-.032v-.587a.046.046 0 0 0-.013-.031c-.013-.013-.02-.013-.031-.013h-.039l-.013-.006v-.057l.013-.007h.331c.096 0 .166.02.223.064.057.044.083.1.083.177a.195.195 0 0 1-.064.151.252.252 0 0 1-.16.076l.077.025.147.234c.012.019.025.025.044.025h.038l.007.006v.057l-.007.006h-.197l-.013-.006-.204-.34h-.05v.226c0 .012.004.024.013.032.013.012.019.012.031.012h.038l.014.007v.057l-.014.006h-.337l-.013-.006Zm.324-.41c.051 0 .095-.013.121-.045a.174.174 0 0 0 .044-.12.183.183 0 0 0-.038-.12c-.025-.031-.064-.044-.108-.044h-.026a.047.047 0 0 0-.03.013c-.014.012-.014.018-.014.031v.284h.05Z"/></g><defs><linearGradient id="b" x1="4.391" x2="4.391" y1="-.01" y2="16.481" gradientUnits="userSpaceOnUse"><stop stop-color="#fff"/><stop offset="1" stop-color="#fff" stop-opacity=".8"/></linearGradient><linearGradient id="c" x1="4.391" x2="4.391" y1="-.009" y2="16.482" gradientUnits="userSpaceOnUse"><stop stop-color="#0D0D0D"/><stop offset="1" stop-color="#1A1A1A" stop-opacity=".8"/></linearGradient><linearGradient id="d" x1="17.195" x2="17.195" y1="5.701" y2="14.621" gradientUnits="userSpaceOnUse"><stop stop-color="#fff"/><stop offset="1" stop-color="#fff" stop-opacity=".8"/></linearGradient><linearGradient id="e" x1="17.195" x2="17.195" y1="5.702" y2="14.621" gradientUnits="userSpaceOnUse"><stop stop-color="#0D0D0D"/><stop offset="1" stop-color="#1A1A1A" stop-opacity=".8"/></linearGradient><linearGradient id="f" x1="34.422" x2="34.422" y1="8.075" y2="14.492" gradientUnits="userSpaceOnUse"><stop stop-color="#fff"/><stop offset="1" stop-color="#fff" stop-opacity=".8"/></linearGradient><linearGradient id="g" x1="34.421" x2="34.421" y1="8.076" y2="14.492" gradientUnits="userSpaceOnUse"><stop stop-color="#0D0D0D"/><stop offset="1" stop-color="#1A1A1A" stop-opacity=".8"/></linearGradient><linearGradient id="h" x1="57.233" x2="57.233" y1="5.701" y2="14.492" gradientUnits="userSpaceOnUse"><stop stop-color="#fff"/><stop offset="1" stop-color="#fff" stop-opacity=".8"/></linearGradient><linearGradient id="i" x1="57.233" x2="57.233" y1="5.702" y2="14.493" gradientUnits="userSpaceOnUse"><stop stop-color="#0D0D0D"/><stop offset="1" stop-color="#1A1A1A" stop-opacity=".8"/></linearGradient><linearGradient id="j" x1="65.225" x2="65.225" y1="5.701" y2="14.492" gradientUnits="userSpaceOnUse"><stop stop-color="#fff"/><stop offset="1" stop-color="#fff" stop-opacity=".8"/></linearGradient><linearGradient id="k" x1="65.225" x2="65.225" y1="5.702" y2="14.493" gradientUnits="userSpaceOnUse"><stop stop-color="#0D0D0D"/><stop offset="1" stop-color="#1A1A1A" stop-opacity=".8"/></linearGradient><linearGradient id="l" x1="26.625" x2="26.625" y1="8.075" y2="14.62" gradientUnits="userSpaceOnUse"><stop stop-color="#fff"/><stop offset="1" stop-color="#fff" stop-opacity=".8"/></linearGradient><linearGradient id="m" x1="26.625" x2="26.625" y1="8.076" y2="14.621" gradientUnits="userSpaceOnUse"><stop stop-color="#0D0D0D"/><stop offset="1" stop-color="#1A1A1A" stop-opacity=".8"/></linearGradient><linearGradient id="n" x1="49.279" x2="49.279" y1="8.075" y2="14.62" gradientUnits="userSpaceOnUse"><stop stop-color="#fff"/><stop offset="1" stop-color="#fff" stop-opacity=".8"/></linearGradient><linearGradient id="o" x1="49.279" x2="49.279" y1="8.076" y2="14.621" gradientUnits="userSpaceOnUse"><stop stop-color="#0D0D0D"/><stop offset="1" stop-color="#1A1A1A" stop-opacity=".8"/></linearGradient><linearGradient id="p" x1="41.992" x2="41.992" y1="8.075" y2="17.829" gradientUnits="userSpaceOnUse"><stop stop-color="#fff"/><stop offset="1" stop-color="#fff" stop-opacity=".8"/></linearGradient><linearGradient id="q" x1="41.992" x2="41.992" y1="8.076" y2="17.829" gradientUnits="userSpaceOnUse"><stop stop-color="#0D0D0D"/><stop offset="1" stop-color="#1A1A1A" stop-opacity=".8"/></linearGradient><linearGradient id="r" x1="70.419" x2="70.419" y1="12.889" y2="14.493" gradientUnits="userSpaceOnUse"><stop stop-color="#fff"/><stop offset="1" stop-color="#fff" stop-opacity=".8"/></linearGradient><linearGradient id="s" x1="70.419" x2="70.419" y1="12.889" y2="14.493" gradientUnits="userSpaceOnUse"><stop stop-color="#0D0D0D"/><stop offset="1" stop-color="#1A1A1A" stop-opacity=".8"/></linearGradient><clipPath id="a"><path fill="#fff" d="M.2-.01h71.2v20H.2z"/></clipPath></defs></svg>