<svg width="55" height="20" viewBox="0 0 55 20" fill="none" xmlns="http://www.w3.org/2000/svg">
<g id="siemens-8c3151faa401d398dfcee376ff0dc953.svg" clip-path="url(#clip0_6850_192888)">
<g id="Vector">
<path fill-rule="evenodd" clip-rule="evenodd" d="M53.8973 5.64748V7.25148C53.0653 6.93788 52.3245 6.77948 51.6761 6.77948C51.2921 6.77948 50.9865 6.85028 50.7565 6.98748C50.5265 7.12628 50.4089 7.29668 50.4089 7.49788C50.4089 7.76588 50.6685 8.00348 51.1913 8.21668L52.7013 8.95068C53.9221 9.53228 54.5281 10.3043 54.5281 11.2739C54.5281 12.0803 54.2069 12.7231 53.5585 13.1991C52.9149 13.6799 52.0485 13.9179 50.9697 13.9179C50.4721 13.9179 50.0249 13.8967 49.6281 13.8515C49.2309 13.8091 48.7745 13.7215 48.2685 13.5959V11.9171C49.1965 12.2307 50.0417 12.3891 50.8025 12.3891C51.7105 12.3891 52.1621 12.1263 52.1621 11.5959C52.1621 11.3319 51.9773 11.1187 51.6013 10.9519L49.9245 10.2379C49.3057 9.95828 48.8457 9.61988 48.5445 9.21828C48.2485 8.81348 48.0977 8.34948 48.0977 7.81908C48.0977 7.07628 48.4105 6.47868 49.0293 6.02388C49.6529 5.57268 50.4801 5.34668 51.5089 5.34668C51.8433 5.34668 52.2285 5.37628 52.6553 5.43068C53.0853 5.48868 53.4993 5.55988 53.8973 5.64748Z" fill="url(#paint0_linear_6850_192888)"/>
<path fill-rule="evenodd" clip-rule="evenodd" d="M53.8973 5.64748V7.25148C53.0653 6.93788 52.3245 6.77948 51.6761 6.77948C51.2921 6.77948 50.9865 6.85028 50.7565 6.98748C50.5265 7.12628 50.4089 7.29668 50.4089 7.49788C50.4089 7.76588 50.6685 8.00348 51.1913 8.21668L52.7013 8.95068C53.9221 9.53228 54.5281 10.3043 54.5281 11.2739C54.5281 12.0803 54.2069 12.7231 53.5585 13.1991C52.9149 13.6799 52.0485 13.9179 50.9697 13.9179C50.4721 13.9179 50.0249 13.8967 49.6281 13.8515C49.2309 13.8091 48.7745 13.7215 48.2685 13.5959V11.9171C49.1965 12.2307 50.0417 12.3891 50.8025 12.3891C51.7105 12.3891 52.1621 12.1263 52.1621 11.5959C52.1621 11.3319 51.9773 11.1187 51.6013 10.9519L49.9245 10.2379C49.3057 9.95828 48.8457 9.61988 48.5445 9.21828C48.2485 8.81348 48.0977 8.34948 48.0977 7.81908C48.0977 7.07628 48.4105 6.47868 49.0293 6.02388C49.6529 5.57268 50.4801 5.34668 51.5089 5.34668C51.8433 5.34668 52.2285 5.37628 52.6553 5.43068C53.0853 5.48868 53.4993 5.55988 53.8973 5.64748Z" fill="url(#paint1_linear_6850_192888)"/>
<path fill-rule="evenodd" clip-rule="evenodd" d="M53.8973 5.64748V7.25148C53.0653 6.93788 52.3245 6.77948 51.6761 6.77948C51.2921 6.77948 50.9865 6.85028 50.7565 6.98748C50.5265 7.12628 50.4089 7.29668 50.4089 7.49788C50.4089 7.76588 50.6685 8.00348 51.1913 8.21668L52.7013 8.95068C53.9221 9.53228 54.5281 10.3043 54.5281 11.2739C54.5281 12.0803 54.2069 12.7231 53.5585 13.1991C52.9149 13.6799 52.0485 13.9179 50.9697 13.9179C50.4721 13.9179 50.0249 13.8967 49.6281 13.8515C49.2309 13.8091 48.7745 13.7215 48.2685 13.5959V11.9171C49.1965 12.2307 50.0417 12.3891 50.8025 12.3891C51.7105 12.3891 52.1621 12.1263 52.1621 11.5959C52.1621 11.3319 51.9773 11.1187 51.6013 10.9519L49.9245 10.2379C49.3057 9.95828 48.8457 9.61988 48.5445 9.21828C48.2485 8.81348 48.0977 8.34948 48.0977 7.81908C48.0977 7.07628 48.4105 6.47868 49.0293 6.02388C49.6529 5.57268 50.4801 5.34668 51.5089 5.34668C51.8433 5.34668 52.2285 5.37628 52.6553 5.43068C53.0853 5.48868 53.4993 5.55988 53.8973 5.64748Z" fill="url(#paint2_linear_6850_192888)"/>
</g>
<g id="Vector_2">
<path fill-rule="evenodd" clip-rule="evenodd" d="M6.39659 5.64748V7.25148C5.56459 6.93788 4.82459 6.77948 4.17659 6.77948C3.79139 6.77948 3.48659 6.85028 3.25659 6.98748C3.02699 7.12628 2.90939 7.29668 2.90939 7.49788C2.90939 7.76588 3.17259 8.00348 3.69539 8.21668L5.20539 8.95068C6.42139 9.53228 7.02859 10.3043 7.02859 11.2739C7.02859 12.0803 6.70619 12.7231 6.06259 13.1991C5.41419 13.6799 4.55219 13.9179 3.47019 13.9179C2.97219 13.9179 2.52419 13.8967 2.12739 13.8515C1.73019 13.8091 1.27859 13.7215 0.768986 13.5959V11.9171C1.70059 12.2307 2.54579 12.3891 3.30179 12.3891C4.20979 12.3891 4.66139 12.1263 4.66139 11.5959C4.66139 11.3319 4.47739 11.1187 4.10539 10.9519L2.42859 10.2379C1.80539 9.95828 1.34539 9.61988 1.04899 9.21828C0.747386 8.81348 0.600586 8.34948 0.600586 7.81908C0.600586 7.07628 0.910986 6.47868 1.53339 6.02388C2.15219 5.57268 2.98059 5.34668 4.00939 5.34668C4.34739 5.34668 4.72779 5.37628 5.15899 5.43068C5.58579 5.48868 5.99939 5.55988 6.39659 5.64748Z" fill="url(#paint3_linear_6850_192888)"/>
<path fill-rule="evenodd" clip-rule="evenodd" d="M6.39659 5.64748V7.25148C5.56459 6.93788 4.82459 6.77948 4.17659 6.77948C3.79139 6.77948 3.48659 6.85028 3.25659 6.98748C3.02699 7.12628 2.90939 7.29668 2.90939 7.49788C2.90939 7.76588 3.17259 8.00348 3.69539 8.21668L5.20539 8.95068C6.42139 9.53228 7.02859 10.3043 7.02859 11.2739C7.02859 12.0803 6.70619 12.7231 6.06259 13.1991C5.41419 13.6799 4.55219 13.9179 3.47019 13.9179C2.97219 13.9179 2.52419 13.8967 2.12739 13.8515C1.73019 13.8091 1.27859 13.7215 0.768986 13.5959V11.9171C1.70059 12.2307 2.54579 12.3891 3.30179 12.3891C4.20979 12.3891 4.66139 12.1263 4.66139 11.5959C4.66139 11.3319 4.47739 11.1187 4.10539 10.9519L2.42859 10.2379C1.80539 9.95828 1.34539 9.61988 1.04899 9.21828C0.747386 8.81348 0.600586 8.34948 0.600586 7.81908C0.600586 7.07628 0.910986 6.47868 1.53339 6.02388C2.15219 5.57268 2.98059 5.34668 4.00939 5.34668C4.34739 5.34668 4.72779 5.37628 5.15899 5.43068C5.58579 5.48868 5.99939 5.55988 6.39659 5.64748Z" fill="url(#paint4_linear_6850_192888)"/>
</g>
<g id="Vector_3">
<path fill-rule="evenodd" clip-rule="evenodd" d="M8.12793 5.49707H10.5875V13.7675H8.12793V5.49707Z" fill="url(#paint5_linear_6850_192888)"/>
<path fill-rule="evenodd" clip-rule="evenodd" d="M8.12793 5.49707H10.5875V13.7675H8.12793V5.49707Z" fill="url(#paint6_linear_6850_192888)"/>
</g>
<g id="Vector_4">
<path fill-rule="evenodd" clip-rule="evenodd" d="M18.5128 5.49707V7.02547H14.8584V8.85947H18.028V10.2379H14.8584V12.1631H18.5872V13.7675H12.4912V5.49707H18.5128Z" fill="url(#paint7_linear_6850_192888)"/>
<path fill-rule="evenodd" clip-rule="evenodd" d="M18.5128 5.49707V7.02547H14.8584V8.85947H18.028V10.2379H14.8584V12.1631H18.5872V13.7675H12.4912V5.49707H18.5128Z" fill="url(#paint8_linear_6850_192888)"/>
</g>
<g id="Vector_5">
<path fill-rule="evenodd" clip-rule="evenodd" d="M29.9914 5.49707V13.7675H27.6954V8.31267L25.3134 13.8435H23.8958L21.6042 8.31267V13.7675H19.9434V5.49707H22.9458L24.995 10.5599L27.1394 5.49707H29.9914Z" fill="url(#paint9_linear_6850_192888)"/>
<path fill-rule="evenodd" clip-rule="evenodd" d="M29.9914 5.49707V13.7675H27.6954V8.31267L25.3134 13.8435H23.8958L21.6042 8.31267V13.7675H19.9434V5.49707H22.9458L24.995 10.5599L27.1394 5.49707H29.9914Z" fill="url(#paint10_linear_6850_192888)"/>
</g>
<g id="Vector_6">
<path fill-rule="evenodd" clip-rule="evenodd" d="M37.9148 5.49707V7.02547H34.2808V8.85947H37.45V10.2379H34.2808V12.1631H37.9896V13.7675H31.8936V5.49707H37.9148Z" fill="url(#paint11_linear_6850_192888)"/>
<path fill-rule="evenodd" clip-rule="evenodd" d="M37.9148 5.49707V7.02547H34.2808V8.85947H37.45V10.2379H34.2808V12.1631H37.9896V13.7675H31.8936V5.49707H37.9148Z" fill="url(#paint12_linear_6850_192888)"/>
</g>
<g id="Vector_7">
<path fill-rule="evenodd" clip-rule="evenodd" d="M46.5437 5.49707V13.7675H43.9349L41.0073 8.46307V13.7675H39.3477V5.49707H42.0325L44.8845 10.7103V5.49707H46.5437Z" fill="url(#paint13_linear_6850_192888)"/>
<path fill-rule="evenodd" clip-rule="evenodd" d="M46.5437 5.49707V13.7675H43.9349L41.0073 8.46307V13.7675H39.3477V5.49707H42.0325L44.8845 10.7103V5.49707H46.5437Z" fill="url(#paint14_linear_6850_192888)"/>
</g>
</g>
<defs>
<linearGradient id="paint0_linear_6850_192888" x1="51.3129" y1="5.34668" x2="51.3129" y2="13.9179" gradientUnits="userSpaceOnUse">
<stop stop-color="white"/>
<stop offset="1" stop-color="white" stop-opacity="0.8"/>
</linearGradient>
<linearGradient id="paint1_linear_6850_192888" x1="51.3129" y1="5.3471" x2="51.3129" y2="13.9183" gradientUnits="userSpaceOnUse">
<stop stop-color="#0D0D0D"/>
<stop offset="1" stop-color="#1A1A1A" stop-opacity="0.8"/>
</linearGradient>
<linearGradient id="paint2_linear_6850_192888" x1="51.3129" y1="5.3471" x2="51.3129" y2="13.9183" gradientUnits="userSpaceOnUse">
<stop stop-color="#0D0D0D"/>
<stop offset="1" stop-color="#1A1A1A" stop-opacity="0.8"/>
</linearGradient>
<linearGradient id="paint3_linear_6850_192888" x1="3.81459" y1="5.34668" x2="3.81459" y2="13.9179" gradientUnits="userSpaceOnUse">
<stop stop-color="white"/>
<stop offset="1" stop-color="white" stop-opacity="0.8"/>
</linearGradient>
<linearGradient id="paint4_linear_6850_192888" x1="3.81459" y1="5.3471" x2="3.81459" y2="13.9183" gradientUnits="userSpaceOnUse">
<stop stop-color="#0D0D0D"/>
<stop offset="1" stop-color="#1A1A1A" stop-opacity="0.8"/>
</linearGradient>
<linearGradient id="paint5_linear_6850_192888" x1="9.35793" y1="5.49707" x2="9.35793" y2="13.7675" gradientUnits="userSpaceOnUse">
<stop stop-color="white"/>
<stop offset="1" stop-color="white" stop-opacity="0.8"/>
</linearGradient>
<linearGradient id="paint6_linear_6850_192888" x1="9.35773" y1="5.49747" x2="9.35773" y2="13.7679" gradientUnits="userSpaceOnUse">
<stop stop-color="#0D0D0D"/>
<stop offset="1" stop-color="#1A1A1A" stop-opacity="0.8"/>
</linearGradient>
<linearGradient id="paint7_linear_6850_192888" x1="15.5392" y1="5.49707" x2="15.5392" y2="13.7675" gradientUnits="userSpaceOnUse">
<stop stop-color="#0D0D0D"/>
<stop offset="1" stop-color="#1A1A1A"/>
</linearGradient>
<linearGradient id="paint8_linear_6850_192888" x1="15.5392" y1="5.49747" x2="15.5392" y2="13.7679" gradientUnits="userSpaceOnUse">
<stop stop-color="#0D0D0D"/>
<stop offset="1" stop-color="#1A1A1A" stop-opacity="0.8"/>
</linearGradient>
<linearGradient id="paint9_linear_6850_192888" x1="24.9678" y1="5.49707" x2="24.9678" y2="13.8435" gradientUnits="userSpaceOnUse">
<stop stop-color="white"/>
<stop offset="1" stop-color="white" stop-opacity="0.8"/>
</linearGradient>
<linearGradient id="paint10_linear_6850_192888" x1="24.9674" y1="5.49748" x2="24.9674" y2="13.8439" gradientUnits="userSpaceOnUse">
<stop stop-color="#0D0D0D"/>
<stop offset="1" stop-color="#1A1A1A" stop-opacity="0.8"/>
</linearGradient>
<linearGradient id="paint11_linear_6850_192888" x1="34.9416" y1="5.49707" x2="34.9416" y2="13.7675" gradientUnits="userSpaceOnUse">
<stop stop-color="#0D0D0D"/>
<stop offset="1" stop-color="#1A1A1A"/>
</linearGradient>
<linearGradient id="paint12_linear_6850_192888" x1="34.9416" y1="5.49747" x2="34.9416" y2="13.7679" gradientUnits="userSpaceOnUse">
<stop stop-color="#0D0D0D"/>
<stop offset="1" stop-color="#1A1A1A" stop-opacity="0.8"/>
</linearGradient>
<linearGradient id="paint13_linear_6850_192888" x1="42.9457" y1="5.49707" x2="42.9457" y2="13.7675" gradientUnits="userSpaceOnUse">
<stop stop-color="white"/>
<stop offset="1" stop-color="white" stop-opacity="0.8"/>
</linearGradient>
<linearGradient id="paint14_linear_6850_192888" x1="42.9457" y1="5.49747" x2="42.9457" y2="13.7679" gradientUnits="userSpaceOnUse">
<stop stop-color="#0D0D0D"/>
<stop offset="1" stop-color="#1A1A1A" stop-opacity="0.8"/>
</linearGradient>
<clipPath id="clip0_6850_192888">
<rect width="54.4" height="20" fill="white" transform="translate(0.400391 -0.00976562)"/>
</clipPath>
</defs>
</svg>
