<svg width="350" height="63" viewBox="0 0 350 63" fill="none"
  xmlns="http://www.w3.org/2000/svg">
  <path d="M330 30C331.1 30 332 29.1 332 28H328C328 29.1 328.9 30 330 30ZM336 24V19C336 15.93 334.37 13.36 331.5 12.68V12C331.5 11.17 330.83 10.5 330 10.5C329.17 10.5 328.5 11.17 328.5 12V12.68C325.64 13.36 324 15.92 324 19V24L322 26V27H338V26L336 24ZM334 25H326V19C326 16.52 327.51 14.5 330 14.5C332.49 14.5 334 16.52 334 19V25Z" fill="#908E96"/>
  <path d="M330.5 10C330.5 4.7533 334.753 0.5 340 0.5C345.247 0.5 349.5 4.7533 349.5 10C349.5 15.2467 345.247 19.5 340 19.5C334.753 19.5 330.5 15.2467 330.5 10Z" fill="#E5484D"/>
  <path d="M330.5 10C330.5 4.7533 334.753 0.5 340 0.5C345.247 0.5 349.5 4.7533 349.5 10C349.5 15.2467 345.247 19.5 340 19.5C334.753 19.5 330.5 15.2467 330.5 10Z" stroke="#F8F8F8"/>
  <path d="M339.988 14V7.0332H339.889L337.785 8.52148V7.09766L339.994 5.54492H341.5V14H339.988Z" fill="white"/>
  <g clip-path="url(#clip0_8961_195362)">
    <path d="M110.57 16.698C110.617 17.7153 110.696 18.77 110.808 19.862C110.92 20.9447 111.042 21.9807 111.172 22.97C111.2 23.3807 111.088 23.5907 110.836 23.6C110.78 23.6 110.724 23.5813 110.668 23.544C110.612 23.4973 110.561 23.4413 110.514 23.376C110.468 23.3107 110.421 23.2407 110.374 23.166C110.337 23.0913 110.314 23.026 110.304 22.97C110.23 22.494 110.16 21.99 110.094 21.458C110.029 20.926 109.968 20.394 109.912 19.862C109.866 19.3207 109.824 18.7933 109.786 18.28C109.749 17.7667 109.726 17.2953 109.716 16.866C109.735 16.642 109.768 16.4553 109.814 16.306C109.861 16.1473 109.959 16.0727 110.108 16.082C110.267 16.0913 110.379 16.1567 110.444 16.278C110.519 16.39 110.561 16.53 110.57 16.698ZM115.54 18.364C115.82 18.4667 116.053 18.6207 116.24 18.826C116.436 19.0313 116.585 19.2647 116.688 19.526C116.791 19.778 116.847 20.0393 116.856 20.31C116.875 20.5807 116.847 20.8327 116.772 21.066C116.669 21.3273 116.539 21.584 116.38 21.836C116.221 22.088 116.039 22.312 115.834 22.508C115.629 22.704 115.395 22.8627 115.134 22.984C114.873 23.1053 114.583 23.166 114.266 23.166C113.883 23.166 113.561 23.0773 113.3 22.9C113.039 22.7227 112.833 22.494 112.684 22.214C112.535 21.934 112.437 21.6167 112.39 21.262C112.353 20.9073 112.362 20.5527 112.418 20.198C112.455 19.9367 112.516 19.6847 112.6 19.442C112.693 19.19 112.81 18.9707 112.95 18.784C113.09 18.588 113.249 18.4293 113.426 18.308C113.613 18.1867 113.823 18.126 114.056 18.126C114.187 18.126 114.35 18.154 114.546 18.21C114.742 18.2567 114.924 18.3267 115.092 18.42C115.213 18.308 115.363 18.2893 115.54 18.364ZM115.008 19.386C114.905 19.3207 114.784 19.2367 114.644 19.134C114.513 19.022 114.397 18.966 114.294 18.966C114.182 18.966 114.07 19.0173 113.958 19.12C113.855 19.2227 113.762 19.344 113.678 19.484C113.603 19.6147 113.538 19.75 113.482 19.89C113.426 20.03 113.389 20.142 113.37 20.226C113.342 20.366 113.323 20.534 113.314 20.73C113.305 20.926 113.319 21.122 113.356 21.318C113.393 21.5047 113.463 21.6773 113.566 21.836C113.678 21.9853 113.841 22.0927 114.056 22.158C114.187 22.1953 114.341 22.1953 114.518 22.158C114.695 22.1113 114.868 22.032 115.036 21.92C115.213 21.808 115.377 21.6587 115.526 21.472C115.685 21.2853 115.806 21.0707 115.89 20.828C115.983 20.5573 115.983 20.2773 115.89 19.988C115.806 19.6893 115.629 19.4747 115.358 19.344C115.293 19.3907 115.227 19.414 115.162 19.414C115.097 19.414 115.045 19.4047 115.008 19.386ZM121.2 18.364C121.48 18.4667 121.714 18.6207 121.9 18.826C122.096 19.0313 122.246 19.2647 122.348 19.526C122.451 19.778 122.507 20.0393 122.516 20.31C122.535 20.5807 122.507 20.8327 122.432 21.066C122.33 21.3273 122.199 21.584 122.04 21.836C121.882 22.088 121.7 22.312 121.494 22.508C121.289 22.704 121.056 22.8627 120.794 22.984C120.533 23.1053 120.244 23.166 119.926 23.166C119.544 23.166 119.222 23.0773 118.96 22.9C118.699 22.7227 118.494 22.494 118.344 22.214C118.195 21.934 118.097 21.6167 118.05 21.262C118.013 20.9073 118.022 20.5527 118.078 20.198C118.116 19.9367 118.176 19.6847 118.26 19.442C118.354 19.19 118.47 18.9707 118.61 18.784C118.75 18.588 118.909 18.4293 119.086 18.308C119.273 18.1867 119.483 18.126 119.716 18.126C119.847 18.126 120.01 18.154 120.206 18.21C120.402 18.2567 120.584 18.3267 120.752 18.42C120.874 18.308 121.023 18.2893 121.2 18.364ZM120.668 19.386C120.566 19.3207 120.444 19.2367 120.304 19.134C120.174 19.022 120.057 18.966 119.954 18.966C119.842 18.966 119.73 19.0173 119.618 19.12C119.516 19.2227 119.422 19.344 119.338 19.484C119.264 19.6147 119.198 19.75 119.142 19.89C119.086 20.03 119.049 20.142 119.03 20.226C119.002 20.366 118.984 20.534 118.974 20.73C118.965 20.926 118.979 21.122 119.016 21.318C119.054 21.5047 119.124 21.6773 119.226 21.836C119.338 21.9853 119.502 22.0927 119.716 22.158C119.847 22.1953 120.001 22.1953 120.178 22.158C120.356 22.1113 120.528 22.032 120.696 21.92C120.874 21.808 121.037 21.6587 121.186 21.472C121.345 21.2853 121.466 21.0707 121.55 20.828C121.644 20.5573 121.644 20.2773 121.55 19.988C121.466 19.6893 121.289 19.4747 121.018 19.344C120.953 19.3907 120.888 19.414 120.822 19.414C120.757 19.414 120.706 19.4047 120.668 19.386ZM127.49 18.672C127.528 18.6627 127.584 18.658 127.658 18.658C127.733 18.6487 127.803 18.6533 127.868 18.672C127.943 18.6813 128.004 18.7047 128.05 18.742C128.106 18.77 128.139 18.8073 128.148 18.854C128.167 18.966 128.148 19.0687 128.092 19.162C128.046 19.246 127.957 19.3207 127.826 19.386C127.472 19.554 127.103 19.7453 126.72 19.96C126.338 20.1653 126.011 20.352 125.74 20.52C125.908 20.632 126.1 20.758 126.314 20.898C126.538 21.038 126.767 21.1873 127 21.346C127.234 21.4953 127.467 21.6587 127.7 21.836C127.934 22.004 128.153 22.172 128.358 22.34C128.545 22.4987 128.578 22.6433 128.456 22.774C128.4 22.8393 128.307 22.886 128.176 22.914C128.055 22.942 127.938 22.928 127.826 22.872C127.621 22.7693 127.397 22.648 127.154 22.508C126.912 22.3587 126.664 22.2093 126.412 22.06C126.16 21.9013 125.913 21.7473 125.67 21.598C125.437 21.4393 125.222 21.2947 125.026 21.164C125.064 21.4907 125.096 21.8173 125.124 22.144C125.162 22.4707 125.194 22.7973 125.222 23.124C125.278 23.3013 125.274 23.446 125.208 23.558C125.143 23.67 125.036 23.7213 124.886 23.712C124.728 23.684 124.611 23.6233 124.536 23.53C124.462 23.4273 124.406 23.2967 124.368 23.138C124.312 22.7553 124.247 22.3027 124.172 21.78C124.107 21.2573 124.037 20.716 123.962 20.156C123.888 19.596 123.813 19.05 123.738 18.518C123.673 17.986 123.612 17.5147 123.556 17.104C123.538 16.9733 123.524 16.8333 123.514 16.684C123.514 16.5253 123.566 16.4227 123.668 16.376C123.808 16.32 123.953 16.3527 124.102 16.474C124.252 16.586 124.364 16.7587 124.438 16.992C124.513 17.4213 124.588 17.888 124.662 18.392C124.737 18.896 124.812 19.428 124.886 19.988C125.073 19.876 125.288 19.7547 125.53 19.624C125.782 19.484 126.03 19.3533 126.272 19.232C126.524 19.1013 126.758 18.9847 126.972 18.882C127.187 18.7793 127.36 18.7093 127.49 18.672ZM133.742 20.702C133.611 20.7207 133.457 20.7067 133.28 20.66C133.112 20.6133 132.995 20.4967 132.93 20.31C132.902 20.2167 132.897 20.128 132.916 20.044C132.934 19.9507 133.032 19.8853 133.21 19.848C133.378 19.8107 133.555 19.778 133.742 19.75C133.938 19.7127 134.134 19.68 134.33 19.652L133.812 18.084C133.653 17.4867 133.634 16.9733 133.756 16.544C133.877 16.1147 134.222 15.8067 134.792 15.62C135.025 15.5453 135.254 15.5173 135.478 15.536C135.711 15.5547 135.93 15.6153 136.136 15.718C136.341 15.8207 136.528 15.956 136.696 16.124C136.864 16.292 136.999 16.488 137.102 16.712C137.139 16.8147 137.158 16.908 137.158 16.992C137.167 17.0667 137.139 17.1367 137.074 17.202C136.98 17.2953 136.878 17.3373 136.766 17.328C136.654 17.3093 136.579 17.2767 136.542 17.23C136.458 17.1273 136.364 17.0247 136.262 16.922C136.168 16.81 136.066 16.7167 135.954 16.642C135.851 16.558 135.739 16.4973 135.618 16.46C135.496 16.4133 135.366 16.3993 135.226 16.418C135.16 16.4273 135.081 16.46 134.988 16.516C134.904 16.572 134.829 16.6607 134.764 16.782C134.698 16.894 134.656 17.0433 134.638 17.23C134.628 17.4167 134.661 17.65 134.736 17.93C134.801 18.1633 134.876 18.4153 134.96 18.686C135.044 18.9567 135.137 19.2413 135.24 19.54C135.688 19.4933 136.098 19.4793 136.472 19.498C136.677 19.5167 136.868 19.554 137.046 19.61C137.223 19.666 137.368 19.75 137.48 19.862C137.508 19.9553 137.503 20.0347 137.466 20.1C137.428 20.156 137.372 20.2073 137.298 20.254C137.232 20.2913 137.153 20.3193 137.06 20.338C136.976 20.3567 136.892 20.3707 136.808 20.38C136.621 20.3987 136.425 20.422 136.22 20.45C136.014 20.4687 135.8 20.4873 135.576 20.506C135.725 20.926 135.86 21.3273 135.982 21.71C136.112 22.0833 136.215 22.396 136.29 22.648C136.327 22.788 136.332 22.9373 136.304 23.096C136.276 23.2547 136.238 23.4087 136.192 23.558C136.117 23.7727 136.024 23.9453 135.912 24.076C135.8 24.2067 135.678 24.2487 135.548 24.202C135.445 24.1553 135.38 24.0947 135.352 24.02C135.324 23.9453 135.319 23.8427 135.338 23.712C135.356 23.5627 135.366 23.4133 135.366 23.264C135.366 23.1147 135.356 22.9793 135.338 22.858C135.328 22.7273 135.31 22.6153 135.282 22.522C135.263 22.4193 135.249 22.3493 135.24 22.312L134.652 20.604C134.502 20.6227 134.353 20.6413 134.204 20.66C134.054 20.6693 133.9 20.6833 133.742 20.702ZM141.667 18.364C141.947 18.4667 142.18 18.6207 142.367 18.826C142.563 19.0313 142.712 19.2647 142.815 19.526C142.918 19.778 142.974 20.0393 142.983 20.31C143.002 20.5807 142.974 20.8327 142.899 21.066C142.796 21.3273 142.666 21.584 142.507 21.836C142.348 22.088 142.166 22.312 141.961 22.508C141.756 22.704 141.522 22.8627 141.261 22.984C141 23.1053 140.71 23.166 140.393 23.166C140.01 23.166 139.688 23.0773 139.427 22.9C139.166 22.7227 138.96 22.494 138.811 22.214C138.662 21.934 138.564 21.6167 138.517 21.262C138.48 20.9073 138.489 20.5527 138.545 20.198C138.582 19.9367 138.643 19.6847 138.727 19.442C138.82 19.19 138.937 18.9707 139.077 18.784C139.217 18.588 139.376 18.4293 139.553 18.308C139.74 18.1867 139.95 18.126 140.183 18.126C140.314 18.126 140.477 18.154 140.673 18.21C140.869 18.2567 141.051 18.3267 141.219 18.42C141.34 18.308 141.49 18.2893 141.667 18.364ZM141.135 19.386C141.032 19.3207 140.911 19.2367 140.771 19.134C140.64 19.022 140.524 18.966 140.421 18.966C140.309 18.966 140.197 19.0173 140.085 19.12C139.982 19.2227 139.889 19.344 139.805 19.484C139.73 19.6147 139.665 19.75 139.609 19.89C139.553 20.03 139.516 20.142 139.497 20.226C139.469 20.366 139.45 20.534 139.441 20.73C139.432 20.926 139.446 21.122 139.483 21.318C139.52 21.5047 139.59 21.6773 139.693 21.836C139.805 21.9853 139.968 22.0927 140.183 22.158C140.314 22.1953 140.468 22.1953 140.645 22.158C140.822 22.1113 140.995 22.032 141.163 21.92C141.34 21.808 141.504 21.6587 141.653 21.472C141.812 21.2853 141.933 21.0707 142.017 20.828C142.11 20.5573 142.11 20.2773 142.017 19.988C141.933 19.6893 141.756 19.4747 141.485 19.344C141.42 19.3907 141.354 19.414 141.289 19.414C141.224 19.414 141.172 19.4047 141.135 19.386ZM148.293 18.42C148.125 18.5133 147.948 18.6113 147.761 18.714C147.584 18.8167 147.402 18.938 147.215 19.078C147.038 19.2087 146.865 19.3673 146.697 19.554C146.539 19.7313 146.394 19.946 146.263 20.198C146.077 20.5527 145.951 20.9167 145.885 21.29C145.82 21.654 145.778 22.0133 145.759 22.368C145.759 22.536 145.717 22.7087 145.633 22.886C145.559 23.054 145.451 23.138 145.311 23.138C145.134 23.138 144.989 23.0493 144.877 22.872C144.775 22.6853 144.705 22.508 144.667 22.34C144.509 21.6773 144.378 21.024 144.275 20.38C144.173 19.7267 144.084 19.078 144.009 18.434C144.009 18.3033 144.047 18.2193 144.121 18.182C144.205 18.1447 144.299 18.1307 144.401 18.14C144.513 18.1493 144.621 18.1773 144.723 18.224C144.826 18.2707 144.887 18.3453 144.905 18.448C144.943 18.7933 144.989 19.1573 145.045 19.54C145.101 19.9133 145.157 20.2353 145.213 20.506C145.251 20.1887 145.353 19.8807 145.521 19.582C145.689 19.2833 145.895 19.0127 146.137 18.77C146.389 18.5273 146.669 18.322 146.977 18.154C147.295 17.986 147.617 17.874 147.943 17.818C148.083 17.7993 148.2 17.7993 148.293 17.818C148.387 17.8367 148.452 17.8693 148.489 17.916C148.527 17.9627 148.531 18.0373 148.503 18.14C148.485 18.2427 148.415 18.336 148.293 18.42ZM156.24 19.498C156.418 19.4887 156.595 19.5307 156.772 19.624C156.95 19.7173 157.038 19.862 157.038 20.058C157.02 20.2167 156.931 20.3193 156.772 20.366C156.623 20.4033 156.502 20.422 156.408 20.422C156.222 20.422 156.021 20.4267 155.806 20.436C155.592 20.4453 155.372 20.4593 155.148 20.478C155.13 20.786 155.111 21.0753 155.092 21.346C155.083 21.6167 155.074 21.8593 155.064 22.074C155.055 22.2793 155.05 22.4473 155.05 22.578C155.05 22.7087 155.055 22.7787 155.064 22.788C155.27 22.7507 155.489 22.69 155.722 22.606C155.965 22.5127 156.203 22.4147 156.436 22.312C156.679 22.2 156.912 22.088 157.136 21.976C157.37 21.8547 157.589 21.7427 157.794 21.64C157.888 21.5933 157.972 21.5793 158.046 21.598C158.13 21.6167 158.182 21.6587 158.2 21.724C158.219 21.8267 158.205 21.9527 158.158 22.102C158.112 22.2513 158.028 22.3867 157.906 22.508C157.766 22.62 157.58 22.7507 157.346 22.9C157.122 23.04 156.88 23.1753 156.618 23.306C156.357 23.4367 156.091 23.5533 155.82 23.656C155.559 23.7493 155.326 23.8053 155.12 23.824C154.812 23.852 154.579 23.768 154.42 23.572C154.262 23.376 154.173 23.1287 154.154 22.83C154.136 22.5313 154.131 22.186 154.14 21.794C154.159 21.402 154.178 20.9867 154.196 20.548C154.019 20.5667 153.846 20.5853 153.678 20.604C153.52 20.6133 153.366 20.6273 153.216 20.646C153.095 20.646 152.96 20.618 152.81 20.562C152.67 20.506 152.6 20.3987 152.6 20.24C152.6 20.184 152.624 20.1093 152.67 20.016C152.717 19.9227 152.82 19.8527 152.978 19.806C153.361 19.7407 153.786 19.6847 154.252 19.638C154.28 19.1993 154.313 18.7747 154.35 18.364C154.388 17.9533 154.42 17.58 154.448 17.244C154.458 17.132 154.49 17.034 154.546 16.95C154.602 16.866 154.663 16.824 154.728 16.824C154.887 16.8147 155.036 16.8567 155.176 16.95C155.326 17.034 155.4 17.132 155.4 17.244C155.363 17.5613 155.326 17.9207 155.288 18.322C155.26 18.7233 155.232 19.134 155.204 19.554C155.391 19.5353 155.568 19.526 155.736 19.526C155.914 19.5167 156.082 19.5073 156.24 19.498ZM159.757 17.048C159.757 17.272 159.752 17.524 159.743 17.804C159.743 18.084 159.743 18.3733 159.743 18.672C159.752 18.9707 159.757 19.2787 159.757 19.596C159.766 19.9133 159.776 20.2167 159.785 20.506C159.878 20.3193 159.99 20.1373 160.121 19.96C160.252 19.7733 160.396 19.61 160.555 19.47C160.723 19.33 160.896 19.218 161.073 19.134C161.26 19.05 161.46 19.008 161.675 19.008C161.908 19.008 162.114 19.0827 162.291 19.232C162.478 19.3813 162.636 19.582 162.767 19.834C162.907 20.0767 163.024 20.352 163.117 20.66C163.21 20.9587 163.285 21.2667 163.341 21.584C163.406 21.892 163.453 22.1907 163.481 22.48C163.509 22.76 163.532 23.0027 163.551 23.208C163.551 23.3573 163.514 23.4787 163.439 23.572C163.364 23.6653 163.276 23.712 163.173 23.712C163.098 23.712 163.005 23.6653 162.893 23.572C162.79 23.4693 162.716 23.348 162.669 23.208C162.641 23.096 162.613 22.9327 162.585 22.718C162.557 22.5033 162.524 22.2747 162.487 22.032C162.45 21.78 162.403 21.528 162.347 21.276C162.291 21.024 162.221 20.8 162.137 20.604C162.062 20.3987 161.969 20.24 161.857 20.128C161.745 20.016 161.614 19.974 161.465 20.002C161.232 20.0487 161.026 20.212 160.849 20.492C160.681 20.772 160.532 21.0893 160.401 21.444C160.28 21.7987 160.177 22.158 160.093 22.522C160.018 22.886 159.962 23.18 159.925 23.404C159.888 23.572 159.836 23.6887 159.771 23.754C159.715 23.81 159.65 23.838 159.575 23.838C159.5 23.838 159.43 23.8007 159.365 23.726C159.309 23.6513 159.253 23.5627 159.197 23.46C159.15 23.348 159.108 23.236 159.071 23.124C159.034 23.0027 159.01 22.9 159.001 22.816C158.954 22.312 158.917 21.8313 158.889 21.374C158.861 20.9073 158.838 20.4407 158.819 19.974C158.81 19.5073 158.805 19.0313 158.805 18.546C158.805 18.0513 158.814 17.524 158.833 16.964C158.833 16.4973 159.001 16.2873 159.337 16.334C159.449 16.3527 159.547 16.4367 159.631 16.586C159.715 16.726 159.757 16.88 159.757 17.048ZM166.912 17.538C166.894 17.6313 166.828 17.6827 166.716 17.692C166.604 17.7013 166.511 17.706 166.436 17.706C166.203 17.7153 165.96 17.7387 165.708 17.776C165.466 17.8133 165.209 17.8693 164.938 17.944C164.826 17.9813 164.705 17.9673 164.574 17.902C164.444 17.8367 164.364 17.706 164.336 17.51C164.336 17.4353 164.364 17.3747 164.42 17.328C164.476 17.2813 164.542 17.2393 164.616 17.202C164.738 17.146 164.882 17.0993 165.05 17.062C165.218 17.0153 165.386 16.9827 165.554 16.964C165.732 16.9453 165.9 16.9407 166.058 16.95C166.217 16.95 166.348 16.964 166.45 16.992C166.6 17.0387 166.716 17.1087 166.8 17.202C166.894 17.2953 166.931 17.4073 166.912 17.538ZM166.59 22.2C166.656 22.3493 166.688 22.5127 166.688 22.69C166.698 22.858 166.651 22.9747 166.548 23.04C166.418 23.124 166.278 23.1193 166.128 23.026C165.979 22.9327 165.867 22.8067 165.792 22.648C165.69 22.452 165.61 22.214 165.554 21.934C165.498 21.6447 165.456 21.36 165.428 21.08C165.4 20.8 165.382 20.5387 165.372 20.296C165.372 20.0533 165.372 19.8713 165.372 19.75C165.382 19.6193 165.419 19.498 165.484 19.386C165.55 19.274 165.634 19.2087 165.736 19.19C165.904 19.1993 166.04 19.2787 166.142 19.428C166.245 19.568 166.292 19.7453 166.282 19.96C166.282 20.128 166.287 20.3147 166.296 20.52C166.306 20.7253 166.324 20.9307 166.352 21.136C166.38 21.3413 166.413 21.542 166.45 21.738C166.488 21.9247 166.534 22.0787 166.59 22.2ZM170.569 19.064C170.55 18.9613 170.532 18.8633 170.513 18.77C170.494 18.6767 170.448 18.616 170.373 18.588C170.214 18.5413 170.046 18.5367 169.869 18.574C169.692 18.6113 169.528 18.672 169.379 18.756C169.23 18.8307 169.104 18.9193 169.001 19.022C168.898 19.1153 168.842 19.1993 168.833 19.274C168.805 19.414 168.842 19.5493 168.945 19.68C169.048 19.8107 169.197 19.9413 169.393 20.072C169.72 20.268 170.06 20.4687 170.415 20.674C170.77 20.8793 171.068 21.0893 171.311 21.304C171.554 21.5187 171.717 21.7567 171.801 22.018C171.894 22.27 171.876 22.5593 171.745 22.886C171.642 23.138 171.451 23.3433 171.171 23.502C170.891 23.6607 170.583 23.7867 170.247 23.88C169.911 23.964 169.575 24.0247 169.239 24.062C168.903 24.09 168.618 24.104 168.385 24.104C168.329 24.104 168.259 24.0853 168.175 24.048C168.1 24.0013 168.026 23.95 167.951 23.894C167.886 23.838 167.825 23.782 167.769 23.726C167.722 23.6607 167.699 23.6047 167.699 23.558C167.699 23.39 167.774 23.2733 167.923 23.208C168.072 23.1427 168.226 23.11 168.385 23.11C168.609 23.11 168.847 23.1007 169.099 23.082C169.36 23.054 169.608 23.0167 169.841 22.97C170.074 22.914 170.284 22.844 170.471 22.76C170.658 22.676 170.788 22.5687 170.863 22.438C170.928 22.326 170.886 22.1953 170.737 22.046C170.597 21.8873 170.406 21.724 170.163 21.556C169.93 21.388 169.673 21.2247 169.393 21.066C169.122 20.9073 168.889 20.7627 168.693 20.632C168.497 20.5013 168.329 20.3473 168.189 20.17C168.049 19.9833 167.96 19.7547 167.923 19.484C167.914 19.2413 167.965 19.008 168.077 18.784C168.189 18.56 168.334 18.364 168.511 18.196C168.698 18.0187 168.908 17.8787 169.141 17.776C169.374 17.6733 169.608 17.622 169.841 17.622C170.242 17.6407 170.574 17.7527 170.835 17.958C171.096 18.154 171.25 18.448 171.297 18.84C171.297 18.9707 171.274 19.078 171.227 19.162C171.19 19.246 171.12 19.2973 171.017 19.316C170.886 19.3347 170.779 19.3207 170.695 19.274C170.62 19.218 170.578 19.148 170.569 19.064ZM178.971 17.538C178.952 17.6313 178.887 17.6827 178.775 17.692C178.663 17.7013 178.57 17.706 178.495 17.706C178.262 17.7153 178.019 17.7387 177.767 17.776C177.524 17.8133 177.268 17.8693 176.997 17.944C176.885 17.9813 176.764 17.9673 176.633 17.902C176.502 17.8367 176.423 17.706 176.395 17.51C176.395 17.4353 176.423 17.3747 176.479 17.328C176.535 17.2813 176.6 17.2393 176.675 17.202C176.796 17.146 176.941 17.0993 177.109 17.062C177.277 17.0153 177.445 16.9827 177.613 16.964C177.79 16.9453 177.958 16.9407 178.117 16.95C178.276 16.95 178.406 16.964 178.509 16.992C178.658 17.0387 178.775 17.1087 178.859 17.202C178.952 17.2953 178.99 17.4073 178.971 17.538ZM178.649 22.2C178.714 22.3493 178.747 22.5127 178.747 22.69C178.756 22.858 178.71 22.9747 178.607 23.04C178.476 23.124 178.336 23.1193 178.187 23.026C178.038 22.9327 177.926 22.8067 177.851 22.648C177.748 22.452 177.669 22.214 177.613 21.934C177.557 21.6447 177.515 21.36 177.487 21.08C177.459 20.8 177.44 20.5387 177.431 20.296C177.431 20.0533 177.431 19.8713 177.431 19.75C177.44 19.6193 177.478 19.498 177.543 19.386C177.608 19.274 177.692 19.2087 177.795 19.19C177.963 19.1993 178.098 19.2787 178.201 19.428C178.304 19.568 178.35 19.7453 178.341 19.96C178.341 20.128 178.346 20.3147 178.355 20.52C178.364 20.7253 178.383 20.9307 178.411 21.136C178.439 21.3413 178.472 21.542 178.509 21.738C178.546 21.9247 178.593 22.0787 178.649 22.2ZM180.906 18.63C180.934 18.77 180.962 18.9287 180.99 19.106C181.027 19.274 181.064 19.4513 181.102 19.638C181.139 19.8153 181.172 19.9973 181.2 20.184C181.228 20.3707 181.251 20.548 181.27 20.716C181.382 20.4733 181.503 20.2167 181.634 19.946C181.764 19.6753 181.904 19.428 182.054 19.204C182.212 18.9707 182.376 18.7793 182.544 18.63C182.721 18.4807 182.912 18.406 183.118 18.406C183.426 18.406 183.682 18.518 183.888 18.742C184.102 18.966 184.28 19.246 184.42 19.582C184.569 19.9087 184.686 20.254 184.77 20.618C184.854 20.982 184.924 21.304 184.98 21.584C185.036 21.836 184.924 22.0227 184.644 22.144C184.513 22.2093 184.415 22.2187 184.35 22.172C184.284 22.1253 184.247 22.0787 184.238 22.032C184.191 21.92 184.13 21.724 184.056 21.444C183.99 21.164 183.911 20.8793 183.818 20.59C183.734 20.3007 183.636 20.0487 183.524 19.834C183.412 19.6193 183.286 19.5213 183.146 19.54C182.978 19.5493 182.828 19.6753 182.698 19.918C182.586 20.114 182.469 20.3333 182.348 20.576C182.236 20.8093 182.124 21.052 182.012 21.304C181.9 21.5467 181.788 21.794 181.676 22.046C181.573 22.2887 181.475 22.5127 181.382 22.718C181.316 22.7833 181.232 22.83 181.13 22.858C181.036 22.8767 180.938 22.8673 180.836 22.83C180.742 22.802 180.668 22.7553 180.612 22.69C180.556 22.6247 180.528 22.5593 180.528 22.494C180.444 21.766 180.355 21.1033 180.262 20.506C180.178 19.9087 180.066 19.2973 179.926 18.672C179.86 18.4573 179.846 18.2893 179.884 18.168C179.93 18.0373 180.07 17.986 180.304 18.014C180.63 18.07 180.831 18.2753 180.906 18.63ZM194.207 18.84C194.235 19.344 194.263 19.8527 194.291 20.366C194.328 20.8793 194.338 21.388 194.319 21.892C194.3 22.3867 194.249 22.872 194.165 23.348C194.09 23.824 193.96 24.2813 193.773 24.72C193.586 25.1493 193.334 25.5507 193.017 25.924C192.709 26.2973 192.317 26.6333 191.841 26.932C191.766 26.9787 191.682 27.0067 191.589 27.016C191.505 27.0253 191.421 27.0207 191.337 27.002C191.253 26.9927 191.178 26.9693 191.113 26.932C191.048 26.904 191.006 26.862 190.987 26.806C190.959 26.722 190.973 26.6287 191.029 26.526C191.085 26.4233 191.178 26.316 191.309 26.204C191.72 25.896 192.065 25.5693 192.345 25.224C192.625 24.8787 192.849 24.5053 193.017 24.104C193.185 23.7027 193.292 23.2687 193.339 22.802C193.395 22.326 193.395 21.808 193.339 21.248C193.227 21.388 193.096 21.5327 192.947 21.682C192.798 21.8313 192.639 21.9667 192.471 22.088C192.303 22.2 192.13 22.298 191.953 22.382C191.776 22.4567 191.608 22.494 191.449 22.494C191.318 22.494 191.188 22.466 191.057 22.41C190.926 22.354 190.796 22.2467 190.665 22.088C190.516 21.892 190.38 21.6727 190.259 21.43C190.147 21.178 190.049 20.9353 189.965 20.702C189.881 20.4687 189.811 20.2587 189.755 20.072C189.708 19.8853 189.68 19.7547 189.671 19.68C189.652 19.5867 189.652 19.498 189.671 19.414C189.69 19.33 189.75 19.2787 189.853 19.26C189.993 19.232 190.124 19.2413 190.245 19.288C190.366 19.3347 190.45 19.4093 190.497 19.512C190.534 19.6147 190.586 19.7733 190.651 19.988C190.716 20.2027 190.796 20.4173 190.889 20.632C190.982 20.8373 191.08 21.0193 191.183 21.178C191.295 21.3367 191.412 21.416 191.533 21.416C191.673 21.416 191.836 21.346 192.023 21.206C192.219 21.066 192.406 20.884 192.583 20.66C192.76 20.436 192.91 20.1887 193.031 19.918C193.162 19.638 193.227 19.3673 193.227 19.106C193.227 19.05 193.236 18.9847 193.255 18.91C193.274 18.8353 193.302 18.7653 193.339 18.7C193.376 18.6253 193.418 18.5647 193.465 18.518C193.521 18.462 193.577 18.4293 193.633 18.42C193.782 18.4013 193.913 18.4433 194.025 18.546C194.146 18.6393 194.207 18.7373 194.207 18.84ZM198.774 18.364C199.054 18.4667 199.288 18.6207 199.474 18.826C199.67 19.0313 199.82 19.2647 199.922 19.526C200.025 19.778 200.081 20.0393 200.09 20.31C200.109 20.5807 200.081 20.8327 200.006 21.066C199.904 21.3273 199.773 21.584 199.614 21.836C199.456 22.088 199.274 22.312 199.068 22.508C198.863 22.704 198.63 22.8627 198.368 22.984C198.107 23.1053 197.818 23.166 197.5 23.166C197.118 23.166 196.796 23.0773 196.534 22.9C196.273 22.7227 196.068 22.494 195.918 22.214C195.769 21.934 195.671 21.6167 195.624 21.262C195.587 20.9073 195.596 20.5527 195.652 20.198C195.69 19.9367 195.75 19.6847 195.834 19.442C195.928 19.19 196.044 18.9707 196.184 18.784C196.324 18.588 196.483 18.4293 196.66 18.308C196.847 18.1867 197.057 18.126 197.29 18.126C197.421 18.126 197.584 18.154 197.78 18.21C197.976 18.2567 198.158 18.3267 198.326 18.42C198.448 18.308 198.597 18.2893 198.774 18.364ZM198.242 19.386C198.14 19.3207 198.018 19.2367 197.878 19.134C197.748 19.022 197.631 18.966 197.528 18.966C197.416 18.966 197.304 19.0173 197.192 19.12C197.09 19.2227 196.996 19.344 196.912 19.484C196.838 19.6147 196.772 19.75 196.716 19.89C196.66 20.03 196.623 20.142 196.604 20.226C196.576 20.366 196.558 20.534 196.548 20.73C196.539 20.926 196.553 21.122 196.59 21.318C196.628 21.5047 196.698 21.6773 196.8 21.836C196.912 21.9853 197.076 22.0927 197.29 22.158C197.421 22.1953 197.575 22.1953 197.752 22.158C197.93 22.1113 198.102 22.032 198.27 21.92C198.448 21.808 198.611 21.6587 198.76 21.472C198.919 21.2853 199.04 21.0707 199.124 20.828C199.218 20.5573 199.218 20.2773 199.124 19.988C199.04 19.6893 198.863 19.4747 198.592 19.344C198.527 19.3907 198.462 19.414 198.396 19.414C198.331 19.414 198.28 19.4047 198.242 19.386ZM202.419 19.106C202.363 19.358 202.307 19.638 202.251 19.946C202.195 20.2447 202.153 20.534 202.125 20.814C202.106 21.094 202.106 21.346 202.125 21.57C202.153 21.794 202.213 21.9527 202.307 22.046C202.465 22.074 202.647 22.0087 202.853 21.85C203.058 21.682 203.259 21.472 203.455 21.22C203.651 20.968 203.828 20.6973 203.987 20.408C204.145 20.1093 204.257 19.848 204.323 19.624C204.36 19.512 204.393 19.3953 204.421 19.274C204.449 19.1527 204.463 19.0267 204.463 18.896C204.463 18.8213 204.509 18.7513 204.603 18.686C204.705 18.6113 204.789 18.5693 204.855 18.56C204.901 18.5507 204.953 18.56 205.009 18.588C205.074 18.616 205.13 18.658 205.177 18.714C205.233 18.7607 205.279 18.8213 205.317 18.896C205.363 18.9613 205.387 19.0313 205.387 19.106C205.405 19.386 205.433 19.694 205.471 20.03C205.508 20.366 205.55 20.702 205.597 21.038C205.653 21.374 205.709 21.7007 205.765 22.018C205.821 22.3353 205.877 22.62 205.933 22.872C205.961 22.9747 205.933 23.0913 205.849 23.222C205.765 23.3527 205.671 23.432 205.569 23.46C205.485 23.4787 205.396 23.4693 205.303 23.432C205.219 23.3947 205.153 23.32 205.107 23.208C205.06 23.0773 205.013 22.9187 204.967 22.732C204.929 22.536 204.892 22.3353 204.855 22.13C204.827 21.9153 204.799 21.7147 204.771 21.528C204.743 21.332 204.724 21.1687 204.715 21.038C204.575 21.29 204.407 21.5467 204.211 21.808C204.024 22.06 203.819 22.2933 203.595 22.508C203.38 22.7133 203.151 22.8767 202.909 22.998C202.675 23.11 202.433 23.152 202.181 23.124C201.807 23.0773 201.523 22.7273 201.327 22.074C201.252 21.8127 201.215 21.5233 201.215 21.206C201.224 20.8887 201.247 20.576 201.285 20.268C201.331 19.9507 201.383 19.652 201.439 19.372C201.504 19.092 201.56 18.8633 201.607 18.686C201.625 18.6113 201.663 18.546 201.719 18.49C201.775 18.4247 201.84 18.4013 201.915 18.42C202.055 18.448 202.181 18.532 202.293 18.672C202.414 18.812 202.456 18.9567 202.419 19.106ZM211.143 18.42C210.975 18.5133 210.797 18.6113 210.611 18.714C210.433 18.8167 210.251 18.938 210.065 19.078C209.887 19.2087 209.715 19.3673 209.547 19.554C209.388 19.7313 209.243 19.946 209.113 20.198C208.926 20.5527 208.8 20.9167 208.735 21.29C208.669 21.654 208.627 22.0133 208.609 22.368C208.609 22.536 208.567 22.7087 208.483 22.886C208.408 23.054 208.301 23.138 208.161 23.138C207.983 23.138 207.839 23.0493 207.727 22.872C207.624 22.6853 207.554 22.508 207.517 22.34C207.358 21.6773 207.227 21.024 207.125 20.38C207.022 19.7267 206.933 19.078 206.859 18.434C206.859 18.3033 206.896 18.2193 206.971 18.182C207.055 18.1447 207.148 18.1307 207.251 18.14C207.363 18.1493 207.47 18.1773 207.573 18.224C207.675 18.2707 207.736 18.3453 207.755 18.448C207.792 18.7933 207.839 19.1573 207.895 19.54C207.951 19.9133 208.007 20.2353 208.063 20.506C208.1 20.1887 208.203 19.8807 208.371 19.582C208.539 19.2833 208.744 19.0127 208.987 18.77C209.239 18.5273 209.519 18.322 209.827 18.154C210.144 17.986 210.466 17.874 210.793 17.818C210.933 17.7993 211.049 17.7993 211.143 17.818C211.236 17.8367 211.301 17.8693 211.339 17.916C211.376 17.9627 211.381 18.0373 211.353 18.14C211.334 18.2427 211.264 18.336 211.143 18.42ZM219.412 18.07C219.449 18.3313 219.477 18.6113 219.496 18.91C219.524 19.1993 219.543 19.4933 219.552 19.792C219.571 20.0907 219.58 20.38 219.58 20.66C219.58 20.94 219.575 21.192 219.566 21.416C219.865 21.6213 220.042 21.8033 220.098 21.962C220.163 22.1207 220.173 22.2607 220.126 22.382C220.07 22.55 219.967 22.6387 219.818 22.648C219.678 22.648 219.515 22.5967 219.328 22.494C219.197 22.5873 219.048 22.69 218.88 22.802C218.712 22.9047 218.535 23.0073 218.348 23.11C218.161 23.2033 217.975 23.2873 217.788 23.362C217.601 23.4367 217.429 23.488 217.27 23.516C216.971 23.5627 216.701 23.5067 216.458 23.348C216.225 23.1893 216.066 22.9513 215.982 22.634C215.926 22.4193 215.912 22.2 215.94 21.976C215.968 21.7427 216.038 21.5233 216.15 21.318C216.262 21.1033 216.411 20.912 216.598 20.744C216.794 20.576 217.023 20.4453 217.284 20.352C217.349 20.324 217.438 20.3007 217.55 20.282C217.671 20.2633 217.793 20.2587 217.914 20.268C218.045 20.268 218.175 20.2913 218.306 20.338C218.437 20.3847 218.558 20.464 218.67 20.576C218.67 20.4173 218.665 20.2447 218.656 20.058C218.656 19.862 218.651 19.666 218.642 19.47C218.633 19.274 218.619 19.092 218.6 18.924C218.591 18.7467 218.577 18.5973 218.558 18.476C218.539 18.336 218.483 18.252 218.39 18.224C218.306 18.1867 218.199 18.1913 218.068 18.238C217.844 18.3127 217.583 18.4573 217.284 18.672C216.985 18.8867 216.701 19.1153 216.43 19.358C216.346 19.442 216.248 19.4793 216.136 19.47C216.033 19.4607 215.945 19.4187 215.87 19.344C215.795 19.2693 215.753 19.1853 215.744 19.092C215.735 18.9893 215.772 18.882 215.856 18.77C216.015 18.602 216.192 18.4293 216.388 18.252C216.584 18.0747 216.789 17.916 217.004 17.776C217.219 17.6267 217.438 17.5053 217.662 17.412C217.886 17.3187 218.11 17.2673 218.334 17.258C218.661 17.2487 218.913 17.3233 219.09 17.482C219.267 17.6313 219.375 17.8273 219.412 18.07ZM217.788 21.08C217.667 21.108 217.536 21.1687 217.396 21.262C217.265 21.346 217.144 21.4533 217.032 21.584C216.929 21.7053 216.85 21.8453 216.794 22.004C216.747 22.1533 216.747 22.3027 216.794 22.452C216.813 22.508 216.85 22.55 216.906 22.578C216.971 22.606 217.041 22.6107 217.116 22.592C217.34 22.5453 217.592 22.4567 217.872 22.326C218.161 22.186 218.39 22.0367 218.558 21.878C218.558 21.822 218.53 21.752 218.474 21.668C218.418 21.5747 218.353 21.486 218.278 21.402C218.203 21.3087 218.119 21.2293 218.026 21.164C217.942 21.0987 217.863 21.0707 217.788 21.08ZM223.323 24.776C223.314 24.8787 223.267 24.972 223.183 25.056C223.099 25.1493 223.006 25.1913 222.903 25.182C222.744 25.1727 222.623 25.112 222.539 25C222.455 24.888 222.413 24.7947 222.413 24.72C222.413 24.3653 222.404 23.9967 222.385 23.614C222.366 23.222 222.343 22.8207 222.315 22.41C222.194 22.4287 222.082 22.4193 221.979 22.382C221.886 22.3353 221.82 22.2653 221.783 22.172C221.718 22.0133 221.727 21.8733 221.811 21.752C221.895 21.6307 222.03 21.514 222.217 21.402C222.17 21.0567 222.124 20.716 222.077 20.38C222.04 20.044 221.998 19.7173 221.951 19.4C221.942 19.344 221.946 19.2927 221.965 19.246C221.984 19.1993 222.007 19.1573 222.035 19.12C222.063 19.0733 222.114 19.0313 222.189 18.994C222.31 18.9473 222.446 18.9847 222.595 19.106C222.754 19.2273 222.861 19.3813 222.917 19.568C222.945 19.7453 222.973 19.9507 223.001 20.184C223.038 20.408 223.071 20.6553 223.099 20.926C223.295 20.8047 223.477 20.674 223.645 20.534C223.822 20.394 223.972 20.2447 224.093 20.086C224.224 19.9273 224.322 19.764 224.387 19.596C224.452 19.4187 224.471 19.2367 224.443 19.05C224.424 18.8913 224.354 18.7513 224.233 18.63C224.112 18.4993 223.92 18.4293 223.659 18.42C223.426 18.4107 223.192 18.4293 222.959 18.476C222.735 18.5227 222.511 18.5833 222.287 18.658C222.072 18.7327 221.858 18.8213 221.643 18.924C221.438 19.0267 221.237 19.1293 221.041 19.232C220.91 19.3067 220.78 19.3393 220.649 19.33C220.528 19.3113 220.448 19.2647 220.411 19.19C220.327 19.0033 220.332 18.8353 220.425 18.686C220.528 18.5367 220.682 18.3967 220.887 18.266C221.064 18.1633 221.274 18.0607 221.517 17.958C221.769 17.846 222.03 17.7527 222.301 17.678C222.581 17.594 222.861 17.538 223.141 17.51C223.43 17.4727 223.706 17.4773 223.967 17.524C224.228 17.5613 224.462 17.65 224.667 17.79C224.882 17.9207 225.054 18.1167 225.185 18.378C225.344 18.8073 225.386 19.204 225.311 19.568C225.246 19.9227 225.106 20.2493 224.891 20.548C224.686 20.8373 224.429 21.1033 224.121 21.346C223.822 21.5793 223.519 21.7893 223.211 21.976C223.258 22.48 223.29 22.9793 223.309 23.474C223.328 23.9687 223.332 24.4027 223.323 24.776ZM228.669 24.776C228.66 24.8787 228.613 24.972 228.529 25.056C228.445 25.1493 228.352 25.1913 228.249 25.182C228.09 25.1727 227.969 25.112 227.885 25C227.801 24.888 227.759 24.7947 227.759 24.72C227.759 24.3653 227.75 23.9967 227.731 23.614C227.712 23.222 227.689 22.8207 227.661 22.41C227.54 22.4287 227.428 22.4193 227.325 22.382C227.232 22.3353 227.166 22.2653 227.129 22.172C227.064 22.0133 227.073 21.8733 227.157 21.752C227.241 21.6307 227.376 21.514 227.563 21.402C227.516 21.0567 227.47 20.716 227.423 20.38C227.386 20.044 227.344 19.7173 227.297 19.4C227.288 19.344 227.292 19.2927 227.311 19.246C227.33 19.1993 227.353 19.1573 227.381 19.12C227.409 19.0733 227.46 19.0313 227.535 18.994C227.656 18.9473 227.792 18.9847 227.941 19.106C228.1 19.2273 228.207 19.3813 228.263 19.568C228.291 19.7453 228.319 19.9507 228.347 20.184C228.384 20.408 228.417 20.6553 228.445 20.926C228.641 20.8047 228.823 20.674 228.991 20.534C229.168 20.394 229.318 20.2447 229.439 20.086C229.57 19.9273 229.668 19.764 229.733 19.596C229.798 19.4187 229.817 19.2367 229.789 19.05C229.77 18.8913 229.7 18.7513 229.579 18.63C229.458 18.4993 229.266 18.4293 229.005 18.42C228.772 18.4107 228.538 18.4293 228.305 18.476C228.081 18.5227 227.857 18.5833 227.633 18.658C227.418 18.7327 227.204 18.8213 226.989 18.924C226.784 19.0267 226.583 19.1293 226.387 19.232C226.256 19.3067 226.126 19.3393 225.995 19.33C225.874 19.3113 225.794 19.2647 225.757 19.19C225.673 19.0033 225.678 18.8353 225.771 18.686C225.874 18.5367 226.028 18.3967 226.233 18.266C226.41 18.1633 226.62 18.0607 226.863 17.958C227.115 17.846 227.376 17.7527 227.647 17.678C227.927 17.594 228.207 17.538 228.487 17.51C228.776 17.4727 229.052 17.4773 229.313 17.524C229.574 17.5613 229.808 17.65 230.013 17.79C230.228 17.9207 230.4 18.1167 230.531 18.378C230.69 18.8073 230.732 19.204 230.657 19.568C230.592 19.9227 230.452 20.2493 230.237 20.548C230.032 20.8373 229.775 21.1033 229.467 21.346C229.168 21.5793 228.865 21.7893 228.557 21.976C228.604 22.48 228.636 22.9793 228.655 23.474C228.674 23.9687 228.678 24.4027 228.669 24.776ZM232.811 16.698C232.857 17.7153 232.937 18.77 233.049 19.862C233.161 20.9447 233.282 21.9807 233.413 22.97C233.441 23.3807 233.329 23.5907 233.077 23.6C233.021 23.6 232.965 23.5813 232.909 23.544C232.853 23.4973 232.801 23.4413 232.755 23.376C232.708 23.3107 232.661 23.2407 232.615 23.166C232.577 23.0913 232.554 23.026 232.545 22.97C232.47 22.494 232.4 21.99 232.335 21.458C232.269 20.926 232.209 20.394 232.153 19.862C232.106 19.3207 232.064 18.7933 232.027 18.28C231.989 17.7667 231.966 17.2953 231.957 16.866C231.975 16.642 232.008 16.4553 232.055 16.306C232.101 16.1473 232.199 16.0727 232.349 16.082C232.507 16.0913 232.619 16.1567 232.685 16.278C232.759 16.39 232.801 16.53 232.811 16.698ZM236.912 17.538C236.894 17.6313 236.828 17.6827 236.716 17.692C236.604 17.7013 236.511 17.706 236.436 17.706C236.203 17.7153 235.96 17.7387 235.708 17.776C235.466 17.8133 235.209 17.8693 234.938 17.944C234.826 17.9813 234.705 17.9673 234.574 17.902C234.444 17.8367 234.364 17.706 234.336 17.51C234.336 17.4353 234.364 17.3747 234.42 17.328C234.476 17.2813 234.542 17.2393 234.616 17.202C234.738 17.146 234.882 17.0993 235.05 17.062C235.218 17.0153 235.386 16.9827 235.554 16.964C235.732 16.9453 235.9 16.9407 236.058 16.95C236.217 16.95 236.348 16.964 236.45 16.992C236.6 17.0387 236.716 17.1087 236.8 17.202C236.894 17.2953 236.931 17.4073 236.912 17.538ZM236.59 22.2C236.656 22.3493 236.688 22.5127 236.688 22.69C236.698 22.858 236.651 22.9747 236.548 23.04C236.418 23.124 236.278 23.1193 236.128 23.026C235.979 22.9327 235.867 22.8067 235.792 22.648C235.69 22.452 235.61 22.214 235.554 21.934C235.498 21.6447 235.456 21.36 235.428 21.08C235.4 20.8 235.382 20.5387 235.372 20.296C235.372 20.0533 235.372 19.8713 235.372 19.75C235.382 19.6193 235.419 19.498 235.484 19.386C235.55 19.274 235.634 19.2087 235.736 19.19C235.904 19.1993 236.04 19.2787 236.142 19.428C236.245 19.568 236.292 19.7453 236.282 19.96C236.282 20.128 236.287 20.3147 236.296 20.52C236.306 20.7253 236.324 20.9307 236.352 21.136C236.38 21.3413 236.413 21.542 236.45 21.738C236.488 21.9247 236.534 22.0787 236.59 22.2ZM241.171 19.652C241.106 19.6893 241.026 19.7033 240.933 19.694C240.84 19.6753 240.76 19.6147 240.695 19.512C240.546 19.316 240.364 19.218 240.149 19.218C239.953 19.218 239.776 19.2647 239.617 19.358C239.468 19.442 239.332 19.5587 239.211 19.708C239.099 19.848 239.006 20.0067 238.931 20.184C238.856 20.3613 238.805 20.5387 238.777 20.716C238.73 21.0427 238.786 21.318 238.945 21.542C239.104 21.766 239.351 21.878 239.687 21.878C239.958 21.8873 240.261 21.836 240.597 21.724C240.942 21.6027 241.264 21.4487 241.563 21.262C241.694 21.206 241.815 21.1733 241.927 21.164C242.039 21.1547 242.132 21.2107 242.207 21.332C242.3 21.4813 242.277 21.6353 242.137 21.794C241.997 21.9433 241.81 22.0787 241.577 22.2C241.344 22.3307 241.096 22.4473 240.835 22.55C240.583 22.6433 240.326 22.7133 240.065 22.76C239.804 22.7973 239.542 22.7973 239.281 22.76C239.029 22.7227 238.791 22.634 238.567 22.494C238.212 22.2513 237.998 21.906 237.923 21.458C237.848 21.01 237.881 20.548 238.021 20.072C238.077 19.8947 238.156 19.7173 238.259 19.54C238.362 19.3533 238.483 19.1853 238.623 19.036C238.772 18.8867 238.936 18.7607 239.113 18.658C239.29 18.546 239.486 18.4713 239.701 18.434C240.046 18.378 240.378 18.4153 240.695 18.546C241.012 18.6673 241.222 18.896 241.325 19.232C241.344 19.3067 241.344 19.386 241.325 19.47C241.306 19.5447 241.255 19.6053 241.171 19.652ZM246.523 18.07C246.561 18.3313 246.589 18.6113 246.607 18.91C246.635 19.1993 246.654 19.4933 246.663 19.792C246.682 20.0907 246.691 20.38 246.691 20.66C246.691 20.94 246.687 21.192 246.677 21.416C246.976 21.6213 247.153 21.8033 247.209 21.962C247.275 22.1207 247.284 22.2607 247.237 22.382C247.181 22.55 247.079 22.6387 246.929 22.648C246.789 22.648 246.626 22.5967 246.439 22.494C246.309 22.5873 246.159 22.69 245.991 22.802C245.823 22.9047 245.646 23.0073 245.459 23.11C245.273 23.2033 245.086 23.2873 244.899 23.362C244.713 23.4367 244.54 23.488 244.381 23.516C244.083 23.5627 243.812 23.5067 243.569 23.348C243.336 23.1893 243.177 22.9513 243.093 22.634C243.037 22.4193 243.023 22.2 243.051 21.976C243.079 21.7427 243.149 21.5233 243.261 21.318C243.373 21.1033 243.523 20.912 243.709 20.744C243.905 20.576 244.134 20.4453 244.395 20.352C244.461 20.324 244.549 20.3007 244.661 20.282C244.783 20.2633 244.904 20.2587 245.025 20.268C245.156 20.268 245.287 20.2913 245.417 20.338C245.548 20.3847 245.669 20.464 245.781 20.576C245.781 20.4173 245.777 20.2447 245.767 20.058C245.767 19.862 245.763 19.666 245.753 19.47C245.744 19.274 245.73 19.092 245.711 18.924C245.702 18.7467 245.688 18.5973 245.669 18.476C245.651 18.336 245.595 18.252 245.501 18.224C245.417 18.1867 245.31 18.1913 245.179 18.238C244.955 18.3127 244.694 18.4573 244.395 18.672C244.097 18.8867 243.812 19.1153 243.541 19.358C243.457 19.442 243.359 19.4793 243.247 19.47C243.145 19.4607 243.056 19.4187 242.981 19.344C242.907 19.2693 242.865 19.1853 242.855 19.092C242.846 18.9893 242.883 18.882 242.967 18.77C243.126 18.602 243.303 18.4293 243.499 18.252C243.695 18.0747 243.901 17.916 244.115 17.776C244.33 17.6267 244.549 17.5053 244.773 17.412C244.997 17.3187 245.221 17.2673 245.445 17.258C245.772 17.2487 246.024 17.3233 246.201 17.482C246.379 17.6313 246.486 17.8273 246.523 18.07ZM244.899 21.08C244.778 21.108 244.647 21.1687 244.507 21.262C244.377 21.346 244.255 21.4533 244.143 21.584C244.041 21.7053 243.961 21.8453 243.905 22.004C243.859 22.1533 243.859 22.3027 243.905 22.452C243.924 22.508 243.961 22.55 244.017 22.578C244.083 22.606 244.153 22.6107 244.227 22.592C244.451 22.5453 244.703 22.4567 244.983 22.326C245.273 22.186 245.501 22.0367 245.669 21.878C245.669 21.822 245.641 21.752 245.585 21.668C245.529 21.5747 245.464 21.486 245.389 21.402C245.315 21.3087 245.231 21.2293 245.137 21.164C245.053 21.0987 244.974 21.0707 244.899 21.08ZM251.232 19.498C251.41 19.4887 251.587 19.5307 251.764 19.624C251.942 19.7173 252.03 19.862 252.03 20.058C252.012 20.2167 251.923 20.3193 251.764 20.366C251.615 20.4033 251.494 20.422 251.4 20.422C251.214 20.422 251.013 20.4267 250.798 20.436C250.584 20.4453 250.364 20.4593 250.14 20.478C250.122 20.786 250.103 21.0753 250.084 21.346C250.075 21.6167 250.066 21.8593 250.056 22.074C250.047 22.2793 250.042 22.4473 250.042 22.578C250.042 22.7087 250.047 22.7787 250.056 22.788C250.262 22.7507 250.481 22.69 250.714 22.606C250.957 22.5127 251.195 22.4147 251.428 22.312C251.671 22.2 251.904 22.088 252.128 21.976C252.362 21.8547 252.581 21.7427 252.786 21.64C252.88 21.5933 252.964 21.5793 253.038 21.598C253.122 21.6167 253.174 21.6587 253.192 21.724C253.211 21.8267 253.197 21.9527 253.15 22.102C253.104 22.2513 253.02 22.3867 252.898 22.508C252.758 22.62 252.572 22.7507 252.338 22.9C252.114 23.04 251.872 23.1753 251.61 23.306C251.349 23.4367 251.083 23.5533 250.812 23.656C250.551 23.7493 250.318 23.8053 250.112 23.824C249.804 23.852 249.571 23.768 249.412 23.572C249.254 23.376 249.165 23.1287 249.146 22.83C249.128 22.5313 249.123 22.186 249.132 21.794C249.151 21.402 249.17 20.9867 249.188 20.548C249.011 20.5667 248.838 20.5853 248.67 20.604C248.512 20.6133 248.358 20.6273 248.208 20.646C248.087 20.646 247.952 20.618 247.802 20.562C247.662 20.506 247.592 20.3987 247.592 20.24C247.592 20.184 247.616 20.1093 247.662 20.016C247.709 19.9227 247.812 19.8527 247.97 19.806C248.353 19.7407 248.778 19.6847 249.244 19.638C249.272 19.1993 249.305 18.7747 249.342 18.364C249.38 17.9533 249.412 17.58 249.44 17.244C249.45 17.132 249.482 17.034 249.538 16.95C249.594 16.866 249.655 16.824 249.72 16.824C249.879 16.8147 250.028 16.8567 250.168 16.95C250.318 17.034 250.392 17.132 250.392 17.244C250.355 17.5613 250.318 17.9207 250.28 18.322C250.252 18.7233 250.224 19.134 250.196 19.554C250.383 19.5353 250.56 19.526 250.728 19.526C250.906 19.5167 251.074 19.5073 251.232 19.498ZM256.121 17.538C256.103 17.6313 256.037 17.6827 255.925 17.692C255.813 17.7013 255.72 17.706 255.645 17.706C255.412 17.7153 255.169 17.7387 254.917 17.776C254.675 17.8133 254.418 17.8693 254.147 17.944C254.035 17.9813 253.914 17.9673 253.783 17.902C253.653 17.8367 253.573 17.706 253.545 17.51C253.545 17.4353 253.573 17.3747 253.629 17.328C253.685 17.2813 253.751 17.2393 253.825 17.202C253.947 17.146 254.091 17.0993 254.259 17.062C254.427 17.0153 254.595 16.9827 254.763 16.964C254.941 16.9453 255.109 16.9407 255.267 16.95C255.426 16.95 255.557 16.964 255.659 16.992C255.809 17.0387 255.925 17.1087 256.009 17.202C256.103 17.2953 256.14 17.4073 256.121 17.538ZM255.799 22.2C255.865 22.3493 255.897 22.5127 255.897 22.69C255.907 22.858 255.86 22.9747 255.757 23.04C255.627 23.124 255.487 23.1193 255.337 23.026C255.188 22.9327 255.076 22.8067 255.001 22.648C254.899 22.452 254.819 22.214 254.763 21.934C254.707 21.6447 254.665 21.36 254.637 21.08C254.609 20.8 254.591 20.5387 254.581 20.296C254.581 20.0533 254.581 19.8713 254.581 19.75C254.591 19.6193 254.628 19.498 254.693 19.386C254.759 19.274 254.843 19.2087 254.945 19.19C255.113 19.1993 255.249 19.2787 255.351 19.428C255.454 19.568 255.501 19.7453 255.491 19.96C255.491 20.128 255.496 20.3147 255.505 20.52C255.515 20.7253 255.533 20.9307 255.561 21.136C255.589 21.3413 255.622 21.542 255.659 21.738C255.697 21.9247 255.743 22.0787 255.799 22.2ZM260.38 18.364C260.66 18.4667 260.893 18.6207 261.08 18.826C261.276 19.0313 261.425 19.2647 261.528 19.526C261.631 19.778 261.687 20.0393 261.696 20.31C261.715 20.5807 261.687 20.8327 261.612 21.066C261.509 21.3273 261.379 21.584 261.22 21.836C261.061 22.088 260.879 22.312 260.674 22.508C260.469 22.704 260.235 22.8627 259.974 22.984C259.713 23.1053 259.423 23.166 259.106 23.166C258.723 23.166 258.401 23.0773 258.14 22.9C257.879 22.7227 257.673 22.494 257.524 22.214C257.375 21.934 257.277 21.6167 257.23 21.262C257.193 20.9073 257.202 20.5527 257.258 20.198C257.295 19.9367 257.356 19.6847 257.44 19.442C257.533 19.19 257.65 18.9707 257.79 18.784C257.93 18.588 258.089 18.4293 258.266 18.308C258.453 18.1867 258.663 18.126 258.896 18.126C259.027 18.126 259.19 18.154 259.386 18.21C259.582 18.2567 259.764 18.3267 259.932 18.42C260.053 18.308 260.203 18.2893 260.38 18.364ZM259.848 19.386C259.745 19.3207 259.624 19.2367 259.484 19.134C259.353 19.022 259.237 18.966 259.134 18.966C259.022 18.966 258.91 19.0173 258.798 19.12C258.695 19.2227 258.602 19.344 258.518 19.484C258.443 19.6147 258.378 19.75 258.322 19.89C258.266 20.03 258.229 20.142 258.21 20.226C258.182 20.366 258.163 20.534 258.154 20.73C258.145 20.926 258.159 21.122 258.196 21.318C258.233 21.5047 258.303 21.6773 258.406 21.836C258.518 21.9853 258.681 22.0927 258.896 22.158C259.027 22.1953 259.181 22.1953 259.358 22.158C259.535 22.1113 259.708 22.032 259.876 21.92C260.053 21.808 260.217 21.6587 260.366 21.472C260.525 21.2853 260.646 21.0707 260.73 20.828C260.823 20.5573 260.823 20.2773 260.73 19.988C260.646 19.6893 260.469 19.4747 260.198 19.344C260.133 19.3907 260.067 19.414 260.002 19.414C259.937 19.414 259.885 19.4047 259.848 19.386ZM263.716 18.63C263.744 18.77 263.772 18.9287 263.8 19.106C263.837 19.274 263.875 19.4513 263.912 19.638C263.949 19.8153 263.982 19.9973 264.01 20.184C264.038 20.3707 264.061 20.548 264.08 20.716C264.192 20.4733 264.313 20.2167 264.444 19.946C264.575 19.6753 264.715 19.428 264.864 19.204C265.023 18.9707 265.186 18.7793 265.354 18.63C265.531 18.4807 265.723 18.406 265.928 18.406C266.236 18.406 266.493 18.518 266.698 18.742C266.913 18.966 267.09 19.246 267.23 19.582C267.379 19.9087 267.496 20.254 267.58 20.618C267.664 20.982 267.734 21.304 267.79 21.584C267.846 21.836 267.734 22.0227 267.454 22.144C267.323 22.2093 267.225 22.2187 267.16 22.172C267.095 22.1253 267.057 22.0787 267.048 22.032C267.001 21.92 266.941 21.724 266.866 21.444C266.801 21.164 266.721 20.8793 266.628 20.59C266.544 20.3007 266.446 20.0487 266.334 19.834C266.222 19.6193 266.096 19.5213 265.956 19.54C265.788 19.5493 265.639 19.6753 265.508 19.918C265.396 20.114 265.279 20.3333 265.158 20.576C265.046 20.8093 264.934 21.052 264.822 21.304C264.71 21.5467 264.598 21.794 264.486 22.046C264.383 22.2887 264.285 22.5127 264.192 22.718C264.127 22.7833 264.043 22.83 263.94 22.858C263.847 22.8767 263.749 22.8673 263.646 22.83C263.553 22.802 263.478 22.7553 263.422 22.69C263.366 22.6247 263.338 22.5593 263.338 22.494C263.254 21.766 263.165 21.1033 263.072 20.506C262.988 19.9087 262.876 19.2973 262.736 18.672C262.671 18.4573 262.657 18.2893 262.694 18.168C262.741 18.0373 262.881 17.986 263.114 18.014C263.441 18.07 263.641 18.2753 263.716 18.63Z" fill="#525866"/>
  </g>
  <path d="M257.773 33.7932C259.912 38.9372 268.371 55.1813 277.135 48.9207C279.617 47.1475 281.427 41.3982 277.829 39.5515C273.032 37.0889 271.333 44.7806 272.793 47.8469C276.638 55.9248 288.543 56.7525 295.793 53.9402C301.881 51.5785 306.414 46.2069 309.74 40.7955C311.301 38.2571 311.512 35.4148 312.876 32.8842C314.987 28.9695 314.177 35.202 314.769 37.5616C315.978 42.3831 313.773 34.6138 313.365 32.9491C312.694 30.2024 306.503 33.5659 303.969 34.4419" stroke="#99A0AE" stroke-width="1.5" stroke-linecap="round"/>
  <defs>
    <clipPath id="clip0_8961_195362">
      <rect width="191" height="18" fill="white" transform="translate(93 12)"/>
    </clipPath>
  </defs>
</svg>
