<svg xmlns="http://www.w3.org/2000/svg" width="54" height="20" fill="none"><path fill="url(#a)" d="M25.029 10.46c0 .841-.468 1.44-1.453 1.44-1.044 0-1.476-.564-1.476-1.404V5.358h-2.125v5.065c0 2.005 1.199 3.18 3.6 3.18 2.387 0 3.575-1.199 3.575-3.18V5.361h-2.125v5.1h.004Z"/><path fill="url(#b)" d="M25.029 10.46c0 .841-.468 1.44-1.453 1.44-1.044 0-1.476-.564-1.476-1.404V5.358h-2.125v5.065c0 2.005 1.199 3.18 3.6 3.18 2.387 0 3.575-1.199 3.575-3.18V5.361h-2.125v5.1h.004Z"/><path fill="url(#c)" d="M31.974 7.125c-.852 0-1.44.36-1.896 1.02h-.037v-.84h-1.885v6.143h1.957v-3.394c0-.756.432-1.295 1.08-1.295.635 0 .96.443.96 1.092v3.6h1.957V9.452c0-1.367-.793-2.328-2.136-2.328Z"/><path fill="url(#d)" d="M31.974 7.125c-.852 0-1.44.36-1.896 1.02h-.037v-.84h-1.885v6.143h1.957v-3.394c0-.756.432-1.295 1.08-1.295.635 0 .96.443.96 1.092v3.6h1.957V9.452c0-1.367-.793-2.328-2.136-2.328Z"/><path fill="url(#e)" d="M37.066 4.87H35.11v1.585h1.957V4.869Z"/><path fill="url(#f)" d="M37.066 4.87H35.11v1.585h1.957V4.869Z"/><path fill="url(#g)" d="M37.066 7.305H35.11v6.144h1.957V7.305Z"/><path fill="url(#h)" d="M37.066 7.305H35.11v6.144h1.957V7.305Z"/><path fill="url(#i)" d="M40.516 5.36h-1.909v1.944h-.816V8.89h.816v2.94c0 1.319.817 1.692 1.957 1.692.529 0 .9-.048 1.068-.096v-1.428c-.072 0-.264.012-.432.012-.42 0-.684-.12-.684-.6V8.89h1.116V7.304h-1.116V5.36Z"/><path fill="url(#j)" d="M40.516 5.36h-1.909v1.944h-.816V8.89h.816v2.94c0 1.319.817 1.692 1.957 1.692.529 0 .9-.048 1.068-.096v-1.428c-.072 0-.264.012-.432.012-.42 0-.684-.12-.684-.6V8.89h1.116V7.304h-1.116V5.36Z"/><path fill="url(#k)" d="M45.798 9.921c-.192.6-.36 1.416-.36 1.416h-.024s-.192-.817-.385-1.416l-.827-2.616h-2.064l1.812 4.728c.252.649.372 1.01.372 1.272 0 .419-.228.648-.804.648h-.673v1.524h1.272c1.236 0 1.824-.504 2.315-1.944l2.125-6.228H46.6l-.802 2.616Z"/><path fill="url(#l)" d="M45.798 9.921c-.192.6-.36 1.416-.36 1.416h-.024s-.192-.817-.385-1.416l-.827-2.616h-2.064l1.812 4.728c.252.649.372 1.01.372 1.272 0 .419-.228.648-.804.648h-.673v1.524h1.272c1.236 0 1.824-.504 2.315-1.944l2.125-6.228H46.6l-.802 2.616Z"/><path fill="url(#m)" d="m8.612 3.899 2.827 1.632c.101.057.105.216 0 .273l-3.36 1.94a.312.312 0 0 1-.316 0l-3.359-1.94c-.103-.056-.105-.218 0-.274L7.23 3.9V.704L.016 4.87v8.33l2.766-1.597V8.34c-.002-.116.135-.2.236-.136l3.36 1.94a.316.316 0 0 1 .158.273v3.879c.002.116-.134.2-.236.136L3.473 12.8.707 14.396l7.213 4.165 7.214-4.165-2.766-1.596-2.828 1.632c-.1.06-.24-.02-.236-.137v-3.879a.316.316 0 0 1 .159-.273l3.36-1.94c.1-.061.24.016.236.136v3.263l2.766 1.597v-8.33L8.612.704V3.9Z"/><path fill="url(#n)" d="m8.612 3.899 2.827 1.632c.101.057.105.216 0 .273l-3.36 1.94a.312.312 0 0 1-.316 0l-3.359-1.94c-.103-.056-.105-.218 0-.274L7.23 3.9V.704L.016 4.87v8.33l2.766-1.597V8.34c-.002-.116.135-.2.236-.136l3.36 1.94a.316.316 0 0 1 .158.273v3.879c.002.116-.134.2-.236.136L3.473 12.8.707 14.396l7.213 4.165 7.214-4.165-2.766-1.596-2.828 1.632c-.1.06-.24-.02-.236-.137v-3.879a.316.316 0 0 1 .159-.273l3.36-1.94c.1-.061.24.016.236.136v3.263l2.766 1.597v-8.33L8.612.704V3.9Z"/><path fill="url(#o)" d="M52.762 8.26a1.57 1.57 0 0 0-2.89 0c-.081.19-.122.392-.122.61 0 .216.04.42.122.61.081.19.192.356.336.498.144.143.31.256.5.337.19.081.39.122.609.122a1.543 1.543 0 0 0 1.109-.458 1.59 1.59 0 0 0 .336-.5c.081-.19.122-.391.122-.609 0-.216-.04-.42-.122-.61Zm-.416 1.208a1.216 1.216 0 0 1-.43.431c-.182.108-.39.163-.6.16a1.145 1.145 0 0 1-.6-.16 1.23 1.23 0 0 1-.43-.43 1.149 1.149 0 0 1-.16-.599c0-.22.053-.42.16-.599.105-.177.253-.326.43-.43a1.15 1.15 0 0 1 .6-.161c.21-.002.418.053.6.16.177.106.325.254.43.431.107.18.16.38.16.599.003.21-.052.418-.16.598Z"/><path fill="url(#p)" d="M52.762 8.26a1.57 1.57 0 0 0-2.89 0c-.081.19-.122.392-.122.61 0 .216.04.42.122.61.081.19.192.356.336.498.144.143.31.256.5.337.19.081.39.122.609.122a1.543 1.543 0 0 0 1.109-.458 1.59 1.59 0 0 0 .336-.5c.081-.19.122-.391.122-.609 0-.216-.04-.42-.122-.61Zm-.416 1.208a1.216 1.216 0 0 1-.43.431c-.182.108-.39.163-.6.16a1.145 1.145 0 0 1-.6-.16 1.23 1.23 0 0 1-.43-.43 1.149 1.149 0 0 1-.16-.599c0-.22.053-.42.16-.599.105-.177.253-.326.43-.43a1.15 1.15 0 0 1 .6-.161c.21-.002.418.053.6.16.177.106.325.254.43.431.107.18.16.38.16.599.003.21-.052.418-.16.598Z"/><path fill="url(#q)" d="M51.863 8.86a.456.456 0 0 0 .078-.27.427.427 0 0 0-.074-.258.47.47 0 0 0-.37-.203h-.731v1.445h.318v-.49h.314l.253.49H52l-.298-.564a.475.475 0 0 0 .161-.15Zm-.347-.075c-.05.042-.096.064-.14.064h-.294v-.486h.3c.04 0 .082.015.134.048.05.032.076.093.076.18s-.024.15-.076.194Z"/><path fill="url(#r)" d="M51.863 8.86a.456.456 0 0 0 .078-.27.427.427 0 0 0-.074-.258.47.47 0 0 0-.37-.203h-.731v1.445h.318v-.49h.314l.253.49H52l-.298-.564a.475.475 0 0 0 .161-.15Zm-.347-.075c-.05.042-.096.064-.14.064h-.294v-.486h.3c.04 0 .082.015.134.048.05.032.076.093.076.18s-.024.15-.076.194Z"/><defs><linearGradient id="a" x1="23.562" x2="23.562" y1="5.359" y2="13.604" gradientUnits="userSpaceOnUse"><stop stop-color="#0D0D0D"/><stop offset="1" stop-color="#1A1A1A" stop-opacity=".8"/></linearGradient><linearGradient id="b" x1="23.562" x2="23.562" y1="5.359" y2="13.604" gradientUnits="userSpaceOnUse"><stop stop-color="#0D0D0D"/><stop offset="1" stop-color="#1A1A1A" stop-opacity=".8"/></linearGradient><linearGradient id="c" x1="31.134" x2="31.134" y1="7.125" y2="13.45" gradientUnits="userSpaceOnUse"><stop stop-color="#fff"/><stop offset="1" stop-color="#fff" stop-opacity=".8"/></linearGradient><linearGradient id="d" x1="31.133" x2="31.133" y1="7.125" y2="13.45" gradientUnits="userSpaceOnUse"><stop stop-color="#0D0D0D"/><stop offset="1" stop-color="#1A1A1A" stop-opacity=".8"/></linearGradient><linearGradient id="e" x1="36.088" x2="36.088" y1="4.869" y2="6.455" gradientUnits="userSpaceOnUse"><stop stop-color="#fff"/><stop offset="1" stop-color="#fff" stop-opacity=".8"/></linearGradient><linearGradient id="f" x1="36.088" x2="36.088" y1="4.869" y2="6.455" gradientUnits="userSpaceOnUse"><stop stop-color="#0D0D0D"/><stop offset="1" stop-color="#1A1A1A" stop-opacity=".8"/></linearGradient><linearGradient id="g" x1="36.088" x2="36.088" y1="7.305" y2="13.449" gradientUnits="userSpaceOnUse"><stop stop-color="#fff"/><stop offset="1" stop-color="#fff" stop-opacity=".8"/></linearGradient><linearGradient id="h" x1="36.088" x2="36.088" y1="7.305" y2="13.449" gradientUnits="userSpaceOnUse"><stop stop-color="#0D0D0D"/><stop offset="1" stop-color="#1A1A1A" stop-opacity=".8"/></linearGradient><linearGradient id="i" x1="39.711" x2="39.711" y1="5.36" y2="13.522" gradientUnits="userSpaceOnUse"><stop stop-color="#fff"/><stop offset="1" stop-color="#fff" stop-opacity=".8"/></linearGradient><linearGradient id="j" x1="39.712" x2="39.712" y1="5.361" y2="13.522" gradientUnits="userSpaceOnUse"><stop stop-color="#0D0D0D"/><stop offset="1" stop-color="#1A1A1A" stop-opacity=".8"/></linearGradient><linearGradient id="k" x1="45.347" x2="45.347" y1="7.305" y2="15.477" gradientUnits="userSpaceOnUse"><stop stop-color="#fff"/><stop offset="1" stop-color="#fff" stop-opacity=".8"/></linearGradient><linearGradient id="l" x1="45.347" x2="45.347" y1="7.305" y2="15.478" gradientUnits="userSpaceOnUse"><stop stop-color="#0D0D0D"/><stop offset="1" stop-color="#1A1A1A" stop-opacity=".8"/></linearGradient><linearGradient id="m" x1="7.92" x2="7.92" y1=".704" y2="18.561" gradientUnits="userSpaceOnUse"><stop stop-color="#fff"/><stop offset="1" stop-color="#fff" stop-opacity=".8"/></linearGradient><linearGradient id="n" x1="7.92" x2="7.92" y1=".705" y2="18.562" gradientUnits="userSpaceOnUse"><stop stop-color="#0D0D0D"/><stop offset="1" stop-color="#1A1A1A" stop-opacity=".8"/></linearGradient><linearGradient id="o" x1="51.317" x2="51.317" y1="7.303" y2="10.437" gradientUnits="userSpaceOnUse"><stop stop-color="#fff"/><stop offset="1" stop-color="#fff" stop-opacity=".8"/></linearGradient><linearGradient id="p" x1="51.317" x2="51.317" y1="7.303" y2="10.437" gradientUnits="userSpaceOnUse"><stop stop-color="#0D0D0D"/><stop offset="1" stop-color="#1A1A1A" stop-opacity=".8"/></linearGradient><linearGradient id="q" x1="51.383" x2="51.383" y1="8.129" y2="9.574" gradientUnits="userSpaceOnUse"><stop stop-color="#fff"/><stop offset="1" stop-color="#fff" stop-opacity=".8"/></linearGradient><linearGradient id="r" x1="51.383" x2="51.383" y1="8.129" y2="9.574" gradientUnits="userSpaceOnUse"><stop stop-color="#0D0D0D"/><stop offset="1" stop-color="#1A1A1A" stop-opacity=".8"/></linearGradient></defs></svg>