<svg width="32" height="32" viewBox="0 0 32 32" fill="none" xmlns="http://www.w3.org/2000/svg">
<path d="M0 16C0 7.16344 7.16344 0 16 0C24.8366 0 32 7.16344 32 16C32 24.8366 24.8366 32 16 32C7.16344 32 0 24.8366 0 16Z" fill="#7D52F4" fill-opacity="0.1"/>
<path d="M15.9996 10.8574C15.644 10.8574 15.3568 11.1447 15.3568 11.5003V11.886C13.8902 12.1833 12.7853 13.4811 12.7853 15.036V15.4137C12.7853 16.3579 12.4378 17.2699 11.811 17.9771L11.6623 18.1438C11.4936 18.3326 11.4534 18.6039 11.5559 18.8349C11.6583 19.0659 11.8893 19.2146 12.1425 19.2146H19.8568C20.1099 19.2146 20.3389 19.0659 20.4434 18.8349C20.5478 18.6039 20.5056 18.3326 20.3369 18.1438L20.1882 17.9771C19.5614 17.2699 19.2139 16.3599 19.2139 15.4137V15.036C19.2139 13.4811 18.109 12.1833 16.6425 11.886V11.5003C16.6425 11.1447 16.3552 10.8574 15.9996 10.8574ZM16.9097 20.7675C17.1507 20.5264 17.2853 20.1989 17.2853 19.8574H15.9996H14.7139C14.7139 20.1989 14.8485 20.5264 15.0896 20.7675C15.3306 21.0085 15.6581 21.1431 15.9996 21.1431C16.3411 21.1431 16.6686 21.0085 16.9097 20.7675Z" fill="#7D52F4"/>
</svg>
