<svg width="32" height="32" viewBox="0 0 32 32" fill="none" xmlns="http://www.w3.org/2000/svg">
<path d="M0 16C0 7.16344 7.16344 0 16 0C24.8366 0 32 7.16344 32 16C32 24.8366 24.8366 32 16 32C7.16344 32 0 24.8366 0 16Z" fill="#E1E4EA"/>
<g clip-path="url(#clip0_4466_67560)">
<rect width="32" height="32" rx="16" fill="#E1E4EA"/>
<rect width="32" height="32" fill="#E1E4EA"/>
<g opacity="0.48" filter="url(#filter0_b_4466_67560)">
<path d="M4 14.2289C4 13.3452 4.71634 12.6289 5.59999 12.6289H17.5998C18.4835 12.6289 19.1998 13.3452 19.1998 14.2289V42.229C19.1998 43.1126 18.4835 43.829 17.5998 43.829H5.59999C4.71634 43.829 4 43.1126 4 42.229V14.2289Z" fill="white"/>
</g>
<path d="M7.2002 16.4C7.2002 16.1791 7.37928 16 7.6002 16H10.0002C10.2211 16 10.4002 16.1791 10.4002 16.4V18.8C10.4002 19.0209 10.2211 19.2 10.0002 19.2H7.6002C7.37928 19.2 7.2002 19.0209 7.2002 18.8V16.4Z" fill="#E1E4EA"/>
<path d="M7.2002 21.9996C7.2002 21.7787 7.37928 21.5996 7.6002 21.5996H10.0002C10.2211 21.5996 10.4002 21.7787 10.4002 21.9996V24.3996C10.4002 24.6205 10.2211 24.7996 10.0002 24.7996H7.6002C7.37928 24.7996 7.2002 24.6205 7.2002 24.3996V21.9996Z" fill="#E1E4EA"/>
<path d="M7.2002 27.5992C7.2002 27.3783 7.37928 27.1992 7.6002 27.1992H10.0002C10.2211 27.1992 10.4002 27.3783 10.4002 27.5992V29.9992C10.4002 30.2201 10.2211 30.3992 10.0002 30.3992H7.6002C7.37928 30.3992 7.2002 30.2201 7.2002 29.9992V27.5992Z" fill="#E1E4EA"/>
<g filter="url(#filter1_bi_4466_67560)">
<path d="M12 8.00038C12 7.11673 12.7163 6.40039 13.6 6.40039H25.5998C26.4835 6.40039 27.1998 7.11673 27.1998 8.00038V36.0005C27.1998 36.8841 26.4835 37.6005 25.5998 37.6005H13.6C12.7163 37.6005 12 36.8841 12 36.0005V8.00038Z" fill="white" fill-opacity="0.8"/>
</g>
<path d="M15.2002 10.1715C15.2002 9.95057 15.3793 9.77148 15.6002 9.77148H18.0002C18.2211 9.77148 18.4002 9.95057 18.4002 10.1715V12.5715C18.4002 12.7924 18.2211 12.9715 18.0002 12.9715H15.6002C15.3793 12.9715 15.2002 12.7924 15.2002 12.5715V10.1715Z" fill="#E1E4EA"/>
<path d="M15.2002 15.7711C15.2002 15.5502 15.3793 15.3711 15.6002 15.3711H18.0002C18.2211 15.3711 18.4002 15.5502 18.4002 15.7711V18.1711C18.4002 18.392 18.2211 18.5711 18.0002 18.5711H15.6002C15.3793 18.5711 15.2002 18.392 15.2002 18.1711V15.7711Z" fill="#E1E4EA"/>
<path d="M15.2002 21.3707C15.2002 21.1498 15.3793 20.9707 15.6002 20.9707H18.0002C18.2211 20.9707 18.4002 21.1498 18.4002 21.3707V23.7707C18.4002 23.9916 18.2211 24.1707 18.0002 24.1707H15.6002C15.3793 24.1707 15.2002 23.9916 15.2002 23.7707V21.3707Z" fill="#E1E4EA"/>
<path d="M15.2002 26.9723C15.2002 26.7514 15.3793 26.5723 15.6002 26.5723H18.0002C18.2211 26.5723 18.4002 26.7514 18.4002 26.9723V29.3723C18.4002 29.5932 18.2211 29.7723 18.0002 29.7723H15.6002C15.3793 29.7723 15.2002 29.5932 15.2002 29.3723V26.9723Z" fill="#E1E4EA"/>
<path d="M20.7998 10.1715C20.7998 9.95057 20.9789 9.77148 21.1998 9.77148H23.5998C23.8207 9.77148 23.9998 9.95057 23.9998 10.1715V12.5715C23.9998 12.7924 23.8207 12.9715 23.5998 12.9715H21.1998C20.9789 12.9715 20.7998 12.7924 20.7998 12.5715V10.1715Z" fill="#E1E4EA"/>
<path d="M20.7998 15.7711C20.7998 15.5502 20.9789 15.3711 21.1998 15.3711H23.5998C23.8207 15.3711 23.9998 15.5502 23.9998 15.7711V18.1711C23.9998 18.392 23.8207 18.5711 23.5998 18.5711H21.1998C20.9789 18.5711 20.7998 18.392 20.7998 18.1711V15.7711Z" fill="#E1E4EA"/>
<path d="M20.7998 21.3707C20.7998 21.1498 20.9789 20.9707 21.1998 20.9707H23.5998C23.8207 20.9707 23.9998 21.1498 23.9998 21.3707V23.7707C23.9998 23.9916 23.8207 24.1707 23.5998 24.1707H21.1998C20.9789 24.1707 20.7998 23.9916 20.7998 23.7707V21.3707Z" fill="#E1E4EA"/>
<path d="M20.7998 26.9723C20.7998 26.7514 20.9789 26.5723 21.1998 26.5723H23.5998C23.8207 26.5723 23.9998 26.7514 23.9998 26.9723V29.3723C23.9998 29.5932 23.8207 29.7723 23.5998 29.7723H21.1998C20.9789 29.7723 20.7998 29.5932 20.7998 29.3723V26.9723Z" fill="#E1E4EA"/>
</g>
<defs>
<filter id="filter0_b_4466_67560" x="2.14577e-05" y="8.62893" width="23.2002" height="39.1992" filterUnits="userSpaceOnUse" color-interpolation-filters="sRGB">
<feFlood flood-opacity="0" result="BackgroundImageFix"/>
<feGaussianBlur in="BackgroundImageFix" stdDeviation="1.99999"/>
<feComposite in2="SourceAlpha" operator="in" result="effect1_backgroundBlur_4466_67560"/>
<feBlend mode="normal" in="SourceGraphic" in2="effect1_backgroundBlur_4466_67560" result="shape"/>
</filter>
<filter id="filter1_bi_4466_67560" x="4" y="-1.59961" width="31.2002" height="47.1992" filterUnits="userSpaceOnUse" color-interpolation-filters="sRGB">
<feFlood flood-opacity="0" result="BackgroundImageFix"/>
<feGaussianBlur in="BackgroundImageFix" stdDeviation="4"/>
<feComposite in2="SourceAlpha" operator="in" result="effect1_backgroundBlur_4466_67560"/>
<feBlend mode="normal" in="SourceGraphic" in2="effect1_backgroundBlur_4466_67560" result="shape"/>
<feColorMatrix in="SourceAlpha" type="matrix" values="0 0 0 0 0 0 0 0 0 0 0 0 0 0 0 0 0 0 127 0" result="hardAlpha"/>
<feOffset dy="4"/>
<feGaussianBlur stdDeviation="2"/>
<feComposite in2="hardAlpha" operator="arithmetic" k2="-1" k3="1"/>
<feColorMatrix type="matrix" values="0 0 0 0 1 0 0 0 0 1 0 0 0 0 1 0 0 0 0.25 0"/>
<feBlend mode="normal" in2="shape" result="effect2_innerShadow_4466_67560"/>
</filter>
<clipPath id="clip0_4466_67560">
<rect width="32" height="32" rx="16" fill="white"/>
</clipPath>
</defs>
</svg>
