<svg xmlns="http://www.w3.org/2000/svg" width="14" height="14" viewBox="0 0 14 14" fill="none">
  <g clip-path="url(#clip0_10865_51978)">
    <mask id="mask0_10865_51978" style="mask-type:luminance" maskUnits="userSpaceOnUse" x="0" y="0" width="14" height="14">
      <path d="M14 0H0V14H14V0Z" fill="white"/>
    </mask>
    <g mask="url(#mask0_10865_51978)">
      <path fill-rule="evenodd" clip-rule="evenodd" d="M3.33786 1.31925C3.83715 1.03986 4.3835 0.949219 4.75019 0.949219C5.05395 0.949219 5.30019 1.19546 5.30019 1.49922C5.30019 1.80297 5.05395 2.04922 4.75019 2.04922C4.53355 2.04922 4.1799 2.10857 3.87502 2.27918C3.58726 2.44021 3.35985 2.68682 3.29271 3.08963C3.24116 3.39892 3.238 3.76747 3.23426 4.20491C3.2341 4.22377 3.23393 4.24274 3.23376 4.26185C3.22992 4.70031 3.22308 5.20262 3.13405 5.66558C3.0442 6.13277 2.85958 6.6238 2.45108 6.99313C2.03598 7.36842 1.46686 7.54922 0.750195 7.54922C0.446439 7.54922 0.200195 7.30297 0.200195 6.99922C0.200195 6.69546 0.446439 6.44922 0.750195 6.44922C1.28352 6.44922 1.55815 6.31751 1.71337 6.17718C1.87518 6.03088 1.98743 5.80316 2.05384 5.45785C2.12106 5.10831 2.12984 4.70437 2.13381 4.2522C2.13406 4.22292 2.1343 4.19336 2.13453 4.16356C2.13775 3.75763 2.14132 3.30695 2.20768 2.9088C2.34054 2.11161 2.82146 1.60822 3.33786 1.31925Z" fill="#7D52F4"/>
      <path fill-rule="evenodd" clip-rule="evenodd" d="M3.33786 12.6792C3.83715 12.9586 4.3835 13.0492 4.75019 13.0492C5.05395 13.0492 5.30019 12.8029 5.30019 12.4992C5.30019 12.1954 5.05395 11.9492 4.75019 11.9492C4.53355 11.9492 4.1799 11.8898 3.87502 11.7192C3.58726 11.5582 3.35985 11.3116 3.29271 10.9088C3.24116 10.5995 3.238 10.2309 3.23426 9.79352C3.2341 9.77467 3.23393 9.75569 3.23376 9.73659C3.22992 9.29813 3.22308 8.79581 3.13405 8.33286C3.0442 7.86567 2.85958 7.37464 2.45108 7.00531C2.03598 6.63002 1.46686 6.44922 0.750195 6.44922C0.446439 6.44922 0.200195 6.69547 0.200195 6.99922C0.200195 7.30298 0.446439 7.54922 0.750195 7.54922C1.28352 7.54922 1.55815 7.68093 1.71337 7.82126C1.87518 7.96756 1.98743 8.19527 2.05384 8.54059C2.12106 8.89013 2.12984 9.29406 2.13381 9.74623C2.13406 9.77552 2.1343 9.80508 2.13453 9.83488C2.13775 10.2408 2.14132 10.6915 2.20768 11.0896C2.34054 11.8868 2.82146 12.3902 3.33786 12.6792Z" fill="#7D52F4"/>
      <path fill-rule="evenodd" clip-rule="evenodd" d="M10.6625 1.31925C10.1632 1.03986 9.61689 0.949219 9.2502 0.949219C8.94644 0.949219 8.7002 1.19546 8.7002 1.49922C8.7002 1.80297 8.94644 2.04922 9.2502 2.04922C9.46684 2.04922 9.82049 2.10857 10.1254 2.27918C10.4131 2.44021 10.6405 2.68682 10.7077 3.08963C10.7592 3.39892 10.7624 3.76747 10.7661 4.20491C10.7663 4.22377 10.7664 4.24274 10.7666 4.26185C10.7705 4.70031 10.7773 5.20262 10.8663 5.66558C10.9562 6.13277 11.1408 6.6238 11.5493 6.99313C11.9644 7.36842 12.5335 7.54922 13.2502 7.54922C13.5539 7.54922 13.8002 7.30297 13.8002 6.99922C13.8002 6.69546 13.5539 6.44922 13.2502 6.44922C12.7169 6.44922 12.4422 6.31751 12.287 6.17718C12.1252 6.03088 12.0129 5.80316 11.9465 5.45785C11.8793 5.10831 11.8705 4.70437 11.8666 4.2522C11.8663 4.22292 11.8661 4.19336 11.8658 4.16356C11.8626 3.75763 11.8591 3.30695 11.7927 2.9088C11.6598 2.11161 11.1789 1.60822 10.6625 1.31925Z" fill="#7D52F4"/>
      <path fill-rule="evenodd" clip-rule="evenodd" d="M10.6625 12.6792C10.1632 12.9586 9.61689 13.0492 9.2502 13.0492C8.94644 13.0492 8.7002 12.8029 8.7002 12.4992C8.7002 12.1954 8.94644 11.9492 9.2502 11.9492C9.46684 11.9492 9.82049 11.8898 10.1254 11.7192C10.4131 11.5582 10.6405 11.3116 10.7077 10.9088C10.7592 10.5995 10.7624 10.2309 10.7661 9.79352C10.7663 9.77467 10.7664 9.75569 10.7666 9.73659C10.7705 9.29813 10.7773 8.79581 10.8663 8.33286C10.9562 7.86567 11.1408 7.37464 11.5493 7.00531C11.9644 6.63002 12.5335 6.44922 13.2502 6.44922C13.5539 6.44922 13.8002 6.69547 13.8002 6.99922C13.8002 7.30298 13.5539 7.54922 13.2502 7.54922C12.7169 7.54922 12.4422 7.68093 12.287 7.82126C12.1252 7.96756 12.0129 8.19527 11.9465 8.54059C11.8793 8.89013 11.8705 9.29406 11.8666 9.74623C11.8663 9.77552 11.8661 9.80508 11.8658 9.83488C11.8626 10.2408 11.8591 10.6915 11.7927 11.0896C11.6598 11.8868 11.1789 12.3902 10.6625 12.6792Z" fill="#7D52F4"/>
      <path fill-rule="evenodd" clip-rule="evenodd" d="M5.11128 5.11031C5.32607 4.89552 5.67431 4.89552 5.8891 5.11031L8.8891 8.11031C9.10389 8.32509 9.10389 8.67334 8.8891 8.88812C8.67431 9.10291 8.32607 9.10291 8.11128 8.88812L5.11128 5.88812C4.8965 5.67334 4.8965 5.32509 5.11128 5.11031Z" fill="#7D52F4"/>
      <path fill-rule="evenodd" clip-rule="evenodd" d="M8.88911 5.11031C8.67432 4.89552 8.32608 4.89552 8.11129 5.11031L5.11129 8.11031C4.8965 8.32509 4.8965 8.67334 5.11129 8.88812C5.32608 9.10291 5.67432 9.10291 5.88911 8.88812L8.88911 5.88812C9.10389 5.67334 9.10389 5.32509 8.88911 5.11031Z" fill="#7D52F4"/>
    </g>
  </g>
  <defs>
    <clipPath id="clip0_10865_51978">
      <rect width="14" height="14" fill="white"/>
    </clipPath>
  </defs>
</svg>
