<svg width="32" height="32" viewBox="0 0 32 32" fill="none" xmlns="http://www.w3.org/2000/svg">
<path d="M0 16C0 7.16344 7.16344 0 16 0C24.8366 0 32 7.16344 32 16C32 24.8366 24.8366 32 16 32C7.16344 32 0 24.8366 0 16Z" fill="#FB3748" fill-opacity="0.1"/>
<path d="M16 23.5C11.8578 23.5 8.5 20.1423 8.5 16C8.5 11.8578 11.8578 8.5 16 8.5C20.1423 8.5 23.5 11.8578 23.5 16C23.5 20.1423 20.1423 23.5 16 23.5ZM15.25 18.25V19.75H16.75V18.25H15.25ZM15.25 12.25V16.75H16.75V12.25H15.25Z" fill="#FB3748"/>
</svg>
