<svg width="32" height="32" viewBox="0 0 32 32" fill="none" xmlns="http://www.w3.org/2000/svg">
<path d="M0 16C0 7.16344 7.16344 0 16 0C24.8366 0 32 7.16344 32 16C32 24.8366 24.8366 32 16 32C7.16344 32 0 24.8366 0 16Z" fill="#FB3748" fill-opacity="0.1"/>
<path d="M16 23C12.1339 23 9 19.8661 9 16C9 12.1339 12.1339 9 16 9C19.8661 9 23 12.1339 23 16C23 19.8661 19.8661 23 16 23ZM16 21.6C17.4852 21.6 18.9096 21.01 19.9598 19.9598C21.01 18.9096 21.6 17.4852 21.6 16C21.6 14.5148 21.01 13.0904 19.9598 12.0402C18.9096 10.99 17.4852 10.4 16 10.4C14.5148 10.4 13.0904 10.99 12.0402 12.0402C10.99 13.0904 10.4 14.5148 10.4 16C10.4 17.4852 10.99 18.9096 12.0402 19.9598C13.0904 21.01 14.5148 21.6 16 21.6ZM16 15.0102L17.9796 13.0299L18.9701 14.0204L16.9898 16L18.9701 17.9796L17.9796 18.9701L16 16.9898L14.0204 18.9701L13.0299 17.9796L15.0102 16L13.0299 14.0204L14.0204 13.0299L16 15.0102Z" fill="#FB3748"/>
</svg>
