<svg width="32" height="32" viewBox="0 0 32 32" fill="none" xmlns="http://www.w3.org/2000/svg">
<path d="M0 16C0 7.16344 7.16344 0 16 0C24.8366 0 32 7.16344 32 16C32 24.8366 24.8366 32 16 32C7.16344 32 0 24.8366 0 16Z" fill="#F2F5F8"/>
<path fill-rule="evenodd" clip-rule="evenodd" d="M16 22.25C19.4518 22.25 22.25 19.4518 22.25 16C22.25 12.5482 19.4518 9.75 16 9.75C12.5482 9.75 9.75 12.5482 9.75 16C9.75 19.4518 12.5482 22.25 16 22.25ZM17.1158 19.2086L17.2156 18.8006C17.164 18.8249 17.0807 18.8526 16.9665 18.8841C16.852 18.9157 16.7489 18.9318 16.6583 18.9318C16.4654 18.9318 16.3295 18.9001 16.2507 18.8366C16.1724 18.773 16.1333 18.6534 16.1333 18.4783C16.1333 18.4089 16.1451 18.3054 16.1697 18.17C16.1936 18.0337 16.2211 17.9126 16.2516 17.8067L16.6242 16.4876C16.6607 16.3665 16.6857 16.2334 16.6992 16.0882C16.7129 15.9432 16.7193 15.8418 16.7193 15.7843C16.7193 15.5061 16.6218 15.2804 16.4268 15.1063C16.2317 14.9323 15.9539 14.8453 15.594 14.8453C15.3937 14.8453 15.1819 14.8809 14.9578 14.952C14.7336 15.0229 14.4993 15.1084 14.2542 15.2082L14.1541 15.6165C14.2272 15.5895 14.3142 15.5604 14.416 15.5303C14.5173 15.5004 14.6167 15.4849 14.7135 15.4849C14.911 15.4849 15.044 15.5186 15.1137 15.5849C15.1834 15.6514 15.2184 15.7697 15.2184 15.9388C15.2184 16.0324 15.2074 16.1363 15.1844 16.2492C15.1617 16.3628 15.1334 16.483 15.1001 16.6098L14.726 17.9342C14.6927 18.0734 14.6683 18.1979 14.653 18.3084C14.6379 18.4189 14.6306 18.5272 14.6306 18.6326C14.6306 18.9048 14.7311 19.1292 14.9322 19.3063C15.1333 19.4826 15.4152 19.5714 15.7777 19.5714C16.0137 19.5714 16.2209 19.5406 16.3992 19.4785C16.5773 19.4167 16.8164 19.3268 17.1158 19.2086ZM17.0495 13.8502C17.2235 13.6888 17.3101 13.4925 17.3101 13.2627C17.3101 13.0334 17.2236 12.8367 17.0495 12.6733C16.8758 12.5103 16.6666 12.4286 16.4219 12.4286C16.1765 12.4286 15.9664 12.5101 15.7911 12.6733C15.6158 12.8367 15.528 13.0333 15.528 13.2627C15.528 13.4925 15.6158 13.6888 15.7911 13.8502C15.9667 14.0122 16.1764 14.0932 16.4219 14.0932C16.6666 14.0932 16.8758 14.0122 17.0495 13.8502Z" fill="#CACFD8"/>
</svg>
