<svg width="32" height="32" viewBox="0 0 32 32" fill="none" xmlns="http://www.w3.org/2000/svg">
<path d="M0 16C0 7.16344 7.16344 0 16 0C24.8366 0 32 7.16344 32 16C32 24.8366 24.8366 32 16 32C7.16344 32 0 24.8366 0 16Z" fill="#335CFF" fill-opacity="0.1"/>
<path d="M16 22.25C12.5482 22.25 9.75 19.4517 9.75 16C9.75 12.5482 12.5482 9.75 16 9.75C19.4517 9.75 22.25 12.5482 22.25 16C22.25 19.4517 19.4517 22.25 16 22.25ZM16 21C18.7614 21 21 18.7614 21 16C21 13.2386 18.7614 11 16 11C13.2386 11 11 13.2386 11 16C11 18.7614 13.2386 21 16 21ZM16.625 15.0625V17.875H17.25V19.125H14.75V17.875H15.375V16.3125H14.75V15.0625H16.625ZM16.9375 13.5C16.9375 14.0178 16.5177 14.4375 16 14.4375C15.4823 14.4375 15.0625 14.0178 15.0625 13.5C15.0625 12.9822 15.4823 12.5625 16 12.5625C16.5177 12.5625 16.9375 12.9822 16.9375 13.5Z" fill="#335CFF"/>
</svg>
