<svg width="32" height="32" viewBox="0 0 32 32" fill="none" xmlns="http://www.w3.org/2000/svg">
<path d="M0 16C0 7.16344 7.16344 0 16 0C24.8366 0 32 7.16344 32 16C32 24.8366 24.8366 32 16 32C7.16344 32 0 24.8366 0 16Z" fill="#E1E4EA"/>
<path d="M0 16C0 7.16344 7.16344 0 16 0C24.8366 0 32 7.16344 32 16C32 24.8366 24.8366 32 16 32C7.16344 32 0 24.8366 0 16Z" fill="#F4F5F6"/>
<path fill-rule="evenodd" clip-rule="evenodd" d="M22.48 13.6195C22.48 14.2645 21.697 14.584 21.2455 14.1228L12.007 4.68025C13.2898 4.22888 14.6401 3.99886 16 4C18.3872 4 20.611 4.6975 22.48 5.89825V13.6195ZM25.84 9.13V13.6195C25.84 17.2758 21.4007 19.0863 18.844 16.4725L8.90875 6.31825C5.932 8.50225 4 12.0258 4 16C4 18.5553 4.79875 20.9238 6.16 22.87V18.4045C6.16 14.7483 10.5993 12.9378 13.156 15.5515L23.0778 25.6915C26.062 23.509 28 19.981 28 16C28 13.4448 27.2013 11.0763 25.84 9.13ZM10.7545 17.9013L19.9757 27.325C18.7315 27.7623 17.3935 28 16 28C13.6135 28 11.389 27.3025 9.52 26.1018V18.4045C9.52 17.7595 10.3037 17.44 10.7545 17.9013Z" fill="url(#paint0_radial_4466_67564)"/>
<path fill-rule="evenodd" clip-rule="evenodd" d="M22.48 13.6195C22.48 14.2645 21.697 14.584 21.2455 14.1228L12.007 4.68025C13.2898 4.22888 14.6401 3.99886 16 4C18.3872 4 20.611 4.6975 22.48 5.89825V13.6195ZM25.84 9.13V13.6195C25.84 17.2758 21.4007 19.0863 18.844 16.4725L8.90875 6.31825C5.932 8.50225 4 12.0258 4 16C4 18.5553 4.79875 20.9238 6.16 22.87V18.4045C6.16 14.7483 10.5993 12.9378 13.156 15.5515L23.0778 25.6915C26.062 23.509 28 19.981 28 16C28 13.4448 27.2013 11.0763 25.84 9.13ZM10.7545 17.9013L19.9757 27.325C18.7315 27.7623 17.3935 28 16 28C13.6135 28 11.389 27.3025 9.52 26.1018V18.4045C9.52 17.7595 10.3037 17.44 10.7545 17.9013Z" fill="url(#paint1_linear_4466_67564)"/>
<path fill-rule="evenodd" clip-rule="evenodd" d="M22.48 13.6195C22.48 14.2645 21.697 14.584 21.2455 14.1228L12.007 4.68025C13.2898 4.22888 14.6401 3.99886 16 4C18.3872 4 20.611 4.6975 22.48 5.89825V13.6195ZM25.84 9.13V13.6195C25.84 17.2758 21.4007 19.0863 18.844 16.4725L8.90875 6.31825C5.932 8.50225 4 12.0258 4 16C4 18.5553 4.79875 20.9238 6.16 22.87V18.4045C6.16 14.7483 10.5993 12.9378 13.156 15.5515L23.0778 25.6915C26.062 23.509 28 19.981 28 16C28 13.4448 27.2013 11.0763 25.84 9.13ZM10.7545 17.9013L19.9757 27.325C18.7315 27.7623 17.3935 28 16 28C13.6135 28 11.389 27.3025 9.52 26.1018V18.4045C9.52 17.7595 10.3037 17.44 10.7545 17.9013Z" fill="url(#paint2_linear_4466_67564)"/>
<defs>
<radialGradient id="paint0_radial_4466_67564" cx="0" cy="0" r="1" gradientUnits="userSpaceOnUse" gradientTransform="translate(15.9998 16.0005) rotate(135) scale(16.9705)">
<stop offset="0.34" stop-color="#FF006A"/>
<stop offset="0.613" stop-color="#E300BD"/>
<stop offset="0.767" stop-color="#FF4CE1"/>
</radialGradient>
<linearGradient id="paint1_linear_4466_67564" x1="18.7997" y1="3.19975" x2="16" y2="28" gradientUnits="userSpaceOnUse">
<stop offset="0.085" stop-color="#FFBA33"/>
<stop offset="0.553" stop-color="#FF006A" stop-opacity="0"/>
</linearGradient>
<linearGradient id="paint2_linear_4466_67564" x1="16" y1="4" x2="16" y2="28" gradientUnits="userSpaceOnUse">
<stop offset="0.547" stop-color="white" stop-opacity="0"/>
<stop offset="1" stop-color="white" stop-opacity="0.6"/>
</linearGradient>
</defs>
</svg>
