<svg width="957" height="300" viewBox="0 0 957 300" fill="none"
  xmlns="http://www.w3.org/2000/svg">
  <path d="M483.971 211.692V142.381C483.971 130.419 481.103 121.325 475.367 115.098C469.631 108.872 460.617 105.758 448.325 105.758C439.967 105.758 433.329 106.578 428.413 108.216C423.496 109.691 420.382 110.756 419.071 111.412V211.692H393.75V95.1896C394.406 94.8619 396.208 94.1245 399.158 92.9775C402.108 91.8305 406.042 90.6016 410.958 89.2907C415.875 87.9799 421.611 86.8329 428.167 85.8497C434.722 84.8666 441.934 84.375 449.8 84.375C458.814 84.375 467.009 85.6039 474.384 88.0618C481.759 90.3558 487.987 93.7149 493.067 98.139C498.312 102.563 502.327 107.889 505.113 114.115C507.899 120.342 509.292 127.388 509.292 135.253V211.692H483.971Z" fill="black"/>
  <path d="M673.955 150C673.955 159.34 672.316 168.024 669.039 176.053C665.925 184.082 661.5 191.046 655.763 196.945C650.027 202.68 643.144 207.268 635.113 210.709C627.083 213.986 618.233 215.625 608.563 215.625C598.894 215.625 589.962 213.986 581.767 210.709C573.737 207.268 566.853 202.68 561.117 196.945C555.381 191.046 550.874 184.082 547.596 176.053C544.482 168.024 542.925 159.34 542.925 150C542.925 140.66 544.482 131.976 547.596 123.947C550.874 115.918 555.381 109.036 561.117 103.301C566.853 97.4017 573.737 92.8137 581.767 89.5365C589.962 86.0955 598.894 84.375 608.563 84.375C618.233 84.375 627.083 86.0955 635.113 89.5365C643.144 92.8137 650.027 97.4017 655.763 103.301C661.5 109.036 665.925 115.918 669.039 123.947C672.316 131.976 673.955 140.66 673.955 150ZM647.651 150C647.651 143.446 646.75 137.465 644.947 132.058C643.144 126.486 640.522 121.735 637.08 117.802C633.802 113.706 629.705 110.592 624.788 108.462C620.036 106.168 614.627 105.021 608.563 105.021C602.335 105.021 596.763 106.168 591.846 108.462C587.094 110.592 582.996 113.706 579.555 117.802C576.277 121.735 573.737 126.486 571.934 132.058C570.131 137.465 569.23 143.446 569.23 150C569.23 156.554 570.131 162.617 571.934 168.188C573.737 173.596 576.277 178.347 579.555 182.444C582.996 186.376 587.094 189.49 591.846 191.784C596.763 193.914 602.335 194.979 608.563 194.979C614.627 194.979 620.036 193.914 624.788 191.784C629.705 189.49 633.802 186.376 637.08 182.444C640.522 178.347 643.144 173.596 644.947 168.188C646.75 162.617 647.651 156.554 647.651 150Z" fill="black"/>
  <path d="M821.095 93.7149C820.111 97.3198 818.391 102.154 815.932 108.216C813.638 114.115 810.934 120.751 807.82 128.125C804.706 135.499 801.264 143.282 797.495 151.475C793.889 159.504 790.202 167.369 786.432 175.07C782.827 182.608 779.303 189.735 775.861 196.454C772.583 203.008 769.715 208.497 767.257 212.921H740.953C738.003 207.678 734.889 201.943 731.611 195.716C728.497 189.326 725.301 182.935 722.024 176.545C718.91 169.991 715.878 163.518 712.928 157.128C709.978 150.737 707.191 144.838 704.569 139.431C702.111 133.86 699.898 128.944 697.932 124.684C696.129 120.424 694.736 117.147 693.753 114.853C692.769 112.559 691.786 110.101 690.803 107.479C689.819 104.857 689.328 102.399 689.328 100.105C689.328 97.1559 690.311 94.4522 692.278 91.9944C694.244 89.5365 697.604 88.3076 702.357 88.3076C705.635 88.3076 708.175 88.6353 709.978 89.2907C711.78 89.9462 712.764 90.3558 712.928 90.5197C715.714 98.221 718.91 106.66 722.515 115.836C726.285 125.012 730.054 134.106 733.824 143.118C737.757 151.966 741.526 160.487 745.132 168.68C748.738 176.709 751.933 183.509 754.719 189.08C756.686 185.311 759.226 179.986 762.34 173.104C765.618 166.058 768.978 158.357 772.42 150C776.025 141.643 779.631 133.041 783.236 124.192C786.842 115.344 790.038 107.233 792.824 99.8596C794.135 96.2547 795.774 93.4691 797.741 91.5028C799.707 89.3727 802.985 88.3076 807.574 88.3076C811.507 88.3076 814.621 89.0449 816.916 90.5197C819.374 91.9944 820.767 93.0595 821.095 93.7149Z" fill="black"/>
  <path d="M930.929 99.8596C930.929 95.927 932.076 93.0595 934.371 91.257C936.665 89.2907 939.943 88.3076 944.204 88.3076C946.99 88.3076 949.449 88.6353 951.579 89.2907C953.874 89.9462 955.431 90.4377 956.25 90.7654V211.692C955.103 212.02 953.054 212.348 950.104 212.676C947.318 213.003 943.876 213.331 939.779 213.659C935.682 214.15 931.175 214.478 926.258 214.642C921.342 214.97 916.343 215.133 911.262 215.133C896.348 215.133 884.22 213.331 874.879 209.726C865.701 206.121 858.408 200.878 853 193.996C846.28 185.311 842.92 173.759 842.92 159.34V99.8596C842.92 95.927 844.068 93.0595 846.362 91.257C848.656 89.2907 851.934 88.3076 856.195 88.3076C858.981 88.3076 861.44 88.6353 863.57 89.2907C865.865 89.9462 867.422 90.4377 868.241 90.7654V156.636C868.241 169.089 871.355 178.429 877.583 184.656C883.975 190.882 894.709 193.996 909.787 193.996C915.523 193.996 920.112 193.832 923.554 193.504C927.16 193.013 929.618 192.603 930.929 192.275V99.8596Z" fill="black"/>
  <path fill-rule="evenodd" clip-rule="evenodd" d="M231 120.241C231 128.307 221.208 132.301 215.567 126.536L100.084 8.50548C115.699 2.9969 132.5 0 150 0C179.836 0 207.638 8.711 231 23.7285V120.241ZM273 64.1228V120.241C273 165.946 217.51 188.577 185.546 155.908L61.3582 28.9807C24.1534 56.2779 0 100.318 0 150C0 181.941 9.98339 211.55 27 235.877V180.059C27 134.354 82.4899 111.723 114.454 144.392L238.471 271.145C275.773 243.857 300 199.758 300 150C300 118.059 290.017 88.45 273 64.1228ZM84.433 173.764L199.697 291.571C184.144 297.031 167.419 300 150 300C120.164 300 92.3624 291.289 69 276.272V180.059C69 171.993 78.7923 167.999 84.433 173.764Z" fill="url(#paint0_radial_1431_7450)"/>
  <path fill-rule="evenodd" clip-rule="evenodd" d="M231 120.241C231 128.307 221.208 132.301 215.567 126.536L100.084 8.50548C115.699 2.9969 132.5 0 150 0C179.836 0 207.638 8.711 231 23.7285V120.241ZM273 64.1228V120.241C273 165.946 217.51 188.577 185.546 155.908L61.3582 28.9807C24.1534 56.2779 0 100.318 0 150C0 181.941 9.98339 211.55 27 235.877V180.059C27 134.354 82.4899 111.723 114.454 144.392L238.471 271.145C275.773 243.857 300 199.758 300 150C300 118.059 290.017 88.45 273 64.1228ZM84.433 173.764L199.697 291.571C184.144 297.031 167.419 300 150 300C120.164 300 92.3624 291.289 69 276.272V180.059C69 171.993 78.7923 167.999 84.433 173.764Z" fill="url(#paint1_linear_1431_7450)"/>
  <defs>
    <radialGradient id="paint0_radial_1431_7450" cx="0" cy="0" r="1" gradientUnits="userSpaceOnUse" gradientTransform="translate(150 150) rotate(135) scale(212.132)">
      <stop offset="0.34" stop-color="#FF006A"/>
      <stop offset="0.613333" stop-color="#E300BD"/>
      <stop offset="0.766667" stop-color="#FF4CE1"/>
    </radialGradient>
    <linearGradient id="paint1_linear_1431_7450" x1="185" y1="-10" x2="150" y2="300" gradientUnits="userSpaceOnUse">
      <stop offset="0.0851785" stop-color="#FFBA33"/>
      <stop offset="0.553333" stop-color="#FF006A" stop-opacity="0"/>
    </linearGradient>
  </defs>
</svg>
