<svg width="32" height="32" viewBox="0 0 32 32" fill="none" xmlns="http://www.w3.org/2000/svg">
<path d="M0 16C0 7.16344 7.16344 0 16 0C24.8366 0 32 7.16344 32 16C32 24.8366 24.8366 32 16 32C7.16344 32 0 24.8366 0 16Z" fill="#F6B51E" fill-opacity="0.1"/>
<path d="M16 23.5C11.8578 23.5 8.5 20.1423 8.5 16C8.5 11.8578 11.8578 8.5 16 8.5C20.1423 8.5 23.5 11.8578 23.5 16C23.5 20.1423 20.1423 23.5 16 23.5ZM16 22C17.5913 22 19.1174 21.3679 20.2426 20.2426C21.3679 19.1174 22 17.5913 22 16C22 14.4087 21.3679 12.8826 20.2426 11.7574C19.1174 10.6321 17.5913 10 16 10C14.4087 10 12.8826 10.6321 11.7574 11.7574C10.6321 12.8826 10 14.4087 10 16C10 17.5913 10.6321 19.1174 11.7574 20.2426C12.8826 21.3679 14.4087 22 16 22ZM15.25 18.25H16.75V19.75H15.25V18.25ZM16.75 17.0162V17.5H15.25V16.375C15.25 16.1761 15.329 15.9853 15.4697 15.8447C15.6103 15.704 15.8011 15.625 16 15.625C16.2131 15.625 16.4217 15.5645 16.6017 15.4505C16.7818 15.3365 16.9257 15.1738 17.0168 14.9812C17.108 14.7886 17.1425 14.5741 17.1165 14.3626C17.0905 14.1512 17.005 13.9514 16.8699 13.7867C16.7348 13.6219 16.5557 13.4989 16.3534 13.432C16.1511 13.365 15.934 13.3569 15.7273 13.4085C15.5206 13.4602 15.3328 13.5694 15.1858 13.7236C15.0387 13.8778 14.9385 14.0706 14.8968 14.2795L13.4253 13.9847C13.5165 13.5288 13.7271 13.1053 14.0357 12.7574C14.3442 12.4096 14.7396 12.1499 15.1814 12.005C15.6232 11.86 16.0956 11.835 16.5503 11.9325C17.0049 12.0299 17.4255 12.2463 17.7691 12.5596C18.1127 12.8729 18.3669 13.2718 18.5058 13.7155C18.6447 14.1593 18.6633 14.632 18.5596 15.0852C18.456 15.5385 18.2338 15.9561 17.9159 16.2954C17.5979 16.6347 17.1956 16.8834 16.75 17.0162Z" fill="#F6B51E"/>
</svg>
