<svg width="32" height="32" viewBox="0 0 32 32" fill="none" xmlns="http://www.w3.org/2000/svg">
<path d="M0 16C0 7.16344 7.16344 0 16 0C24.8366 0 32 7.16344 32 16C32 24.8366 24.8366 32 16 32C7.16344 32 0 24.8366 0 16Z" fill="#FF8447" fill-opacity="0.1"/>
<path d="M19.7597 20.5008H12.2407C12.1186 20.5007 11.9986 20.467 11.8924 20.4029C11.7862 20.3388 11.6975 20.2466 11.635 20.1352C11.5724 20.0238 11.538 19.8971 11.5353 19.7674C11.5326 19.6377 11.5616 19.5095 11.6195 19.3953L15.379 11.9778C15.4395 11.8587 15.5292 11.7592 15.6385 11.6899C15.7479 11.6206 15.8729 11.584 16.0002 11.584C16.1275 11.584 16.2525 11.6206 16.3619 11.6899C16.4712 11.7592 16.5609 11.8587 16.6214 11.9778L20.3809 19.3953C20.4388 19.5095 20.4678 19.6377 20.4651 19.7674C20.4624 19.8971 20.428 20.0238 20.3654 20.1352C20.3029 20.2466 20.2141 20.3388 20.108 20.4029C20.0018 20.467 19.8818 20.5007 19.7597 20.5008Z" fill="#FF8447"/>
<path d="M16.2682 18.25C16.2682 18.448 16.1234 18.5625 15.9998 18.5625C15.8762 18.5625 15.7314 18.448 15.7314 18.25C15.7314 18.052 15.8762 17.9375 15.9998 17.9375C16.1234 17.9375 16.2682 18.052 16.2682 18.25Z" stroke="white" stroke-width="0.875"/>
<path d="M16 14.5V16.375" stroke="white" stroke-width="1.09375" stroke-linecap="round"/>
</svg>
