<svg xmlns="http://www.w3.org/2000/svg" width="275" height="557" fill="none"><g clip-path="url(#a)"><mask id="b" width="271" height="556" x="2" y="1" maskUnits="userSpaceOnUse" style="mask-type:luminance"><path fill="#fff" d="M237.458 1.25H37.504c-19.33 0-35 15.67-35 35v485.046c0 19.33 15.67 35 35 35h199.954c19.33 0 35-15.67 35-35V36.25c0-19.33-15.67-35-35-35Z"/></mask><g mask="url(#b)"><path fill="url(#c)" d="M237.458 1.25H37.504c-19.33 0-35 15.67-35 35v485.046c0 19.33 15.67 35 35 35h199.954c19.33 0 35-15.67 35-35V36.25c0-19.33-15.67-35-35-35Z"/><path fill="url(#d)" d="M272.789 1.25H2.172v585.538h270.617V1.25Z"/><mask id="e" width="272" height="556" x="2" y="1" maskUnits="userSpaceOnUse" style="mask-type:alpha"><path fill="#fff" d="M273.095 1.352H2.031v554.971h271.064V1.352Z" opacity=".3"/></mask><g mask="url(#e)"><g opacity=".18"><g filter="url(#f)" opacity=".2"><path fill="#80D9FF" d="M-21.267 33.297c-3.224 27.367 39.133 54.85 94.607 61.385 55.474 6.535 103.058-10.354 106.282-37.722 3.224-27.368-39.134-54.851-94.608-61.385C29.54-10.96-18.043 5.929-21.267 33.297Z"/></g></g><path fill="#0D0D0D" d="M108.249 48.258c7.324 0 12.841 5.517 12.841 16.675v.048c0 12.232-5.004 19.532-13.012 19.532-5.86 0-9.985-3.565-10.864-8.326l-.049-.317h1.953l.05.269c.853 3.857 4.369 6.616 8.91 6.616 7.544 0 11.035-7.74 11.108-17.432a12.9 12.9 0 0 0 0-1.391h-.098c-1.196 4.516-5.664 7.885-11.035 7.885-6.64 0-11.694-5.004-11.694-11.596v-.05c0-6.81 5.102-11.913 11.89-11.913Zm.024 21.826c5.493 0 10.132-4.346 10.132-9.448v-.05c0-5.81-4.248-10.57-10.156-10.57-5.567 0-9.936 4.419-9.936 10.132v.048c0 5.591 4.32 9.888 9.96 9.888Zm20.093-12.72c-.879 0-1.587-.732-1.587-1.611a1.6 1.6 0 0 1 1.587-1.587 1.6 1.6 0 0 1 1.587 1.587c0 .879-.708 1.611-1.587 1.611Zm0 21.216a1.6 1.6 0 0 1-1.587-1.587c0-.879.708-1.611 1.587-1.611s1.587.732 1.587 1.611a1.6 1.6 0 0 1-1.587 1.587ZM153.293 84v-8.814h-18.14v-1.782l17.261-24.633h2.783v24.658h5.591v1.757h-5.591V84h-1.904Zm-16.041-10.571h16.041V50.748h-.098L137.252 73.38v.049ZM173.532 84V50.895h-.049l-9.619 6.127v-2.026l9.668-6.226h1.904V84h-1.904ZM93.611 101.002v-7.324h-2.59v-1.131h6.487v1.13h-2.584v7.325H93.61Zm5.79.123c-1.354 0-2.128-.873-2.128-2.291v-3.996h1.266v3.75c0 .932.434 1.447 1.313 1.447.89 0 1.465-.638 1.465-1.6v-3.597h1.271v6.164h-1.271v-.926h-.03c-.322.621-.949 1.049-1.887 1.049Zm7.072 0c-1.811 0-2.906-1.236-2.906-3.182v-.005c0-1.928 1.113-3.217 2.841-3.217 1.729 0 2.79 1.242 2.79 3.093v.428h-4.366c.024 1.166.662 1.846 1.67 1.846.75 0 1.248-.387 1.406-.85l.018-.046h1.201l-.011.064c-.2.978-1.149 1.869-2.643 1.869Zm-.059-5.367c-.82 0-1.453.556-1.564 1.588h3.094c-.106-1.067-.703-1.588-1.53-1.588Zm6.077 5.367c-1.541 0-2.444-.762-2.573-1.887l-.006-.052h1.254l.012.058c.117.569.539.903 1.318.903.762 0 1.219-.317 1.219-.815v-.006c0-.398-.223-.627-.885-.785l-1.007-.228c-1.172-.27-1.752-.832-1.752-1.729v-.006c0-1.101.961-1.857 2.379-1.857 1.458 0 2.337.814 2.402 1.863l.006.07h-1.19l-.006-.04c-.076-.54-.498-.915-1.212-.915-.68 0-1.108.323-1.108.815v.006c0 .38.252.638.914.797l1.002.228c1.26.293 1.74.791 1.74 1.676v.006c0 1.125-1.054 1.898-2.507 1.898Zm5.794 0c-1.57 0-2.578-1.242-2.578-3.205v-.006c0-1.963 1.02-3.193 2.567-3.193.873 0 1.576.44 1.945 1.166h.023v-3.34h1.272v8.455h-1.272v-1.043h-.023c-.369.721-1.049 1.166-1.934 1.166Zm.334-1.09c.956 0 1.629-.832 1.629-2.115v-.006c0-1.277-.679-2.11-1.629-2.11-.996 0-1.617.81-1.617 2.11v.006c0 1.313.615 2.115 1.617 2.115Zm6.006 1.078c-1.23 0-2.056-.756-2.056-1.863v-.012c0-1.072.832-1.728 2.291-1.816l1.675-.1v-.463c0-.68-.439-1.09-1.224-1.09-.733 0-1.184.346-1.289.838l-.012.053h-1.195l.006-.064c.087-1.06 1.007-1.875 2.525-1.875 1.506 0 2.461.797 2.461 2.033v4.248h-1.272v-.973h-.023c-.357.662-1.072 1.084-1.887 1.084Zm-.779-1.892c0 .539.445.879 1.125.879.891 0 1.564-.604 1.564-1.407v-.48l-1.505.094c-.762.047-1.184.38-1.184.902v.012Zm5.906 3.838c-.246 0-.51-.03-.662-.059v-.99c.1.023.246.047.416.047.598 0 .926-.159 1.137-.756l.105-.293-2.244-6.17h1.371l1.553 5.016h.041l1.553-5.016h1.336l-2.297 6.451c-.457 1.277-1.102 1.77-2.309 1.77Zm4.108-.358.48-3h1.266l-.856 3h-.89Zm7.347-1.699v-.902l2.977-2.994c1.125-1.125 1.377-1.57 1.377-2.227v-.012c-.006-.803-.615-1.377-1.471-1.377-.99 0-1.699.668-1.711 1.524v.035h-1.242v-.035c0-1.512 1.283-2.608 2.936-2.608 1.623 0 2.783 1.02 2.783 2.385v.012c0 .966-.451 1.652-1.969 3.152l-1.922 1.887v.053h4.026v1.107h-5.784Zm9.903.141c-1.805 0-2.983-.985-3.1-2.362l-.006-.076h1.26l.006.065c.082.75.791 1.277 1.84 1.277 1.031 0 1.728-.574 1.728-1.395v-.011c0-.955-.691-1.489-1.822-1.489h-1.025v-1.02h.99c.967 0 1.623-.568 1.623-1.353v-.011c0-.815-.551-1.29-1.506-1.29-.938 0-1.594.493-1.676 1.278l-.006.053h-1.23l.006-.059c.129-1.412 1.254-2.344 2.906-2.344 1.682 0 2.783.89 2.783 2.192v.011c0 1.05-.75 1.752-1.781 1.97v.029c1.242.11 2.074.86 2.074 2.044v.012c0 1.447-1.271 2.479-3.064 2.479Zm8.871 0c-1.565 0-2.479-.955-2.549-2.303l-.006-.07h1.295l.006.052c.053.645.457 1.149 1.242 1.149.867 0 1.336-.516 1.336-1.483v-5.941h1.312V98.5c0 1.664-.978 2.643-2.636 2.643Zm6.158-.018c-1.354 0-2.127-.873-2.127-2.291v-3.996h1.266v3.75c0 .932.433 1.447 1.312 1.447.891 0 1.465-.638 1.465-1.6v-3.597h1.271v6.164h-1.271v-.926h-.029c-.323.621-.95 1.049-1.887 1.049Zm4.441-.123v-6.164h1.266v.932h.029c.323-.627.955-1.05 1.887-1.05 1.354 0 2.133.874 2.133 2.292v3.99h-1.272v-3.75c0-.926-.433-1.447-1.312-1.447-.891 0-1.465.644-1.465 1.605v3.592h-1.266Zm9.17.123c-1.81 0-2.906-1.236-2.906-3.182v-.005c0-1.928 1.113-3.217 2.842-3.217 1.728 0 2.789 1.242 2.789 3.093v.428h-4.365c.023 1.166.662 1.846 1.67 1.846.75 0 1.248-.387 1.406-.85l.017-.046h1.202l-.012.064c-.199.978-1.149 1.869-2.643 1.869Zm-.058-5.367c-.821 0-1.453.556-1.565 1.588h3.094c-.105-1.067-.703-1.588-1.529-1.588Z" opacity=".8"/><path fill="#0D0D0D" d="M31.619 24.558v-4.303h-.056l-1.27.921v-.658l1.33-.955h.619v4.995h-.623Zm3.545.117c-1.104 0-1.762-1.007-1.762-2.613v-.007c0-1.606.658-2.61 1.762-2.61 1.105 0 1.77 1.004 1.77 2.61v.007c0 1.606-.665 2.613-1.77 2.613Zm0-.543c.717 0 1.143-.796 1.143-2.07v-.007c0-1.274-.426-2.063-1.143-2.063-.716 0-1.135.79-1.135 2.063v.007c0 1.274.419 2.07 1.135 2.07Zm3.096-2.963a.454.454 0 0 1-.45-.45.45.45 0 1 1 .45.45Zm0 2.68a.454.454 0 0 1-.45-.45.45.45 0 1 1 .45.45Zm3.175.826c-.931 0-1.596-.598-1.668-1.398l-.004-.038h.599l.003.028c.06.477.492.858 1.077.858.664 0 1.121-.474 1.121-1.15v-.006c0-.665-.463-1.139-1.11-1.139-.333 0-.617.1-.832.305-.086.083-.166.18-.228.297h-.54l.263-2.87h2.78v.558h-2.288l-.17 1.69h.055c.222-.336.613-.52 1.067-.52.938 0 1.613.703 1.613 1.669v.006c0 1.008-.724 1.71-1.738 1.71Zm4.255-.034c-1.06 0-1.814-.595-1.814-1.433V23.2c0-.616.433-1.128 1.073-1.277v-.014c-.547-.17-.893-.585-.893-1.111v-.007c0-.755.69-1.312 1.634-1.312.945 0 1.634.557 1.634 1.312v.007c0 .526-.346.941-.893 1.11v.015c.64.149 1.073.66 1.073 1.277v.007c0 .838-.755 1.433-1.814 1.433Zm0-2.963c.602 0 1.014-.343 1.014-.827v-.007c0-.485-.412-.828-1.014-.828-.602 0-1.014.343-1.014.828v.007c0 .484.412.827 1.014.827Zm0 2.42c.689 0 1.18-.388 1.18-.928v-.007c0-.547-.488-.938-1.18-.938s-1.18.39-1.18.938v.007c0 .54.491.927 1.18.927Z" opacity=".4" style="mix-blend-mode:overlay"/><path fill="#0D0D0D" d="M31.619 24.558v-4.303h-.056l-1.27.921v-.658l1.33-.955h.619v4.995h-.623Zm3.545.117c-1.104 0-1.762-1.007-1.762-2.613v-.007c0-1.606.658-2.61 1.762-2.61 1.105 0 1.77 1.004 1.77 2.61v.007c0 1.606-.665 2.613-1.77 2.613Zm0-.543c.717 0 1.143-.796 1.143-2.07v-.007c0-1.274-.426-2.063-1.143-2.063-.716 0-1.135.79-1.135 2.063v.007c0 1.274.419 2.07 1.135 2.07Zm3.096-2.963a.454.454 0 0 1-.45-.45.45.45 0 1 1 .45.45Zm0 2.68a.454.454 0 0 1-.45-.45.45.45 0 1 1 .45.45Zm3.175.826c-.931 0-1.596-.598-1.668-1.398l-.004-.038h.599l.003.028c.06.477.492.858 1.077.858.664 0 1.121-.474 1.121-1.15v-.006c0-.665-.463-1.139-1.11-1.139-.333 0-.617.1-.832.305-.086.083-.166.18-.228.297h-.54l.263-2.87h2.78v.558h-2.288l-.17 1.69h.055c.222-.336.613-.52 1.067-.52.938 0 1.613.703 1.613 1.669v.006c0 1.008-.724 1.71-1.738 1.71Zm4.255-.034c-1.06 0-1.814-.595-1.814-1.433V23.2c0-.616.433-1.128 1.073-1.277v-.014c-.547-.17-.893-.585-.893-1.111v-.007c0-.755.69-1.312 1.634-1.312.945 0 1.634.557 1.634 1.312v.007c0 .526-.346.941-.893 1.11v.015c.64.149 1.073.66 1.073 1.277v.007c0 .838-.755 1.433-1.814 1.433Zm0-2.963c.602 0 1.014-.343 1.014-.827v-.007c0-.485-.412-.828-1.014-.828-.602 0-1.014.343-1.014.828v.007c0 .484.412.827 1.014.827Zm0 2.42c.689 0 1.18-.388 1.18-.928v-.007c0-.547-.488-.938-1.18-.938s-1.18.39-1.18.938v.007c0 .54.491.927 1.18.927Z" opacity=".4"/><g style="mix-blend-mode:overlay"><path fill="#0D0D0D" fill-rule="evenodd" d="M234.139 18.542c0-.89.721-1.612 1.612-1.612h6.851c.89 0 1.612.721 1.612 1.612v2.015c0 .89-.722 1.612-1.612 1.612h-6.851a1.612 1.612 0 0 1-1.612-1.612v-2.015Z" clip-rule="evenodd"/><path fill="#0D0D0D" d="M244.613 18.945v1.701a.923.923 0 0 0 0-1.7Z"/><path fill="#fff" d="M236.302 21.022v-2.279h-.036l-.696.484v-.535l.734-.51h.592v2.84h-.594Zm2.483.073c-.7 0-1.127-.575-1.127-1.492v-.004c0-.919.427-1.49 1.127-1.49.703 0 1.128.571 1.128 1.49v.004c0 .917-.425 1.491-1.128 1.491Zm0-.47c.337 0 .528-.38.528-1.022v-.004c0-.643-.191-1.02-.528-1.02-.334 0-.525.377-.525 1.02v.004c0 .641.191 1.021.525 1.021Zm2.783.47c-.7 0-1.127-.575-1.127-1.492v-.004c0-.919.427-1.49 1.127-1.49.703 0 1.128.571 1.128 1.49v.004c0 .917-.425 1.491-1.128 1.491Zm0-.47c.337 0 .528-.38.528-1.022v-.004c0-.643-.191-1.02-.528-1.02-.334 0-.525.377-.525 1.02v.004c0 .641.191 1.021.525 1.021Z"/></g><g opacity=".4"><path fill="#0D0D0D" fill-rule="evenodd" d="M234.139 18.542c0-.89.721-1.612 1.612-1.612h6.851c.89 0 1.612.721 1.612 1.612v2.015c0 .89-.722 1.612-1.612 1.612h-6.851a1.612 1.612 0 0 1-1.612-1.612v-2.015Z" clip-rule="evenodd"/><path fill="#0D0D0D" d="M244.613 18.945v1.701a.923.923 0 0 0 0-1.7Z"/><path fill="#fff" d="M236.302 21.022v-2.279h-.036l-.696.484v-.535l.734-.51h.592v2.84h-.594Zm2.483.073c-.7 0-1.127-.575-1.127-1.492v-.004c0-.919.427-1.49 1.127-1.49.703 0 1.128.571 1.128 1.49v.004c0 .917-.425 1.491-1.128 1.491Zm0-.47c.337 0 .528-.38.528-1.022v-.004c0-.643-.191-1.02-.528-1.02-.334 0-.525.377-.525 1.02v.004c0 .641.191 1.021.525 1.021Zm2.783.47c-.7 0-1.127-.575-1.127-1.492v-.004c0-.919.427-1.49 1.127-1.49.703 0 1.128.571 1.128 1.49v.004c0 .917-.425 1.491-1.128 1.491Zm0-.47c.337 0 .528-.38.528-1.022v-.004c0-.643-.191-1.02-.528-1.02-.334 0-.525.377-.525 1.02v.004c0 .641.191 1.021.525 1.021Z"/></g><path fill="#0D0D0D" fill-rule="evenodd" d="M227.859 18.363c.994 0 1.95.39 2.671 1.09a.136.136 0 0 0 .194-.002l.519-.535a.15.15 0 0 0 .042-.104.15.15 0 0 0-.044-.104 4.816 4.816 0 0 0-6.764 0 .145.145 0 0 0-.043.104.145.145 0 0 0 .041.104l.519.535c.054.055.14.055.195.001a3.832 3.832 0 0 1 2.67-1.089Zm.013 1.613c.546 0 1.072.207 1.477.581a.138.138 0 0 0 .195-.002l.518-.535a.152.152 0 0 0 .042-.105.156.156 0 0 0-.044-.105 3.164 3.164 0 0 0-4.375 0 .147.147 0 0 0-.044.105.144.144 0 0 0 .042.105l.518.535a.137.137 0 0 0 .194.002 2.178 2.178 0 0 1 1.477-.581Zm1.055 1.042a.147.147 0 0 1-.042.106l-.896.923a.138.138 0 0 1-.199 0l-.896-.923a.143.143 0 0 1-.042-.106.14.14 0 0 1 .046-.103 1.51 1.51 0 0 1 1.982 0 .146.146 0 0 1 .047.103Z" clip-rule="evenodd" style="mix-blend-mode:overlay"/><path fill="#0D0D0D" fill-rule="evenodd" d="M227.859 18.363c.994 0 1.95.39 2.671 1.09a.136.136 0 0 0 .194-.002l.519-.535a.15.15 0 0 0 .042-.104.15.15 0 0 0-.044-.104 4.816 4.816 0 0 0-6.764 0 .145.145 0 0 0-.043.104.145.145 0 0 0 .041.104l.519.535c.054.055.14.055.195.001a3.832 3.832 0 0 1 2.67-1.089Zm.013 1.613c.546 0 1.072.207 1.477.581a.138.138 0 0 0 .195-.002l.518-.535a.152.152 0 0 0 .042-.105.156.156 0 0 0-.044-.105 3.164 3.164 0 0 0-4.375 0 .147.147 0 0 0-.044.105.144.144 0 0 0 .042.105l.518.535a.137.137 0 0 0 .194.002 2.178 2.178 0 0 1 1.477-.581Zm1.055 1.042a.147.147 0 0 1-.042.106l-.896.923a.138.138 0 0 1-.199 0l-.896-.923a.143.143 0 0 1-.042-.106.14.14 0 0 1 .046-.103 1.51 1.51 0 0 1 1.982 0 .146.146 0 0 1 .047.103Z" clip-rule="evenodd" opacity=".4"/><g fill="#0D0D0D" style="mix-blend-mode:overlay"><path d="M217.984 18.528c0-.223.181-.403.403-.403h.403c.223 0 .403.18.403.403v3.224c0 .223-.18.403-.403.403h-.403a.403.403 0 0 1-.403-.403v-3.224ZM220 17.723c0-.222.181-.403.403-.403h.403c.223 0 .403.18.403.403v4.03c0 .223-.18.403-.403.403h-.403a.403.403 0 0 1-.403-.403v-4.03ZM215.971 19.942c0-.223.181-.403.403-.403h.403c.223 0 .403.18.403.403v1.814c0 .222-.18.403-.403.403h-.403a.403.403 0 0 1-.403-.403v-1.814ZM213.955 20.95c0-.223.181-.403.403-.403h.403c.223 0 .403.18.403.403v.806c0 .223-.18.403-.403.403h-.403a.403.403 0 0 1-.403-.403v-.806Z"/></g><g fill="#0D0D0D" opacity=".4"><path d="M217.984 18.528c0-.223.181-.403.403-.403h.403c.223 0 .403.18.403.403v3.224c0 .223-.18.403-.403.403h-.403a.403.403 0 0 1-.403-.403v-3.224ZM220 17.723c0-.222.181-.403.403-.403h.403c.223 0 .403.18.403.403v4.03c0 .223-.18.403-.403.403h-.403a.403.403 0 0 1-.403-.403v-4.03ZM215.971 19.942c0-.223.181-.403.403-.403h.403c.223 0 .403.18.403.403v1.814c0 .222-.18.403-.403.403h-.403a.403.403 0 0 1-.403-.403v-1.814ZM213.955 20.95c0-.223.181-.403.403-.403h.403c.223 0 .403.18.403.403v.806c0 .223-.18.403-.403.403h-.403a.403.403 0 0 1-.403-.403v-.806Z"/></g></g><path fill="#F9F9F9" d="M71.154 13.154C71.154 10 68 10 68 10h138.131s-3.386 0-3.386 3.154c0 10.45-8.472 17.66-18.922 17.66H90.474c-10.45 0-19.32-7.21-19.32-17.66Z"/><path fill="#D2DBDF" d="M151.132 18h-27.25a.882.882 0 0 0-.882.882v1.39c0 .487.395.882.882.882h27.25a.882.882 0 0 0 .882-.882v-1.39a.882.882 0 0 0-.882-.882Z"/><path fill="#EBECED" d="M168.046 25.092a5.046 5.046 0 1 0 0-10.092 5.046 5.046 0 0 0 0 10.092Z"/><g filter="url(#g)" opacity=".5"><path fill="url(#h)" d="M169.161 21.97a2.227 2.227 0 1 0-2.227-3.857 2.227 2.227 0 0 0 2.227 3.857Z"/></g><g filter="url(#i)" opacity=".1"><path fill="#5EC2ED" d="M108.631 302.17c110.248 125.331 249.282 183.246 310.543 129.358 61.26-53.888 21.548-199.174-88.699-324.504C220.227-18.306 81.192-76.221 19.932-22.333-41.328 31.555-1.617 176.84 108.63 302.17Z"/></g><g filter="url(#j)" opacity=".3"><path fill="#79C9EC" d="M-62.79 120.173c16.236 38.895 75.512 51.176 132.397 27.431 56.886-23.745 89.839-74.525 73.603-113.42C126.974-4.711 67.698-16.993 10.813 6.752-46.073 30.497-79.025 81.277-62.79 120.173Z"/></g></g><path stroke="#000" stroke-width="8" d="M237.458 5.25H37.504c-17.12 0-31 13.88-31 31v485.046c0 17.121 13.88 31 31 31h199.954c17.121 0 31-13.879 31-31V36.25c0-17.12-13.879-31-31-31Z"/><path fill="#000" d="M180.687 541.203H93.673A1.68 1.68 0 0 0 92 542.89c0 .932.75 1.688 1.673 1.688h87.014a1.68 1.68 0 0 0 1.673-1.688 1.68 1.68 0 0 0-1.673-1.687Z"/><path fill="#36444A" d="M218.236 0h-2.523v2.523h2.523V0ZM272.48 56.765v-2.523h-2.522v2.523h2.522ZM2.527 54.243v2.523H5.05v-2.523H2.527Z"/><path fill="url(#k)" d="M272.48 500.804v-2.523h-2.522v2.523h2.522Z"/><path fill="url(#l)" d="M2.527 498.282v2.523H5.05v-2.523H2.527Z"/><path fill="url(#m)" d="M56.77 555.047h2.523v-2.523H56.77v2.523Z"/><path fill="#2F3C41" d="M2.521 89.563H-.002v18.921h2.523V89.563ZM2.52 128.672H.626v40.367h1.892v-40.367ZM2.52 180.391H.626v40.367h1.892v-40.367ZM272.471 208.141h2.523v-65.597h-2.523v65.597Z"/><path fill="#F3F3F3" fill-opacity=".4" d="M68.7 507.85c0-8.754-7.096-15.85-15.85-15.85S37 499.096 37 507.85s7.096 15.85 15.85 15.85 15.85-7.096 15.85-15.85Z" style="mix-blend-mode:overlay"/><path fill="#0D0D0D" d="M50.15 503.058v-.145c0-.697.35-1.046 1.022-1.046h2.976c.673 0 1.022.349 1.022 1.046v.145h-5.02Zm2.04 10.743c-.669 0-1.023-.359-1.023-1.052v-5.808c0-.543-.12-.902-.314-1.201l-.284-.449c-.25-.384-.419-.728-.419-1.186v-.394h5.02v.394c0 .458-.17.802-.413 1.186l-.29.449c-.19.299-.314.658-.314 1.201v5.808c0 .693-.354 1.052-1.022 1.052h-.942Zm-.44-6.401v1.58c0 .509.4.912.913.912a.903.903 0 0 0 .912-.912v-1.58a.9.9 0 0 0-.912-.912.9.9 0 0 0-.912.912Zm.913 2.168a.578.578 0 0 1-.593-.588.59.59 0 0 1 1.181 0 .57.57 0 0 1-.588.588Z" style="mix-blend-mode:overlay"/><path fill="#0D0D0D" d="M50.152 503.058v-.145c0-.697.35-1.046 1.022-1.046h2.976c.673 0 1.022.349 1.022 1.046v.145h-5.02Zm2.04 10.743c-.669 0-1.023-.359-1.023-1.052v-5.808c0-.543-.12-.902-.314-1.201l-.284-.449c-.25-.384-.419-.728-.419-1.186v-.394h5.02v.394c0 .458-.17.802-.414 1.186l-.289.449c-.19.299-.314.658-.314 1.201v5.808c0 .693-.354 1.052-1.022 1.052h-.942Zm-.44-6.401v1.58c0 .509.4.912.913.912a.903.903 0 0 0 .912-.912v-1.58a.9.9 0 0 0-.912-.912.9.9 0 0 0-.913.912Zm.913 2.168a.578.578 0 0 1-.593-.588.59.59 0 0 1 1.18 0 .57.57 0 0 1-.587.588Z" style="mix-blend-mode:overlay"/><path fill="#F3F3F3" fill-opacity=".4" d="M237.001 507.85c0-8.754-7.096-15.85-15.85-15.85s-15.85 7.096-15.85 15.85 7.096 15.85 15.85 15.85 15.85-7.096 15.85-15.85Z" style="mix-blend-mode:overlay"/><path fill="#0D0D0D" d="M215.625 513.445c-1.356 0-2.08-.712-2.08-2.056v-6.45c0-1.344.724-2.062 2.08-2.062h1.528c.479 0 .645-.079.952-.392l.484-.504c.326-.337.657-.497 1.277-.497h2.571c.62 0 .951.16 1.276.497l.485.504c.307.313.473.392.945.392h1.565c1.356 0 2.074.718 2.074 2.062v6.45c0 1.344-.718 2.056-2.074 2.056h-11.083Zm5.542-1.995a3.274 3.274 0 0 0 3.283-3.295 3.278 3.278 0 0 0-3.283-3.295 3.283 3.283 0 0 0-3.29 3.295 3.279 3.279 0 0 0 3.29 3.295Zm3.669-5.547a.837.837 0 0 0 1.676 0 .852.852 0 0 0-.835-.835.854.854 0 0 0-.841.835Zm-3.669 4.326a2.066 2.066 0 0 1-2.068-2.074c0-1.148.92-2.074 2.068-2.074 1.147 0 2.068.926 2.068 2.074a2.062 2.062 0 0 1-2.068 2.074Z" style="mix-blend-mode:overlay"/><path fill="#0D0D0D" d="M215.625 513.445c-1.356 0-2.08-.712-2.08-2.056v-6.45c0-1.344.724-2.062 2.08-2.062h1.528c.479 0 .645-.079.952-.392l.484-.504c.326-.337.657-.497 1.277-.497h2.571c.62 0 .951.16 1.276.497l.485.504c.307.313.473.392.945.392h1.565c1.356 0 2.074.718 2.074 2.062v6.45c0 1.344-.718 2.056-2.074 2.056h-11.083Zm5.542-1.995a3.274 3.274 0 0 0 3.283-3.295 3.278 3.278 0 0 0-3.283-3.295 3.283 3.283 0 0 0-3.29 3.295 3.279 3.279 0 0 0 3.29 3.295Zm3.669-5.547a.837.837 0 0 0 1.676 0 .852.852 0 0 0-.835-.835.854.854 0 0 0-.841.835Zm-3.669 4.326a2.066 2.066 0 0 1-2.068-2.074c0-1.148.92-2.074 2.068-2.074 1.147 0 2.068.926 2.068 2.074a2.062 2.062 0 0 1-2.068 2.074Z" opacity=".5" style="mix-blend-mode:overlay"/></g><defs><linearGradient id="c" x1="30.933" x2="137.481" y1="15.704" y2="556.296" gradientUnits="userSpaceOnUse"><stop stop-color="#fff"/><stop offset="1" stop-color="#4F6E7C"/></linearGradient><linearGradient id="d" x1="37.593" x2="239.362" y1="19.511" y2="546.3" gradientUnits="userSpaceOnUse"><stop stop-color="#fff"/><stop offset="1" stop-color="#fff"/></linearGradient><linearGradient id="h" x1="166.934" x2="169.161" y1="18.113" y2="21.97" gradientUnits="userSpaceOnUse"><stop stop-color="#2E596C"/><stop offset=".5" stop-color="#184C62" stop-opacity=".3"/><stop offset=".849" stop-color="#3580A0"/><stop offset="1" stop-color="#4CAED9"/></linearGradient><linearGradient id="k" x1="272.48" x2="269.957" y1="499.543" y2="499.543" gradientUnits="userSpaceOnUse"><stop stop-color="#2F2F2F"/><stop offset="1" stop-color="#404040"/></linearGradient><linearGradient id="l" x1="2.527" x2="5.05" y1="499.543" y2="499.543" gradientUnits="userSpaceOnUse"><stop stop-color="#2F2F2F"/><stop offset="1" stop-color="#404040"/></linearGradient><linearGradient id="m" x1="58.032" x2="58.032" y1="555.047" y2="552.524" gradientUnits="userSpaceOnUse"><stop stop-color="#2F2F2F"/><stop offset="1" stop-color="#404040"/></linearGradient><filter id="f" width="445.909" height="346.588" x="-143.777" y="-128.165" color-interpolation-filters="sRGB" filterUnits="userSpaceOnUse"><feFlood flood-opacity="0" result="BackgroundImageFix"/><feBlend in="SourceGraphic" in2="BackgroundImageFix" result="shape"/><feGaussianBlur result="effect1_foregroundBlur_8506_516422" stdDeviation="61.169"/></filter><filter id="g" width="4.455" height="4.453" x="165.82" y="17.813" color-interpolation-filters="sRGB" filterUnits="userSpaceOnUse"><feFlood flood-opacity="0" result="BackgroundImageFix"/><feBlend in="SourceGraphic" in2="BackgroundImageFix" result="shape"/><feColorMatrix in="SourceAlpha" result="hardAlpha" values="0 0 0 0 0 0 0 0 0 0 0 0 0 0 0 0 0 0 127 0"/><feOffset/><feGaussianBlur stdDeviation=".441"/><feComposite in2="hardAlpha" k2="-1" k3="1" operator="arithmetic"/><feColorMatrix values="0 0 0 0 0.7 0 0 0 0 0.928 0 0 0 0 1 0 0 0 0.3 0"/><feBlend in2="shape" result="effect1_innerShadow_8506_516422"/></filter><filter id="i" width="759.285" height="796.628" x="-160.09" y="-193.717" color-interpolation-filters="sRGB" filterUnits="userSpaceOnUse"><feFlood flood-opacity="0" result="BackgroundImageFix"/><feBlend in="SourceGraphic" in2="BackgroundImageFix" result="shape"/><feGaussianBlur result="effect1_foregroundBlur_8506_516422" stdDeviation="75.616"/></filter><filter id="j" width="384.415" height="335.183" x="-151.998" y="-90.412" color-interpolation-filters="sRGB" filterUnits="userSpaceOnUse"><feFlood flood-opacity="0" result="BackgroundImageFix"/><feBlend in="SourceGraphic" in2="BackgroundImageFix" result="shape"/><feGaussianBlur result="effect1_foregroundBlur_8506_516422" stdDeviation="42.534"/></filter><clipPath id="a"><path fill="#fff" d="M0 0h275v557H0z"/></clipPath></defs></svg>
