<svg width="200" height="95" viewBox="0 0 200 95" fill="none" xmlns="http://www.w3.org/2000/svg">
<g clip-path="url(#clip0_19_71964)">
<rect width="200" height="95" fill="#F9FAFB"/>
<g filter="url(#filter0_ddd_19_71964)">
<g opacity="0.72" filter="url(#filter1_ddd_19_71964)">
<path d="M57.6914 35.0586C57.6914 30.224 61.611 26.3047 66.4454 26.3047H180.247C185.081 26.3047 189.001 30.224 189.001 35.0586V169.286C189.001 174.12 185.081 178.04 180.247 178.04H66.4454C61.611 178.04 57.6914 174.12 57.6914 169.286V35.0586Z" fill="white"/>
<path d="M58.0547 35.0572C58.0547 30.4239 61.8109 26.668 66.4439 26.668H180.245C184.878 26.668 188.634 30.4239 188.634 35.0572V169.284C188.634 173.917 184.878 177.674 180.245 177.674H66.4439C61.8109 177.674 58.0547 173.917 58.0547 169.284V35.0572Z" stroke="#E6E6E6"/>
<path d="M109.489 62.7773H70.8262C70.0204 62.7773 69.3672 63.4306 69.3672 64.2363V67.1543C69.3672 67.9601 70.0204 68.6133 70.8262 68.6133H109.489C110.295 68.6133 110.948 67.9601 110.948 67.1543V64.2363C110.948 63.4306 110.295 62.7773 109.489 62.7773Z" fill="#EBECEF"/>
<path d="M141.581 36.5117H105.836C104.224 36.5117 102.918 37.8181 102.918 39.4297C102.918 41.0413 104.224 42.3477 105.836 42.3477H141.581C143.193 42.3477 144.499 41.0413 144.499 39.4297C144.499 37.8181 143.193 36.5117 141.581 36.5117Z" fill="#EBECEF"/>
<path d="M121.161 71.5312H70.8262C70.0204 71.5312 69.3672 72.1845 69.3672 72.9902V75.9082C69.3672 76.714 70.0204 77.3672 70.8262 77.3672H121.161C121.967 77.3672 122.62 76.714 122.62 75.9082V72.9902C122.62 72.1845 121.967 71.5312 121.161 71.5312Z" fill="#EBECEF"/>
<path d="M174.857 42.3516H132.38C131.016 42.3516 129.91 43.4576 129.91 44.8219V93.1344C129.91 94.4987 131.016 95.6047 132.38 95.6047H174.857C176.221 95.6047 177.327 94.4987 177.327 93.1344V44.8219C177.327 43.4576 176.221 42.3516 174.857 42.3516Z" fill="#F3F4F6"/>
<path d="M121.609 83.2109H71.8375C70.4732 83.2109 69.3672 84.3169 69.3672 85.6813V89.4946C69.3672 90.8589 70.4732 91.9649 71.8375 91.9649H121.609C122.973 91.9649 124.079 90.8589 124.079 89.4946V85.6813C124.079 84.3169 122.973 83.2109 121.609 83.2109Z" fill="#101010"/>
<mask id="mask0_19_71964" style="mask-type:luminance" maskUnits="userSpaceOnUse" x="69" y="36" width="24" height="6">
<path d="M92.7071 36.5078H69.3633V41.6143H92.7071V36.5078Z" fill="white"/>
</mask>
<g mask="url(#mask0_19_71964)">
<g opacity="0.8">
<path d="M71.6882 41.3405C70.362 41.3405 69.3633 40.2866 69.3633 38.9853C69.3633 37.6798 70.3109 36.6172 71.6882 36.6172C72.4191 36.6172 72.9247 36.8427 73.3201 37.3589L72.6825 37.8923C72.4148 37.6061 72.0916 37.463 71.6882 37.463C70.7909 37.463 70.2985 38.1526 70.2985 38.9853C70.2985 39.8181 70.8383 40.4947 71.6882 40.4947C72.0872 40.4947 72.4272 40.3516 72.6949 40.0654L73.3244 40.6205C72.9458 41.115 72.4272 41.3405 71.6882 41.3405Z" fill="#292929"/>
<path d="M76.0722 37.8697H76.9309V41.2528H76.0722V40.7583C75.8935 41.1097 75.5959 41.3439 75.0269 41.3439C74.1172 41.3439 73.3906 40.5501 73.3906 39.5743C73.3906 38.5984 74.1172 37.8047 75.0269 37.8047C75.5915 37.8047 75.8935 38.0389 76.0722 38.3902V37.8697ZM76.0978 39.5743C76.0978 39.0451 75.736 38.6071 75.1669 38.6071C74.6184 38.6071 74.2616 39.0494 74.2616 39.5743C74.2616 40.086 74.6184 40.5415 75.1669 40.5415C75.7323 40.5415 76.0978 40.0991 76.0978 39.5743Z" fill="#292929"/>
<path d="M77.5391 36.5078H78.3977V41.2528H77.5391V36.5078Z" fill="#292929"/>
<path d="M78.7773 40.8048C78.7773 40.5272 78.9984 40.293 79.3004 40.293C79.6024 40.293 79.8147 40.5272 79.8147 40.8048C79.8147 41.091 79.598 41.3253 79.3004 41.3253C79.0028 41.3253 78.7773 41.091 78.7773 40.8048Z" fill="#292929"/>
<path d="M83.0989 40.7063C82.7801 41.0967 82.2957 41.3439 81.7216 41.3439C80.6974 41.3439 79.9453 40.5501 79.9453 39.5743C79.9453 38.5984 80.6974 37.8047 81.7216 37.8047C82.2739 37.8047 82.7546 38.0389 83.0734 38.4075L82.4103 38.9671C82.2447 38.7589 82.028 38.6027 81.7216 38.6027C81.1738 38.6027 80.8163 39.0451 80.8163 39.5699C80.8163 40.0947 81.1738 40.5372 81.7216 40.5372C82.0528 40.5372 82.2826 40.3637 82.4526 40.1294L83.0989 40.7063Z" fill="#292929"/>
<path d="M83.1758 39.5743C83.1758 38.5984 83.9279 37.8047 84.9521 37.8047C85.9763 37.8047 86.7284 38.5984 86.7284 39.5743C86.7284 40.5501 85.9763 41.3439 84.9521 41.3439C83.9279 41.3395 83.1758 40.5501 83.1758 39.5743ZM85.8574 39.5743C85.8574 39.0451 85.5 38.6071 84.9521 38.6071C84.4035 38.6027 84.0468 39.0451 84.0468 39.5743C84.0468 40.0991 84.4035 40.5415 84.9521 40.5415C85.5 40.5415 85.8574 40.0991 85.8574 39.5743Z" fill="#292929"/>
<path d="M92.5312 39.1857V41.2502H91.6726V39.3982C91.6726 38.8127 91.4005 38.5611 90.9927 38.5611C90.6104 38.5611 90.3383 38.7519 90.3383 39.3982V41.2502H89.4797V39.3982C89.4797 38.8127 89.2032 38.5611 88.7998 38.5611C88.4176 38.5611 88.0813 38.7519 88.0813 39.3982V41.2502H87.2227V37.8671H88.0813V38.3356C88.26 37.9712 88.5832 37.7891 89.08 37.7891C89.5519 37.7891 89.9473 38.0233 90.164 38.418C90.3806 38.0146 90.6994 37.7891 91.2772 37.7891C91.9826 37.7934 92.5312 38.3312 92.5312 39.1857Z" fill="#292929"/>
</g>
</g>
</g>
<g opacity="0.72" filter="url(#filter2_ddd_19_71964)">
<mask id="mask1_19_71964" style="mask-type:luminance" maskUnits="userSpaceOnUse" x="11" y="26" width="132" height="153">
<path d="M11 35.0743C11 30.2396 14.9193 26.3203 19.7539 26.3203H133.555C138.39 26.3203 142.309 30.2396 142.309 35.0743V169.301C142.309 174.136 138.39 178.055 133.555 178.055H19.7539C14.9193 178.055 11 174.136 11 169.301V35.0743Z" fill="white"/>
</mask>
<g mask="url(#mask1_19_71964)">
<path d="M11 35.0743C11 30.2396 14.9193 26.3203 19.7539 26.3203H133.555C138.39 26.3203 142.309 30.2396 142.309 35.0743V169.301C142.309 174.136 138.39 178.055 133.555 178.055H19.7539C14.9193 178.055 11 174.136 11 169.301V35.0743Z" fill="white"/>
<path d="M62.798 37.9922H24.1348C23.329 37.9922 22.6758 38.6454 22.6758 39.4512V78.1144C22.6758 78.9202 23.329 79.5734 24.1348 79.5734H62.798C63.6038 79.5734 64.257 78.9202 64.257 78.1144V39.4512C64.257 38.6454 63.6038 37.9922 62.798 37.9922Z" fill="#EBECEF"/>
<path d="M94.8898 36.5273H59.1445C57.533 36.5273 56.2266 37.8338 56.2266 39.4453C56.2266 41.0569 57.533 42.3633 59.1445 42.3633H94.8898C96.5014 42.3633 97.8078 41.0569 97.8078 39.4453C97.8078 37.8338 96.5014 36.5273 94.8898 36.5273Z" fill="#EBECEF"/>
<path d="M74.47 85.4141H24.1348C23.329 85.4141 22.6758 86.0673 22.6758 86.8731V89.791C22.6758 90.5968 23.329 91.25 24.1348 91.25H74.47C75.2757 91.25 75.929 90.5968 75.929 89.791V86.8731C75.929 86.0673 75.2757 85.4141 74.47 85.4141Z" fill="#EBECEF"/>
<path d="M128.166 42.3672H85.6891C84.3248 42.3672 83.2188 43.4732 83.2188 44.8375V93.15C83.2188 94.5144 84.3248 95.6204 85.6891 95.6204H128.166C129.53 95.6204 130.636 94.5144 130.636 93.15V44.8375C130.636 43.4732 129.53 42.3672 128.166 42.3672Z" fill="#F3F4F6"/>
</g>
<path d="M11.3633 35.065C11.3633 30.4317 15.1192 26.6758 19.7525 26.6758H133.554C138.187 26.6758 141.943 30.4317 141.943 35.065V169.292C141.943 173.925 138.187 177.681 133.554 177.681H19.7525C15.1192 177.681 11.3633 173.925 11.3633 169.292V35.065Z" stroke="#E6E6E6"/>
</g>
<g filter="url(#filter3_ddd_19_71964)">
<mask id="mask2_19_71964" style="mask-type:luminance" maskUnits="userSpaceOnUse" x="34" y="11" width="132" height="152">
<path d="M34.3516 19.7539C34.3516 14.9193 38.2709 11 43.1055 11H156.907C161.741 11 165.661 14.9193 165.661 19.7539V153.981C165.661 158.816 161.741 162.735 156.907 162.735H43.1055C38.2709 162.735 34.3516 158.816 34.3516 153.981V19.7539Z" fill="white"/>
</mask>
<g mask="url(#mask2_19_71964)">
<path d="M34.3516 19.7539C34.3516 14.9193 38.2709 11 43.1055 11H156.907C161.741 11 165.661 14.9193 165.661 19.7539V153.981C165.661 158.816 161.741 162.735 156.907 162.735H43.1055C38.2709 162.735 34.3516 158.816 34.3516 153.981V19.7539Z" fill="white"/>
<path d="M42.504 90V86.7H43.146V87.33H43.302L43.146 87.48C43.146 87.216 43.224 87.01 43.38 86.862C43.536 86.714 43.752 86.64 44.028 86.64C44.356 86.64 44.618 86.746 44.814 86.958C45.01 87.166 45.108 87.448 45.108 87.804V90H44.46V87.876C44.46 87.66 44.402 87.494 44.286 87.378C44.17 87.262 44.012 87.204 43.812 87.204C43.608 87.204 43.446 87.266 43.326 87.39C43.21 87.51 43.152 87.686 43.152 87.918V90H42.504ZM47.2777 90.054C47.0057 90.054 46.7697 90.002 46.5697 89.898C46.3697 89.794 46.2157 89.646 46.1077 89.454C45.9997 89.262 45.9457 89.036 45.9457 88.776V87.924C45.9457 87.66 45.9997 87.434 46.1077 87.246C46.2157 87.054 46.3697 86.906 46.5697 86.802C46.7697 86.698 47.0057 86.646 47.2777 86.646C47.5497 86.646 47.7857 86.698 47.9857 86.802C48.1857 86.906 48.3397 87.054 48.4477 87.246C48.5557 87.434 48.6097 87.66 48.6097 87.924V88.776C48.6097 89.036 48.5557 89.262 48.4477 89.454C48.3397 89.646 48.1857 89.794 47.9857 89.898C47.7857 90.002 47.5497 90.054 47.2777 90.054ZM47.2777 89.484C47.4977 89.484 47.6677 89.424 47.7877 89.304C47.9077 89.18 47.9677 89.004 47.9677 88.776V87.924C47.9677 87.692 47.9077 87.516 47.7877 87.396C47.6677 87.276 47.4977 87.216 47.2777 87.216C47.0617 87.216 46.8917 87.276 46.7677 87.396C46.6477 87.516 46.5877 87.692 46.5877 87.924V88.776C46.5877 89.004 46.6477 89.18 46.7677 89.304C46.8917 89.424 47.0617 89.484 47.2777 89.484ZM50.3293 90L49.2373 86.7H49.8973L50.5753 88.812C50.6193 88.936 50.6573 89.062 50.6893 89.19C50.7253 89.314 50.7513 89.412 50.7673 89.484C50.7873 89.412 50.8133 89.314 50.8453 89.19C50.8813 89.062 50.9173 88.936 50.9533 88.812L51.6193 86.7H52.2733L51.1813 90H50.3293ZM54.227 90.06C53.831 90.06 53.515 89.946 53.279 89.718C53.043 89.486 52.925 89.172 52.925 88.776V86.7H53.573V88.776C53.573 89.004 53.631 89.182 53.747 89.31C53.863 89.434 54.023 89.496 54.227 89.496C54.435 89.496 54.597 89.434 54.713 89.31C54.833 89.182 54.893 89.004 54.893 88.776V86.7H55.541V88.776C55.541 89.172 55.421 89.486 55.181 89.718C54.945 89.946 54.627 90.06 54.227 90.06ZM63.8979 86.25H64.6599L66.0219 88.02L64.6539 89.79H63.8979L64.9779 88.41C64.9899 88.394 65.0019 88.378 65.0139 88.362C65.0259 88.346 65.0379 88.33 65.0499 88.314H59.7699V87.726H65.0439C65.0319 87.71 65.0179 87.694 65.0019 87.678C64.9899 87.658 64.9759 87.638 64.9599 87.618L63.8979 86.25ZM71.6453 90.06C71.3733 90.06 71.1333 90.01 70.9253 89.91C70.7213 89.806 70.5633 89.658 70.4513 89.466C70.3433 89.27 70.2893 89.042 70.2893 88.782V87.918C70.2893 87.654 70.3433 87.426 70.4513 87.234C70.5633 87.042 70.7213 86.896 70.9253 86.796C71.1333 86.692 71.3733 86.64 71.6453 86.64C72.0413 86.64 72.3593 86.744 72.5993 86.952C72.8393 87.16 72.9653 87.444 72.9773 87.804H72.3293C72.3173 87.616 72.2513 87.47 72.1313 87.366C72.0113 87.262 71.8493 87.21 71.6453 87.21C71.4253 87.21 71.2513 87.272 71.1233 87.396C70.9953 87.516 70.9313 87.688 70.9313 87.912V88.782C70.9313 89.006 70.9953 89.18 71.1233 89.304C71.2513 89.428 71.4253 89.49 71.6453 89.49C71.8493 89.49 72.0113 89.438 72.1313 89.334C72.2513 89.23 72.3173 89.084 72.3293 88.896H72.9773C72.9653 89.256 72.8393 89.54 72.5993 89.748C72.3593 89.956 72.0413 90.06 71.6453 90.06ZM75.0989 90.054C74.8269 90.054 74.5909 90.002 74.3909 89.898C74.1909 89.794 74.0369 89.646 73.9289 89.454C73.8209 89.262 73.7669 89.036 73.7669 88.776V87.924C73.7669 87.66 73.8209 87.434 73.9289 87.246C74.0369 87.054 74.1909 86.906 74.3909 86.802C74.5909 86.698 74.8269 86.646 75.0989 86.646C75.3709 86.646 75.6069 86.698 75.8069 86.802C76.0069 86.906 76.1609 87.054 76.2689 87.246C76.3769 87.434 76.4309 87.66 76.4309 87.924V88.776C76.4309 89.036 76.3769 89.262 76.2689 89.454C76.1609 89.646 76.0069 89.794 75.8069 89.898C75.6069 90.002 75.3709 90.054 75.0989 90.054ZM75.0989 89.484C75.3189 89.484 75.4889 89.424 75.6089 89.304C75.7289 89.18 75.7889 89.004 75.7889 88.776V87.924C75.7889 87.692 75.7289 87.516 75.6089 87.396C75.4889 87.276 75.3189 87.216 75.0989 87.216C74.8829 87.216 74.7129 87.276 74.5889 87.396C74.4689 87.516 74.4089 87.692 74.4089 87.924V88.776C74.4089 89.004 74.4689 89.18 74.5889 89.304C74.7129 89.424 74.8829 89.484 75.0989 89.484ZM78.3426 90.06C78.0106 90.06 77.7446 89.948 77.5446 89.724C77.3446 89.5 77.2446 89.198 77.2446 88.818V87.888C77.2446 87.504 77.3446 87.2 77.5446 86.976C77.7446 86.752 78.0106 86.64 78.3426 86.64C78.6146 86.64 78.8306 86.716 78.9906 86.868C79.1506 87.016 79.2306 87.22 79.2306 87.48L79.0926 87.33H79.2426L79.2246 86.562V85.62H79.8726V90H79.2306V89.37H79.0926L79.2306 89.22C79.2306 89.48 79.1506 89.686 78.9906 89.838C78.8306 89.986 78.6146 90.06 78.3426 90.06ZM78.5646 89.496C78.7686 89.496 78.9286 89.434 79.0446 89.31C79.1646 89.182 79.2246 89.006 79.2246 88.782V87.918C79.2246 87.694 79.1646 87.52 79.0446 87.396C78.9286 87.268 78.7686 87.204 78.5646 87.204C78.3526 87.204 78.1866 87.266 78.0666 87.39C77.9466 87.51 77.8866 87.686 77.8866 87.918V88.782C77.8866 89.014 77.9466 89.192 78.0666 89.316C78.1866 89.436 78.3526 89.496 78.5646 89.496ZM82.0542 90.06C81.7862 90.06 81.5502 90.008 81.3462 89.904C81.1462 89.796 80.9922 89.646 80.8842 89.454C80.7762 89.262 80.7222 89.038 80.7222 88.782V87.918C80.7222 87.658 80.7762 87.434 80.8842 87.246C80.9922 87.054 81.1462 86.906 81.3462 86.802C81.5502 86.694 81.7862 86.64 82.0542 86.64C82.3262 86.64 82.5622 86.694 82.7622 86.802C82.9622 86.906 83.1162 87.054 83.2242 87.246C83.3322 87.434 83.3862 87.658 83.3862 87.918V88.506H81.3462V88.782C81.3462 89.026 81.4062 89.212 81.5262 89.34C81.6502 89.468 81.8282 89.532 82.0602 89.532C82.2482 89.532 82.4002 89.5 82.5162 89.436C82.6322 89.368 82.7042 89.27 82.7322 89.142H83.3742C83.3262 89.422 83.1822 89.646 82.9422 89.814C82.7022 89.978 82.4062 90.06 82.0542 90.06ZM82.7622 88.116V87.912C82.7622 87.672 82.7022 87.486 82.5822 87.354C82.4622 87.222 82.2862 87.156 82.0542 87.156C81.8262 87.156 81.6502 87.222 81.5262 87.354C81.4062 87.486 81.3462 87.674 81.3462 87.918V88.068L82.8102 88.062L82.7622 88.116ZM84.5719 88.314V87.726H86.4919V88.314H84.5719ZM88.4875 90V87.636L87.5515 87.636V87.048L88.4875 87.048V86.514C88.4875 86.238 88.5755 86.02 88.7515 85.86C88.9275 85.7 89.1675 85.62 89.4715 85.62H90.4375V86.196H89.4835C89.3715 86.196 89.2835 86.224 89.2195 86.28C89.1595 86.336 89.1295 86.416 89.1295 86.52V87.048H90.4375V87.636H89.1295V90L88.4875 90ZM91.1732 90V89.412H92.3312V87.288H91.3232V86.7H92.9612V89.412H94.0232V90H91.1732ZM92.5832 86.13C92.4432 86.13 92.3312 86.094 92.2472 86.022C92.1632 85.946 92.1212 85.846 92.1212 85.722C92.1212 85.594 92.1632 85.494 92.2472 85.422C92.3312 85.346 92.4432 85.308 92.5832 85.308C92.7232 85.308 92.8352 85.346 92.9192 85.422C93.0032 85.494 93.0452 85.594 93.0452 85.722C93.0452 85.846 93.0032 85.946 92.9192 86.022C92.8352 86.094 92.7232 86.13 92.5832 86.13ZM94.7768 90V86.7H95.4008V87.33H95.5568L95.3588 87.72C95.3588 87.364 95.4368 87.096 95.5928 86.916C95.7488 86.732 95.9808 86.64 96.2888 86.64C96.6408 86.64 96.9188 86.75 97.1228 86.97C97.3308 87.186 97.4348 87.484 97.4348 87.864V88.086H96.7688V87.918C96.7688 87.682 96.7088 87.502 96.5888 87.378C96.4728 87.25 96.3088 87.186 96.0968 87.186C95.8848 87.186 95.7188 87.25 95.5988 87.378C95.4828 87.506 95.4248 87.686 95.4248 87.918V90H94.7768ZM99.3285 90.054C99.0925 90.054 98.8845 90.016 98.7045 89.94C98.5285 89.864 98.3885 89.76 98.2845 89.628C98.1845 89.492 98.1265 89.332 98.1105 89.148H98.7585C98.7745 89.256 98.8325 89.344 98.9325 89.412C99.0325 89.476 99.1645 89.508 99.3285 89.508H99.5865C99.7825 89.508 99.9305 89.468 100.031 89.388C100.131 89.308 100.181 89.202 100.181 89.07C100.181 88.942 100.135 88.842 100.043 88.77C99.9545 88.694 99.8225 88.644 99.6465 88.62L99.2205 88.554C98.8685 88.498 98.6085 88.398 98.4405 88.254C98.2765 88.106 98.1945 87.888 98.1945 87.6C98.1945 87.296 98.2925 87.062 98.4885 86.898C98.6885 86.73 98.9825 86.646 99.3705 86.646H99.5985C99.9425 86.646 100.217 86.726 100.421 86.886C100.629 87.042 100.747 87.252 100.775 87.516H100.127C100.111 87.42 100.057 87.342 99.9645 87.282C99.8765 87.222 99.7545 87.192 99.5985 87.192H99.3705C99.1825 87.192 99.0445 87.228 98.9565 87.3C98.8725 87.368 98.8305 87.47 98.8305 87.606C98.8305 87.726 98.8685 87.816 98.9445 87.876C99.0205 87.936 99.1385 87.978 99.2985 88.002L99.7365 88.074C100.109 88.126 100.381 88.23 100.553 88.386C100.729 88.538 100.817 88.76 100.817 89.052C100.817 89.368 100.713 89.614 100.505 89.79C100.301 89.966 99.9945 90.054 99.5865 90.054H99.3285ZM103.28 90C102.98 90 102.746 89.918 102.578 89.754C102.41 89.59 102.326 89.362 102.326 89.07V87.288H101.414V86.7H102.326V85.77H102.974V86.7H104.264V87.288H102.974V89.07C102.974 89.298 103.084 89.412 103.304 89.412H104.204V90H103.28ZM108.753 90L108.243 86.7H108.789L109.095 88.878C109.111 88.978 109.125 89.09 109.137 89.214C109.153 89.334 109.165 89.434 109.173 89.514C109.181 89.434 109.193 89.334 109.209 89.214C109.229 89.094 109.247 88.982 109.263 88.878L109.605 86.7H110.151L110.487 88.878C110.503 88.982 110.519 89.096 110.535 89.22C110.555 89.34 110.569 89.44 110.577 89.52C110.585 89.436 110.597 89.334 110.613 89.214C110.633 89.09 110.651 88.978 110.667 88.878L110.979 86.7H111.507L110.979 90H110.295L109.971 87.846C109.955 87.734 109.937 87.616 109.917 87.492C109.897 87.364 109.883 87.262 109.875 87.186C109.863 87.262 109.847 87.364 109.827 87.492C109.811 87.616 109.795 87.734 109.779 87.846L109.443 90H108.753ZM113.353 90.054C113.081 90.054 112.845 90.002 112.645 89.898C112.445 89.794 112.291 89.646 112.183 89.454C112.075 89.262 112.021 89.036 112.021 88.776V87.924C112.021 87.66 112.075 87.434 112.183 87.246C112.291 87.054 112.445 86.906 112.645 86.802C112.845 86.698 113.081 86.646 113.353 86.646C113.625 86.646 113.861 86.698 114.061 86.802C114.261 86.906 114.415 87.054 114.523 87.246C114.631 87.434 114.685 87.66 114.685 87.924V88.776C114.685 89.036 114.631 89.262 114.523 89.454C114.415 89.646 114.261 89.794 114.061 89.898C113.861 90.002 113.625 90.054 113.353 90.054ZM113.353 89.484C113.573 89.484 113.743 89.424 113.863 89.304C113.983 89.18 114.043 89.004 114.043 88.776V87.924C114.043 87.692 113.983 87.516 113.863 87.396C113.743 87.276 113.573 87.216 113.353 87.216C113.137 87.216 112.967 87.276 112.843 87.396C112.723 87.516 112.663 87.692 112.663 87.924V88.776C112.663 89.004 112.723 89.18 112.843 89.304C112.967 89.424 113.137 89.484 113.353 89.484ZM115.643 90V86.7H116.267V87.33H116.423L116.225 87.72C116.225 87.364 116.303 87.096 116.459 86.916C116.615 86.732 116.847 86.64 117.155 86.64C117.507 86.64 117.785 86.75 117.989 86.97C118.197 87.186 118.301 87.484 118.301 87.864V88.086H117.635V87.918C117.635 87.682 117.575 87.502 117.455 87.378C117.339 87.25 117.175 87.186 116.963 87.186C116.751 87.186 116.585 87.25 116.465 87.378C116.349 87.506 116.291 87.686 116.291 87.918V90H115.643ZM119.03 90V85.62H119.678V88.026H120.26L121.136 86.7H121.868L120.818 88.284L121.886 90H121.142L120.26 88.584H119.678V90H119.03ZM123.264 90V87.636H122.328V87.048H123.264V86.514C123.264 86.238 123.352 86.02 123.528 85.86C123.704 85.7 123.944 85.62 124.248 85.62H125.214V86.196H124.26C124.148 86.196 124.06 86.224 123.996 86.28C123.936 86.336 123.906 86.416 123.906 86.52V87.048H125.214V87.636H123.906V90H123.264ZM127.738 90C127.534 90 127.356 89.96 127.204 89.88C127.052 89.796 126.932 89.678 126.844 89.526C126.76 89.374 126.718 89.198 126.718 88.998V86.208H125.638V85.62H127.366V88.998C127.366 89.126 127.402 89.228 127.474 89.304C127.546 89.376 127.644 89.412 127.768 89.412H128.788V90H127.738ZM130.741 90.054C130.469 90.054 130.233 90.002 130.033 89.898C129.833 89.794 129.679 89.646 129.571 89.454C129.463 89.262 129.409 89.036 129.409 88.776V87.924C129.409 87.66 129.463 87.434 129.571 87.246C129.679 87.054 129.833 86.906 130.033 86.802C130.233 86.698 130.469 86.646 130.741 86.646C131.013 86.646 131.249 86.698 131.449 86.802C131.649 86.906 131.803 87.054 131.911 87.246C132.019 87.434 132.073 87.66 132.073 87.924V88.776C132.073 89.036 132.019 89.262 131.911 89.454C131.803 89.646 131.649 89.794 131.449 89.898C131.249 90.002 131.013 90.054 130.741 90.054ZM130.741 89.484C130.961 89.484 131.131 89.424 131.251 89.304C131.371 89.18 131.431 89.004 131.431 88.776V87.924C131.431 87.692 131.371 87.516 131.251 87.396C131.131 87.276 130.961 87.216 130.741 87.216C130.525 87.216 130.355 87.276 130.231 87.396C130.111 87.516 130.051 87.692 130.051 87.924V88.776C130.051 89.004 130.111 89.18 130.231 89.304C130.355 89.424 130.525 89.484 130.741 89.484ZM133.097 90L132.587 86.7H133.133L133.439 88.878C133.455 88.978 133.469 89.09 133.481 89.214C133.497 89.334 133.509 89.434 133.517 89.514C133.525 89.434 133.537 89.334 133.553 89.214C133.573 89.094 133.591 88.982 133.607 88.878L133.949 86.7H134.495L134.831 88.878C134.847 88.982 134.863 89.096 134.879 89.22C134.899 89.34 134.913 89.44 134.921 89.52C134.929 89.436 134.941 89.334 134.957 89.214C134.977 89.09 134.995 88.978 135.011 88.878L135.323 86.7H135.851L135.323 90H134.639L134.315 87.846C134.299 87.734 134.281 87.616 134.261 87.492C134.241 87.364 134.227 87.262 134.219 87.186C134.207 87.262 134.191 87.364 134.171 87.492C134.155 87.616 134.139 87.734 134.123 87.846L133.787 90H133.097ZM137.583 90.054C137.347 90.054 137.139 90.016 136.959 89.94C136.783 89.864 136.643 89.76 136.539 89.628C136.439 89.492 136.381 89.332 136.365 89.148H137.013C137.029 89.256 137.087 89.344 137.187 89.412C137.287 89.476 137.419 89.508 137.583 89.508H137.841C138.037 89.508 138.185 89.468 138.285 89.388C138.385 89.308 138.435 89.202 138.435 89.07C138.435 88.942 138.389 88.842 138.297 88.77C138.209 88.694 138.077 88.644 137.901 88.62L137.475 88.554C137.123 88.498 136.863 88.398 136.695 88.254C136.531 88.106 136.449 87.888 136.449 87.6C136.449 87.296 136.547 87.062 136.743 86.898C136.943 86.73 137.237 86.646 137.625 86.646H137.853C138.197 86.646 138.471 86.726 138.675 86.886C138.883 87.042 139.001 87.252 139.029 87.516H138.381C138.365 87.42 138.311 87.342 138.219 87.282C138.131 87.222 138.009 87.192 137.853 87.192H137.625C137.437 87.192 137.299 87.228 137.211 87.3C137.127 87.368 137.085 87.47 137.085 87.606C137.085 87.726 137.123 87.816 137.199 87.876C137.275 87.936 137.393 87.978 137.553 88.002L137.991 88.074C138.363 88.126 138.635 88.23 138.807 88.386C138.983 88.538 139.071 88.76 139.071 89.052C139.071 89.368 138.967 89.614 138.759 89.79C138.555 89.966 138.249 90.054 137.841 90.054H137.583Z" fill="#BCBCBC"/>
<rect x="70.25" y="25.25" width="59" height="19.625" rx="3.75" stroke="#E6E6E6" stroke-width="0.5"/>
<rect x="72.5" y="27.5" width="54.5" height="15.125" rx="2.5" stroke="#F3F4F6" stroke-opacity="0.24"/>
<g clip-path="url(#clip1_19_71964)">
<path d="M100.66 31.879C100.447 31.8177 100.226 31.9415 100.165 32.154L98.5647 37.754C98.5034 37.9665 98.6272 38.1877 98.8397 38.249C99.0522 38.3102 99.2734 38.1865 99.3347 37.974L100.935 32.374C100.996 32.1615 100.872 31.9402 100.66 31.879ZM101.667 33.3802C101.511 33.5365 101.511 33.7902 101.667 33.9465L102.783 35.064L101.666 36.1815C101.51 36.3377 101.51 36.5915 101.666 36.7477C101.822 36.904 102.076 36.904 102.232 36.7477L103.632 35.3477C103.788 35.1915 103.788 34.9377 103.632 34.7815L102.232 33.3815C102.076 33.2252 101.822 33.2252 101.666 33.3815L101.667 33.3802ZM97.8334 33.3802C97.6772 33.224 97.4234 33.224 97.2672 33.3802L95.8672 34.7802C95.7109 34.9365 95.7109 35.1902 95.8672 35.3465L97.2672 36.7465C97.4234 36.9027 97.6772 36.9027 97.8334 36.7465C97.9897 36.5902 97.9897 36.3365 97.8334 36.1802L96.7159 35.064L97.8334 33.9465C97.9897 33.7902 97.9897 33.5365 97.8334 33.3802Z" fill="#E6E6E6"/>
</g>
</g>
<path d="M34.7109 19.7447C34.7109 15.1114 38.4669 11.3555 43.1001 11.3555H156.901C161.534 11.3555 165.291 15.1114 165.291 19.7447V153.972C165.291 158.605 161.534 162.361 156.901 162.361H43.1001C38.4669 162.361 34.7109 158.605 34.7109 153.972V19.7447Z" stroke="#E6E6E6"/>
</g>
</g>
</g>
<defs>
<filter id="filter0_ddd_19_71964" x="5.86328" y="10.8555" width="188.27" height="177.324" filterUnits="userSpaceOnUse" color-interpolation-filters="sRGB">
<feFlood flood-opacity="0" result="BackgroundImageFix"/>
<feColorMatrix in="SourceAlpha" type="matrix" values="0 0 0 0 0 0 0 0 0 0 0 0 0 0 0 0 0 0 127 0" result="hardAlpha"/>
<feOffset dy="2"/>
<feGaussianBlur stdDeviation="1"/>
<feColorMatrix type="matrix" values="0 0 0 0 0.121569 0 0 0 0 0.156863 0 0 0 0 0.215686 0 0 0 0.02 0"/>
<feBlend mode="normal" in2="BackgroundImageFix" result="effect1_dropShadow_19_71964"/>
<feColorMatrix in="SourceAlpha" type="matrix" values="0 0 0 0 0 0 0 0 0 0 0 0 0 0 0 0 0 0 127 0" result="hardAlpha"/>
<feOffset dy="5"/>
<feGaussianBlur stdDeviation="2.5"/>
<feColorMatrix type="matrix" values="0 0 0 0 0.121569 0 0 0 0 0.156863 0 0 0 0 0.215686 0 0 0 0.02 0"/>
<feBlend mode="normal" in2="effect1_dropShadow_19_71964" result="effect2_dropShadow_19_71964"/>
<feColorMatrix in="SourceAlpha" type="matrix" values="0 0 0 0 0 0 0 0 0 0 0 0 0 0 0 0 0 0 127 0" result="hardAlpha"/>
<feOffset dy="4.23"/>
<feComposite in2="hardAlpha" operator="out"/>
<feColorMatrix type="matrix" values="0 0 0 0 0.97 0 0 0 0 0.97 0 0 0 0 0.97 0 0 0 1 0"/>
<feBlend mode="normal" in2="effect2_dropShadow_19_71964" result="effect3_dropShadow_19_71964"/>
<feBlend mode="normal" in="SourceGraphic" in2="effect3_dropShadow_19_71964" result="shape"/>
</filter>
<filter id="filter1_ddd_19_71964" x="53.3217" y="22.168" width="140.044" height="164.47" filterUnits="userSpaceOnUse" color-interpolation-filters="sRGB">
<feFlood flood-opacity="0" result="BackgroundImageFix"/>
<feColorMatrix in="SourceAlpha" type="matrix" values="0 0 0 0 0 0 0 0 0 0 0 0 0 0 0 0 0 0 127 0" result="hardAlpha"/>
<feOffset dy="1.69318"/>
<feGaussianBlur stdDeviation="0.846589"/>
<feColorMatrix type="matrix" values="0 0 0 0 0.121569 0 0 0 0 0.156863 0 0 0 0 0.215686 0 0 0 0.02 0"/>
<feBlend mode="normal" in2="BackgroundImageFix" result="effect1_dropShadow_19_71964"/>
<feColorMatrix in="SourceAlpha" type="matrix" values="0 0 0 0 0 0 0 0 0 0 0 0 0 0 0 0 0 0 127 0" result="hardAlpha"/>
<feOffset dy="4.23295"/>
<feGaussianBlur stdDeviation="2.11647"/>
<feColorMatrix type="matrix" values="0 0 0 0 0.121569 0 0 0 0 0.156863 0 0 0 0 0.215686 0 0 0 0.02 0"/>
<feBlend mode="normal" in2="effect1_dropShadow_19_71964" result="effect2_dropShadow_19_71964"/>
<feColorMatrix in="SourceAlpha" type="matrix" values="0 0 0 0 0 0 0 0 0 0 0 0 0 0 0 0 0 0 127 0" result="hardAlpha"/>
<feOffset dy="-4"/>
<feComposite in2="hardAlpha" operator="out"/>
<feColorMatrix type="matrix" values="0 0 0 0 0.97 0 0 0 0 0.97 0 0 0 0 0.97 0 0 0 1 0"/>
<feBlend mode="normal" in2="effect2_dropShadow_19_71964" result="effect3_dropShadow_19_71964"/>
<feBlend mode="normal" in="SourceGraphic" in2="effect3_dropShadow_19_71964" result="shape"/>
</filter>
<filter id="filter2_ddd_19_71964" x="6.63034" y="22.1758" width="140.044" height="164.47" filterUnits="userSpaceOnUse" color-interpolation-filters="sRGB">
<feFlood flood-opacity="0" result="BackgroundImageFix"/>
<feColorMatrix in="SourceAlpha" type="matrix" values="0 0 0 0 0 0 0 0 0 0 0 0 0 0 0 0 0 0 127 0" result="hardAlpha"/>
<feOffset dy="1.69318"/>
<feGaussianBlur stdDeviation="0.846589"/>
<feColorMatrix type="matrix" values="0 0 0 0 0.121569 0 0 0 0 0.156863 0 0 0 0 0.215686 0 0 0 0.02 0"/>
<feBlend mode="normal" in2="BackgroundImageFix" result="effect1_dropShadow_19_71964"/>
<feColorMatrix in="SourceAlpha" type="matrix" values="0 0 0 0 0 0 0 0 0 0 0 0 0 0 0 0 0 0 127 0" result="hardAlpha"/>
<feOffset dy="4.23295"/>
<feGaussianBlur stdDeviation="2.11647"/>
<feColorMatrix type="matrix" values="0 0 0 0 0.121569 0 0 0 0 0.156863 0 0 0 0 0.215686 0 0 0 0.02 0"/>
<feBlend mode="normal" in2="effect1_dropShadow_19_71964" result="effect2_dropShadow_19_71964"/>
<feColorMatrix in="SourceAlpha" type="matrix" values="0 0 0 0 0 0 0 0 0 0 0 0 0 0 0 0 0 0 127 0" result="hardAlpha"/>
<feOffset dy="-4"/>
<feComposite in2="hardAlpha" operator="out"/>
<feColorMatrix type="matrix" values="0 0 0 0 0.97 0 0 0 0 0.97 0 0 0 0 0.97 0 0 0 1 0"/>
<feBlend mode="normal" in2="effect2_dropShadow_19_71964" result="effect3_dropShadow_19_71964"/>
<feBlend mode="normal" in="SourceGraphic" in2="effect3_dropShadow_19_71964" result="shape"/>
</filter>
<filter id="filter3_ddd_19_71964" x="29.978" y="6.85547" width="140.044" height="164.47" filterUnits="userSpaceOnUse" color-interpolation-filters="sRGB">
<feFlood flood-opacity="0" result="BackgroundImageFix"/>
<feColorMatrix in="SourceAlpha" type="matrix" values="0 0 0 0 0 0 0 0 0 0 0 0 0 0 0 0 0 0 127 0" result="hardAlpha"/>
<feOffset dy="1.69318"/>
<feGaussianBlur stdDeviation="0.846589"/>
<feColorMatrix type="matrix" values="0 0 0 0 0.121569 0 0 0 0 0.156863 0 0 0 0 0.215686 0 0 0 0.02 0"/>
<feBlend mode="normal" in2="BackgroundImageFix" result="effect1_dropShadow_19_71964"/>
<feColorMatrix in="SourceAlpha" type="matrix" values="0 0 0 0 0 0 0 0 0 0 0 0 0 0 0 0 0 0 127 0" result="hardAlpha"/>
<feOffset dy="4.23295"/>
<feGaussianBlur stdDeviation="2.11647"/>
<feColorMatrix type="matrix" values="0 0 0 0 0.121569 0 0 0 0 0.156863 0 0 0 0 0.215686 0 0 0 0.02 0"/>
<feBlend mode="normal" in2="effect1_dropShadow_19_71964" result="effect2_dropShadow_19_71964"/>
<feColorMatrix in="SourceAlpha" type="matrix" values="0 0 0 0 0 0 0 0 0 0 0 0 0 0 0 0 0 0 127 0" result="hardAlpha"/>
<feOffset dy="-4"/>
<feComposite in2="hardAlpha" operator="out"/>
<feColorMatrix type="matrix" values="0 0 0 0 0.97 0 0 0 0 0.97 0 0 0 0 0.97 0 0 0 1 0"/>
<feBlend mode="normal" in2="effect2_dropShadow_19_71964" result="effect3_dropShadow_19_71964"/>
<feBlend mode="normal" in="SourceGraphic" in2="effect3_dropShadow_19_71964" result="shape"/>
</filter>
<clipPath id="clip0_19_71964">
<rect width="200" height="95" fill="white"/>
</clipPath>
<clipPath id="clip1_19_71964">
<rect width="8" height="6.4" fill="white" transform="translate(95.75 31.8633)"/>
</clipPath>
</defs>
</svg>
