<svg width="200" height="95" viewBox="0 0 200 95" fill="none" xmlns="http://www.w3.org/2000/svg">
<g clip-path="url(#clip0_21_69188)">
<rect width="200" height="95" fill="#F9FAFB"/>
<g clip-path="url(#clip1_21_69188)">
<g filter="url(#filter0_ddd_21_69188)">
<path d="M133.53 39.043H65.281C62.6589 39.043 60.5332 40.9765 60.5332 43.3616V51.9987C60.5332 54.3838 62.6589 56.3173 65.281 56.3173H133.53C136.152 56.3173 138.278 54.3838 138.278 51.9987V43.3616C138.278 40.9765 136.152 39.043 133.53 39.043Z" fill="white"/>
<path d="M133.53 39.043H65.281C62.6589 39.043 60.5332 40.9765 60.5332 43.3616V51.9987C60.5332 54.3838 62.6589 56.3173 65.281 56.3173H133.53C136.152 56.3173 138.278 54.3838 138.278 51.9987V43.3616C138.278 40.9765 136.152 39.043 133.53 39.043Z" stroke="#E6E6E6" stroke-width="0.6"/>
<path d="M80.566 50.06C80.234 50.06 79.968 49.948 79.768 49.724C79.568 49.5 79.468 49.198 79.468 48.818V47.888C79.468 47.504 79.568 47.2 79.768 46.976C79.968 46.752 80.234 46.64 80.566 46.64C80.838 46.64 81.054 46.716 81.214 46.868C81.374 47.016 81.454 47.22 81.454 47.48L81.316 47.33H81.466L81.448 46.562V45.62H82.096V50H81.454V49.37H81.316L81.454 49.22C81.454 49.48 81.374 49.686 81.214 49.838C81.054 49.986 80.838 50.06 80.566 50.06ZM80.788 49.496C80.992 49.496 81.152 49.434 81.268 49.31C81.388 49.182 81.448 49.006 81.448 48.782V47.918C81.448 47.694 81.388 47.52 81.268 47.396C81.152 47.268 80.992 47.204 80.788 47.204C80.576 47.204 80.41 47.266 80.29 47.39C80.17 47.51 80.11 47.686 80.11 47.918V48.782C80.11 49.014 80.17 49.192 80.29 49.316C80.41 49.436 80.576 49.496 80.788 49.496ZM82.9637 50V49.412H84.1217V47.288H83.1137V46.7H84.7517V49.412H85.8137V50H82.9637ZM84.3737 46.13C84.2337 46.13 84.1217 46.094 84.0377 46.022C83.9537 45.946 83.9117 45.846 83.9117 45.722C83.9117 45.594 83.9537 45.494 84.0377 45.422C84.1217 45.346 84.2337 45.308 84.3737 45.308C84.5137 45.308 84.6257 45.346 84.7097 45.422C84.7937 45.494 84.8357 45.594 84.8357 45.722C84.8357 45.846 84.7937 45.946 84.7097 46.022C84.6257 46.094 84.5137 46.13 84.3737 46.13ZM86.8913 51.08V50.522H87.9053C88.0733 50.522 88.1973 50.482 88.2773 50.402C88.3613 50.322 88.4033 50.204 88.4033 50.048V49.718L88.4153 49.106H88.2773L88.4093 48.986C88.4093 49.238 88.3293 49.436 88.1693 49.58C88.0133 49.724 87.8013 49.796 87.5333 49.796C87.1933 49.796 86.9253 49.684 86.7293 49.46C86.5333 49.236 86.4353 48.934 86.4353 48.554V47.882C86.4353 47.502 86.5333 47.2 86.7293 46.976C86.9253 46.752 87.1933 46.64 87.5333 46.64C87.8013 46.64 88.0133 46.714 88.1693 46.862C88.3293 47.006 88.4093 47.204 88.4093 47.456L88.2773 47.33H88.4093L88.4033 46.7H89.0453V50.06C89.0453 50.376 88.9453 50.624 88.7453 50.804C88.5453 50.988 88.2673 51.08 87.9113 51.08H86.8913ZM87.7433 49.238C87.9473 49.238 88.1073 49.176 88.2233 49.052C88.3433 48.924 88.4033 48.748 88.4033 48.524V47.918C88.4033 47.694 88.3433 47.52 88.2233 47.396C88.1073 47.268 87.9473 47.204 87.7433 47.204C87.5313 47.204 87.3673 47.266 87.2513 47.39C87.1393 47.51 87.0833 47.686 87.0833 47.918V48.524C87.0833 48.752 87.1393 48.928 87.2513 49.052C87.3673 49.176 87.5313 49.238 87.7433 49.238ZM91.233 50.06C90.965 50.06 90.729 50.008 90.525 49.904C90.325 49.796 90.171 49.646 90.063 49.454C89.955 49.262 89.901 49.038 89.901 48.782V47.918C89.901 47.658 89.955 47.434 90.063 47.246C90.171 47.054 90.325 46.906 90.525 46.802C90.729 46.694 90.965 46.64 91.233 46.64C91.505 46.64 91.741 46.694 91.941 46.802C92.141 46.906 92.295 47.054 92.403 47.246C92.511 47.434 92.565 47.658 92.565 47.918V48.506H90.525V48.782C90.525 49.026 90.585 49.212 90.705 49.34C90.829 49.468 91.007 49.532 91.239 49.532C91.427 49.532 91.579 49.5 91.695 49.436C91.811 49.368 91.883 49.27 91.911 49.142H92.553C92.505 49.422 92.361 49.646 92.121 49.814C91.881 49.978 91.585 50.06 91.233 50.06ZM91.941 48.116V47.912C91.941 47.672 91.881 47.486 91.761 47.354C91.641 47.222 91.465 47.156 91.233 47.156C91.005 47.156 90.829 47.222 90.705 47.354C90.585 47.486 90.525 47.674 90.525 47.918V48.068L91.989 48.062L91.941 48.116ZM94.5966 50.054C94.3606 50.054 94.1526 50.016 93.9726 49.94C93.7966 49.864 93.6566 49.76 93.5526 49.628C93.4526 49.492 93.3946 49.332 93.3786 49.148H94.0266C94.0426 49.256 94.1006 49.344 94.2006 49.412C94.3006 49.476 94.4326 49.508 94.5966 49.508H94.8546C95.0506 49.508 95.1986 49.468 95.2986 49.388C95.3986 49.308 95.4486 49.202 95.4486 49.07C95.4486 48.942 95.4026 48.842 95.3106 48.77C95.2226 48.694 95.0906 48.644 94.9146 48.62L94.4886 48.554C94.1366 48.498 93.8766 48.398 93.7086 48.254C93.5446 48.106 93.4626 47.888 93.4626 47.6C93.4626 47.296 93.5606 47.062 93.7566 46.898C93.9566 46.73 94.2506 46.646 94.6386 46.646H94.8666C95.2106 46.646 95.4846 46.726 95.6886 46.886C95.8966 47.042 96.0146 47.252 96.0426 47.516H95.3946C95.3786 47.42 95.3246 47.342 95.2326 47.282C95.1446 47.222 95.0226 47.192 94.8666 47.192H94.6386C94.4506 47.192 94.3126 47.228 94.2246 47.3C94.1406 47.368 94.0986 47.47 94.0986 47.606C94.0986 47.726 94.1366 47.816 94.2126 47.876C94.2886 47.936 94.4066 47.978 94.5666 48.002L95.0046 48.074C95.3766 48.126 95.6486 48.23 95.8206 48.386C95.9966 48.538 96.0846 48.76 96.0846 49.052C96.0846 49.368 95.9806 49.614 95.7726 49.79C95.5686 49.966 95.2626 50.054 94.8546 50.054H94.5966ZM98.5483 50C98.2483 50 98.0143 49.918 97.8463 49.754C97.6783 49.59 97.5943 49.362 97.5943 49.07V47.288H96.6823V46.7H97.5943V45.77H98.2423V46.7H99.5323V47.288H98.2423V49.07C98.2423 49.298 98.3523 49.412 98.5723 49.412H99.4723V50H98.5483ZM105.144 50.06C104.876 50.06 104.64 50.008 104.436 49.904C104.236 49.796 104.082 49.646 103.974 49.454C103.866 49.262 103.812 49.038 103.812 48.782V47.918C103.812 47.658 103.866 47.434 103.974 47.246C104.082 47.054 104.236 46.906 104.436 46.802C104.64 46.694 104.876 46.64 105.144 46.64C105.416 46.64 105.652 46.694 105.852 46.802C106.052 46.906 106.206 47.054 106.314 47.246C106.422 47.434 106.476 47.658 106.476 47.918V48.506H104.436V48.782C104.436 49.026 104.496 49.212 104.616 49.34C104.74 49.468 104.918 49.532 105.15 49.532C105.338 49.532 105.49 49.5 105.606 49.436C105.722 49.368 105.794 49.27 105.822 49.142H106.464C106.416 49.422 106.272 49.646 106.032 49.814C105.792 49.978 105.496 50.06 105.144 50.06ZM105.852 48.116V47.912C105.852 47.672 105.792 47.486 105.672 47.354C105.552 47.222 105.376 47.156 105.144 47.156C104.916 47.156 104.74 47.222 104.616 47.354C104.496 47.486 104.436 47.674 104.436 47.918V48.068L105.9 48.062L105.852 48.116ZM107.325 50V46.7H107.967V47.33H108.123L107.967 47.48C107.967 47.216 108.045 47.01 108.201 46.862C108.357 46.714 108.573 46.64 108.849 46.64C109.177 46.64 109.439 46.746 109.635 46.958C109.831 47.166 109.929 47.448 109.929 47.804V50H109.281V47.876C109.281 47.66 109.223 47.494 109.107 47.378C108.991 47.262 108.833 47.204 108.633 47.204C108.429 47.204 108.267 47.266 108.147 47.39C108.031 47.51 107.973 47.686 107.973 47.918V50H107.325ZM111.235 51.08V50.522H112.249C112.417 50.522 112.541 50.482 112.621 50.402C112.705 50.322 112.747 50.204 112.747 50.048V49.718L112.759 49.106H112.621L112.753 48.986C112.753 49.238 112.673 49.436 112.513 49.58C112.357 49.724 112.145 49.796 111.877 49.796C111.537 49.796 111.269 49.684 111.073 49.46C110.877 49.236 110.779 48.934 110.779 48.554V47.882C110.779 47.502 110.877 47.2 111.073 46.976C111.269 46.752 111.537 46.64 111.877 46.64C112.145 46.64 112.357 46.714 112.513 46.862C112.673 47.006 112.753 47.204 112.753 47.456L112.621 47.33H112.753L112.747 46.7H113.389V50.06C113.389 50.376 113.289 50.624 113.089 50.804C112.889 50.988 112.611 51.08 112.255 51.08H111.235ZM112.087 49.238C112.291 49.238 112.451 49.176 112.567 49.052C112.687 48.924 112.747 48.748 112.747 48.524V47.918C112.747 47.694 112.687 47.52 112.567 47.396C112.451 47.268 112.291 47.204 112.087 47.204C111.875 47.204 111.711 47.266 111.595 47.39C111.483 47.51 111.427 47.686 111.427 47.918V48.524C111.427 48.752 111.483 48.928 111.595 49.052C111.711 49.176 111.875 49.238 112.087 49.238ZM114.263 50V49.412H115.421V47.288H114.413V46.7H116.051V49.412H117.113V50H114.263ZM115.673 46.13C115.533 46.13 115.421 46.094 115.337 46.022C115.253 45.946 115.211 45.846 115.211 45.722C115.211 45.594 115.253 45.494 115.337 45.422C115.421 45.346 115.533 45.308 115.673 45.308C115.813 45.308 115.925 45.346 116.009 45.422C116.093 45.494 116.135 45.594 116.135 45.722C116.135 45.846 116.093 45.946 116.009 46.022C115.925 46.094 115.813 46.13 115.673 46.13ZM117.758 50V46.7H118.4V47.33H118.556L118.4 47.48C118.4 47.216 118.478 47.01 118.634 46.862C118.79 46.714 119.006 46.64 119.282 46.64C119.61 46.64 119.872 46.746 120.068 46.958C120.264 47.166 120.362 47.448 120.362 47.804V50H119.714V47.876C119.714 47.66 119.656 47.494 119.54 47.378C119.424 47.262 119.266 47.204 119.066 47.204C118.862 47.204 118.7 47.266 118.58 47.39C118.464 47.51 118.406 47.686 118.406 47.918V50H117.758ZM122.532 50.06C122.264 50.06 122.028 50.008 121.824 49.904C121.624 49.796 121.47 49.646 121.362 49.454C121.254 49.262 121.2 49.038 121.2 48.782V47.918C121.2 47.658 121.254 47.434 121.362 47.246C121.47 47.054 121.624 46.906 121.824 46.802C122.028 46.694 122.264 46.64 122.532 46.64C122.804 46.64 123.04 46.694 123.24 46.802C123.44 46.906 123.594 47.054 123.702 47.246C123.81 47.434 123.864 47.658 123.864 47.918V48.506H121.824V48.782C121.824 49.026 121.884 49.212 122.004 49.34C122.128 49.468 122.306 49.532 122.538 49.532C122.726 49.532 122.878 49.5 122.994 49.436C123.11 49.368 123.182 49.27 123.21 49.142H123.852C123.804 49.422 123.66 49.646 123.42 49.814C123.18 49.978 122.884 50.06 122.532 50.06ZM123.24 48.116V47.912C123.24 47.672 123.18 47.486 123.06 47.354C122.94 47.222 122.764 47.156 122.532 47.156C122.304 47.156 122.128 47.222 122.004 47.354C121.884 47.486 121.824 47.674 121.824 47.918V48.068L123.288 48.062L123.24 48.116Z" fill="#D6D6D6"/>
<g clip-path="url(#clip2_21_69188)">
<path fill-rule="evenodd" clip-rule="evenodd" d="M70.25 44.5C70.25 44.5 68.2932 46.374 67.9706 46.6986C67.9306 46.7388 67.9249 46.8011 67.957 46.8477C67.989 46.8943 68.05 46.9123 68.1028 46.8907L69.9527 46.1367L71.8874 49.1802C71.9203 49.232 71.9879 49.2506 72.0434 49.2232C72.0989 49.1958 72.1242 49.1314 72.1016 49.0745C71.8552 48.4525 70.25 44.5 70.25 44.5ZM69.1465 47.5193C69.1776 47.4667 69.163 47.3994 69.1128 47.3638C69.0625 47.3282 68.993 47.3359 68.9521 47.3816C68.5624 47.8165 66 50.75 66 50.75C66 50.75 68.5931 51.4015 69.0154 51.497C69.071 51.5096 69.1279 51.482 69.1518 51.431C69.1756 51.3801 69.1598 51.3197 69.114 51.2864L67.5808 50.1715L69.1465 47.5193ZM73.027 48.2947C73.008 48.2398 72.9515 48.2065 72.8934 48.216C72.8353 48.2255 72.7927 48.2749 72.7927 48.3328V50.1912L69.2264 50.2599C69.1641 50.2611 69.1131 50.3088 69.1086 50.3698C69.1042 50.4309 69.1479 50.4852 69.2094 50.495C69.8409 50.5963 74 51.2864 74 51.2864C74 51.2864 73.1655 48.6948 73.027 48.2947Z" fill="#D6D6D6"/>
</g>
</g>
<g filter="url(#filter1_ddd_21_69188)">
<path d="M133.53 69.8125H65.281C62.6589 69.8125 60.5332 71.746 60.5332 74.1311V82.7683C60.5332 85.1533 62.6589 87.0868 65.281 87.0868H133.53C136.152 87.0868 138.278 85.1533 138.278 82.7683V74.1311C138.278 71.746 136.152 69.8125 133.53 69.8125Z" fill="white"/>
<path d="M133.53 69.8125H65.281C62.6589 69.8125 60.5332 71.746 60.5332 74.1311V82.7683C60.5332 85.1533 62.6589 87.0868 65.281 87.0868H133.53C136.152 87.0868 138.278 85.1533 138.278 82.7683V74.1311C138.278 71.746 136.152 69.8125 133.53 69.8125Z" stroke="#E6E6E6" stroke-width="0.6"/>
<path d="M124.993 75.2109H80.3476C79.2377 75.2109 78.3379 76.0294 78.3379 77.039V79.8608C78.3379 80.8704 79.2377 81.6888 80.3476 81.6888H124.993C126.103 81.6888 127.003 80.8704 127.003 79.8608V77.039C127.003 76.0294 126.103 75.2109 124.993 75.2109Z" fill="#EBECEF"/>
<path d="M73.5904 78.4499C73.5904 76.6611 71.9962 75.2109 70.0296 75.2109C68.063 75.2109 66.4688 76.6611 66.4688 78.4499C66.4688 80.2387 68.063 81.6888 70.0296 81.6888C71.9962 81.6888 73.5904 80.2387 73.5904 78.4499Z" fill="#EBECEF"/>
</g>
<g filter="url(#filter2_ddd_21_69188)">
<path d="M133.53 8.8125H65.281C62.6589 8.8125 60.5332 10.746 60.5332 13.1311V21.7683C60.5332 24.1533 62.6589 26.0868 65.281 26.0868H133.53C136.152 26.0868 138.278 24.1533 138.278 21.7683V13.1311C138.278 10.746 136.152 8.8125 133.53 8.8125Z" fill="white"/>
<path d="M133.53 8.8125H65.281C62.6589 8.8125 60.5332 10.746 60.5332 13.1311V21.7683C60.5332 24.1533 62.6589 26.0868 65.281 26.0868H133.53C136.152 26.0868 138.278 24.1533 138.278 21.7683V13.1311C138.278 10.746 136.152 8.8125 133.53 8.8125Z" stroke="#E6E6E6" stroke-width="0.6"/>
<path d="M124.993 14.2109H80.3476C79.2377 14.2109 78.3379 15.0294 78.3379 16.039V18.8608C78.3379 19.8704 79.2377 20.6888 80.3476 20.6888H124.993C126.103 20.6888 127.003 19.8704 127.003 18.8608V16.039C127.003 15.0294 126.103 14.2109 124.993 14.2109Z" fill="#EBECEF"/>
<path d="M73.5904 17.4499C73.5904 15.6611 71.9962 14.2109 70.0296 14.2109C68.063 14.2109 66.4688 15.6611 66.4688 17.4499C66.4688 19.2387 68.063 20.6888 70.0296 20.6888C71.9962 20.6888 73.5904 19.2387 73.5904 17.4499Z" fill="#EBECEF"/>
</g>
<mask id="path-13-inside-1_21_69188" fill="white">
<path d="M99.5544 57.8029C99.5544 57.7284 99.488 57.668 99.4061 57.668C99.3242 57.668 99.2577 57.7284 99.2577 57.8029H99.5544ZM98.7473 66.9799C98.6654 66.9799 98.6073 67.0711 98.6482 67.1359L99.307 68.1735C99.3479 68.2382 99.4642 68.2382 99.5052 68.1735L100.164 67.1359C100.205 67.0711 100.147 66.9799 100.065 66.9799H98.7473ZM99.2577 57.8029V58.6801H99.5544V57.8029H99.2577ZM99.2577 60.4346V62.189H99.5544V60.4346H99.2577ZM99.2577 63.9434V65.6978H99.5544V63.9434H99.2577Z"/>
</mask>
<path d="M99.5544 57.8029C99.5544 57.7284 99.488 57.668 99.4061 57.668C99.3242 57.668 99.2577 57.7284 99.2577 57.8029H99.5544ZM98.7473 66.9799C98.6654 66.9799 98.6073 67.0711 98.6482 67.1359L99.307 68.1735C99.3479 68.2382 99.4642 68.2382 99.5052 68.1735L100.164 67.1359C100.205 67.0711 100.147 66.9799 100.065 66.9799H98.7473ZM99.2577 57.8029V58.6801H99.5544V57.8029H99.2577ZM99.2577 60.4346V62.189H99.5544V60.4346H99.2577ZM99.2577 63.9434V65.6978H99.5544V63.9434H99.2577Z" fill="#B7BEC7"/>
<path d="M99.2577 58.3029H99.5544V57.3029H99.2577V58.3029ZM98.6482 67.1359L97.8029 67.6703L97.804 67.6719L98.6482 67.1359ZM99.307 68.1735L100.152 67.6391L100.151 67.6375L99.307 68.1735ZM99.5052 68.1735L98.661 67.6375L98.6599 67.6391L99.5052 68.1735ZM100.164 67.1359L101.008 67.6719L101.009 67.6703L100.164 67.1359ZM99.2577 58.6801H98.2577V59.6801H99.2577V58.6801ZM99.5544 58.6801V59.6801H100.554V58.6801H99.5544ZM99.2577 60.4346V59.4346H98.2577V60.4346H99.2577ZM99.2577 62.189H98.2577V63.189H99.2577V62.189ZM99.5544 62.189V63.189H100.554V62.189H99.5544ZM99.5544 60.4346H100.554V59.4346H99.5544V60.4346ZM99.2577 63.9434V62.9434H98.2577V63.9434H99.2577ZM99.2577 65.6978H98.2577V66.6978H99.2577V65.6978ZM99.5544 65.6978V66.6978H100.554V65.6978H99.5544ZM99.5544 63.9434H100.554V62.9434H99.5544V63.9434ZM100.554 57.8029C100.554 57.0891 99.949 56.668 99.4061 56.668V58.668C99.027 58.668 98.5544 58.3678 98.5544 57.8029H100.554ZM99.4061 56.668C98.8632 56.668 98.2577 57.0891 98.2577 57.8029H100.258C100.258 58.3678 99.7852 58.668 99.4061 58.668V56.668ZM98.7473 65.9799C98.3233 65.9799 97.9879 66.214 97.8079 66.4969C97.6279 66.78 97.5323 67.2421 97.8029 67.6703L99.4935 66.6016C99.7232 66.9649 99.6362 67.3491 99.4955 67.5703C99.3548 67.7915 99.0895 67.9799 98.7473 67.9799V65.9799ZM97.804 67.6719L98.4627 68.7095L100.151 67.6375L99.4924 66.5999L97.804 67.6719ZM98.4617 68.7078C98.7158 69.1097 99.13 69.222 99.4061 69.222C99.6822 69.222 100.096 69.1097 100.35 68.7078L98.6599 67.6391C98.873 67.302 99.2086 67.222 99.4061 67.222C99.6035 67.222 99.9391 67.302 100.152 67.6391L98.4617 68.7078ZM100.349 68.7095L101.008 67.6719L99.3197 66.5999L98.661 67.6375L100.349 68.7095ZM101.009 67.6703C101.28 67.2421 101.184 66.78 101.004 66.4969C100.824 66.214 100.489 65.9799 100.065 65.9799V67.9799C99.7227 67.9799 99.4573 67.7915 99.3167 67.5703C99.1759 67.3491 99.089 66.9649 99.3187 66.6016L101.009 67.6703ZM100.065 65.9799H98.7473V67.9799H100.065V65.9799ZM98.2577 57.8029V58.6801H100.258V57.8029H98.2577ZM99.2577 59.6801H99.5544V57.6801H99.2577V59.6801ZM100.554 58.6801V57.8029H98.5544V58.6801H100.554ZM98.2577 60.4346V62.189H100.258V60.4346H98.2577ZM99.2577 63.189H99.5544V61.189H99.2577V63.189ZM100.554 62.189V60.4346H98.5544V62.189H100.554ZM99.5544 59.4346H99.2577V61.4346H99.5544V59.4346ZM98.2577 63.9434V65.6978H100.258V63.9434H98.2577ZM99.2577 66.6978H99.5544V64.6978H99.2577V66.6978ZM100.554 65.6978V63.9434H98.5544V65.6978H100.554ZM99.5544 62.9434H99.2577V64.9434H99.5544V62.9434Z" fill="#E9E9E9" mask="url(#path-13-inside-1_21_69188)"/>
<mask id="path-15-inside-2_21_69188" fill="white">
<path d="M99.5544 27.5725C99.5544 27.4979 99.488 27.4375 99.4061 27.4375C99.3242 27.4375 99.2577 27.4979 99.2577 27.5725H99.5544ZM98.7473 36.2096C98.6654 36.2096 98.6073 36.3009 98.6482 36.3655L99.307 37.4033C99.3479 37.4679 99.4642 37.4679 99.5052 37.4033L100.164 36.3655C100.205 36.3009 100.147 36.2096 100.065 36.2096H98.7473ZM99.2577 27.5725V28.4047H99.5544V27.5725H99.2577ZM99.2577 30.0691V31.7336H99.5544V30.0691H99.2577ZM99.2577 33.3981V35.0625H99.5544V33.3981H99.2577Z"/>
</mask>
<path d="M99.5544 27.5725C99.5544 27.4979 99.488 27.4375 99.4061 27.4375C99.3242 27.4375 99.2577 27.4979 99.2577 27.5725H99.5544ZM98.7473 36.2096C98.6654 36.2096 98.6073 36.3009 98.6482 36.3655L99.307 37.4033C99.3479 37.4679 99.4642 37.4679 99.5052 37.4033L100.164 36.3655C100.205 36.3009 100.147 36.2096 100.065 36.2096H98.7473ZM99.2577 27.5725V28.4047H99.5544V27.5725H99.2577ZM99.2577 30.0691V31.7336H99.5544V30.0691H99.2577ZM99.2577 33.3981V35.0625H99.5544V33.3981H99.2577Z" fill="#B7BEC7"/>
<path d="M99.2577 28.0725H99.5544V27.0725H99.2577V28.0725ZM98.6482 36.3655L97.8037 36.9011L97.8039 36.9014L98.6482 36.3655ZM99.307 37.4033L100.151 36.8677L100.151 36.8675L99.307 37.4033ZM99.5052 37.4033L98.6609 36.8675L98.6607 36.8677L99.5052 37.4033ZM100.164 36.3655L101.008 36.9014L101.008 36.9011L100.164 36.3655ZM99.2577 28.4047H98.2577V29.4047H99.2577V28.4047ZM99.5544 28.4047V29.4047H100.554V28.4047H99.5544ZM99.2577 30.0691V29.0691H98.2577V30.0691H99.2577ZM99.2577 31.7336H98.2577V32.7336H99.2577V31.7336ZM99.5544 31.7336V32.7336H100.554V31.7336H99.5544ZM99.5544 30.0691H100.554V29.0691H99.5544V30.0691ZM99.2577 33.3981V32.3981H98.2577V33.3981H99.2577ZM99.2577 35.0625H98.2577V36.0625H99.2577V35.0625ZM99.5544 35.0625V36.0625H100.554V35.0625H99.5544ZM99.5544 33.3981H100.554V32.3981H99.5544V33.3981ZM100.554 27.5725C100.554 26.8583 99.9487 26.4375 99.4061 26.4375V28.4375C99.0272 28.4375 98.5544 28.1375 98.5544 27.5725H100.554ZM99.4061 26.4375C98.8634 26.4375 98.2577 26.8583 98.2577 27.5725H100.258C100.258 28.1375 99.7849 28.4375 99.4061 28.4375V26.4375ZM98.7473 35.2096C98.3231 35.2096 97.9879 35.4438 97.808 35.7265C97.6283 36.0089 97.5316 36.472 97.8037 36.9011L99.4927 35.8299C99.7239 36.1944 99.6358 36.5795 99.4954 36.8002C99.3548 37.021 99.0896 37.2096 98.7473 37.2096V35.2096ZM97.8039 36.9014L98.4627 37.9392L100.151 36.8675L99.4925 35.8296L97.8039 36.9014ZM98.4625 37.9389C98.7172 38.3405 99.1314 38.4518 99.4061 38.4518C99.6808 38.4518 100.095 38.3405 100.35 37.9389L98.6607 36.8677C98.8745 36.5307 99.21 36.4518 99.4061 36.4518C99.6021 36.4518 99.9377 36.5307 100.151 36.8677L98.4625 37.9389ZM100.349 37.9392L101.008 36.9014L99.3196 35.8296L98.6609 36.8675L100.349 37.9392ZM101.008 36.9011C101.281 36.472 101.184 36.0089 101.004 35.7265C100.824 35.4438 100.489 35.2096 100.065 35.2096V37.2096C99.7225 37.2096 99.4573 37.021 99.3168 36.8002C99.1764 36.5795 99.0883 36.1944 99.3195 35.8299L101.008 36.9011ZM100.065 35.2096H98.7473V37.2096H100.065V35.2096ZM98.2577 27.5725V28.4047H100.258V27.5725H98.2577ZM99.2577 29.4047H99.5544V27.4047H99.2577V29.4047ZM100.554 28.4047V27.5725H98.5544V28.4047H100.554ZM98.2577 30.0691V31.7336H100.258V30.0691H98.2577ZM99.2577 32.7336H99.5544V30.7336H99.2577V32.7336ZM100.554 31.7336V30.0691H98.5544V31.7336H100.554ZM99.5544 29.0691H99.2577V31.0691H99.5544V29.0691ZM98.2577 33.3981V35.0625H100.258V33.3981H98.2577ZM99.2577 36.0625H99.5544V34.0625H99.2577V36.0625ZM100.554 35.0625V33.3981H98.5544V35.0625H100.554ZM99.5544 32.3981H99.2577V34.3981H99.5544V32.3981Z" fill="#E9E9E9" mask="url(#path-15-inside-2_21_69188)"/>
<path d="M182.492 -9V112.46" stroke="#E9E9E9" stroke-width="0.5" stroke-dasharray="3 3"/>
<path d="M15.7266 -9V112.46" stroke="#E9E9E9" stroke-width="0.5" stroke-dasharray="3 3"/>
<path d="M60.2383 -8.73047V112.73" stroke="#E9E9E9" stroke-width="0.5" stroke-dasharray="3 3"/>
<path d="M138.576 -8.73047V112.73" stroke="#E9E9E9" stroke-width="0.5" stroke-dasharray="3 3"/>
<path d="M0.296875 86.8203H199.703" stroke="#E9E9E9" stroke-width="0.5" stroke-dasharray="3 3"/>
<path d="M0 8.54297H198.516" stroke="#E9E9E9" stroke-width="0.5" stroke-dasharray="3 3"/>
</g>
</g>
<defs>
<filter id="filter0_ddd_21_69188" x="55.9995" y="35.7422" width="86.8116" height="29.3409" filterUnits="userSpaceOnUse" color-interpolation-filters="sRGB">
<feFlood flood-opacity="0" result="BackgroundImageFix"/>
<feColorMatrix in="SourceAlpha" type="matrix" values="0 0 0 0 0 0 0 0 0 0 0 0 0 0 0 0 0 0 127 0" result="hardAlpha"/>
<feOffset dy="1.69318"/>
<feGaussianBlur stdDeviation="0.846589"/>
<feColorMatrix type="matrix" values="0 0 0 0 0.121569 0 0 0 0 0.156863 0 0 0 0 0.215686 0 0 0 0.02 0"/>
<feBlend mode="normal" in2="BackgroundImageFix" result="effect1_dropShadow_21_69188"/>
<feColorMatrix in="SourceAlpha" type="matrix" values="0 0 0 0 0 0 0 0 0 0 0 0 0 0 0 0 0 0 127 0" result="hardAlpha"/>
<feOffset dy="4.23295"/>
<feGaussianBlur stdDeviation="2.11647"/>
<feColorMatrix type="matrix" values="0 0 0 0 0.121569 0 0 0 0 0.156863 0 0 0 0 0.215686 0 0 0 0.02 0"/>
<feBlend mode="normal" in2="effect1_dropShadow_21_69188" result="effect2_dropShadow_21_69188"/>
<feColorMatrix in="SourceAlpha" type="matrix" values="0 0 0 0 0 0 0 0 0 0 0 0 0 0 0 0 0 0 127 0" result="hardAlpha"/>
<feOffset dy="-3"/>
<feComposite in2="hardAlpha" operator="out"/>
<feColorMatrix type="matrix" values="0 0 0 0 0.97 0 0 0 0 0.97 0 0 0 0 0.97 0 0 0 1 0"/>
<feBlend mode="normal" in2="effect2_dropShadow_21_69188" result="effect3_dropShadow_21_69188"/>
<feBlend mode="normal" in="SourceGraphic" in2="effect3_dropShadow_21_69188" result="shape"/>
</filter>
<filter id="filter1_ddd_21_69188" x="55.9995" y="66.5117" width="86.8116" height="29.3409" filterUnits="userSpaceOnUse" color-interpolation-filters="sRGB">
<feFlood flood-opacity="0" result="BackgroundImageFix"/>
<feColorMatrix in="SourceAlpha" type="matrix" values="0 0 0 0 0 0 0 0 0 0 0 0 0 0 0 0 0 0 127 0" result="hardAlpha"/>
<feOffset dy="1.69318"/>
<feGaussianBlur stdDeviation="0.846589"/>
<feColorMatrix type="matrix" values="0 0 0 0 0.121569 0 0 0 0 0.156863 0 0 0 0 0.215686 0 0 0 0.02 0"/>
<feBlend mode="normal" in2="BackgroundImageFix" result="effect1_dropShadow_21_69188"/>
<feColorMatrix in="SourceAlpha" type="matrix" values="0 0 0 0 0 0 0 0 0 0 0 0 0 0 0 0 0 0 127 0" result="hardAlpha"/>
<feOffset dy="4.23295"/>
<feGaussianBlur stdDeviation="2.11647"/>
<feColorMatrix type="matrix" values="0 0 0 0 0.121569 0 0 0 0 0.156863 0 0 0 0 0.215686 0 0 0 0.02 0"/>
<feBlend mode="normal" in2="effect1_dropShadow_21_69188" result="effect2_dropShadow_21_69188"/>
<feColorMatrix in="SourceAlpha" type="matrix" values="0 0 0 0 0 0 0 0 0 0 0 0 0 0 0 0 0 0 127 0" result="hardAlpha"/>
<feOffset dy="-3"/>
<feComposite in2="hardAlpha" operator="out"/>
<feColorMatrix type="matrix" values="0 0 0 0 0.97 0 0 0 0 0.97 0 0 0 0 0.97 0 0 0 1 0"/>
<feBlend mode="normal" in2="effect2_dropShadow_21_69188" result="effect3_dropShadow_21_69188"/>
<feBlend mode="normal" in="SourceGraphic" in2="effect3_dropShadow_21_69188" result="shape"/>
</filter>
<filter id="filter2_ddd_21_69188" x="55.9995" y="5.51172" width="86.8116" height="29.3409" filterUnits="userSpaceOnUse" color-interpolation-filters="sRGB">
<feFlood flood-opacity="0" result="BackgroundImageFix"/>
<feColorMatrix in="SourceAlpha" type="matrix" values="0 0 0 0 0 0 0 0 0 0 0 0 0 0 0 0 0 0 127 0" result="hardAlpha"/>
<feOffset dy="1.69318"/>
<feGaussianBlur stdDeviation="0.846589"/>
<feColorMatrix type="matrix" values="0 0 0 0 0.121569 0 0 0 0 0.156863 0 0 0 0 0.215686 0 0 0 0.02 0"/>
<feBlend mode="normal" in2="BackgroundImageFix" result="effect1_dropShadow_21_69188"/>
<feColorMatrix in="SourceAlpha" type="matrix" values="0 0 0 0 0 0 0 0 0 0 0 0 0 0 0 0 0 0 127 0" result="hardAlpha"/>
<feOffset dy="4.23295"/>
<feGaussianBlur stdDeviation="2.11647"/>
<feColorMatrix type="matrix" values="0 0 0 0 0.121569 0 0 0 0 0.156863 0 0 0 0 0.215686 0 0 0 0.02 0"/>
<feBlend mode="normal" in2="effect1_dropShadow_21_69188" result="effect2_dropShadow_21_69188"/>
<feColorMatrix in="SourceAlpha" type="matrix" values="0 0 0 0 0 0 0 0 0 0 0 0 0 0 0 0 0 0 127 0" result="hardAlpha"/>
<feOffset dy="-3"/>
<feComposite in2="hardAlpha" operator="out"/>
<feColorMatrix type="matrix" values="0 0 0 0 0.97 0 0 0 0 0.97 0 0 0 0 0.97 0 0 0 1 0"/>
<feBlend mode="normal" in2="effect2_dropShadow_21_69188" result="effect3_dropShadow_21_69188"/>
<feBlend mode="normal" in="SourceGraphic" in2="effect3_dropShadow_21_69188" result="shape"/>
</filter>
<clipPath id="clip0_21_69188">
<rect width="200" height="95" fill="white"/>
</clipPath>
<clipPath id="clip1_21_69188">
<rect width="200" height="122" fill="white" transform="translate(0 -9)"/>
</clipPath>
<clipPath id="clip2_21_69188">
<rect width="8" height="8" fill="white" transform="translate(66 44)"/>
</clipPath>
</defs>
</svg>
