<svg width="200" height="95" viewBox="0 0 200 95" fill="none" xmlns="http://www.w3.org/2000/svg">
<g clip-path="url(#clip0_20_72042)">
<rect width="200" height="95" fill="#F9FAFB"/>
<g filter="url(#filter0_ddd_20_72042)">
<g opacity="0.72" filter="url(#filter1_ddd_20_72042)">
<path d="M57.6914 35.0586C57.6914 30.224 61.611 26.3047 66.4454 26.3047H180.247C185.081 26.3047 189.001 30.224 189.001 35.0586V169.286C189.001 174.12 185.081 178.04 180.247 178.04H66.4454C61.611 178.04 57.6914 174.12 57.6914 169.286V35.0586Z" fill="white"/>
<path d="M58.0547 35.0572C58.0547 30.4239 61.8109 26.668 66.4439 26.668H180.245C184.878 26.668 188.634 30.4239 188.634 35.0572V169.284C188.634 173.917 184.878 177.674 180.245 177.674H66.4439C61.8109 177.674 58.0547 173.917 58.0547 169.284V35.0572Z" stroke="#E6E6E6"/>
<path d="M109.489 62.7773H70.8262C70.0204 62.7773 69.3672 63.4306 69.3672 64.2363V67.1543C69.3672 67.9601 70.0204 68.6133 70.8262 68.6133H109.489C110.295 68.6133 110.948 67.9601 110.948 67.1543V64.2363C110.948 63.4306 110.295 62.7773 109.489 62.7773Z" fill="#EBECEF"/>
<path d="M141.581 36.5117H105.836C104.224 36.5117 102.918 37.8181 102.918 39.4297C102.918 41.0413 104.224 42.3477 105.836 42.3477H141.581C143.193 42.3477 144.499 41.0413 144.499 39.4297C144.499 37.8181 143.193 36.5117 141.581 36.5117Z" fill="#EBECEF"/>
<path d="M121.161 71.5312H70.8262C70.0204 71.5312 69.3672 72.1845 69.3672 72.9902V75.9082C69.3672 76.714 70.0204 77.3672 70.8262 77.3672H121.161C121.967 77.3672 122.62 76.714 122.62 75.9082V72.9902C122.62 72.1845 121.967 71.5312 121.161 71.5312Z" fill="#EBECEF"/>
<path d="M174.857 42.3516H132.38C131.016 42.3516 129.91 43.4576 129.91 44.8219V93.1344C129.91 94.4987 131.016 95.6047 132.38 95.6047H174.857C176.221 95.6047 177.327 94.4987 177.327 93.1344V44.8219C177.327 43.4576 176.221 42.3516 174.857 42.3516Z" fill="#F3F4F6"/>
<path d="M121.609 83.2109H71.8375C70.4732 83.2109 69.3672 84.3169 69.3672 85.6813V89.4946C69.3672 90.8589 70.4732 91.9649 71.8375 91.9649H121.609C122.973 91.9649 124.079 90.8589 124.079 89.4946V85.6813C124.079 84.3169 122.973 83.2109 121.609 83.2109Z" fill="#101010"/>
<mask id="mask0_20_72042" style="mask-type:luminance" maskUnits="userSpaceOnUse" x="69" y="36" width="24" height="6">
<path d="M92.7071 36.5078H69.3633V41.6143H92.7071V36.5078Z" fill="white"/>
</mask>
<g mask="url(#mask0_20_72042)">
<g opacity="0.8">
<path d="M71.6882 41.3405C70.362 41.3405 69.3633 40.2866 69.3633 38.9853C69.3633 37.6798 70.3109 36.6172 71.6882 36.6172C72.4191 36.6172 72.9247 36.8427 73.3201 37.3589L72.6825 37.8923C72.4148 37.6061 72.0916 37.463 71.6882 37.463C70.7909 37.463 70.2985 38.1526 70.2985 38.9853C70.2985 39.8181 70.8383 40.4947 71.6882 40.4947C72.0872 40.4947 72.4272 40.3516 72.6949 40.0654L73.3244 40.6205C72.9458 41.115 72.4272 41.3405 71.6882 41.3405Z" fill="#292929"/>
<path d="M76.0722 37.8697H76.9309V41.2528H76.0722V40.7583C75.8935 41.1097 75.5959 41.3439 75.0269 41.3439C74.1172 41.3439 73.3906 40.5501 73.3906 39.5743C73.3906 38.5984 74.1172 37.8047 75.0269 37.8047C75.5915 37.8047 75.8935 38.0389 76.0722 38.3902V37.8697ZM76.0978 39.5743C76.0978 39.0451 75.736 38.6071 75.1669 38.6071C74.6184 38.6071 74.2616 39.0494 74.2616 39.5743C74.2616 40.086 74.6184 40.5415 75.1669 40.5415C75.7323 40.5415 76.0978 40.0991 76.0978 39.5743Z" fill="#292929"/>
<path d="M77.5391 36.5078H78.3977V41.2528H77.5391V36.5078Z" fill="#292929"/>
<path d="M78.7773 40.8048C78.7773 40.5272 78.9984 40.293 79.3004 40.293C79.6024 40.293 79.8147 40.5272 79.8147 40.8048C79.8147 41.091 79.598 41.3253 79.3004 41.3253C79.0028 41.3253 78.7773 41.091 78.7773 40.8048Z" fill="#292929"/>
<path d="M83.0989 40.7063C82.7801 41.0967 82.2957 41.3439 81.7216 41.3439C80.6974 41.3439 79.9453 40.5501 79.9453 39.5743C79.9453 38.5984 80.6974 37.8047 81.7216 37.8047C82.2739 37.8047 82.7546 38.0389 83.0734 38.4075L82.4103 38.9671C82.2447 38.7589 82.028 38.6027 81.7216 38.6027C81.1738 38.6027 80.8163 39.0451 80.8163 39.5699C80.8163 40.0947 81.1738 40.5372 81.7216 40.5372C82.0528 40.5372 82.2826 40.3637 82.4526 40.1294L83.0989 40.7063Z" fill="#292929"/>
<path d="M83.1758 39.5743C83.1758 38.5984 83.9279 37.8047 84.9521 37.8047C85.9763 37.8047 86.7284 38.5984 86.7284 39.5743C86.7284 40.5501 85.9763 41.3439 84.9521 41.3439C83.9279 41.3395 83.1758 40.5501 83.1758 39.5743ZM85.8574 39.5743C85.8574 39.0451 85.5 38.6071 84.9521 38.6071C84.4035 38.6027 84.0468 39.0451 84.0468 39.5743C84.0468 40.0991 84.4035 40.5415 84.9521 40.5415C85.5 40.5415 85.8574 40.0991 85.8574 39.5743Z" fill="#292929"/>
<path d="M92.5312 39.1857V41.2502H91.6726V39.3982C91.6726 38.8127 91.4005 38.5611 90.9927 38.5611C90.6104 38.5611 90.3383 38.7519 90.3383 39.3982V41.2502H89.4797V39.3982C89.4797 38.8127 89.2032 38.5611 88.7998 38.5611C88.4176 38.5611 88.0813 38.7519 88.0813 39.3982V41.2502H87.2227V37.8671H88.0813V38.3356C88.26 37.9712 88.5832 37.7891 89.08 37.7891C89.5519 37.7891 89.9473 38.0233 90.164 38.418C90.3806 38.0146 90.6994 37.7891 91.2772 37.7891C91.9826 37.7934 92.5312 38.3312 92.5312 39.1857Z" fill="#292929"/>
</g>
</g>
</g>
<g opacity="0.72" filter="url(#filter2_ddd_20_72042)">
<mask id="mask1_20_72042" style="mask-type:luminance" maskUnits="userSpaceOnUse" x="11" y="26" width="132" height="153">
<path d="M11 35.0743C11 30.2396 14.9193 26.3203 19.7539 26.3203H133.555C138.39 26.3203 142.309 30.2396 142.309 35.0743V169.301C142.309 174.136 138.39 178.055 133.555 178.055H19.7539C14.9193 178.055 11 174.136 11 169.301V35.0743Z" fill="white"/>
</mask>
<g mask="url(#mask1_20_72042)">
<path d="M11 35.0743C11 30.2396 14.9193 26.3203 19.7539 26.3203H133.555C138.39 26.3203 142.309 30.2396 142.309 35.0743V169.301C142.309 174.136 138.39 178.055 133.555 178.055H19.7539C14.9193 178.055 11 174.136 11 169.301V35.0743Z" fill="white"/>
<path d="M62.798 37.9922H24.1348C23.329 37.9922 22.6758 38.6454 22.6758 39.4512V78.1144C22.6758 78.9202 23.329 79.5734 24.1348 79.5734H62.798C63.6038 79.5734 64.257 78.9202 64.257 78.1144V39.4512C64.257 38.6454 63.6038 37.9922 62.798 37.9922Z" fill="#EBECEF"/>
<path d="M94.8898 36.5273H59.1445C57.533 36.5273 56.2266 37.8338 56.2266 39.4453C56.2266 41.0569 57.533 42.3633 59.1445 42.3633H94.8898C96.5014 42.3633 97.8078 41.0569 97.8078 39.4453C97.8078 37.8338 96.5014 36.5273 94.8898 36.5273Z" fill="#EBECEF"/>
<path d="M74.47 85.4141H24.1348C23.329 85.4141 22.6758 86.0673 22.6758 86.8731V89.791C22.6758 90.5968 23.329 91.25 24.1348 91.25H74.47C75.2757 91.25 75.929 90.5968 75.929 89.791V86.8731C75.929 86.0673 75.2757 85.4141 74.47 85.4141Z" fill="#EBECEF"/>
<path d="M128.166 42.3672H85.6891C84.3248 42.3672 83.2188 43.4732 83.2188 44.8375V93.15C83.2188 94.5144 84.3248 95.6204 85.6891 95.6204H128.166C129.53 95.6204 130.636 94.5144 130.636 93.15V44.8375C130.636 43.4732 129.53 42.3672 128.166 42.3672Z" fill="#F3F4F6"/>
</g>
<path d="M11.3633 35.065C11.3633 30.4317 15.1192 26.6758 19.7525 26.6758H133.554C138.187 26.6758 141.943 30.4317 141.943 35.065V169.292C141.943 173.925 138.187 177.681 133.554 177.681H19.7525C15.1192 177.681 11.3633 173.925 11.3633 169.292V35.065Z" stroke="#E6E6E6"/>
</g>
<g filter="url(#filter3_ddd_20_72042)">
<mask id="mask2_20_72042" style="mask-type:luminance" maskUnits="userSpaceOnUse" x="34" y="11" width="132" height="152">
<path d="M34.3516 19.7539C34.3516 14.9193 38.2709 11 43.1055 11H156.907C161.741 11 165.661 14.9193 165.661 19.7539V153.981C165.661 158.816 161.741 162.735 156.907 162.735H43.1055C38.2709 162.735 34.3516 158.816 34.3516 153.981V19.7539Z" fill="white"/>
</mask>
<g mask="url(#mask2_20_72042)">
<path d="M34.3516 19.7539C34.3516 14.9193 38.2709 11 43.1055 11H156.907C161.741 11 165.661 14.9193 165.661 19.7539V153.981C165.661 158.816 161.741 162.735 156.907 162.735H43.1055C38.2709 162.735 34.3516 158.816 34.3516 153.981V19.7539Z" fill="white"/>
<path d="M42.504 90V86.7H43.146V87.33H43.302L43.146 87.48C43.146 87.216 43.224 87.01 43.38 86.862C43.536 86.714 43.752 86.64 44.028 86.64C44.356 86.64 44.618 86.746 44.814 86.958C45.01 87.166 45.108 87.448 45.108 87.804V90H44.46V87.876C44.46 87.66 44.402 87.494 44.286 87.378C44.17 87.262 44.012 87.204 43.812 87.204C43.608 87.204 43.446 87.266 43.326 87.39C43.21 87.51 43.152 87.686 43.152 87.918V90H42.504ZM47.2777 90.054C47.0057 90.054 46.7697 90.002 46.5697 89.898C46.3697 89.794 46.2157 89.646 46.1077 89.454C45.9997 89.262 45.9457 89.036 45.9457 88.776V87.924C45.9457 87.66 45.9997 87.434 46.1077 87.246C46.2157 87.054 46.3697 86.906 46.5697 86.802C46.7697 86.698 47.0057 86.646 47.2777 86.646C47.5497 86.646 47.7857 86.698 47.9857 86.802C48.1857 86.906 48.3397 87.054 48.4477 87.246C48.5557 87.434 48.6097 87.66 48.6097 87.924V88.776C48.6097 89.036 48.5557 89.262 48.4477 89.454C48.3397 89.646 48.1857 89.794 47.9857 89.898C47.7857 90.002 47.5497 90.054 47.2777 90.054ZM47.2777 89.484C47.4977 89.484 47.6677 89.424 47.7877 89.304C47.9077 89.18 47.9677 89.004 47.9677 88.776V87.924C47.9677 87.692 47.9077 87.516 47.7877 87.396C47.6677 87.276 47.4977 87.216 47.2777 87.216C47.0617 87.216 46.8917 87.276 46.7677 87.396C46.6477 87.516 46.5877 87.692 46.5877 87.924V88.776C46.5877 89.004 46.6477 89.18 46.7677 89.304C46.8917 89.424 47.0617 89.484 47.2777 89.484ZM50.3293 90L49.2373 86.7H49.8973L50.5753 88.812C50.6193 88.936 50.6573 89.062 50.6893 89.19C50.7253 89.314 50.7513 89.412 50.7673 89.484C50.7873 89.412 50.8133 89.314 50.8453 89.19C50.8813 89.062 50.9173 88.936 50.9533 88.812L51.6193 86.7H52.2733L51.1813 90H50.3293ZM54.227 90.06C53.831 90.06 53.515 89.946 53.279 89.718C53.043 89.486 52.925 89.172 52.925 88.776V86.7H53.573V88.776C53.573 89.004 53.631 89.182 53.747 89.31C53.863 89.434 54.023 89.496 54.227 89.496C54.435 89.496 54.597 89.434 54.713 89.31C54.833 89.182 54.893 89.004 54.893 88.776V86.7H55.541V88.776C55.541 89.172 55.421 89.486 55.181 89.718C54.945 89.946 54.627 90.06 54.227 90.06ZM63.8979 86.25H64.6599L66.0219 88.02L64.6539 89.79H63.8979L64.9779 88.41C64.9899 88.394 65.0019 88.378 65.0139 88.362C65.0259 88.346 65.0379 88.33 65.0499 88.314H59.7699V87.726H65.0439C65.0319 87.71 65.0179 87.694 65.0019 87.678C64.9899 87.658 64.9759 87.638 64.9599 87.618L63.8979 86.25ZM71.3873 90.06C71.0553 90.06 70.7893 89.948 70.5893 89.724C70.3893 89.5 70.2893 89.198 70.2893 88.818V87.888C70.2893 87.504 70.3893 87.2 70.5893 86.976C70.7893 86.752 71.0553 86.64 71.3873 86.64C71.6593 86.64 71.8753 86.716 72.0353 86.868C72.1953 87.016 72.2753 87.22 72.2753 87.48L72.1373 87.33H72.2873L72.2693 86.562V85.62H72.9173V90H72.2753V89.37H72.1373L72.2753 89.22C72.2753 89.48 72.1953 89.686 72.0353 89.838C71.8753 89.986 71.6593 90.06 71.3873 90.06ZM71.6093 89.496C71.8133 89.496 71.9733 89.434 72.0893 89.31C72.2093 89.182 72.2693 89.006 72.2693 88.782V87.918C72.2693 87.694 72.2093 87.52 72.0893 87.396C71.9733 87.268 71.8133 87.204 71.6093 87.204C71.3973 87.204 71.2313 87.266 71.1113 87.39C70.9913 87.51 70.9313 87.686 70.9313 87.918V88.782C70.9313 89.014 70.9913 89.192 71.1113 89.316C71.2313 89.436 71.3973 89.496 71.6093 89.496ZM73.7849 90V89.412H74.9429V87.288H73.9349V86.7H75.5729V89.412H76.6349V90H73.7849ZM75.1949 86.13C75.0549 86.13 74.9429 86.094 74.8589 86.022C74.7749 85.946 74.7329 85.846 74.7329 85.722C74.7329 85.594 74.7749 85.494 74.8589 85.422C74.9429 85.346 75.0549 85.308 75.1949 85.308C75.3349 85.308 75.4469 85.346 75.5309 85.422C75.6149 85.494 75.6569 85.594 75.6569 85.722C75.6569 85.846 75.6149 85.946 75.5309 86.022C75.4469 86.094 75.3349 86.13 75.1949 86.13ZM77.7126 91.08V90.522H78.7266C78.8946 90.522 79.0186 90.482 79.0986 90.402C79.1826 90.322 79.2246 90.204 79.2246 90.048V89.718L79.2366 89.106H79.0986L79.2306 88.986C79.2306 89.238 79.1506 89.436 78.9906 89.58C78.8346 89.724 78.6226 89.796 78.3546 89.796C78.0146 89.796 77.7466 89.684 77.5506 89.46C77.3546 89.236 77.2566 88.934 77.2566 88.554V87.882C77.2566 87.502 77.3546 87.2 77.5506 86.976C77.7466 86.752 78.0146 86.64 78.3546 86.64C78.6226 86.64 78.8346 86.714 78.9906 86.862C79.1506 87.006 79.2306 87.204 79.2306 87.456L79.0986 87.33H79.2306L79.2246 86.7H79.8666V90.06C79.8666 90.376 79.7666 90.624 79.5666 90.804C79.3666 90.988 79.0886 91.08 78.7326 91.08H77.7126ZM78.5646 89.238C78.7686 89.238 78.9286 89.176 79.0446 89.052C79.1646 88.924 79.2246 88.748 79.2246 88.524V87.918C79.2246 87.694 79.1646 87.52 79.0446 87.396C78.9286 87.268 78.7686 87.204 78.5646 87.204C78.3526 87.204 78.1886 87.266 78.0726 87.39C77.9606 87.51 77.9046 87.686 77.9046 87.918V88.524C77.9046 88.752 77.9606 88.928 78.0726 89.052C78.1886 89.176 78.3526 89.238 78.5646 89.238ZM82.0542 90.06C81.7862 90.06 81.5502 90.008 81.3462 89.904C81.1462 89.796 80.9922 89.646 80.8842 89.454C80.7762 89.262 80.7222 89.038 80.7222 88.782V87.918C80.7222 87.658 80.7762 87.434 80.8842 87.246C80.9922 87.054 81.1462 86.906 81.3462 86.802C81.5502 86.694 81.7862 86.64 82.0542 86.64C82.3262 86.64 82.5622 86.694 82.7622 86.802C82.9622 86.906 83.1162 87.054 83.2242 87.246C83.3322 87.434 83.3862 87.658 83.3862 87.918V88.506H81.3462V88.782C81.3462 89.026 81.4062 89.212 81.5262 89.34C81.6502 89.468 81.8282 89.532 82.0602 89.532C82.2482 89.532 82.4002 89.5 82.5162 89.436C82.6322 89.368 82.7042 89.27 82.7322 89.142H83.3742C83.3262 89.422 83.1822 89.646 82.9422 89.814C82.7022 89.978 82.4062 90.06 82.0542 90.06ZM82.7622 88.116V87.912C82.7622 87.672 82.7022 87.486 82.5822 87.354C82.4622 87.222 82.2862 87.156 82.0542 87.156C81.8262 87.156 81.6502 87.222 81.5262 87.354C81.4062 87.486 81.3462 87.674 81.3462 87.918V88.068L82.8102 88.062L82.7622 88.116ZM85.4179 90.054C85.1819 90.054 84.9739 90.016 84.7939 89.94C84.6179 89.864 84.4779 89.76 84.3739 89.628C84.2739 89.492 84.2159 89.332 84.1999 89.148H84.8479C84.8639 89.256 84.9219 89.344 85.0219 89.412C85.1219 89.476 85.2539 89.508 85.4179 89.508H85.6759C85.8719 89.508 86.0199 89.468 86.1199 89.388C86.2199 89.308 86.2699 89.202 86.2699 89.07C86.2699 88.942 86.2239 88.842 86.1319 88.77C86.0439 88.694 85.9119 88.644 85.7359 88.62L85.3099 88.554C84.9579 88.498 84.6979 88.398 84.5299 88.254C84.3659 88.106 84.2839 87.888 84.2839 87.6C84.2839 87.296 84.3819 87.062 84.5779 86.898C84.7779 86.73 85.0719 86.646 85.4599 86.646H85.6879C86.0319 86.646 86.3059 86.726 86.5099 86.886C86.7179 87.042 86.8359 87.252 86.8639 87.516H86.2159C86.1999 87.42 86.1459 87.342 86.0539 87.282C85.9659 87.222 85.8439 87.192 85.6879 87.192H85.4599C85.2719 87.192 85.1339 87.228 85.0459 87.3C84.9619 87.368 84.9199 87.47 84.9199 87.606C84.9199 87.726 84.9579 87.816 85.0339 87.876C85.1099 87.936 85.2279 87.978 85.3879 88.002L85.8259 88.074C86.1979 88.126 86.4699 88.23 86.6419 88.386C86.8179 88.538 86.9059 88.76 86.9059 89.052C86.9059 89.368 86.8019 89.614 86.5939 89.79C86.3899 89.966 86.0839 90.054 85.6759 90.054H85.4179ZM89.3695 90C89.0695 90 88.8355 89.918 88.6675 89.754C88.4995 89.59 88.4155 89.362 88.4155 89.07V87.288L87.5035 87.288V86.7L88.4155 86.7V85.77H89.0635V86.7H90.3535V87.288H89.0635V89.07C89.0635 89.298 89.1735 89.412 89.3935 89.412H90.2935V90H89.3695ZM95.9648 90.06C95.6968 90.06 95.4608 90.008 95.2568 89.904C95.0568 89.796 94.9028 89.646 94.7948 89.454C94.6868 89.262 94.6328 89.038 94.6328 88.782V87.918C94.6328 87.658 94.6868 87.434 94.7948 87.246C94.9028 87.054 95.0568 86.906 95.2568 86.802C95.4608 86.694 95.6968 86.64 95.9648 86.64C96.2368 86.64 96.4728 86.694 96.6728 86.802C96.8728 86.906 97.0268 87.054 97.1348 87.246C97.2428 87.434 97.2968 87.658 97.2968 87.918V88.506H95.2568V88.782C95.2568 89.026 95.3168 89.212 95.4368 89.34C95.5608 89.468 95.7388 89.532 95.9708 89.532C96.1588 89.532 96.3108 89.5 96.4268 89.436C96.5428 89.368 96.6148 89.27 96.6428 89.142H97.2848C97.2368 89.422 97.0928 89.646 96.8528 89.814C96.6128 89.978 96.3168 90.06 95.9648 90.06ZM96.6728 88.116V87.912C96.6728 87.672 96.6128 87.486 96.4928 87.354C96.3728 87.222 96.1968 87.156 95.9648 87.156C95.7368 87.156 95.5608 87.222 95.4368 87.354C95.3168 87.486 95.2568 87.674 95.2568 87.918V88.068L96.7208 88.062L96.6728 88.116ZM98.1465 90V86.7H98.7885V87.33H98.9445L98.7885 87.48C98.7885 87.216 98.8665 87.01 99.0225 86.862C99.1785 86.714 99.3945 86.64 99.6705 86.64C99.9985 86.64 100.261 86.746 100.457 86.958C100.653 87.166 100.751 87.448 100.751 87.804V90H100.103V87.876C100.103 87.66 100.045 87.494 99.9285 87.378C99.8125 87.262 99.6545 87.204 99.4545 87.204C99.2505 87.204 99.0885 87.266 98.9685 87.39C98.8525 87.51 98.7945 87.686 98.7945 87.918V90H98.1465ZM102.056 91.08V90.522H103.07C103.238 90.522 103.362 90.482 103.442 90.402C103.526 90.322 103.568 90.204 103.568 90.048V89.718L103.58 89.106H103.442L103.574 88.986C103.574 89.238 103.494 89.436 103.334 89.58C103.178 89.724 102.966 89.796 102.698 89.796C102.358 89.796 102.09 89.684 101.894 89.46C101.698 89.236 101.6 88.934 101.6 88.554V87.882C101.6 87.502 101.698 87.2 101.894 86.976C102.09 86.752 102.358 86.64 102.698 86.64C102.966 86.64 103.178 86.714 103.334 86.862C103.494 87.006 103.574 87.204 103.574 87.456L103.442 87.33H103.574L103.568 86.7H104.21V90.06C104.21 90.376 104.11 90.624 103.91 90.804C103.71 90.988 103.432 91.08 103.076 91.08H102.056ZM102.908 89.238C103.112 89.238 103.272 89.176 103.388 89.052C103.508 88.924 103.568 88.748 103.568 88.524V87.918C103.568 87.694 103.508 87.52 103.388 87.396C103.272 87.268 103.112 87.204 102.908 87.204C102.696 87.204 102.532 87.266 102.416 87.39C102.304 87.51 102.248 87.686 102.248 87.918V88.524C102.248 88.752 102.304 88.928 102.416 89.052C102.532 89.176 102.696 89.238 102.908 89.238ZM105.084 90V89.412H106.242V87.288H105.234V86.7H106.872V89.412H107.934V90H105.084ZM106.494 86.13C106.354 86.13 106.242 86.094 106.158 86.022C106.074 85.946 106.032 85.846 106.032 85.722C106.032 85.594 106.074 85.494 106.158 85.422C106.242 85.346 106.354 85.308 106.494 85.308C106.634 85.308 106.746 85.346 106.83 85.422C106.914 85.494 106.956 85.594 106.956 85.722C106.956 85.846 106.914 85.946 106.83 86.022C106.746 86.094 106.634 86.13 106.494 86.13ZM108.579 90V86.7H109.221V87.33H109.377L109.221 87.48C109.221 87.216 109.299 87.01 109.455 86.862C109.611 86.714 109.827 86.64 110.103 86.64C110.431 86.64 110.693 86.746 110.889 86.958C111.085 87.166 111.183 87.448 111.183 87.804V90H110.535V87.876C110.535 87.66 110.477 87.494 110.361 87.378C110.245 87.262 110.087 87.204 109.887 87.204C109.683 87.204 109.521 87.266 109.401 87.39C109.285 87.51 109.227 87.686 109.227 87.918V90H108.579ZM113.353 90.06C113.085 90.06 112.849 90.008 112.645 89.904C112.445 89.796 112.291 89.646 112.183 89.454C112.075 89.262 112.021 89.038 112.021 88.782V87.918C112.021 87.658 112.075 87.434 112.183 87.246C112.291 87.054 112.445 86.906 112.645 86.802C112.849 86.694 113.085 86.64 113.353 86.64C113.625 86.64 113.861 86.694 114.061 86.802C114.261 86.906 114.415 87.054 114.523 87.246C114.631 87.434 114.685 87.658 114.685 87.918V88.506H112.645V88.782C112.645 89.026 112.705 89.212 112.825 89.34C112.949 89.468 113.127 89.532 113.359 89.532C113.547 89.532 113.699 89.5 113.815 89.436C113.931 89.368 114.003 89.27 114.031 89.142H114.673C114.625 89.422 114.481 89.646 114.241 89.814C114.001 89.978 113.705 90.06 113.353 90.06ZM114.061 88.116V87.912C114.061 87.672 114.001 87.486 113.881 87.354C113.761 87.222 113.585 87.156 113.353 87.156C113.125 87.156 112.949 87.222 112.825 87.354C112.705 87.486 112.645 87.674 112.645 87.918V88.068L114.109 88.062L114.061 88.116Z" fill="#BCBCBC"/>
<rect x="70.25" y="25.25" width="59" height="19.625" rx="3.75" stroke="#E6E6E6" stroke-width="0.5"/>
<rect x="72.5" y="27.5" width="54.5" height="15.125" rx="2.5" stroke="#F3F4F6" stroke-opacity="0.24"/>
<path d="M102.451 37.4633C102.451 37.6289 102.316 37.7633 102.151 37.7633H97.3508C97.1852 37.7633 97.0508 37.6289 97.0508 37.4633V32.6633C97.0508 32.4977 97.1852 32.3633 97.3508 32.3633H102.151C102.316 32.3633 102.451 32.4977 102.451 32.6633V37.4633ZM101.851 34.7633V32.9633H100.051V33.5633H100.651L99.7508 34.4633L98.8508 33.5633H99.4508V32.9633H97.6508V34.7633H98.2508V35.3633H97.6508V37.1633H99.4508V36.5633H98.8508L99.7508 35.6633L100.651 36.5633H100.051V37.1633H101.851V35.3633H101.251V34.7633H101.851ZM99.4508 35.3633H98.8508V34.7633H99.4508V35.3633ZM100.651 35.3633H100.051V34.7633H100.651V35.3633Z" fill="#E6E6E6"/>
</g>
<path d="M34.7109 19.7447C34.7109 15.1114 38.4669 11.3555 43.1001 11.3555H156.901C161.534 11.3555 165.291 15.1114 165.291 19.7447V153.972C165.291 158.605 161.534 162.361 156.901 162.361H43.1001C38.4669 162.361 34.7109 158.605 34.7109 153.972V19.7447Z" stroke="#E6E6E6"/>
</g>
</g>
</g>
<defs>
<filter id="filter0_ddd_20_72042" x="5.86328" y="10.8555" width="188.27" height="177.324" filterUnits="userSpaceOnUse" color-interpolation-filters="sRGB">
<feFlood flood-opacity="0" result="BackgroundImageFix"/>
<feColorMatrix in="SourceAlpha" type="matrix" values="0 0 0 0 0 0 0 0 0 0 0 0 0 0 0 0 0 0 127 0" result="hardAlpha"/>
<feOffset dy="2"/>
<feGaussianBlur stdDeviation="1"/>
<feColorMatrix type="matrix" values="0 0 0 0 0.121569 0 0 0 0 0.156863 0 0 0 0 0.215686 0 0 0 0.02 0"/>
<feBlend mode="normal" in2="BackgroundImageFix" result="effect1_dropShadow_20_72042"/>
<feColorMatrix in="SourceAlpha" type="matrix" values="0 0 0 0 0 0 0 0 0 0 0 0 0 0 0 0 0 0 127 0" result="hardAlpha"/>
<feOffset dy="5"/>
<feGaussianBlur stdDeviation="2.5"/>
<feColorMatrix type="matrix" values="0 0 0 0 0.121569 0 0 0 0 0.156863 0 0 0 0 0.215686 0 0 0 0.02 0"/>
<feBlend mode="normal" in2="effect1_dropShadow_20_72042" result="effect2_dropShadow_20_72042"/>
<feColorMatrix in="SourceAlpha" type="matrix" values="0 0 0 0 0 0 0 0 0 0 0 0 0 0 0 0 0 0 127 0" result="hardAlpha"/>
<feOffset dy="4.23"/>
<feComposite in2="hardAlpha" operator="out"/>
<feColorMatrix type="matrix" values="0 0 0 0 0.97 0 0 0 0 0.97 0 0 0 0 0.97 0 0 0 1 0"/>
<feBlend mode="normal" in2="effect2_dropShadow_20_72042" result="effect3_dropShadow_20_72042"/>
<feBlend mode="normal" in="SourceGraphic" in2="effect3_dropShadow_20_72042" result="shape"/>
</filter>
<filter id="filter1_ddd_20_72042" x="53.3217" y="22.168" width="140.044" height="164.47" filterUnits="userSpaceOnUse" color-interpolation-filters="sRGB">
<feFlood flood-opacity="0" result="BackgroundImageFix"/>
<feColorMatrix in="SourceAlpha" type="matrix" values="0 0 0 0 0 0 0 0 0 0 0 0 0 0 0 0 0 0 127 0" result="hardAlpha"/>
<feOffset dy="1.69318"/>
<feGaussianBlur stdDeviation="0.846589"/>
<feColorMatrix type="matrix" values="0 0 0 0 0.121569 0 0 0 0 0.156863 0 0 0 0 0.215686 0 0 0 0.02 0"/>
<feBlend mode="normal" in2="BackgroundImageFix" result="effect1_dropShadow_20_72042"/>
<feColorMatrix in="SourceAlpha" type="matrix" values="0 0 0 0 0 0 0 0 0 0 0 0 0 0 0 0 0 0 127 0" result="hardAlpha"/>
<feOffset dy="4.23295"/>
<feGaussianBlur stdDeviation="2.11647"/>
<feColorMatrix type="matrix" values="0 0 0 0 0.121569 0 0 0 0 0.156863 0 0 0 0 0.215686 0 0 0 0.02 0"/>
<feBlend mode="normal" in2="effect1_dropShadow_20_72042" result="effect2_dropShadow_20_72042"/>
<feColorMatrix in="SourceAlpha" type="matrix" values="0 0 0 0 0 0 0 0 0 0 0 0 0 0 0 0 0 0 127 0" result="hardAlpha"/>
<feOffset dy="-4"/>
<feComposite in2="hardAlpha" operator="out"/>
<feColorMatrix type="matrix" values="0 0 0 0 0.97 0 0 0 0 0.97 0 0 0 0 0.97 0 0 0 1 0"/>
<feBlend mode="normal" in2="effect2_dropShadow_20_72042" result="effect3_dropShadow_20_72042"/>
<feBlend mode="normal" in="SourceGraphic" in2="effect3_dropShadow_20_72042" result="shape"/>
</filter>
<filter id="filter2_ddd_20_72042" x="6.63034" y="22.1758" width="140.044" height="164.47" filterUnits="userSpaceOnUse" color-interpolation-filters="sRGB">
<feFlood flood-opacity="0" result="BackgroundImageFix"/>
<feColorMatrix in="SourceAlpha" type="matrix" values="0 0 0 0 0 0 0 0 0 0 0 0 0 0 0 0 0 0 127 0" result="hardAlpha"/>
<feOffset dy="1.69318"/>
<feGaussianBlur stdDeviation="0.846589"/>
<feColorMatrix type="matrix" values="0 0 0 0 0.121569 0 0 0 0 0.156863 0 0 0 0 0.215686 0 0 0 0.02 0"/>
<feBlend mode="normal" in2="BackgroundImageFix" result="effect1_dropShadow_20_72042"/>
<feColorMatrix in="SourceAlpha" type="matrix" values="0 0 0 0 0 0 0 0 0 0 0 0 0 0 0 0 0 0 127 0" result="hardAlpha"/>
<feOffset dy="4.23295"/>
<feGaussianBlur stdDeviation="2.11647"/>
<feColorMatrix type="matrix" values="0 0 0 0 0.121569 0 0 0 0 0.156863 0 0 0 0 0.215686 0 0 0 0.02 0"/>
<feBlend mode="normal" in2="effect1_dropShadow_20_72042" result="effect2_dropShadow_20_72042"/>
<feColorMatrix in="SourceAlpha" type="matrix" values="0 0 0 0 0 0 0 0 0 0 0 0 0 0 0 0 0 0 127 0" result="hardAlpha"/>
<feOffset dy="-4"/>
<feComposite in2="hardAlpha" operator="out"/>
<feColorMatrix type="matrix" values="0 0 0 0 0.97 0 0 0 0 0.97 0 0 0 0 0.97 0 0 0 1 0"/>
<feBlend mode="normal" in2="effect2_dropShadow_20_72042" result="effect3_dropShadow_20_72042"/>
<feBlend mode="normal" in="SourceGraphic" in2="effect3_dropShadow_20_72042" result="shape"/>
</filter>
<filter id="filter3_ddd_20_72042" x="29.978" y="6.85547" width="140.044" height="164.47" filterUnits="userSpaceOnUse" color-interpolation-filters="sRGB">
<feFlood flood-opacity="0" result="BackgroundImageFix"/>
<feColorMatrix in="SourceAlpha" type="matrix" values="0 0 0 0 0 0 0 0 0 0 0 0 0 0 0 0 0 0 127 0" result="hardAlpha"/>
<feOffset dy="1.69318"/>
<feGaussianBlur stdDeviation="0.846589"/>
<feColorMatrix type="matrix" values="0 0 0 0 0.121569 0 0 0 0 0.156863 0 0 0 0 0.215686 0 0 0 0.02 0"/>
<feBlend mode="normal" in2="BackgroundImageFix" result="effect1_dropShadow_20_72042"/>
<feColorMatrix in="SourceAlpha" type="matrix" values="0 0 0 0 0 0 0 0 0 0 0 0 0 0 0 0 0 0 127 0" result="hardAlpha"/>
<feOffset dy="4.23295"/>
<feGaussianBlur stdDeviation="2.11647"/>
<feColorMatrix type="matrix" values="0 0 0 0 0.121569 0 0 0 0 0.156863 0 0 0 0 0.215686 0 0 0 0.02 0"/>
<feBlend mode="normal" in2="effect1_dropShadow_20_72042" result="effect2_dropShadow_20_72042"/>
<feColorMatrix in="SourceAlpha" type="matrix" values="0 0 0 0 0 0 0 0 0 0 0 0 0 0 0 0 0 0 127 0" result="hardAlpha"/>
<feOffset dy="-4"/>
<feComposite in2="hardAlpha" operator="out"/>
<feColorMatrix type="matrix" values="0 0 0 0 0.97 0 0 0 0 0.97 0 0 0 0 0.97 0 0 0 1 0"/>
<feBlend mode="normal" in2="effect2_dropShadow_20_72042" result="effect3_dropShadow_20_72042"/>
<feBlend mode="normal" in="SourceGraphic" in2="effect3_dropShadow_20_72042" result="shape"/>
</filter>
<clipPath id="clip0_20_72042">
<rect width="200" height="95" fill="white"/>
</clipPath>
</defs>
</svg>
