<svg width="200" height="95" viewBox="0 0 200 95" fill="none" xmlns="http://www.w3.org/2000/svg">
<g clip-path="url(#clip0_16_71518)">
<g filter="url(#filter0_ddd_16_71518)">
<mask id="mask0_16_71518" style="mask-type:luminance" maskUnits="userSpaceOnUse" x="-3" y="-73" width="203" height="193">
<path d="M190.128 -73H6.87234C1.42 -73 -3 -68.58 -3 -63.1277V109.638C-3 115.091 1.42 119.511 6.87234 119.511H190.128C195.58 119.511 200 115.091 200 109.638V-63.1277C200 -68.58 195.58 -73 190.128 -73Z" fill="white"/>
</mask>
<g mask="url(#mask0_16_71518)">
<path d="M190.128 -73H6.87234C1.42 -73 -3 -68.58 -3 -63.1277V109.638C-3 115.091 1.42 119.511 6.87234 119.511H190.128C195.58 119.511 200 115.091 200 109.638V-63.1277C200 -68.58 195.58 -73 190.128 -73Z" fill="#F9FAFB"/>
<g filter="url(#filter1_ddd_16_71518)">
<path d="M43.2773 -40.9161C43.2773 -45.0053 46.5924 -48.3203 50.6816 -48.3203H146.937C151.026 -48.3203 154.341 -45.0053 154.341 -40.9161V30.6584C154.341 34.7474 151.026 38.0627 146.937 38.0627H50.6816C46.5924 38.0627 43.2773 34.7474 43.2773 30.6584V-40.9161Z" fill="white"/>
<path d="M50.6817 -48.0117H146.937C150.856 -48.0117 154.033 -44.8349 154.033 -40.916V30.6585C154.033 34.5772 150.856 37.7542 146.937 37.7542H50.6817C46.7628 37.7542 43.5859 34.5772 43.5859 30.6585V-40.916C43.5859 -44.8349 46.7628 -48.0117 50.6817 -48.0117Z" stroke="#E6E6E6"/>
<path d="M70.1879 4.74219H52.7711C51.6171 4.74219 50.6816 5.67766 50.6816 6.83164V10.057C50.6816 11.211 51.6171 12.1464 52.7711 12.1464H70.1879C71.3419 12.1464 72.2774 11.211 72.2774 10.057V6.83164C72.2774 5.67766 71.3419 4.74219 70.1879 4.74219Z" fill="#EBECEF" fill-opacity="0.5"/>
<path d="M72.039 14.6172H52.7711C51.6171 14.6172 50.6816 15.5527 50.6816 16.7066V19.932C50.6816 21.086 51.6171 22.0214 52.7711 22.0214H72.039C73.193 22.0214 74.1284 21.086 74.1284 19.932V16.7066C74.1284 15.5527 73.193 14.6172 72.039 14.6172Z" fill="#EBECEF" fill-opacity="0.5"/>
<path d="M116.464 4.74219H86.7066C85.5527 4.74219 84.6172 5.67766 84.6172 6.83164V10.057C84.6172 11.211 85.5527 12.1464 86.7066 12.1464H116.464C117.618 12.1464 118.553 11.211 118.553 10.057V6.83164C118.553 5.67766 117.618 4.74219 116.464 4.74219Z" fill="#EBECEF" fill-opacity="0.5"/>
<path d="M128.187 14.6172H86.7066C85.5527 14.6172 84.6172 15.5527 84.6172 16.7066V19.932C84.6172 21.086 85.5527 22.0214 86.7066 22.0214H128.187C129.341 22.0214 130.277 21.086 130.277 19.932V16.7066C130.277 15.5527 129.341 14.6172 128.187 14.6172Z" fill="#EBECEF" fill-opacity="0.5"/>
<path d="M110.911 23.2539H86.7066C85.5527 23.2539 84.6172 24.1894 84.6172 25.3434V28.5687C84.6172 29.7227 85.5527 30.6582 86.7066 30.6582H110.911C112.065 30.6582 113 29.7227 113 28.5687V25.3434C113 24.1894 112.065 23.2539 110.911 23.2539Z" fill="#EBECEF" fill-opacity="0.5"/>
</g>
<g opacity="0.7" filter="url(#filter2_d_16_71518)">
<path d="M164.213 5.97847C164.213 1.88947 167.528 -1.42578 171.617 -1.42578H267.872C271.961 -1.42578 275.277 1.88947 275.277 5.97847V77.5529C275.277 81.6419 271.961 84.9572 267.872 84.9572H171.617C167.528 84.9572 164.213 81.6419 164.213 77.5529V5.97847Z" fill="white"/>
<path d="M171.617 -1.11719H267.873C271.791 -1.11719 274.968 2.05986 274.968 5.97856V77.553C274.968 81.4717 271.791 84.6488 267.873 84.6488H171.617C167.699 84.6488 164.521 81.4717 164.521 77.553V5.97856C164.521 2.05986 167.699 -1.11719 171.617 -1.11719Z" stroke="#E6E6E6"/>
<path d="M242.954 22.0195H196.537C195.383 22.0195 194.447 22.955 194.447 24.109V27.3343C194.447 28.4883 195.383 29.4238 196.537 29.4238H242.954C244.108 29.4238 245.043 28.4883 245.043 27.3343V24.109C245.043 22.955 244.108 22.0195 242.954 22.0195Z" fill="#EBECEF" fill-opacity="0.5"/>
<path d="M191.123 51.6367H173.707C172.553 51.6367 171.617 52.5722 171.617 53.7262V56.9515C171.617 58.1055 172.553 59.041 173.707 59.041H191.123C192.277 59.041 193.213 58.1055 193.213 56.9515V53.7262C193.213 52.5722 192.277 51.6367 191.123 51.6367Z" fill="#EBECEF" fill-opacity="0.5"/>
<path d="M192.975 61.5117H173.707C172.553 61.5117 171.617 62.4472 171.617 63.6012V66.8265C171.617 67.9805 172.553 68.916 173.707 68.916H192.975C194.129 68.916 195.064 67.9805 195.064 66.8265V63.6012C195.064 62.4472 194.129 61.5117 192.975 61.5117Z" fill="#EBECEF" fill-opacity="0.5"/>
<path d="M252.208 31.8945H187.281C186.127 31.8945 185.191 32.83 185.191 33.984V37.2093C185.191 38.3633 186.127 39.2988 187.281 39.2988H252.208C253.362 39.2988 254.298 38.3633 254.298 37.2093V33.984C254.298 32.83 253.362 31.8945 252.208 31.8945Z" fill="#EBECEF" fill-opacity="0.5"/>
<path d="M171.617 45.4688H267.873" stroke="#E5E7EB" stroke-linecap="square"/>
</g>
<g opacity="0.7" filter="url(#filter3_d_16_71518)">
<path d="M-77.6582 5.97847C-77.6582 1.88947 -74.3429 -1.42578 -70.2539 -1.42578H26.0014C30.0906 -1.42578 33.4056 1.88947 33.4056 5.97847V77.5529C33.4056 81.6419 30.0906 84.9572 26.0014 84.9572H-70.2539C-74.3429 84.9572 -77.6582 81.6419 -77.6582 77.5529V5.97847Z" fill="white"/>
<path d="M-70.2539 -1.11719H26.0015C29.9203 -1.11719 33.0972 2.05986 33.0972 5.97856V77.553C33.0972 81.4717 29.9203 84.6488 26.0015 84.6488H-70.2539C-74.1726 84.6488 -77.3496 81.4717 -77.3496 77.553V5.97856C-77.3496 2.05986 -74.1726 -1.11719 -70.2539 -1.11719Z" stroke="#E6E6E6"/>
<path d="M1.08246 22.0195H-45.3344C-46.4883 22.0195 -47.4238 22.955 -47.4238 24.109V27.3343C-47.4238 28.4883 -46.4883 29.4238 -45.3344 29.4238H1.08246C2.23643 29.4238 3.17192 28.4883 3.17192 27.3343V24.109C3.17192 22.955 2.23643 22.0195 1.08246 22.0195Z" fill="#EBECEF" fill-opacity="0.5"/>
<path d="M7.25176 61.5117H-34.2289C-35.3829 61.5117 -36.3184 62.4472 -36.3184 63.6012V66.8265C-36.3184 67.9805 -35.3829 68.916 -34.2289 68.916H7.25176C8.40573 68.916 9.34121 67.9805 9.34121 66.8265V63.6012C9.34121 62.4472 8.40573 61.5117 7.25176 61.5117Z" fill="#EBECEF" fill-opacity="0.5"/>
<path d="M10.3372 31.8945H-54.5902C-55.7442 31.8945 -56.6797 32.83 -56.6797 33.984V37.2093C-56.6797 38.3633 -55.7442 39.2988 -54.5902 39.2988H10.3372C11.4912 39.2988 12.4267 38.3633 12.4267 37.2093V33.984C12.4267 32.83 11.4912 31.8945 10.3372 31.8945Z" fill="#EBECEF" fill-opacity="0.5"/>
<path d="M-70.2539 45.4688H26.0014" stroke="#E5E7EB" stroke-linecap="square"/>
</g>
<g opacity="0.7" filter="url(#filter4_d_16_71518)">
<path d="M43.2773 50.4043C43.2773 46.3153 46.5924 43 50.6816 43H146.937C151.026 43 154.341 46.3153 154.341 50.4043V121.979C154.341 126.068 151.026 129.383 146.937 129.383H50.6816C46.5924 129.383 43.2773 126.068 43.2773 121.979V50.4043Z" fill="white"/>
<path d="M50.6817 43.3086H146.937C150.856 43.3086 154.033 46.4856 154.033 50.4043V121.979C154.033 125.898 150.856 129.075 146.937 129.075H50.6817C46.7628 129.075 43.5859 125.898 43.5859 121.979V50.4043C43.5859 46.4856 46.7628 43.3086 50.6817 43.3086Z" stroke="#E6E6E6"/>
<path d="M122.018 66.4453H75.6012C74.4472 66.4453 73.5117 67.3808 73.5117 68.5348V71.7601C73.5117 72.9141 74.4472 73.8496 75.6012 73.8496H122.018C123.172 73.8496 124.107 72.9141 124.107 71.7601V68.5348C124.107 67.3808 123.172 66.4453 122.018 66.4453Z" fill="#EBECEF" fill-opacity="0.5"/>
<path d="M131.273 76.3203H66.3453C65.1913 76.3203 64.2559 77.2558 64.2559 78.4098V81.6351C64.2559 82.7891 65.1913 83.7246 66.3453 83.7246H131.273C132.427 83.7246 133.362 82.7891 133.362 81.6351V78.4098C133.362 77.2558 132.427 76.3203 131.273 76.3203Z" fill="#EBECEF" fill-opacity="0.5"/>
<path d="M50.6816 89.8945H146.937" stroke="#E5E7EB" stroke-linecap="square"/>
</g>
</g>
<path d="M190.128 -72.6914H6.87242C1.59047 -72.6914 -2.69141 -68.4095 -2.69141 -63.1276V109.638C-2.69141 114.92 1.59047 119.202 6.87242 119.202H190.128C195.41 119.202 199.692 114.92 199.692 109.638V-63.1276C199.692 -68.4095 195.41 -72.6914 190.128 -72.6914Z" stroke="#E6E6E6"/>
</g>
<path d="M91.0625 53.1625C91.0625 51.3773 91.0625 50.4847 91.4099 49.8029C91.7155 49.2031 92.2031 48.7155 92.8029 48.4099C93.4847 48.0625 94.3773 48.0625 96.1625 48.0625H100.837C102.623 48.0625 103.515 48.0625 104.197 48.4099C104.797 48.7155 105.284 49.2031 105.59 49.8029C105.938 50.4847 105.938 51.3773 105.938 53.1625V57.8375C105.938 59.6227 105.938 60.5153 105.59 61.1971C105.284 61.7969 104.797 62.2845 104.197 62.5901C103.515 62.9375 102.623 62.9375 100.837 62.9375H96.1625C94.3773 62.9375 93.4847 62.9375 92.8029 62.5901C92.2031 62.2845 91.7155 61.7969 91.4099 61.1971C91.0625 60.5153 91.0625 59.6227 91.0625 57.8375V53.1625Z" fill="white"/>
<path d="M102.557 51.9619C101.8 51.6293 100.991 51.3876 100.145 51.25C100.042 51.4264 99.9202 51.6637 99.8366 51.8525C98.9375 51.7255 98.0468 51.7255 97.1643 51.8525C97.0806 51.6637 96.9565 51.4264 96.8518 51.25C96.0051 51.3876 95.1952 51.6302 94.4387 51.9636C92.9127 54.1301 92.499 56.2428 92.7059 58.3254C93.718 59.0355 94.6988 59.4668 95.6631 59.7491C95.9012 59.4413 96.1136 59.114 96.2965 58.7691C95.9481 58.6447 95.6144 58.4913 95.2991 58.313C95.3828 58.2548 95.4646 58.194 95.5436 58.1314C97.4667 58.9764 99.5562 58.9764 101.456 58.1314C101.536 58.194 101.618 58.2548 101.701 58.313C101.385 58.4921 101.05 58.6456 100.702 58.77C100.885 59.114 101.096 59.4422 101.335 59.75C102.3 59.4677 103.282 59.0364 104.294 58.3254C104.537 55.9111 103.879 53.8178 102.557 51.9619ZM96.5585 57.0446C95.9812 57.0446 95.5078 56.5382 95.5078 55.9217C95.5078 55.3051 95.9711 54.7979 96.5585 54.7979C97.1459 54.7979 97.6193 55.3042 97.6092 55.9217C97.6101 56.5382 97.1459 57.0446 96.5585 57.0446ZM100.441 57.0446C99.8642 57.0446 99.3907 56.5382 99.3907 55.9217C99.3907 55.3051 99.8541 54.7979 100.441 54.7979C101.029 54.7979 101.502 55.3042 101.492 55.9217C101.492 56.5382 101.029 57.0446 100.441 57.0446Z" fill="#E6E6E6"/>
</g>
<defs>
<filter id="filter0_ddd_16_71518" x="-8.19141" y="-73.1914" width="213.383" height="202.895" filterUnits="userSpaceOnUse" color-interpolation-filters="sRGB">
<feFlood flood-opacity="0" result="BackgroundImageFix"/>
<feColorMatrix in="SourceAlpha" type="matrix" values="0 0 0 0 0 0 0 0 0 0 0 0 0 0 0 0 0 0 127 0" result="hardAlpha"/>
<feOffset dy="2"/>
<feGaussianBlur stdDeviation="1"/>
<feColorMatrix type="matrix" values="0 0 0 0 0.121569 0 0 0 0 0.156863 0 0 0 0 0.215686 0 0 0 0.02 0"/>
<feBlend mode="normal" in2="BackgroundImageFix" result="effect1_dropShadow_16_71518"/>
<feColorMatrix in="SourceAlpha" type="matrix" values="0 0 0 0 0 0 0 0 0 0 0 0 0 0 0 0 0 0 127 0" result="hardAlpha"/>
<feOffset dy="5"/>
<feGaussianBlur stdDeviation="2.5"/>
<feColorMatrix type="matrix" values="0 0 0 0 0.121569 0 0 0 0 0.156863 0 0 0 0 0.215686 0 0 0 0.02 0"/>
<feBlend mode="normal" in2="effect1_dropShadow_16_71518" result="effect2_dropShadow_16_71518"/>
<feColorMatrix in="SourceAlpha" type="matrix" values="0 0 0 0 0 0 0 0 0 0 0 0 0 0 0 0 0 0 127 0" result="hardAlpha"/>
<feOffset dy="4.23"/>
<feComposite in2="hardAlpha" operator="out"/>
<feColorMatrix type="matrix" values="0 0 0 0 0.97 0 0 0 0 0.97 0 0 0 0 0.97 0 0 0 1 0"/>
<feBlend mode="normal" in2="effect2_dropShadow_16_71518" result="effect3_dropShadow_16_71518"/>
<feBlend mode="normal" in="SourceGraphic" in2="effect3_dropShadow_16_71518" result="shape"/>
</filter>
<filter id="filter1_ddd_16_71518" x="38.853" y="-52.5117" width="119.913" height="99.2315" filterUnits="userSpaceOnUse" color-interpolation-filters="sRGB">
<feFlood flood-opacity="0" result="BackgroundImageFix"/>
<feColorMatrix in="SourceAlpha" type="matrix" values="0 0 0 0 0 0 0 0 0 0 0 0 0 0 0 0 0 0 127 0" result="hardAlpha"/>
<feOffset dy="1.69318"/>
<feGaussianBlur stdDeviation="0.846589"/>
<feColorMatrix type="matrix" values="0 0 0 0 0.121569 0 0 0 0 0.156863 0 0 0 0 0.215686 0 0 0 0.02 0"/>
<feBlend mode="normal" in2="BackgroundImageFix" result="effect1_dropShadow_16_71518"/>
<feColorMatrix in="SourceAlpha" type="matrix" values="0 0 0 0 0 0 0 0 0 0 0 0 0 0 0 0 0 0 127 0" result="hardAlpha"/>
<feOffset dy="4.23295"/>
<feGaussianBlur stdDeviation="2.11647"/>
<feColorMatrix type="matrix" values="0 0 0 0 0.121569 0 0 0 0 0.156863 0 0 0 0 0.215686 0 0 0 0.02 0"/>
<feBlend mode="normal" in2="effect1_dropShadow_16_71518" result="effect2_dropShadow_16_71518"/>
<feColorMatrix in="SourceAlpha" type="matrix" values="0 0 0 0 0 0 0 0 0 0 0 0 0 0 0 0 0 0 127 0" result="hardAlpha"/>
<feOffset dy="-4"/>
<feComposite in2="hardAlpha" operator="out"/>
<feColorMatrix type="matrix" values="0 0 0 0 0.97 0 0 0 0 0.97 0 0 0 0 0.97 0 0 0 1 0"/>
<feBlend mode="normal" in2="effect2_dropShadow_16_71518" result="effect3_dropShadow_16_71518"/>
<feBlend mode="normal" in="SourceGraphic" in2="effect3_dropShadow_16_71518" result="shape"/>
</filter>
<filter id="filter2_d_16_71518" x="164.021" y="-5.61719" width="111.447" height="90.7656" filterUnits="userSpaceOnUse" color-interpolation-filters="sRGB">
<feFlood flood-opacity="0" result="BackgroundImageFix"/>
<feColorMatrix in="SourceAlpha" type="matrix" values="0 0 0 0 0 0 0 0 0 0 0 0 0 0 0 0 0 0 127 0" result="hardAlpha"/>
<feOffset dy="-4"/>
<feComposite in2="hardAlpha" operator="out"/>
<feColorMatrix type="matrix" values="0 0 0 0 0.97 0 0 0 0 0.97 0 0 0 0 0.97 0 0 0 1 0"/>
<feBlend mode="normal" in2="BackgroundImageFix" result="effect1_dropShadow_16_71518"/>
<feBlend mode="normal" in="SourceGraphic" in2="effect1_dropShadow_16_71518" result="shape"/>
</filter>
<filter id="filter3_d_16_71518" x="-77.8496" y="-5.61719" width="111.447" height="90.7656" filterUnits="userSpaceOnUse" color-interpolation-filters="sRGB">
<feFlood flood-opacity="0" result="BackgroundImageFix"/>
<feColorMatrix in="SourceAlpha" type="matrix" values="0 0 0 0 0 0 0 0 0 0 0 0 0 0 0 0 0 0 127 0" result="hardAlpha"/>
<feOffset dy="-4"/>
<feComposite in2="hardAlpha" operator="out"/>
<feColorMatrix type="matrix" values="0 0 0 0 0.97 0 0 0 0 0.97 0 0 0 0 0.97 0 0 0 1 0"/>
<feBlend mode="normal" in2="BackgroundImageFix" result="effect1_dropShadow_16_71518"/>
<feBlend mode="normal" in="SourceGraphic" in2="effect1_dropShadow_16_71518" result="shape"/>
</filter>
<filter id="filter4_d_16_71518" x="43.0859" y="38.8086" width="111.447" height="90.7656" filterUnits="userSpaceOnUse" color-interpolation-filters="sRGB">
<feFlood flood-opacity="0" result="BackgroundImageFix"/>
<feColorMatrix in="SourceAlpha" type="matrix" values="0 0 0 0 0 0 0 0 0 0 0 0 0 0 0 0 0 0 127 0" result="hardAlpha"/>
<feOffset dy="-4"/>
<feComposite in2="hardAlpha" operator="out"/>
<feColorMatrix type="matrix" values="0 0 0 0 0.97 0 0 0 0 0.97 0 0 0 0 0.97 0 0 0 1 0"/>
<feBlend mode="normal" in2="BackgroundImageFix" result="effect1_dropShadow_16_71518"/>
<feBlend mode="normal" in="SourceGraphic" in2="effect1_dropShadow_16_71518" result="shape"/>
</filter>
<clipPath id="clip0_16_71518">
<rect width="200" height="95" fill="white"/>
</clipPath>
</defs>
</svg>
