<svg width="200" height="95" viewBox="0 0 200 95" fill="none" xmlns="http://www.w3.org/2000/svg">
<rect width="200" height="95" fill="#F9FAFB"/>
<g filter="url(#filter0_dd_15_70623)">
<path d="M70.9799 42.7952H129.968C132.363 42.7952 134.305 40.8533 134.305 38.4578V23.2771C134.305 20.8817 132.363 18.9398 129.968 18.9398H99.8233C97.9071 18.9398 96.3534 17.3863 96.3534 15.4699C96.3534 13.5535 94.7998 12 92.8835 12H70.9799C68.5845 12 66.6426 13.9419 66.6426 16.3373V38.4578C66.6426 40.8533 68.5845 42.7952 70.9799 42.7952Z" fill="#F9FAFB"/>
<path d="M129.968 42.5802H70.9799C68.7042 42.5802 66.8594 40.7354 66.8594 38.4597V16.3392C66.8594 14.0636 68.7042 12.2188 70.9799 12.2188H92.8835C94.68 12.2188 96.1365 13.6752 96.1365 15.4718C96.1365 17.5079 97.7873 19.1585 99.8232 19.1585H129.968C132.244 19.1585 134.088 21.0033 134.088 23.279V38.4597C134.088 40.7354 132.244 42.5802 129.968 42.5802Z" stroke="#F0F0F0"/>
</g>
<path opacity="0.6" d="M124.763 22.1055H76.1852C74.8198 22.1055 73.7129 23.2124 73.7129 24.5778V39.7585C73.7129 41.1239 74.8198 42.2308 76.1852 42.2308H124.763C126.129 42.2308 127.236 41.1239 127.236 39.7585V24.5778C127.236 23.2124 126.129 22.1055 124.763 22.1055Z" fill="#E5E7EB" stroke="#E1E1E1" stroke-width="0.6"/>
<path d="M127.799 24.2734H73.1481C71.7827 24.2734 70.6758 25.3803 70.6758 26.7457V41.9264C70.6758 43.2919 71.7827 44.3987 73.1481 44.3987H127.799C129.164 44.3987 130.271 43.2919 130.271 41.9264V26.7457C130.271 25.3803 129.164 24.2734 127.799 24.2734Z" fill="#E5E7EB" stroke="#E1E1E1" stroke-width="0.6"/>
<g filter="url(#filter1_ddd_15_70623)">
<path d="M62.0215 35.9647C61.7064 31.9312 64.8944 28.4844 68.9402 28.4844H132.006C136.052 28.4844 139.24 31.9312 138.925 35.9647L135.672 77.6031C135.39 81.2153 132.376 84.0024 128.753 84.0024H72.1933C68.5701 84.0024 65.5567 81.2153 65.2745 77.6031L62.0215 35.9647Z" fill="white"/>
<path d="M62.2376 35.9496C61.9324 32.0422 65.0208 28.7031 68.9401 28.7031H132.006C135.926 28.7031 139.014 32.0422 138.709 35.9497L135.456 77.5881C135.182 81.0875 132.263 83.7875 128.753 83.7875H72.1932C68.6833 83.7875 65.764 81.0875 65.4906 77.5881L62.2376 35.9496Z" stroke="#F0F0F0"/>
</g>
<path d="M100.908 63.6133C98.751 63.6133 97.0039 65.3599 97.0039 67.5169C97.0035 68.3362 97.2611 69.1352 97.7404 69.8001C98.2192 70.465 98.8959 70.9621 99.6731 71.2206C99.8683 71.2548 99.9416 71.1373 99.9416 71.0349C99.9416 70.9421 99.9364 70.635 99.9364 70.308C98.9557 70.4888 98.702 70.069 98.6239 69.8491C98.5797 69.7368 98.3897 69.3906 98.224 69.2978C98.0874 69.2249 97.8922 69.0441 98.2188 69.0393C98.5263 69.0341 98.7458 69.3221 98.8191 69.4392C99.1704 70.0295 99.7317 69.8638 99.9559 69.7615C99.9902 69.5077 100.093 69.3373 100.205 69.2397C99.3365 69.1421 98.4287 68.8051 98.4287 67.3122C98.4287 66.8871 98.5797 66.5362 98.8291 66.2625C98.79 66.1649 98.6534 65.765 98.8681 65.2281C98.8681 65.2281 99.1947 65.1257 99.9416 65.6288C100.259 65.5404 100.587 65.4961 100.917 65.4966C101.249 65.4966 101.581 65.5404 101.893 65.6284C102.639 65.1209 102.967 65.2285 102.967 65.2285C103.182 65.7655 103.045 66.1654 103.006 66.263C103.254 66.5362 103.406 66.8823 103.406 67.3122C103.406 68.8103 102.494 69.1421 101.625 69.2397C101.766 69.3611 101.889 69.5958 101.889 69.9619C101.889 70.4836 101.883 70.9035 101.883 71.0354C101.883 71.1373 101.957 71.2592 102.152 71.2201C102.927 70.9586 103.6 70.4607 104.077 69.7962C104.554 69.1321 104.811 68.3349 104.811 67.5169C104.811 65.3599 103.064 63.6133 100.908 63.6133Z" fill="#E5E7EB"/>
<defs>
<filter id="filter0_dd_15_70623" x="62.1264" y="11.7188" width="76.6944" height="39.8292" filterUnits="userSpaceOnUse" color-interpolation-filters="sRGB">
<feFlood flood-opacity="0" result="BackgroundImageFix"/>
<feColorMatrix in="SourceAlpha" type="matrix" values="0 0 0 0 0 0 0 0 0 0 0 0 0 0 0 0 0 0 127 0" result="hardAlpha"/>
<feOffset dy="1.69318"/>
<feGaussianBlur stdDeviation="0.846589"/>
<feColorMatrix type="matrix" values="0 0 0 0 0.121569 0 0 0 0 0.156863 0 0 0 0 0.215686 0 0 0 0.02 0"/>
<feBlend mode="normal" in2="BackgroundImageFix" result="effect1_dropShadow_15_70623"/>
<feColorMatrix in="SourceAlpha" type="matrix" values="0 0 0 0 0 0 0 0 0 0 0 0 0 0 0 0 0 0 127 0" result="hardAlpha"/>
<feOffset dy="4.23295"/>
<feGaussianBlur stdDeviation="2.11647"/>
<feColorMatrix type="matrix" values="0 0 0 0 0.121569 0 0 0 0 0.156863 0 0 0 0 0.215686 0 0 0 0.02 0"/>
<feBlend mode="normal" in2="effect1_dropShadow_15_70623" result="effect2_dropShadow_15_70623"/>
<feBlend mode="normal" in="SourceGraphic" in2="effect2_dropShadow_15_70623" result="shape"/>
</filter>
<filter id="filter1_ddd_15_70623" x="57.4839" y="28.2031" width="85.9796" height="64.5518" filterUnits="userSpaceOnUse" color-interpolation-filters="sRGB">
<feFlood flood-opacity="0" result="BackgroundImageFix"/>
<feColorMatrix in="SourceAlpha" type="matrix" values="0 0 0 0 0 0 0 0 0 0 0 0 0 0 0 0 0 0 127 0" result="hardAlpha"/>
<feOffset dy="1.69318"/>
<feGaussianBlur stdDeviation="0.846589"/>
<feColorMatrix type="matrix" values="0 0 0 0 0.121569 0 0 0 0 0.156863 0 0 0 0 0.215686 0 0 0 0.02 0"/>
<feBlend mode="normal" in2="BackgroundImageFix" result="effect1_dropShadow_15_70623"/>
<feColorMatrix in="SourceAlpha" type="matrix" values="0 0 0 0 0 0 0 0 0 0 0 0 0 0 0 0 0 0 127 0" result="hardAlpha"/>
<feOffset dy="4.23295"/>
<feGaussianBlur stdDeviation="2.11647"/>
<feColorMatrix type="matrix" values="0 0 0 0 0.121569 0 0 0 0 0.156863 0 0 0 0 0.215686 0 0 0 0.02 0"/>
<feBlend mode="normal" in2="effect1_dropShadow_15_70623" result="effect2_dropShadow_15_70623"/>
<feColorMatrix in="SourceAlpha" type="matrix" values="0 0 0 0 0 0 0 0 0 0 0 0 0 0 0 0 0 0 127 0" result="hardAlpha"/>
<feOffset dy="2"/>
<feComposite in2="hardAlpha" operator="out"/>
<feColorMatrix type="matrix" values="0 0 0 0 0.96 0 0 0 0 0.96 0 0 0 0 0.96 0 0 0 1 0"/>
<feBlend mode="normal" in2="effect2_dropShadow_15_70623" result="effect3_dropShadow_15_70623"/>
<feBlend mode="normal" in="SourceGraphic" in2="effect3_dropShadow_15_70623" result="shape"/>
</filter>
</defs>
</svg>
