<svg width="200" height="95" viewBox="0 0 200 95" fill="none" xmlns="http://www.w3.org/2000/svg">
<g clip-path="url(#clip0_15_70281)">
<g filter="url(#filter0_ddd_15_70281)">
<mask id="mask0_15_70281" style="mask-type:luminance" maskUnits="userSpaceOnUse" x="-3" y="-73" width="203" height="193">
<path d="M190.128 -73H6.87234C1.42 -73 -3 -68.58 -3 -63.1277V109.638C-3 115.091 1.42 119.511 6.87234 119.511H190.128C195.58 119.511 200 115.091 200 109.638V-63.1277C200 -68.58 195.58 -73 190.128 -73Z" fill="white"/>
</mask>
<g mask="url(#mask0_15_70281)">
<path d="M190.128 -73H6.87234C1.42 -73 -3 -68.58 -3 -63.1277V109.638C-3 115.091 1.42 119.511 6.87234 119.511H190.128C195.58 119.511 200 115.091 200 109.638V-63.1277C200 -68.58 195.58 -73 190.128 -73Z" fill="#F9FAFB"/>
<g filter="url(#filter1_ddd_15_70281)">
<path d="M43.2773 -40.9161C43.2773 -45.0053 46.5924 -48.3203 50.6816 -48.3203H146.937C151.026 -48.3203 154.341 -45.0053 154.341 -40.9161V30.6584C154.341 34.7474 151.026 38.0627 146.937 38.0627H50.6816C46.5924 38.0627 43.2773 34.7474 43.2773 30.6584V-40.9161Z" fill="white"/>
<path d="M50.6817 -48.0117H146.937C150.856 -48.0117 154.033 -44.8349 154.033 -40.916V30.6585C154.033 34.5772 150.856 37.7542 146.937 37.7542H50.6817C46.7628 37.7542 43.5859 34.5772 43.5859 30.6585V-40.916C43.5859 -44.8349 46.7628 -48.0117 50.6817 -48.0117Z" stroke="#E6E6E6"/>
<path d="M70.1879 4.74219H52.7711C51.6171 4.74219 50.6816 5.67766 50.6816 6.83164V10.057C50.6816 11.211 51.6171 12.1464 52.7711 12.1464H70.1879C71.3419 12.1464 72.2774 11.211 72.2774 10.057V6.83164C72.2774 5.67766 71.3419 4.74219 70.1879 4.74219Z" fill="#EBECEF" fill-opacity="0.5"/>
<path d="M72.039 14.6172H52.7711C51.6171 14.6172 50.6816 15.5527 50.6816 16.7066V19.932C50.6816 21.086 51.6171 22.0214 52.7711 22.0214H72.039C73.193 22.0214 74.1284 21.086 74.1284 19.932V16.7066C74.1284 15.5527 73.193 14.6172 72.039 14.6172Z" fill="#EBECEF" fill-opacity="0.5"/>
<path d="M116.464 4.74219H86.7066C85.5527 4.74219 84.6172 5.67766 84.6172 6.83164V10.057C84.6172 11.211 85.5527 12.1464 86.7066 12.1464H116.464C117.618 12.1464 118.553 11.211 118.553 10.057V6.83164C118.553 5.67766 117.618 4.74219 116.464 4.74219Z" fill="#EBECEF" fill-opacity="0.5"/>
<path d="M128.187 14.6172H86.7066C85.5527 14.6172 84.6172 15.5527 84.6172 16.7066V19.932C84.6172 21.086 85.5527 22.0214 86.7066 22.0214H128.187C129.341 22.0214 130.277 21.086 130.277 19.932V16.7066C130.277 15.5527 129.341 14.6172 128.187 14.6172Z" fill="#EBECEF" fill-opacity="0.5"/>
<path d="M110.911 23.2539H86.7066C85.5527 23.2539 84.6172 24.1894 84.6172 25.3434V28.5687C84.6172 29.7227 85.5527 30.6582 86.7066 30.6582H110.911C112.065 30.6582 113 29.7227 113 28.5687V25.3434C113 24.1894 112.065 23.2539 110.911 23.2539Z" fill="#EBECEF" fill-opacity="0.5"/>
</g>
<g opacity="0.7" filter="url(#filter2_d_15_70281)">
<path d="M164.213 5.97847C164.213 1.88947 167.528 -1.42578 171.617 -1.42578H267.872C271.961 -1.42578 275.277 1.88947 275.277 5.97847V77.5529C275.277 81.6419 271.961 84.9572 267.872 84.9572H171.617C167.528 84.9572 164.213 81.6419 164.213 77.5529V5.97847Z" fill="white"/>
<path d="M171.617 -1.11719H267.873C271.791 -1.11719 274.968 2.05986 274.968 5.97856V77.553C274.968 81.4717 271.791 84.6488 267.873 84.6488H171.617C167.699 84.6488 164.521 81.4717 164.521 77.553V5.97856C164.521 2.05986 167.699 -1.11719 171.617 -1.11719Z" stroke="#E6E6E6"/>
<path d="M242.954 22.0195H196.537C195.383 22.0195 194.447 22.955 194.447 24.109V27.3343C194.447 28.4883 195.383 29.4238 196.537 29.4238H242.954C244.108 29.4238 245.043 28.4883 245.043 27.3343V24.109C245.043 22.955 244.108 22.0195 242.954 22.0195Z" fill="#EBECEF" fill-opacity="0.5"/>
<path d="M191.123 51.6367H173.707C172.553 51.6367 171.617 52.5722 171.617 53.7262V56.9515C171.617 58.1055 172.553 59.041 173.707 59.041H191.123C192.277 59.041 193.213 58.1055 193.213 56.9515V53.7262C193.213 52.5722 192.277 51.6367 191.123 51.6367Z" fill="#EBECEF" fill-opacity="0.5"/>
<path d="M192.975 61.5117H173.707C172.553 61.5117 171.617 62.4472 171.617 63.6012V66.8265C171.617 67.9805 172.553 68.916 173.707 68.916H192.975C194.129 68.916 195.064 67.9805 195.064 66.8265V63.6012C195.064 62.4472 194.129 61.5117 192.975 61.5117Z" fill="#EBECEF" fill-opacity="0.5"/>
<path d="M252.208 31.8945H187.281C186.127 31.8945 185.191 32.83 185.191 33.984V37.2093C185.191 38.3633 186.127 39.2988 187.281 39.2988H252.208C253.362 39.2988 254.298 38.3633 254.298 37.2093V33.984C254.298 32.83 253.362 31.8945 252.208 31.8945Z" fill="#EBECEF" fill-opacity="0.5"/>
<path d="M171.617 45.4688H267.873" stroke="#E5E7EB" stroke-linecap="square"/>
</g>
<g opacity="0.7" filter="url(#filter3_d_15_70281)">
<path d="M-77.6582 5.97847C-77.6582 1.88947 -74.3429 -1.42578 -70.2539 -1.42578H26.0014C30.0906 -1.42578 33.4056 1.88947 33.4056 5.97847V77.5529C33.4056 81.6419 30.0906 84.9572 26.0014 84.9572H-70.2539C-74.3429 84.9572 -77.6582 81.6419 -77.6582 77.5529V5.97847Z" fill="white"/>
<path d="M-70.2539 -1.11719H26.0015C29.9203 -1.11719 33.0972 2.05986 33.0972 5.97856V77.553C33.0972 81.4717 29.9203 84.6488 26.0015 84.6488H-70.2539C-74.1726 84.6488 -77.3496 81.4717 -77.3496 77.553V5.97856C-77.3496 2.05986 -74.1726 -1.11719 -70.2539 -1.11719Z" stroke="#E6E6E6"/>
<path d="M1.08246 22.0195H-45.3344C-46.4883 22.0195 -47.4238 22.955 -47.4238 24.109V27.3343C-47.4238 28.4883 -46.4883 29.4238 -45.3344 29.4238H1.08246C2.23643 29.4238 3.17192 28.4883 3.17192 27.3343V24.109C3.17192 22.955 2.23643 22.0195 1.08246 22.0195Z" fill="#EBECEF" fill-opacity="0.5"/>
<path d="M7.25176 61.5117H-34.2289C-35.3829 61.5117 -36.3184 62.4472 -36.3184 63.6012V66.8265C-36.3184 67.9805 -35.3829 68.916 -34.2289 68.916H7.25176C8.40573 68.916 9.34121 67.9805 9.34121 66.8265V63.6012C9.34121 62.4472 8.40573 61.5117 7.25176 61.5117Z" fill="#EBECEF" fill-opacity="0.5"/>
<path d="M10.3372 31.8945H-54.5902C-55.7442 31.8945 -56.6797 32.83 -56.6797 33.984V37.2093C-56.6797 38.3633 -55.7442 39.2988 -54.5902 39.2988H10.3372C11.4912 39.2988 12.4267 38.3633 12.4267 37.2093V33.984C12.4267 32.83 11.4912 31.8945 10.3372 31.8945Z" fill="#EBECEF" fill-opacity="0.5"/>
<path d="M-70.2539 45.4688H26.0014" stroke="#E5E7EB" stroke-linecap="square"/>
</g>
<g opacity="0.7" filter="url(#filter4_d_15_70281)">
<path d="M43.2773 50.4043C43.2773 46.3153 46.5924 43 50.6816 43H146.937C151.026 43 154.341 46.3153 154.341 50.4043V121.979C154.341 126.068 151.026 129.383 146.937 129.383H50.6816C46.5924 129.383 43.2773 126.068 43.2773 121.979V50.4043Z" fill="white"/>
<path d="M50.6817 43.3086H146.937C150.856 43.3086 154.033 46.4856 154.033 50.4043V121.979C154.033 125.898 150.856 129.075 146.937 129.075H50.6817C46.7628 129.075 43.5859 125.898 43.5859 121.979V50.4043C43.5859 46.4856 46.7628 43.3086 50.6817 43.3086Z" stroke="#E6E6E6"/>
<path d="M122.018 66.4453H75.6012C74.4472 66.4453 73.5117 67.3808 73.5117 68.5348V71.7601C73.5117 72.9141 74.4472 73.8496 75.6012 73.8496H122.018C123.172 73.8496 124.107 72.9141 124.107 71.7601V68.5348C124.107 67.3808 123.172 66.4453 122.018 66.4453Z" fill="#EBECEF" fill-opacity="0.5"/>
<path d="M131.273 76.3203H66.3453C65.1913 76.3203 64.2559 77.2558 64.2559 78.4098V81.6351C64.2559 82.7891 65.1913 83.7246 66.3453 83.7246H131.273C132.427 83.7246 133.362 82.7891 133.362 81.6351V78.4098C133.362 77.2558 132.427 76.3203 131.273 76.3203Z" fill="#EBECEF" fill-opacity="0.5"/>
<path d="M50.6816 89.8945H146.937" stroke="#E5E7EB" stroke-linecap="square"/>
<g filter="url(#filter5_ddd_15_70281)">
<path d="M104.979 55.3382C104.979 51.9305 102.217 49.168 98.8089 49.168C95.4012 49.168 92.6387 51.9305 92.6387 55.3382C92.6387 58.7459 95.4012 61.5084 98.8089 61.5084C102.217 61.5084 104.979 58.7459 104.979 55.3382Z" fill="#F3F4F6"/>
<path d="M105.288 55.3381C105.288 51.76 102.387 48.8594 98.8088 48.8594C95.2307 48.8594 92.3301 51.76 92.3301 55.3381C92.3301 58.9162 95.2307 61.8168 98.8088 61.8168C102.387 61.8168 105.288 58.9162 105.288 55.3381Z" stroke="#E5E7EB"/>
<mask id="mask1_15_70281" style="mask-type:luminance" maskUnits="userSpaceOnUse" x="95" y="52" width="7" height="7">
<path d="M101.895 52.2539H95.7246V58.4241H101.895V52.2539Z" fill="white"/>
</mask>
<g mask="url(#mask1_15_70281)">
<path d="M99.8385 52.7656V53.7942M97.7813 52.7656V53.7942M96.4961 54.8222H101.124M97.0101 53.2796H100.61C100.894 53.2796 101.124 53.5097 101.124 53.7942V57.3933C101.124 57.6771 100.894 57.9073 100.61 57.9073H97.0101C96.7262 57.9073 96.4961 57.6771 96.4961 57.3933V53.7942C96.4961 53.5097 96.7262 53.2796 97.0101 53.2796Z" stroke="#6C6C6C" stroke-width="0.7" stroke-linecap="round" stroke-linejoin="round"/>
</g>
</g>
</g>
</g>
<path d="M190.128 -72.6914H6.87242C1.59047 -72.6914 -2.69141 -68.4095 -2.69141 -63.1276V109.638C-2.69141 114.92 1.59047 119.202 6.87242 119.202H190.128C195.41 119.202 199.692 114.92 199.692 109.638V-63.1276C199.692 -68.4095 195.41 -72.6914 190.128 -72.6914Z" stroke="#E6E6E6"/>
</g>
</g>
<defs>
<filter id="filter0_ddd_15_70281" x="-8.19141" y="-79.1914" width="213.383" height="208.895" filterUnits="userSpaceOnUse" color-interpolation-filters="sRGB">
<feFlood flood-opacity="0" result="BackgroundImageFix"/>
<feColorMatrix in="SourceAlpha" type="matrix" values="0 0 0 0 0 0 0 0 0 0 0 0 0 0 0 0 0 0 127 0" result="hardAlpha"/>
<feOffset dy="2"/>
<feGaussianBlur stdDeviation="1"/>
<feColorMatrix type="matrix" values="0 0 0 0 0.121569 0 0 0 0 0.156863 0 0 0 0 0.215686 0 0 0 0.02 0"/>
<feBlend mode="normal" in2="BackgroundImageFix" result="effect1_dropShadow_15_70281"/>
<feColorMatrix in="SourceAlpha" type="matrix" values="0 0 0 0 0 0 0 0 0 0 0 0 0 0 0 0 0 0 127 0" result="hardAlpha"/>
<feOffset dy="5"/>
<feGaussianBlur stdDeviation="2.5"/>
<feColorMatrix type="matrix" values="0 0 0 0 0.121569 0 0 0 0 0.156863 0 0 0 0 0.215686 0 0 0 0.02 0"/>
<feBlend mode="normal" in2="effect1_dropShadow_15_70281" result="effect2_dropShadow_15_70281"/>
<feColorMatrix in="SourceAlpha" type="matrix" values="0 0 0 0 0 0 0 0 0 0 0 0 0 0 0 0 0 0 127 0" result="hardAlpha"/>
<feOffset dy="-6"/>
<feComposite in2="hardAlpha" operator="out"/>
<feColorMatrix type="matrix" values="0 0 0 0 0.97 0 0 0 0 0.97 0 0 0 0 0.97 0 0 0 1 0"/>
<feBlend mode="normal" in2="effect2_dropShadow_15_70281" result="effect3_dropShadow_15_70281"/>
<feBlend mode="normal" in="SourceGraphic" in2="effect3_dropShadow_15_70281" result="shape"/>
</filter>
<filter id="filter1_ddd_15_70281" x="38.853" y="-52.5117" width="119.913" height="99.2315" filterUnits="userSpaceOnUse" color-interpolation-filters="sRGB">
<feFlood flood-opacity="0" result="BackgroundImageFix"/>
<feColorMatrix in="SourceAlpha" type="matrix" values="0 0 0 0 0 0 0 0 0 0 0 0 0 0 0 0 0 0 127 0" result="hardAlpha"/>
<feOffset dy="1.69318"/>
<feGaussianBlur stdDeviation="0.846589"/>
<feColorMatrix type="matrix" values="0 0 0 0 0.121569 0 0 0 0 0.156863 0 0 0 0 0.215686 0 0 0 0.02 0"/>
<feBlend mode="normal" in2="BackgroundImageFix" result="effect1_dropShadow_15_70281"/>
<feColorMatrix in="SourceAlpha" type="matrix" values="0 0 0 0 0 0 0 0 0 0 0 0 0 0 0 0 0 0 127 0" result="hardAlpha"/>
<feOffset dy="4.23295"/>
<feGaussianBlur stdDeviation="2.11647"/>
<feColorMatrix type="matrix" values="0 0 0 0 0.121569 0 0 0 0 0.156863 0 0 0 0 0.215686 0 0 0 0.02 0"/>
<feBlend mode="normal" in2="effect1_dropShadow_15_70281" result="effect2_dropShadow_15_70281"/>
<feColorMatrix in="SourceAlpha" type="matrix" values="0 0 0 0 0 0 0 0 0 0 0 0 0 0 0 0 0 0 127 0" result="hardAlpha"/>
<feOffset dy="-4"/>
<feComposite in2="hardAlpha" operator="out"/>
<feColorMatrix type="matrix" values="0 0 0 0 0.97 0 0 0 0 0.97 0 0 0 0 0.97 0 0 0 1 0"/>
<feBlend mode="normal" in2="effect2_dropShadow_15_70281" result="effect3_dropShadow_15_70281"/>
<feBlend mode="normal" in="SourceGraphic" in2="effect3_dropShadow_15_70281" result="shape"/>
</filter>
<filter id="filter2_d_15_70281" x="164.021" y="-5.61719" width="111.447" height="90.7656" filterUnits="userSpaceOnUse" color-interpolation-filters="sRGB">
<feFlood flood-opacity="0" result="BackgroundImageFix"/>
<feColorMatrix in="SourceAlpha" type="matrix" values="0 0 0 0 0 0 0 0 0 0 0 0 0 0 0 0 0 0 127 0" result="hardAlpha"/>
<feOffset dy="-4"/>
<feComposite in2="hardAlpha" operator="out"/>
<feColorMatrix type="matrix" values="0 0 0 0 0.97 0 0 0 0 0.97 0 0 0 0 0.97 0 0 0 1 0"/>
<feBlend mode="normal" in2="BackgroundImageFix" result="effect1_dropShadow_15_70281"/>
<feBlend mode="normal" in="SourceGraphic" in2="effect1_dropShadow_15_70281" result="shape"/>
</filter>
<filter id="filter3_d_15_70281" x="-77.8496" y="-5.61719" width="111.447" height="90.7656" filterUnits="userSpaceOnUse" color-interpolation-filters="sRGB">
<feFlood flood-opacity="0" result="BackgroundImageFix"/>
<feColorMatrix in="SourceAlpha" type="matrix" values="0 0 0 0 0 0 0 0 0 0 0 0 0 0 0 0 0 0 127 0" result="hardAlpha"/>
<feOffset dy="-4"/>
<feComposite in2="hardAlpha" operator="out"/>
<feColorMatrix type="matrix" values="0 0 0 0 0.97 0 0 0 0 0.97 0 0 0 0 0.97 0 0 0 1 0"/>
<feBlend mode="normal" in2="BackgroundImageFix" result="effect1_dropShadow_15_70281"/>
<feBlend mode="normal" in="SourceGraphic" in2="effect1_dropShadow_15_70281" result="shape"/>
</filter>
<filter id="filter4_d_15_70281" x="43.0859" y="38.8086" width="111.447" height="90.7656" filterUnits="userSpaceOnUse" color-interpolation-filters="sRGB">
<feFlood flood-opacity="0" result="BackgroundImageFix"/>
<feColorMatrix in="SourceAlpha" type="matrix" values="0 0 0 0 0 0 0 0 0 0 0 0 0 0 0 0 0 0 127 0" result="hardAlpha"/>
<feOffset dy="-4"/>
<feComposite in2="hardAlpha" operator="out"/>
<feColorMatrix type="matrix" values="0 0 0 0 0.97 0 0 0 0 0.97 0 0 0 0 0.97 0 0 0 1 0"/>
<feBlend mode="normal" in2="BackgroundImageFix" result="effect1_dropShadow_15_70281"/>
<feBlend mode="normal" in="SourceGraphic" in2="effect1_dropShadow_15_70281" result="shape"/>
</filter>
<filter id="filter5_ddd_15_70281" x="88.3026" y="48.3594" width="21.012" height="21.012" filterUnits="userSpaceOnUse" color-interpolation-filters="sRGB">
<feFlood flood-opacity="0" result="BackgroundImageFix"/>
<feColorMatrix in="SourceAlpha" type="matrix" values="0 0 0 0 0 0 0 0 0 0 0 0 0 0 0 0 0 0 127 0" result="hardAlpha"/>
<feOffset dy="1.41098"/>
<feGaussianBlur stdDeviation="0.705491"/>
<feColorMatrix type="matrix" values="0 0 0 0 0.121569 0 0 0 0 0.156863 0 0 0 0 0.215686 0 0 0 0.02 0"/>
<feBlend mode="normal" in2="BackgroundImageFix" result="effect1_dropShadow_15_70281"/>
<feColorMatrix in="SourceAlpha" type="matrix" values="0 0 0 0 0 0 0 0 0 0 0 0 0 0 0 0 0 0 127 0" result="hardAlpha"/>
<feOffset dy="3.52745"/>
<feGaussianBlur stdDeviation="1.76373"/>
<feColorMatrix type="matrix" values="0 0 0 0 0.121569 0 0 0 0 0.156863 0 0 0 0 0.215686 0 0 0 0.02 0"/>
<feBlend mode="normal" in2="effect1_dropShadow_15_70281" result="effect2_dropShadow_15_70281"/>
<feColorMatrix in="SourceAlpha" type="matrix" values="0 0 0 0 0 0 0 0 0 0 0 0 0 0 0 0 0 0 127 0" result="hardAlpha"/>
<feOffset dy="0.5"/>
<feComposite in2="hardAlpha" operator="out"/>
<feColorMatrix type="matrix" values="0 0 0 0 0.92125 0 0 0 0 0.93 0 0 0 0 0.93875 0 0 0 0.5 0"/>
<feBlend mode="normal" in2="effect2_dropShadow_15_70281" result="effect3_dropShadow_15_70281"/>
<feBlend mode="normal" in="SourceGraphic" in2="effect3_dropShadow_15_70281" result="shape"/>
</filter>
<clipPath id="clip0_15_70281">
<rect width="200" height="95" fill="white"/>
</clipPath>
</defs>
</svg>
