<svg width="200" height="95" viewBox="0 0 200 95" fill="none" xmlns="http://www.w3.org/2000/svg">
<g clip-path="url(#clip0_16_71340)">
<rect width="200" height="95" fill="#F9FAFB"/>
<g filter="url(#filter0_ddd_16_71340)">
<path d="M91.1172 6.91016H29.721C25.5798 6.91016 22.2227 10.2524 22.2227 14.3752V57.3118C22.2227 61.4346 25.5798 64.7768 29.721 64.7768H91.1172C95.2584 64.7768 98.6155 61.4346 98.6155 57.3118V14.3752C98.6155 10.2524 95.2584 6.91016 91.1172 6.91016Z" fill="white"/>
<path d="M91.117 7.14453H29.721C25.7092 7.14453 22.457 10.3823 22.457 14.3763V57.3127C22.457 61.3066 25.7092 64.5444 29.721 64.5444H91.117C95.1288 64.5444 98.381 61.3066 98.381 57.3127V14.3763C98.381 10.3823 95.1288 7.14453 91.117 7.14453Z" stroke="#E6E6E6" stroke-width="0.846589"/>
<mask id="mask0_16_71340" style="mask-type:luminance" maskUnits="userSpaceOnUse" x="47" y="21" width="27" height="27">
<path d="M73.9816 21.5156H47.4102V47.969H73.9816V21.5156Z" fill="white"/>
</mask>
<g mask="url(#mask0_16_71340)">
<path d="M60.9724 25.3477C66.0632 25.3525 70.1856 29.4466 70.1806 34.4922C70.1762 39.5379 66.0455 43.624 60.9547 43.6192C55.8704 43.6145 51.7499 39.5299 51.7461 34.4901C51.7413 29.4455 55.8628 25.3525 60.9525 25.3477C60.9589 25.3477 60.9654 25.3477 60.9724 25.3477ZM57.8737 39.1744C59.8721 38.4704 62.0548 38.4698 64.0537 39.1734L64.341 38.1021C64.4739 38.1021 64.5951 38.0989 64.7174 38.1031C64.8437 38.093 64.9704 38.1 65.0944 38.1249C65.0081 38.5694 64.899 39.0095 64.7667 39.4427C65.1072 39.6289 65.4454 39.7976 65.767 39.9935C66.0886 40.1888 66.3931 40.4091 66.7042 40.6183C70.4414 37.224 70.2083 31.4508 66.6898 28.3407C66.0958 28.8037 65.4487 29.1959 64.7623 29.5083C64.8924 29.9665 65.0169 30.4056 65.0994 30.8585H64.3344C64.2873 30.6759 64.2452 30.5014 64.1982 30.3284C64.1578 30.1474 64.1046 29.9703 64.0382 29.7973C62.0441 30.4976 59.8673 30.4966 57.8737 29.7941L57.5853 30.8686C57.4527 30.8686 57.3303 30.8691 57.2084 30.8686C57.0839 30.8675 56.9592 30.8654 56.8111 30.8633L57.1585 29.5046C56.4733 29.1933 55.8285 28.8021 55.2373 28.338C51.5238 31.6945 51.6801 37.4672 55.2373 40.6257C55.8328 40.1622 56.4809 39.7694 57.1681 39.456C57.0302 39.0127 56.9158 38.5619 56.8261 38.1069H57.5891L57.8737 39.1744ZM63.7891 29.0841C63.7847 29.0544 63.7786 29.0251 63.7703 28.9958C63.5361 28.3705 63.215 27.7808 62.817 27.2433C62.5613 26.8905 62.2379 26.5903 61.8658 26.3599C61.3466 26.0262 60.6835 26.0081 60.1465 26.313C59.8013 26.5052 59.4968 26.7617 59.2504 27.0688C58.8541 27.5541 58.5314 28.0943 58.2914 28.6717C58.235 28.801 58.1835 28.9325 58.1234 29.0783C59.9548 29.7297 61.9571 29.7319 63.7891 29.0841ZM58.1325 39.8828C58.1454 39.9264 58.1508 39.952 58.1599 39.9754C58.3784 40.5555 58.6705 41.1052 59.0292 41.6124C59.2638 41.9471 59.5511 42.243 59.8802 42.4878C60.5712 42.9876 61.3208 42.994 62.0188 42.507C62.2578 42.3377 62.4738 42.1382 62.6609 41.9142C63.1381 41.3293 63.5134 40.6699 63.773 39.9631C63.7808 39.936 63.7852 39.9083 63.788 39.8807C61.9587 39.2357 59.9613 39.2367 58.1325 39.8828ZM63.1198 42.5703C64.2026 42.3 65.2179 41.8109 66.1008 41.1329C65.6159 40.7593 65.0894 40.4416 64.5325 40.1856C64.3211 40.6129 64.1268 41.0296 63.9109 41.4352C63.6883 41.8397 63.4232 42.2201 63.1198 42.5703ZM58.816 42.5735C58.51 42.2276 58.2431 41.8487 58.0208 41.4442C57.8007 41.0355 57.6068 40.6135 57.3952 40.1851C56.8379 40.4416 56.3112 40.7593 55.8263 41.1329C56.7123 41.8114 57.7298 42.3021 58.816 42.5735ZM64.5049 28.7782C64.9123 28.6419 65.9347 28.0139 66.077 27.8138C65.1979 27.1433 64.1893 26.6595 63.1132 26.3923C63.7343 27.0975 64.16 27.9091 64.5049 28.7782ZM58.801 26.3982C57.7239 26.6664 56.7139 27.1529 55.8349 27.8261C56.1506 28.1172 57.1279 28.6983 57.4264 28.7718C57.7464 27.9096 58.2109 27.1071 58.801 26.3982Z" fill="#EBECEF"/>
<path d="M65.8735 46.1569C65.8752 46.4336 65.8154 46.7075 65.6992 46.9588C65.4794 47.4449 65.0017 47.7651 64.4653 47.7866C64.2737 47.8042 64.08 47.7888 63.8945 47.7403C63.4173 47.6229 63.0381 47.2658 62.8937 46.8001C62.7486 46.3812 62.7464 45.9266 62.887 45.5066C63.0614 44.9373 63.5757 44.5361 64.1746 44.5014C64.4952 44.4667 64.819 44.5306 65.1019 44.6838C65.48 44.8954 65.7423 45.263 65.8176 45.6868C65.8486 45.8406 65.8558 45.9999 65.8735 46.1569ZM63.8752 46.1393L63.9017 46.1415C63.9017 46.2628 63.894 46.3851 63.9034 46.5058C63.905 46.7174 63.951 46.9263 64.0373 47.1197C64.0866 47.2289 64.1951 47.2999 64.3152 47.3033C64.442 47.3121 64.561 47.2399 64.6114 47.1247C64.654 47.0398 64.6856 46.95 64.7038 46.8569C64.7758 46.4347 64.7841 46.0043 64.7271 45.5799C64.7083 45.4449 64.6723 45.3121 64.6208 45.1853C64.581 45.0657 64.4675 44.9853 64.3401 44.9875C64.2078 44.9825 64.0872 45.0586 64.0351 45.1782C63.9992 45.2432 63.9742 45.3137 63.9621 45.3865C63.9277 45.6372 63.9028 45.8886 63.8752 46.1393Z" fill="#EBECEF"/>
<path d="M62.4856 46.1548C62.5033 46.4359 62.4474 46.7164 62.3241 46.9699C62.0953 47.4643 61.5987 47.7823 61.0505 47.7878C60.8051 47.806 60.5586 47.7668 60.3305 47.6748C59.9438 47.5172 59.6486 47.1975 59.5245 46.8024C59.3817 46.3885 59.3774 45.9405 59.5116 45.5238C59.6845 44.9292 60.2263 44.5147 60.8502 44.4988C61.3383 44.4751 61.7668 44.6073 62.0997 44.981C62.3279 45.2433 62.4629 45.5723 62.4834 45.9184C62.4911 45.9961 62.4856 46.0755 62.4856 46.1548ZM61.4033 46.1835C61.3888 45.9603 61.3882 45.79 61.3641 45.6241C61.3437 45.4781 61.3082 45.3342 61.2583 45.1959C61.2202 45.0692 61.1015 44.9832 60.9683 44.9843C60.8298 44.9782 60.7036 45.0642 60.6591 45.1943C60.6102 45.2995 60.5785 45.4125 60.5656 45.5277C60.5458 45.8694 60.5339 46.2127 60.5388 46.5544C60.5351 46.7511 60.5801 46.9457 60.6693 47.1215C60.739 47.278 60.9238 47.3486 61.0821 47.2797C61.1482 47.2505 61.2024 47.1998 61.2352 47.1353C61.2862 47.0487 61.32 46.9534 61.3345 46.8537C61.3673 46.6134 61.3845 46.3714 61.4022 46.1835H61.4033Z" fill="#EBECEF"/>
<path d="M53.4146 45.2391C53.4323 45.2463 53.4511 45.2518 53.4699 45.2562C53.6557 45.2534 53.8087 45.4006 53.8114 45.5846C53.8114 45.5962 53.8114 45.6072 53.8103 45.6177C53.8259 45.8332 53.6777 46.0266 53.4645 46.0696C53.391 46.0817 53.3158 46.0856 53.2411 46.0806C53.006 46.0757 52.8132 45.8944 52.7944 45.6618C52.7509 45.3625 52.8626 45.0616 53.0913 44.861C53.333 44.6483 53.6401 44.5226 53.9628 44.5045C54.3521 44.4516 54.7483 44.5293 55.0882 44.7249C55.4635 44.9376 55.6472 45.3747 55.535 45.7885C55.4802 46.0024 55.339 46.1837 55.1446 46.2901C54.9228 46.4179 54.6855 46.516 54.4385 46.5844C54.2603 46.6384 54.0793 46.6863 53.9048 46.7513C53.7411 46.7971 53.6003 46.9023 53.5107 47.0462C53.5456 47.0379 53.58 47.0274 53.6138 47.0153C53.901 46.8814 54.227 46.8522 54.5341 46.9327C54.6318 46.9597 54.7312 46.9806 54.831 46.9971C55.0474 47.0291 55.1338 46.9586 55.1596 46.7381C55.1634 46.7067 55.165 46.6753 55.1698 46.6235C55.3357 46.6125 55.5022 46.613 55.6681 46.6257C55.6875 46.9139 55.6875 47.19 55.5451 47.4463C55.4125 47.6866 55.1838 47.7637 54.9298 47.7852C54.6845 47.8012 54.438 47.772 54.2033 47.6987C54.0498 47.6552 53.8968 47.6061 53.7405 47.5742C53.5864 47.5427 53.427 47.5229 53.3308 47.6915H52.8009C52.7778 47.4518 52.8229 47.2104 52.9324 46.9949C53.0699 46.748 53.2685 46.5403 53.5096 46.3904C53.6895 46.2675 53.8785 46.1572 54.0621 46.0404C54.1303 45.9991 54.1964 45.9539 54.2592 45.9048C54.3967 45.799 54.4734 45.6331 54.4654 45.4606C54.4686 45.303 54.3741 45.1586 54.227 45.0969C53.9537 44.9707 53.6288 45.0269 53.4146 45.2391Z" fill="#EBECEF"/>
<path d="M56.8497 44.5855C56.8562 44.6869 56.861 44.7679 56.867 44.8688C56.8879 44.8522 56.9083 44.8341 56.9265 44.8142C57.1242 44.5464 57.4001 44.4835 57.7083 44.537C57.8641 44.5706 58.0176 44.6153 58.168 44.6682C58.2593 44.6957 58.35 44.7271 58.4402 44.7586C58.5148 44.7883 58.5996 44.7712 58.6566 44.715L58.7102 44.5916H59.114C59.1425 44.6792 59.1382 44.7729 59.1017 44.8572C59.0077 45.0694 58.9148 45.2832 58.8053 45.4871C58.6651 45.7483 58.504 45.998 58.3607 46.2576C58.1567 46.6489 58.0487 47.082 58.0445 47.5229C58.0423 47.5747 58.0391 47.626 58.0358 47.6866H57.0033C56.9781 47.5681 56.9743 47.4458 56.9921 47.3256C57.0226 46.8721 57.2208 46.4461 57.5494 46.1286C57.7663 45.9175 57.9918 45.7153 58.2125 45.5081C58.2619 45.4612 58.3075 45.4105 58.3822 45.3339C58.3188 45.3482 58.292 45.3515 58.2667 45.3604C58.0461 45.4254 57.8125 45.4353 57.587 45.389C57.4667 45.3659 57.3454 45.3493 57.2235 45.3405C57.056 45.3201 56.904 45.4386 56.8836 45.6045C56.8836 45.6062 56.8831 45.6078 56.8831 45.6089C56.868 45.6866 56.8583 45.7643 56.8541 45.8437C56.8492 45.8949 56.8492 45.9473 56.846 46.0068H56.293V44.5916C56.3848 44.5894 56.4734 44.5861 56.5619 44.585C56.6511 44.585 56.7424 44.5855 56.8497 44.5855Z" fill="#EBECEF"/>
<path d="M66.7037 44.9911C67.0004 44.9443 67.2954 44.9002 67.4466 44.5938H68.2476C68.2504 44.6522 68.2542 44.7084 68.2548 44.7646C68.2553 45.4832 68.2553 46.2019 68.2548 46.9205C68.2548 46.9575 68.2537 46.9944 68.2548 47.0319C68.2598 47.1933 68.3107 47.2473 68.4768 47.2573C68.5559 47.2622 68.6351 47.2584 68.7231 47.2584C68.7403 47.3961 68.7441 47.535 68.7364 47.6734C68.6091 47.7048 66.9688 47.7158 66.7059 47.6877V47.2777C66.8531 47.2308 67.0242 47.3008 67.1903 47.1928C67.2119 47.1366 67.2257 47.0782 67.2323 47.0186C67.2368 46.5166 67.2351 46.014 67.2346 45.5125C67.2312 45.486 67.2257 45.4606 67.2179 45.4358H66.7031L66.7037 44.9911Z" fill="#EBECEF"/>
<path d="M60.8637 21.5156L61.0988 22.4666L61.1332 22.4661L61.3936 21.5305H62.0368V23.1473H61.6379V22.0026C61.493 22.3724 61.4054 22.7578 61.2867 23.142H60.9195L60.6354 21.9786L60.6016 21.9797C60.6 22.0739 60.5978 22.1681 60.5968 22.2623C60.5957 22.3565 60.5952 22.4528 60.5941 22.5481C60.593 22.6487 60.5946 22.7492 60.5904 22.8498C60.586 22.9435 60.5753 23.0371 60.5662 23.1452L60.2113 23.126C60.1763 23.0105 60.1774 21.7594 60.2118 21.5156H60.8637Z" fill="#EBECEF"/>
<path d="M69.184 26.5993L68.8352 26.2896L68.9775 25.2374L68.9492 25.2258L68.3619 25.8633L68.0176 25.5483L69.1264 24.3359L69.4707 24.6542L69.3229 25.7079L69.3495 25.7223L69.944 25.0794L70.2939 25.3902L69.184 26.5993Z" fill="#EBECEF"/>
<path d="M54.0044 24.5312L53.4964 23.8458L53.8723 23.5664L54.8522 24.8798L54.4753 25.1608L53.425 24.7995C53.6044 25.0682 53.7875 25.2896 53.9604 25.5339L53.5851 25.8117L52.6035 24.4982L52.9804 24.2215L53.977 24.5637L54.0044 24.5312Z" fill="#EBECEF"/>
<path d="M73.0473 35.1104C72.8596 35.3206 72.6913 35.4239 72.3027 35.5644V35.0274L72.8253 34.7624C72.9067 34.7336 72.9692 34.6671 72.9936 34.5841C72.9964 34.5521 72.9969 34.5202 72.9941 34.4878H72.3431C72.326 34.3217 72.3254 34.1546 72.3415 33.9886C72.8906 33.9694 73.4298 34.0226 73.9801 34.0157C73.9801 34.1753 73.9828 34.3169 73.9795 34.4585C73.9751 34.633 73.9657 34.8071 73.9574 34.9811C73.9557 35.0125 73.9551 35.0444 73.9507 35.0758C73.9153 35.3132 73.788 35.451 73.5831 35.4723C73.3578 35.5197 73.1336 35.3872 73.0683 35.1684C73.0622 35.1509 73.0561 35.1322 73.0473 35.1104ZM73.5671 34.9571C73.6557 34.8299 73.6678 34.7374 73.6269 34.516L73.3257 34.4963C73.2898 34.591 73.2826 34.6937 73.3053 34.7927C73.339 34.9625 73.3794 34.9891 73.5671 34.9571Z" fill="#EBECEF"/>
<path d="M58.1309 21.8013C58.4213 21.7534 58.693 21.7076 58.9658 21.6651C59.0549 21.6491 59.1451 21.6401 59.2353 21.6379C59.4297 21.623 59.6069 21.7481 59.6568 21.9344C59.7223 22.1265 59.6515 22.3383 59.4834 22.4538C59.4544 22.474 59.4243 22.4921 59.39 22.5139C59.6326 22.6512 59.74 22.7673 59.9795 23.1488C59.8877 23.1659 59.8013 23.1829 59.7143 23.1978C59.6252 23.2132 59.536 23.2265 59.4367 23.2425C59.3137 23.086 59.1892 22.9285 59.0657 22.7705C59.0104 22.6752 58.8906 22.6374 58.7897 22.6837L58.8895 23.3303L58.3988 23.4117L58.1309 21.8013ZM59.1881 22.1786C59.1731 22.0488 59.1145 21.9796 59.0098 21.9865C58.896 21.9828 58.7827 22.0062 58.6796 22.0546L58.7392 22.3702C58.9212 22.3426 59.0989 22.359 59.1881 22.1786Z" fill="#EBECEF"/>
<path d="M56.1504 22.9102C56.153 22.3568 56.6637 22.1242 57.09 22.1136C57.6211 22.1003 57.8788 22.5707 57.8938 23.0406C57.9099 23.5622 57.454 23.8192 56.9413 23.8363C56.4505 23.8528 56.1751 23.394 56.1504 22.9102ZM57.4041 23.1093C57.3971 22.9401 57.3413 22.7762 57.2436 22.6373C57.1545 22.5186 56.996 22.4749 56.8581 22.5314C56.7206 22.5745 56.6298 22.7038 56.6363 22.8464C56.6433 23.0215 56.705 23.1902 56.813 23.3285C56.8999 23.443 57.0551 23.4813 57.1861 23.4217C57.3252 23.3828 57.4165 23.2519 57.4041 23.1093Z" fill="#EBECEF"/>
<path d="M68.3945 24.182C68.3756 24.5369 68.1725 24.8568 67.858 25.0271C67.6947 25.1122 67.5032 25.1255 67.3299 25.0643C67.1295 25.0037 66.9496 24.8903 66.809 24.737C66.643 24.5646 66.5798 24.3187 66.6435 24.0883C66.695 23.8701 66.8146 23.6743 66.9856 23.5273C67.1821 23.3454 67.4661 23.2905 67.7169 23.3863C67.9206 23.4528 68.1011 23.5758 68.2372 23.7408C68.343 23.8637 68.3989 24.0207 68.3945 24.182ZM67.9283 24.1192C67.9283 23.8893 67.6588 23.6641 67.4335 23.8031C67.2414 23.9159 67.1151 24.1122 67.0941 24.332C67.0703 24.5641 67.3499 24.7615 67.553 24.6551C67.7529 24.5417 67.8907 24.3448 67.9283 24.1192Z" fill="#EBECEF"/>
<path d="M48.8504 36.8698C48.4289 36.8698 48.1593 36.6702 48.067 36.2833C48.0316 36.1455 48.0197 36.0029 48.0321 35.8607C48.0724 35.5005 48.2587 35.3025 48.6141 35.2136C48.7634 35.1732 48.9191 35.162 49.0727 35.1806C49.3519 35.2078 49.587 35.3983 49.6687 35.6644C49.7299 35.8347 49.7514 36.0162 49.731 36.196C49.7095 36.4504 49.5478 36.6718 49.3116 36.7724C49.1677 36.8411 49.0098 36.8746 48.8504 36.8698ZM48.9734 35.6622C48.8289 35.6585 48.6855 35.691 48.5572 35.757C48.4407 35.8288 48.3811 35.9651 48.4074 36.0987C48.4219 36.2354 48.5277 36.3456 48.6646 36.3663C48.8337 36.3983 49.0082 36.3775 49.1651 36.3078C49.2939 36.2578 49.3734 36.1285 49.3594 35.9917C49.3497 35.7772 49.2171 35.6633 48.9734 35.6622Z" fill="#EBECEF"/>
<path d="M73.9556 33.3784C73.8382 33.3981 73.7353 33.4167 73.6317 33.4316C73.4103 33.4635 73.1883 33.4971 72.9669 33.5242C72.6469 33.5641 72.3037 33.421 72.224 33.0298C72.1908 32.8749 72.1742 32.7174 72.1742 32.5594C72.1653 32.3225 72.3165 32.1086 72.5445 32.0373C72.7123 31.9862 72.8839 31.9495 73.0583 31.9276C73.2736 31.8925 73.49 31.8686 73.7065 31.8398C73.769 31.9931 73.7945 32.1586 73.7812 32.3231C73.5537 32.3561 73.3229 32.3885 73.0915 32.422C72.9907 32.4364 72.8894 32.4439 72.7914 32.4657C72.6364 32.4859 72.5274 32.6264 72.5479 32.7797C72.5523 32.8137 72.5628 32.8462 72.5794 32.8765C72.6154 32.9809 72.7206 33.0468 72.8307 33.034C72.9691 33.0229 73.1059 33.0042 73.2431 32.9856C73.4175 32.9622 73.5913 32.9345 73.7652 32.9111C73.8045 32.9084 73.8438 32.9084 73.8831 32.9106L73.9556 33.3784Z" fill="#EBECEF"/>
<path d="M72.0692 29.6903L71.7127 28.982L71.4099 29.1299L71.7985 29.9101L71.4835 30.0692C71.4686 30.0511 71.4553 30.0315 71.4431 30.0117C71.2505 29.6281 71.0595 29.2443 70.8574 28.841L72.3393 28.1172L72.9405 29.3263L72.6383 29.478L72.2513 28.718L72.0066 28.8356L72.3565 29.5445L72.0692 29.6903Z" fill="#EBECEF"/>
<path d="M71.6693 27.8726L71.3997 27.5336C71.4883 27.3239 71.4661 27.1849 71.336 27.1099C71.2641 27.0684 71.232 27.0801 71.1467 27.1865L71.2181 27.401C71.2613 27.5314 71.3128 27.6597 71.346 27.7922C71.3997 27.9588 71.3488 28.1408 71.217 28.2568C71.0775 28.3882 70.8755 28.4297 70.695 28.3643C70.6247 28.3403 70.5588 28.3041 70.5012 28.2578C70.3136 28.1062 70.1763 27.9029 70.106 27.6735C70.0396 27.4543 70.127 27.2175 70.3208 27.0919L70.5998 27.4404C70.525 27.5474 70.4514 27.6554 70.514 27.7895C70.5483 27.8869 70.6335 27.9577 70.7371 27.9731C70.8804 27.9183 70.9164 27.8608 70.881 27.7251C70.86 27.6437 70.8173 27.5676 70.7974 27.4862C70.7609 27.3547 70.736 27.2201 70.7216 27.0844C70.7022 26.814 70.995 26.6315 71.2392 26.6969C71.2967 26.7097 71.351 26.7326 71.4002 26.764C71.6405 26.9279 71.8066 27.1786 71.8625 27.4623C71.8896 27.6043 71.8254 27.732 71.6693 27.8726Z" fill="#EBECEF"/>
<path d="M48.7371 37.3625L48.8949 37.7872C48.7752 37.876 48.7102 37.9819 48.7784 38.1293C48.8182 38.2155 48.8477 38.2326 48.9669 38.2289C49.0528 38.1634 49.0292 38.0708 49.0281 37.9819C49.0206 37.8191 49.0227 37.6557 49.0329 37.4934C49.0705 37.1043 49.5409 36.9857 49.8212 37.198C49.8813 37.2422 49.9323 37.297 49.9726 37.3593C50.1176 37.5838 50.1814 37.851 50.1535 38.1165C50.1277 38.3273 49.9801 38.4418 49.7846 38.5322L49.6225 38.1081C49.8818 37.8861 49.8786 37.6637 49.6198 37.5498C49.4775 37.5913 49.4501 37.6189 49.4453 37.7531C49.4415 37.8585 49.4528 37.9649 49.448 38.0703C49.4469 38.1703 49.4356 38.2704 49.4136 38.3683C49.3588 38.5902 49.1334 38.7265 48.9089 38.6727C48.8568 38.6599 48.808 38.6376 48.7639 38.6067C48.7059 38.5689 48.6565 38.52 48.6173 38.463C48.4686 38.2469 48.4015 37.9857 48.4273 37.7249C48.4504 37.5546 48.5711 37.4125 48.7371 37.3625Z" fill="#EBECEF"/>
<path d="M63.9734 23.511L63.4719 23.4152C63.4558 23.3108 63.4425 23.2241 63.4287 23.1331L62.8602 23.0256L62.7096 23.2741L62.2207 23.1784L63.1353 21.6914L63.6717 21.7925C63.7808 22.3561 63.876 22.9197 63.9734 23.511ZM63.3905 22.7787C63.3883 22.5796 63.3562 22.3822 63.2958 22.1922L63.0246 22.7031L63.3905 22.7787Z" fill="#EBECEF"/>
<path d="M50.4544 29.4189C50.3669 29.3987 50.2772 29.3854 50.1918 29.3572C49.9846 29.288 49.7913 29.1821 49.6221 29.0448C49.4004 28.8958 49.3219 28.6078 49.4385 28.3684C49.475 28.2752 49.5244 28.1869 49.5851 28.1071C49.7043 27.9368 49.9169 27.8564 50.1204 27.9043C50.4093 27.9628 50.6761 28.0975 50.8941 28.2944C51.1046 28.4509 51.1647 28.7377 51.0342 28.9644C50.9892 29.0597 50.9328 29.1491 50.8662 29.231C50.7642 29.3518 50.6133 29.4211 50.4544 29.4189ZM50.5167 29.0033C50.6342 29.0075 50.6987 28.9762 50.7293 28.9027C50.7653 28.8218 50.7411 28.7271 50.6702 28.6733C50.4699 28.4988 50.2321 28.3721 49.9743 28.3024C49.889 28.2747 49.7961 28.3115 49.7537 28.3902C49.7145 28.4562 49.7215 28.5392 49.7714 28.5972C49.7864 28.619 49.8047 28.6382 49.8256 28.6547C50.0103 28.7973 50.2171 28.9101 50.4372 28.9889C50.463 28.9964 50.4898 29.0012 50.5167 29.0033Z" fill="#EBECEF"/>
<path d="M72.5456 31.203V31.6102C72.2766 31.6788 71.997 31.5485 71.8786 31.2994C71.8 31.1487 71.754 30.9832 71.743 30.814C71.7186 30.5421 71.8592 30.2823 72.1011 30.1525C72.2882 30.037 72.5058 29.9785 72.7261 29.9848C72.9104 29.9848 73.0859 30.0626 73.2083 30.1988C73.3887 30.3984 73.4828 30.6602 73.4707 30.9279C73.4596 31.1376 73.3433 31.3276 73.1612 31.4345L72.9414 31.0583C72.9619 31.0354 72.9802 31.0168 72.9968 30.9971C73.1153 30.8678 73.1058 30.6682 72.9758 30.5506C72.9066 30.4878 72.8125 30.4585 72.7195 30.4708C72.5678 30.499 72.4211 30.5474 72.2827 30.6144C72.1587 30.6682 72.095 30.8055 72.1354 30.9337C72.1565 31.0636 72.2594 31.1647 72.3906 31.1849C72.436 31.1935 72.4842 31.1956 72.5456 31.203Z" fill="#EBECEF"/>
<path d="M49.7321 30.8723C49.432 30.8409 49.1463 30.7307 48.903 30.5536C48.7398 30.4413 48.6635 30.2411 48.7114 30.0501C48.7345 29.9368 48.7704 29.8266 48.8188 29.7217C48.9117 29.5094 49.1382 29.387 49.3686 29.4248C49.651 29.4503 49.9221 29.5477 50.1557 29.7074C50.3791 29.8329 50.4774 30.1007 50.3877 30.3391C50.3678 30.4098 50.3415 30.4796 50.3104 30.5461C50.2051 30.7722 50.0215 30.8739 49.7321 30.8723ZM49.8421 30.4615C49.971 30.4604 50.0392 30.4178 50.0687 30.3369C50.0983 30.2598 50.0698 30.1725 50.0005 30.1267C49.9522 30.0852 49.8985 30.0506 49.8411 30.0235C49.7143 29.9697 49.5839 29.9224 49.4534 29.8771C49.3927 29.8569 49.3304 29.8431 49.2671 29.8345C49.1693 29.8165 49.0716 29.8681 49.0324 29.9585C49.0013 30.0368 49.0249 30.1071 49.113 30.1784C49.149 30.2097 49.1898 30.2353 49.2338 30.2545C49.397 30.3178 49.5613 30.3779 49.7267 30.4359C49.7648 30.4471 49.804 30.4551 49.8438 30.4604L49.8421 30.4615Z" fill="#EBECEF"/>
<path d="M48.5007 33.5584L48.4249 33.9729C48.1001 33.9069 47.9551 33.7329 47.9632 33.4125C47.9664 33.2806 47.9852 33.1497 48.0196 33.0219C48.0781 32.7755 48.3272 32.6223 48.5758 32.6802C48.6424 32.6957 48.7047 32.7255 48.7579 32.7675C48.8786 32.8639 48.978 32.9836 49.05 33.1198C49.1117 33.2172 49.1735 33.3146 49.2449 33.428C49.3222 33.3088 49.2873 33.1954 49.3045 33.0911C49.3222 32.9825 49.3291 32.8723 49.3432 32.7425L49.7007 32.7617C49.6589 33.2215 49.6191 33.6616 49.5783 34.1187C49.4204 34.0863 49.276 34.0081 49.1627 33.8942C49.0564 33.7766 48.9641 33.6462 48.8696 33.519C48.8126 33.4424 48.7632 33.3604 48.7095 33.2822C48.6918 33.2561 48.6714 33.2311 48.6494 33.2082C48.5914 33.1358 48.4953 33.1044 48.4051 33.1278C48.3272 33.1555 48.2741 33.2268 48.2714 33.3088C48.2682 33.4019 48.3262 33.4865 48.4148 33.5174C48.4389 33.527 48.462 33.5392 48.5007 33.5584Z" fill="#EBECEF"/>
<path d="M55.7161 23.3025L55.8637 23.5798L55.2978 23.8831L55.606 24.4749L55.1657 24.708L54.3984 23.2605L55.5077 22.6836L55.672 22.9789L55.0116 23.3291L55.1459 23.5941L55.7161 23.3025Z" fill="#EBECEF"/>
<path d="M71.9045 39.4279L71.2734 39.1544L71.4722 38.7031L72.1115 38.9719L73.2419 38.7734L73.0216 39.2699L72.3701 39.3582L72.7476 39.8894L72.5295 40.3912L71.9045 39.4279Z" fill="#EBECEF"/>
<path d="M64.8504 23.8219L64.3804 23.6634L64.7745 22.5074C64.6273 22.4101 64.4513 22.3957 64.2891 22.3111L64.4158 21.9492L65.8789 22.4425L65.7522 22.8113L65.2556 22.6517L64.8504 23.8219Z" fill="#EBECEF"/>
<path d="M72.016 37.0401L73.2234 37.3531L73.364 36.8555L73.7426 36.954L73.3535 38.4308L72.9693 38.3382L73.0983 37.8363L71.8926 37.5175L72.016 37.0401Z" fill="#EBECEF"/>
<path d="M48.4795 32.2695L48.123 32.1854L48.4146 30.9023L48.704 30.9651C48.9708 31.3978 49.3945 31.7139 49.8879 31.8485L49.7924 32.2706C49.3462 32.1328 48.9563 31.8565 48.6798 31.4824C48.5897 31.7506 48.5633 32.0072 48.4795 32.2695Z" fill="#EBECEF"/>
<path d="M50.8782 27.1824C50.8466 27.3399 50.8202 27.474 50.7918 27.6076C50.7826 27.6347 50.7703 27.6614 50.7558 27.6864L50.4712 27.4799C50.5501 27.2399 50.5829 27.002 50.4492 26.7683L50.671 26.4688L52.0192 27.4538L51.754 27.8168L50.8782 27.1824Z" fill="#EBECEF"/>
<path d="M53.2946 26.0696L52.9505 26.4347L51.8164 25.2527L52.1638 24.8945L53.2946 26.0696Z" fill="#EBECEF"/>
<path d="M66.0371 24.3308L65.5859 24.1158L66.289 22.6406L66.744 22.8503L66.0371 24.3308Z" fill="#EBECEF"/>
<path d="M50.431 38.6484L50.6286 39.1045L49.1161 39.7522L48.918 39.2967L50.431 38.6484Z" fill="#EBECEF"/>
<path d="M72.1719 36.2647L72.2433 35.7852C72.7869 35.8501 73.3183 35.931 73.8686 36.0129L73.8016 36.4946C73.2524 36.4275 72.7188 36.3498 72.1719 36.2647Z" fill="#EBECEF"/>
<path d="M68.1102 34.4919C68.1151 34.9171 68.0194 35.3381 67.8323 35.7202C67.5915 36.1869 67.1873 36.5504 66.6947 36.742C66.3371 36.8825 65.9579 36.9607 65.5737 36.9746C65.1258 37.0097 64.6752 36.9613 64.2457 36.8325C63.3162 36.5371 62.7593 35.916 62.6176 34.9485C62.5473 34.5078 62.5761 34.0576 62.7012 33.6292C62.8894 32.9757 63.3799 32.4504 64.0226 32.2125C64.5734 32.005 65.1674 31.9326 65.7525 32.0023C66.0885 32.0247 66.4184 32.1039 66.7273 32.2359C67.4603 32.5356 67.9723 33.2061 68.0636 33.9869C68.088 34.154 68.0952 34.3237 68.1102 34.4919ZM66.2845 34.4919C66.2695 34.2657 66.2618 34.038 66.2369 33.8128C66.218 33.559 66.1488 33.312 66.0326 33.0848C65.9042 32.832 65.639 32.6761 65.3539 32.6862C65.0633 32.6718 64.7909 32.8267 64.6564 33.0827C64.5618 33.261 64.5009 33.4541 64.4748 33.6537C64.4001 34.1454 64.3907 34.6446 64.4483 35.1385C64.466 35.3652 64.5208 35.5882 64.6105 35.7973C64.7832 36.1981 65.2521 36.3844 65.6562 36.213C65.8339 36.1374 65.9778 36.0006 66.0619 35.8282C66.1112 35.7229 66.15 35.6132 66.176 35.4998C66.2485 35.1683 66.2845 34.8309 66.2845 34.4919Z" fill="#EBECEF"/>
<path d="M61.1329 33.7237C61.1012 33.637 61.077 33.5672 61.0512 33.4981C60.8762 33.0319 60.524 32.7945 60.0375 32.7429C59.8523 32.7147 59.6627 32.7248 59.4818 32.7727C59.3631 32.8068 59.2563 32.8717 59.172 32.9616C58.9985 33.1516 59.0173 33.3655 59.2375 33.4986C59.3658 33.5736 59.5043 33.6306 59.6482 33.6678C59.9511 33.7503 60.2609 33.8099 60.5648 33.8908C60.9181 33.9754 61.2553 34.1149 61.5646 34.3043C61.8969 34.5093 62.1101 34.8599 62.137 35.2469C62.1933 35.6396 62.0822 36.0376 61.8298 36.3458C61.6381 36.5688 61.389 36.7359 61.1087 36.829C60.7339 36.9541 60.3371 37.0041 59.9425 36.9759C59.478 36.9509 59.0232 36.8343 58.6045 36.6332C58.5862 36.6247 58.5658 36.6193 58.5346 36.6087L58.3563 36.8573H57.727V35.1324C57.8355 35.1159 57.9461 35.1117 58.0557 35.1191C58.162 35.1165 58.2683 35.1186 58.3881 35.1186C58.41 35.1755 58.4294 35.2287 58.4514 35.2809C58.6705 35.7982 59.0383 36.1446 59.6058 36.2527C59.7943 36.2958 59.9903 36.2915 60.1766 36.2405C60.2786 36.2106 60.3737 36.1627 60.4579 36.0983C60.6206 35.9834 60.6588 35.7593 60.5433 35.5981C60.5197 35.5651 60.4907 35.5364 60.4574 35.5129C60.3205 35.4129 60.1685 35.3341 60.0074 35.2798C59.6955 35.1723 59.3739 35.0936 59.0592 34.9941C58.8396 34.9286 58.6238 34.8514 58.4128 34.7631C58.0116 34.5864 57.718 34.299 57.6288 33.8621C57.4865 33.1644 57.7824 32.5577 58.4278 32.2203C58.7043 32.0803 59.0087 32.0021 59.3186 31.9898C59.9065 31.9468 60.4966 32.0527 61.0319 32.2975C61.0512 32.3065 61.0717 32.3129 61.1065 32.3262L61.237 32.1101H61.8996V33.72C61.7766 33.7211 61.651 33.7232 61.5259 33.7237C61.3971 33.7242 61.2692 33.7237 61.1329 33.7237Z" fill="#EBECEF"/>
<path d="M57.1663 36.1805V36.8292H54.3672V36.1805C54.4537 36.1805 54.538 36.1821 54.6212 36.1799C54.6797 36.1799 54.7382 36.1752 54.7962 36.1656C54.8848 36.157 54.9557 36.0879 54.9659 36C54.9788 35.9325 54.9874 35.8643 54.9906 35.7962C54.9922 34.9181 54.9922 34.0394 54.9906 33.1614C54.9901 32.8506 54.9154 32.7798 54.6018 32.7745C54.5277 32.7734 54.4531 32.7745 54.3672 32.7745V32.1289H57.1469C57.1834 32.3386 57.1866 32.553 57.1561 32.7638C57.1174 32.7675 57.0766 32.7723 57.0352 32.775C56.9939 32.7777 56.9499 32.775 56.9069 32.7761C56.6213 32.7862 56.5536 32.8468 56.5536 33.1263C56.5509 34.0256 56.5509 34.925 56.5536 35.8244C56.5547 36.1129 56.6229 36.1752 56.9155 36.1805C56.995 36.1815 57.0739 36.1805 57.1663 36.1805Z" fill="#EBECEF"/>
</g>
</g>
<g filter="url(#filter1_ddd_16_71340)">
<path d="M170.445 27.0273H112.924C108.783 27.0273 105.426 30.3695 105.426 34.4924V79.0823C105.426 83.2051 108.783 86.5473 112.924 86.5473H170.445C174.587 86.5473 177.944 83.2051 177.944 79.0823V34.4924C177.944 30.3695 174.587 27.0273 170.445 27.0273Z" fill="white"/>
<path d="M170.445 27.2617H112.924C108.912 27.2617 105.66 30.4995 105.66 34.4935V79.0832C105.66 83.0772 108.912 86.3149 112.924 86.3149H170.445C174.457 86.3149 177.709 83.0772 177.709 79.0832V34.4935C177.709 30.4995 174.457 27.2617 170.445 27.2617Z" stroke="#E6E6E6" stroke-width="0.846589"/>
<path d="M138.851 69.9917H139.065L138.616 68.9099H138.39L137.941 69.9917H138.148L138.255 69.72H138.743L138.851 69.9917ZM138.499 69.1083L138.674 69.5508H138.323L138.499 69.1083ZM139.953 69.9917V69.8181H139.425V68.9099H139.23V69.9917H139.953ZM140.323 69.9917V68.9099H140.125V69.9917H140.323ZM141.633 69.9917V69.4439H141.069V69.6043H141.449C141.44 69.6974 141.352 69.8468 141.119 69.8468C140.921 69.8468 140.739 69.7139 140.739 69.45C140.739 69.1816 140.935 69.0565 141.121 69.0565C141.305 69.0565 141.419 69.1601 141.458 69.2824L141.641 69.2163C141.579 69.0377 141.401 68.8867 141.121 68.8867C140.822 68.8867 140.541 69.0945 140.541 69.45C140.541 69.8071 140.808 70.0148 141.108 70.0148C141.292 70.0148 141.411 69.9338 141.461 69.8545L141.475 69.9917H141.633ZM142.843 69.9917V68.9099H142.648V69.6776L142.125 68.9099H141.876V69.9917H142.071V69.1722L142.64 69.9917H142.843ZM143.845 69.9917V69.8208H143.328V69.5337H143.797V69.3678H143.328V69.0807H143.845V68.9099H143.133V69.9917H143.845ZM144.271 69.8242V69.0774H144.477C144.677 69.0774 144.842 69.1997 144.842 69.4533C144.842 69.7035 144.676 69.8242 144.476 69.8242H144.271ZM144.482 69.9917C144.795 69.9917 145.045 69.7994 145.045 69.4533C145.045 69.105 144.798 68.9099 144.484 68.9099H144.076V69.9917H144.482Z" fill="#EBECEF"/>
<path d="M138.27 67.243V65.3918H136.392V66.0465H137.501C137.454 66.2416 137.199 66.613 136.59 66.613C135.992 66.613 135.482 66.2372 135.482 65.5141C135.482 64.7426 136.07 64.4295 136.57 64.4295C137.183 64.4295 137.428 64.8203 137.485 65.0352L138.276 64.7767C138.114 64.2929 137.625 63.707 136.57 63.707C135.529 63.707 134.65 64.4246 134.65 65.5141C134.65 66.6081 135.493 67.3163 136.518 67.3163C137.043 67.3163 137.391 67.1112 137.553 66.8914L137.605 67.243H138.27ZM139.633 66.5155V64.5078H140.112C140.679 64.5078 141.142 64.8203 141.142 65.5141C141.142 66.2074 140.679 66.5155 140.112 66.5155H139.633ZM140.143 67.243C141.256 67.243 142 66.5838 142 65.5141C142 64.4444 141.256 63.7803 140.148 63.7803H138.812V67.243H140.143ZM143.302 65.3334V64.4494H143.78C144.093 64.4494 144.306 64.6153 144.306 64.8936C144.306 65.1625 144.093 65.3334 143.78 65.3334H143.302ZM143.864 65.9975C144.613 65.9975 145.128 65.5433 145.128 64.8886C145.128 64.2444 144.613 63.7803 143.864 63.7803H142.475V67.243H143.297V65.9975H143.864ZM147.282 67.243H148.187L147.438 65.8415C147.891 65.6899 148.167 65.3334 148.167 64.8644C148.167 64.2488 147.699 63.7803 146.971 63.7803H145.509V67.243H146.331V65.9539H146.622L147.282 67.243ZM146.331 65.2893V64.4494H146.815C147.153 64.4494 147.334 64.6103 147.334 64.8693C147.334 65.1135 147.153 65.2893 146.815 65.2893H146.331Z" fill="#EBECEF"/>
<path d="M141.443 43.5625L141.727 44.4074H142.647L141.903 44.9298L142.187 45.7747L141.443 45.2522L140.698 45.7747L140.983 44.9298L140.238 44.4074H141.158L141.443 43.5625Z" fill="#EBECEF"/>
<path d="M141.443 57.4648L141.727 58.3102H142.647L141.903 58.8327L142.187 59.6776L141.443 59.1551L140.698 59.6776L140.983 58.8327L140.238 58.3102H141.158L141.443 57.4648Z" fill="#EBECEF"/>
<path d="M145.227 44.8242L145.511 45.6691H146.431L145.687 46.1915L145.971 47.0364L145.227 46.5139L144.482 47.0364L144.766 46.1915L144.021 45.6691H144.942L145.227 44.8242Z" fill="#EBECEF"/>
<path d="M148.324 47.2188L148.608 48.0636H149.529L148.784 48.5855L149.068 49.4309L148.324 48.9085L147.579 49.4309L147.864 48.5855L147.119 48.0636H148.039L148.324 47.2188Z" fill="#EBECEF"/>
<path d="M148.324 53.9883L148.608 54.8337H149.529L148.784 55.3556L149.069 56.2004L148.324 55.6785L147.579 56.2004L147.864 55.3556L147.119 54.8337H148.04L148.324 53.9883Z" fill="#EBECEF"/>
<path d="M134.553 47.2188L134.837 48.0636H135.757L135.013 48.5855L135.297 49.4309L134.553 48.9085L133.808 49.4309L134.092 48.5855L133.348 48.0636H134.268L134.553 47.2188Z" fill="#EBECEF"/>
<path d="M149.012 50.5156L149.296 51.3605H150.216L149.472 51.8829L149.756 52.7278L149.012 52.2059L148.267 52.7278L148.552 51.8829L147.807 51.3605H148.727L149.012 50.5156Z" fill="#EBECEF"/>
<path d="M133.865 50.5156L134.149 51.3605H135.069L134.325 51.8829L134.609 52.7278L133.865 52.2059L133.12 52.7278L133.405 51.8829L132.66 51.3605H133.581L133.865 50.5156Z" fill="#EBECEF"/>
<path d="M134.553 53.9883L134.837 54.8337H135.757L135.013 55.3556L135.297 56.2004L134.553 55.6785L133.808 56.2004L134.092 55.3556L133.348 54.8337H134.268L134.553 53.9883Z" fill="#EBECEF"/>
<path d="M145.916 56.8359L146.199 57.6808H147.12L146.376 58.2032L146.66 59.0481L145.916 58.5262L145.171 59.0481L145.455 58.2032L144.711 57.6808H145.631L145.916 56.8359Z" fill="#EBECEF"/>
<path d="M137.65 44.8242L137.934 45.6691H138.854L138.11 46.1915L138.394 47.0364L137.65 46.5139L136.905 47.0364L137.19 46.1915L136.445 45.6691H137.365L137.65 44.8242Z" fill="#EBECEF"/>
<path d="M136.966 56.8359L137.25 57.6813H138.171L137.426 58.2032L137.711 59.0481L136.966 58.5262L136.222 59.0481L136.506 58.2032L135.762 57.6813H136.682L136.966 56.8359Z" fill="#EBECEF"/>
<path d="M139.002 51.1139C139.002 50.9453 139.148 50.8086 139.327 50.8086H143.553C143.733 50.8086 143.878 50.9453 143.878 51.1139V53.8358C143.878 54.0045 143.733 54.1412 143.553 54.1412H139.327C139.148 54.1412 139.002 54.0045 139.002 53.8358V51.1139Z" fill="#EBECEF"/>
<path d="M140.998 53.2353L140.357 52.6814C140.285 52.6191 140.285 52.5188 140.357 52.4566C140.429 52.3943 140.545 52.3943 140.617 52.4555L140.618 52.456L141.151 52.9156L142.425 51.8162C142.497 51.7544 142.613 51.7539 142.685 51.8151L142.687 51.8167C142.759 51.8795 142.759 51.9804 142.686 52.0432L141.305 53.2353C141.221 53.308 141.084 53.3086 141 53.2364L140.998 53.2353Z" fill="#EBECEF"/>
<path d="M142.589 50.8836V50.0453C142.589 49.4871 142.107 49.0352 141.513 49.0352C140.919 49.0352 140.438 49.4871 140.438 50.0453V50.8836" fill="#EBECEF"/>
<path d="M142.589 50.8836V50.0453C142.589 49.4871 142.107 49.0352 141.513 49.0352C140.919 49.0352 140.438 49.4871 140.438 50.0453V50.8836" stroke="#E1E1E1" stroke-width="2"/>
</g>
<g filter="url(#filter2_ddd_16_71340)">
<mask id="mask1_16_71340" style="mask-type:luminance" maskUnits="userSpaceOnUse" x="22" y="69" width="77" height="18">
<path d="M94.1869 69.1875H26.6512C24.2054 69.1875 22.2227 71.1614 22.2227 73.5964V82.4142C22.2227 84.8491 24.2054 86.8231 26.6512 86.8231H94.1869C96.6328 86.8231 98.6155 84.8491 98.6155 82.4142V73.5964C98.6155 71.1614 96.6328 69.1875 94.1869 69.1875Z" fill="white"/>
</mask>
<g mask="url(#mask1_16_71340)">
<path d="M94.1869 69.1875H26.6512C24.2054 69.1875 22.2227 71.1614 22.2227 73.5964V82.4142C22.2227 84.8491 24.2054 86.8231 26.6512 86.8231H94.1869C96.6328 86.8231 98.6155 84.8491 98.6155 82.4142V73.5964C98.6155 71.1614 96.6328 69.1875 94.1869 69.1875Z" fill="white"/>
<path d="M77.0889 74.4219H28.8023C27.767 74.4219 26.9277 75.2574 26.9277 76.2881V79.169C26.9277 80.1997 27.767 81.0352 28.8023 81.0352H77.0889C78.1242 81.0352 78.9635 80.1997 78.9635 79.169V76.2881C78.9635 75.2574 78.1242 74.4219 77.0889 74.4219Z" fill="#F9FAFB"/>
<path fill-rule="evenodd" clip-rule="evenodd" d="M91.5484 74.0523C90.3898 73.5712 89.1454 73.3287 87.8899 73.3402C86.6349 73.3287 85.3905 73.5712 84.2319 74.0523L84.2302 74.0528C84.078 74.1173 83.9479 74.2248 83.856 74.362C83.7647 74.4992 83.7154 74.6607 83.7148 74.8255V77.6488V77.6521C83.7265 78.6414 84.0431 79.6031 84.6221 80.4077C85.2006 81.2112 86.0127 81.818 86.9494 82.147L87.3634 82.2997C87.7033 82.4237 88.0764 82.4237 88.4163 82.2997H88.4169L88.831 82.147C89.7676 81.8185 90.5797 81.2112 91.1582 80.4077C91.7372 79.6031 92.0538 78.6414 92.0655 77.6521V77.6488V74.826C92.0649 74.6613 92.0156 74.4992 91.9238 74.362C91.8324 74.2248 91.7023 74.1173 91.5501 74.0528L91.5484 74.0523ZM84.3171 74.6673C84.3487 74.6199 84.3935 74.583 84.4461 74.5604C85.5355 74.1079 86.7063 73.8803 87.8877 73.8914H87.8926C89.0734 73.8803 90.2442 74.1079 91.3342 74.5604C91.3868 74.583 91.4311 74.6199 91.4626 74.6673C91.4942 74.7147 91.5113 74.7698 91.5119 74.8266V77.6477C91.5014 78.5234 91.2207 79.3744 90.7081 80.0864C90.1955 80.7984 89.4753 81.3369 88.645 81.6279L88.6411 81.6295L88.2253 81.7822L88.2248 81.7827C88.0089 81.8615 87.7714 81.8615 87.555 81.7827L87.1392 81.6295L87.1354 81.6279C86.305 81.3369 85.5848 80.7984 85.0722 80.0864C84.5596 79.3744 84.2789 78.5234 84.2684 77.6477V74.8266C84.269 74.7698 84.2856 74.7147 84.3171 74.6673ZM86.4683 77.2168C86.4683 77.1495 86.5231 77.095 86.5906 77.095H86.9527C86.9555 77.0955 86.9588 77.0955 86.9615 77.0955H88.8182C88.821 77.0955 88.8243 77.0955 88.8271 77.095H89.1897C89.2572 77.095 89.312 77.1495 89.312 77.2168V79.4344C89.312 79.5011 89.2572 79.5557 89.1897 79.5557H86.5906C86.5231 79.5557 86.4683 79.5011 86.4683 79.4344V77.2168ZM89.0673 76.599H89.1897C89.5323 76.599 89.8102 76.8756 89.8102 77.2168V79.4344C89.8102 79.7756 89.5323 80.0517 89.1897 80.0517H86.5906C86.248 80.0517 85.9701 79.7756 85.9701 79.4344V77.2168C85.9701 76.8756 86.248 76.599 86.5906 76.599H86.7124V76.2931C86.7124 75.9823 86.8364 75.6841 87.0573 75.4642C87.2782 75.2443 87.5777 75.1209 87.8899 75.1209C88.2021 75.1209 88.5016 75.2443 88.7225 75.4642C88.9433 75.6841 89.0673 75.9823 89.0673 76.2931V76.599ZM88.5691 76.599V76.2931C88.5691 76.1134 88.4977 75.9415 88.3704 75.8147C88.2431 75.688 88.0698 75.6169 87.8899 75.6169C87.71 75.6169 87.5373 75.688 87.4099 75.8147C87.2826 75.9415 87.2106 76.1134 87.2106 76.2931V76.599H88.5691ZM87.8899 78.1074C87.7559 78.1074 87.6474 78.2159 87.6474 78.3493C87.6474 78.4827 87.7559 78.5907 87.8899 78.5907C88.0238 78.5907 88.1329 78.4827 88.1329 78.3493C88.1329 78.2159 88.0238 78.1074 87.8899 78.1074ZM87.2046 78.3493C87.2046 77.9723 87.5112 77.6665 87.8899 77.6665C88.2685 77.6665 88.5758 77.9723 88.5758 78.3493C88.5758 78.7263 88.2685 79.0316 87.8899 79.0316C87.5112 79.0316 87.2046 78.7263 87.2046 78.3493Z" fill="url(#paint0_linear_16_71340)"/>
</g>
<path d="M94.1868 69.4219H26.6513C24.3349 69.4219 22.457 71.2914 22.457 73.5975V82.4153C22.457 84.7214 24.3349 86.5909 26.6513 86.5909H94.1868C96.5032 86.5909 98.381 84.7214 98.381 82.4153V73.5975C98.381 71.2914 96.5032 69.4219 94.1868 69.4219Z" stroke="#E6E6E6" stroke-width="0.846589"/>
</g>
<g filter="url(#filter3_ddd_16_71340)">
<mask id="mask2_16_71340" style="mask-type:luminance" maskUnits="userSpaceOnUse" x="105" y="6" width="73" height="19">
<path d="M173.349 6.91016H109.688C107.243 6.91016 105.26 8.88408 105.26 11.319V20.1368C105.26 22.5718 107.243 24.5457 109.688 24.5457H173.349C175.795 24.5457 177.778 22.5718 177.778 20.1368V11.319C177.778 8.88408 175.795 6.91016 173.349 6.91016Z" fill="white"/>
</mask>
<g mask="url(#mask2_16_71340)">
<path d="M173.349 6.91016H109.688C107.243 6.91016 105.26 8.88408 105.26 11.319V20.1368C105.26 22.5718 107.243 24.5457 109.688 24.5457H173.349C175.795 24.5457 177.778 22.5718 177.778 20.1368V11.319C177.778 8.88408 175.795 6.91016 173.349 6.91016Z" fill="white"/>
<path d="M160.126 12.1445H111.839C110.804 12.1445 109.965 12.9801 109.965 14.0108V16.8916C109.965 17.9223 110.804 18.7579 111.839 18.7579H160.126C161.161 18.7579 162.001 17.9223 162.001 16.8916V14.0108C162.001 12.9801 161.161 12.1445 160.126 12.1445Z" fill="#F9FAFB"/>
<path fill-rule="evenodd" clip-rule="evenodd" d="M172.925 11.775C171.767 11.2936 170.522 11.0514 169.267 11.0629C168.012 11.0514 166.767 11.2936 165.609 11.775L165.607 11.7756C165.455 11.84 165.325 11.9475 165.233 12.0849C165.142 12.2222 165.092 12.3832 165.092 12.548V12.549V15.3718V15.375C165.103 16.3642 165.42 17.326 165.999 18.1301C166.578 18.9337 167.39 19.541 168.326 19.8699L168.74 20.0222L168.741 20.0224C169.081 20.1465 169.453 20.1465 169.793 20.0224L169.794 20.0222L170.208 19.8699C171.145 19.541 171.957 18.9337 172.535 18.1301C173.114 17.326 173.431 16.3642 173.442 15.375V15.3718V12.549V12.548C173.442 12.3832 173.393 12.2222 173.301 12.0849C173.209 11.9475 173.079 11.84 172.927 11.7756L172.925 11.775ZM165.694 12.3898C165.726 12.3425 165.77 12.3055 165.823 12.2832C166.913 11.8305 168.083 11.6028 169.265 11.614H169.27C170.45 11.6028 171.621 11.8305 172.711 12.2832C172.764 12.3055 172.808 12.3425 172.84 12.3898C172.871 12.4371 172.888 12.4926 172.889 12.5495V15.3702C172.878 16.2459 172.598 17.0972 172.085 17.8091C171.572 18.5214 170.852 19.0596 170.022 19.3508L170.018 19.3522L169.602 19.505L169.602 19.5052C169.386 19.5841 169.148 19.5841 168.932 19.5052L168.516 19.3522L168.512 19.3508C167.682 19.0596 166.962 18.5214 166.449 17.8091C165.937 17.0972 165.656 16.2459 165.645 15.3702V12.5495C165.646 12.4927 165.663 12.4371 165.694 12.3898ZM167.845 14.9395C167.845 14.8723 167.9 14.8179 167.968 14.8179H168.33C168.332 14.818 168.336 14.8181 168.338 14.8181H170.195C170.198 14.8181 170.201 14.818 170.204 14.8179H170.567C170.634 14.8179 170.689 14.8723 170.689 14.9395V17.1569C170.689 17.2241 170.634 17.2785 170.567 17.2785H167.968C167.9 17.2785 167.845 17.2241 167.845 17.1569V14.9395ZM170.444 14.3219H170.567C170.909 14.3219 171.187 14.5984 171.187 14.9395V17.1569C171.187 17.498 170.909 17.7745 170.567 17.7745H167.968C167.625 17.7745 167.347 17.498 167.347 17.1569V14.9395C167.347 14.5984 167.625 14.3219 167.968 14.3219H168.089V14.0156C168.089 13.7048 168.213 13.4067 168.434 13.1868C168.655 12.967 168.955 12.8435 169.267 12.8435C169.579 12.8435 169.879 12.967 170.099 13.1868C170.32 13.4067 170.444 13.7048 170.444 14.0156V14.3219ZM169.946 14.3219V14.0156C169.946 13.8363 169.875 13.6644 169.747 13.5375C169.62 13.4108 169.447 13.3395 169.267 13.3395C169.087 13.3395 168.914 13.4108 168.787 13.5375C168.66 13.6644 168.588 13.8363 168.588 14.0156V14.3219H169.946ZM169.267 15.8302C169.133 15.8302 169.024 15.9384 169.024 16.0718C169.024 16.2053 169.133 16.3134 169.267 16.3134C169.401 16.3134 169.51 16.2053 169.51 16.0718C169.51 15.9384 169.401 15.8302 169.267 15.8302ZM168.582 16.0718C168.582 15.6949 168.888 15.3893 169.267 15.3893C169.645 15.3893 169.953 15.6949 169.953 16.0718C169.953 16.4487 169.645 16.7543 169.267 16.7543C168.888 16.7543 168.582 16.4487 168.582 16.0718Z" fill="url(#paint1_linear_16_71340)"/>
</g>
<path d="M173.349 7.14453H109.688C107.372 7.14453 105.494 9.01402 105.494 11.3201V20.1379C105.494 22.444 107.372 24.3135 109.688 24.3135H173.349C175.665 24.3135 177.543 22.444 177.543 20.1379V11.3201C177.543 9.01402 175.665 7.14453 173.349 7.14453Z" stroke="#E6E6E6" stroke-width="0.846589"/>
</g>
<path d="M105.26 -11V113" stroke="#E6E6E6" stroke-width="0.5" stroke-dasharray="3 3"/>
<path d="M177.777 -11V113" stroke="#E6E6E6" stroke-width="0.5" stroke-dasharray="3 3"/>
<path d="M98.6152 -11V113" stroke="#E6E6E6" stroke-width="0.5" stroke-dasharray="3 3"/>
<path d="M22.2227 -11V113" stroke="#E6E6E6" stroke-width="0.5" stroke-dasharray="3 3"/>
<path d="M-2 87L202 87" stroke="#E6E6E6" stroke-width="0.5" stroke-dasharray="3 3"/>
<path d="M-2 7L202 7.00002" stroke="#E6E6E6" stroke-width="0.5" stroke-dasharray="3 3"/>
</g>
<defs>
<filter id="filter0_ddd_16_71340" x="17.8003" y="6.72266" width="85.2374" height="66.712" filterUnits="userSpaceOnUse" color-interpolation-filters="sRGB">
<feFlood flood-opacity="0" result="BackgroundImageFix"/>
<feColorMatrix in="SourceAlpha" type="matrix" values="0 0 0 0 0 0 0 0 0 0 0 0 0 0 0 0 0 0 127 0" result="hardAlpha"/>
<feOffset dy="1.69318"/>
<feGaussianBlur stdDeviation="0.846589"/>
<feColorMatrix type="matrix" values="0 0 0 0 0.121569 0 0 0 0 0.156863 0 0 0 0 0.215686 0 0 0 0.02 0"/>
<feBlend mode="normal" in2="BackgroundImageFix" result="effect1_dropShadow_16_71340"/>
<feColorMatrix in="SourceAlpha" type="matrix" values="0 0 0 0 0 0 0 0 0 0 0 0 0 0 0 0 0 0 127 0" result="hardAlpha"/>
<feOffset dy="4.23295"/>
<feGaussianBlur stdDeviation="2.11647"/>
<feColorMatrix type="matrix" values="0 0 0 0 0.121569 0 0 0 0 0.156863 0 0 0 0 0.215686 0 0 0 0.02 0"/>
<feBlend mode="normal" in2="effect1_dropShadow_16_71340" result="effect2_dropShadow_16_71340"/>
<feColorMatrix in="SourceAlpha" type="matrix" values="0 0 0 0 0 0 0 0 0 0 0 0 0 0 0 0 0 0 127 0" result="hardAlpha"/>
<feOffset dy="2"/>
<feComposite in2="hardAlpha" operator="out"/>
<feColorMatrix type="matrix" values="0 0 0 0 0.97 0 0 0 0 0.97 0 0 0 0 0.97 0 0 0 1 0"/>
<feBlend mode="normal" in2="effect2_dropShadow_16_71340" result="effect3_dropShadow_16_71340"/>
<feBlend mode="normal" in="SourceGraphic" in2="effect3_dropShadow_16_71340" result="shape"/>
</filter>
<filter id="filter1_ddd_16_71340" x="101.003" y="26.8398" width="81.3624" height="68.3643" filterUnits="userSpaceOnUse" color-interpolation-filters="sRGB">
<feFlood flood-opacity="0" result="BackgroundImageFix"/>
<feColorMatrix in="SourceAlpha" type="matrix" values="0 0 0 0 0 0 0 0 0 0 0 0 0 0 0 0 0 0 127 0" result="hardAlpha"/>
<feOffset dy="1.69318"/>
<feGaussianBlur stdDeviation="0.846589"/>
<feColorMatrix type="matrix" values="0 0 0 0 0.121569 0 0 0 0 0.156863 0 0 0 0 0.215686 0 0 0 0.02 0"/>
<feBlend mode="normal" in2="BackgroundImageFix" result="effect1_dropShadow_16_71340"/>
<feColorMatrix in="SourceAlpha" type="matrix" values="0 0 0 0 0 0 0 0 0 0 0 0 0 0 0 0 0 0 127 0" result="hardAlpha"/>
<feOffset dy="4.23295"/>
<feGaussianBlur stdDeviation="2.11647"/>
<feColorMatrix type="matrix" values="0 0 0 0 0.121569 0 0 0 0 0.156863 0 0 0 0 0.215686 0 0 0 0.02 0"/>
<feBlend mode="normal" in2="effect1_dropShadow_16_71340" result="effect2_dropShadow_16_71340"/>
<feColorMatrix in="SourceAlpha" type="matrix" values="0 0 0 0 0 0 0 0 0 0 0 0 0 0 0 0 0 0 127 0" result="hardAlpha"/>
<feOffset dy="2"/>
<feComposite in2="hardAlpha" operator="out"/>
<feColorMatrix type="matrix" values="0 0 0 0 0.97 0 0 0 0 0.97 0 0 0 0 0.97 0 0 0 1 0"/>
<feBlend mode="normal" in2="effect2_dropShadow_16_71340" result="effect3_dropShadow_16_71340"/>
<feBlend mode="normal" in="SourceGraphic" in2="effect3_dropShadow_16_71340" result="shape"/>
</filter>
<filter id="filter2_ddd_16_71340" x="17.8003" y="69" width="85.2374" height="26.4815" filterUnits="userSpaceOnUse" color-interpolation-filters="sRGB">
<feFlood flood-opacity="0" result="BackgroundImageFix"/>
<feColorMatrix in="SourceAlpha" type="matrix" values="0 0 0 0 0 0 0 0 0 0 0 0 0 0 0 0 0 0 127 0" result="hardAlpha"/>
<feOffset dy="1.69318"/>
<feGaussianBlur stdDeviation="0.846589"/>
<feColorMatrix type="matrix" values="0 0 0 0 0.121569 0 0 0 0 0.156863 0 0 0 0 0.215686 0 0 0 0.02 0"/>
<feBlend mode="normal" in2="BackgroundImageFix" result="effect1_dropShadow_16_71340"/>
<feColorMatrix in="SourceAlpha" type="matrix" values="0 0 0 0 0 0 0 0 0 0 0 0 0 0 0 0 0 0 127 0" result="hardAlpha"/>
<feOffset dy="4.23295"/>
<feGaussianBlur stdDeviation="2.11647"/>
<feColorMatrix type="matrix" values="0 0 0 0 0.121569 0 0 0 0 0.156863 0 0 0 0 0.215686 0 0 0 0.02 0"/>
<feBlend mode="normal" in2="effect1_dropShadow_16_71340" result="effect2_dropShadow_16_71340"/>
<feColorMatrix in="SourceAlpha" type="matrix" values="0 0 0 0 0 0 0 0 0 0 0 0 0 0 0 0 0 0 127 0" result="hardAlpha"/>
<feOffset dy="2"/>
<feComposite in2="hardAlpha" operator="out"/>
<feColorMatrix type="matrix" values="0 0 0 0 0.97 0 0 0 0 0.97 0 0 0 0 0.97 0 0 0 1 0"/>
<feBlend mode="normal" in2="effect2_dropShadow_16_71340" result="effect3_dropShadow_16_71340"/>
<feBlend mode="normal" in="SourceGraphic" in2="effect3_dropShadow_16_71340" result="shape"/>
</filter>
<filter id="filter3_ddd_16_71340" x="100.837" y="6.72266" width="81.3624" height="26.4815" filterUnits="userSpaceOnUse" color-interpolation-filters="sRGB">
<feFlood flood-opacity="0" result="BackgroundImageFix"/>
<feColorMatrix in="SourceAlpha" type="matrix" values="0 0 0 0 0 0 0 0 0 0 0 0 0 0 0 0 0 0 127 0" result="hardAlpha"/>
<feOffset dy="1.69318"/>
<feGaussianBlur stdDeviation="0.846589"/>
<feColorMatrix type="matrix" values="0 0 0 0 0.121569 0 0 0 0 0.156863 0 0 0 0 0.215686 0 0 0 0.02 0"/>
<feBlend mode="normal" in2="BackgroundImageFix" result="effect1_dropShadow_16_71340"/>
<feColorMatrix in="SourceAlpha" type="matrix" values="0 0 0 0 0 0 0 0 0 0 0 0 0 0 0 0 0 0 127 0" result="hardAlpha"/>
<feOffset dy="4.23295"/>
<feGaussianBlur stdDeviation="2.11647"/>
<feColorMatrix type="matrix" values="0 0 0 0 0.121569 0 0 0 0 0.156863 0 0 0 0 0.215686 0 0 0 0.02 0"/>
<feBlend mode="normal" in2="effect1_dropShadow_16_71340" result="effect2_dropShadow_16_71340"/>
<feColorMatrix in="SourceAlpha" type="matrix" values="0 0 0 0 0 0 0 0 0 0 0 0 0 0 0 0 0 0 127 0" result="hardAlpha"/>
<feOffset dy="2"/>
<feComposite in2="hardAlpha" operator="out"/>
<feColorMatrix type="matrix" values="0 0 0 0 0.97 0 0 0 0 0.97 0 0 0 0 0.97 0 0 0 1 0"/>
<feBlend mode="normal" in2="effect2_dropShadow_16_71340" result="effect3_dropShadow_16_71340"/>
<feBlend mode="normal" in="SourceGraphic" in2="effect3_dropShadow_16_71340" result="shape"/>
</filter>
<linearGradient id="paint0_linear_16_71340" x1="87.8899" y1="73.3397" x2="87.8899" y2="82.3928" gradientUnits="userSpaceOnUse">
<stop stop-color="#E5E5E5"/>
<stop offset="1" stop-color="#E5E5E5" stop-opacity="0.4"/>
</linearGradient>
<linearGradient id="paint1_linear_16_71340" x1="169.267" y1="11.0625" x2="169.267" y2="20.1155" gradientUnits="userSpaceOnUse">
<stop stop-color="#E5E5E5"/>
<stop offset="1" stop-color="#E5E5E5" stop-opacity="0.4"/>
</linearGradient>
<clipPath id="clip0_16_71340">
<rect width="200" height="95" fill="white"/>
</clipPath>
</defs>
</svg>
