<svg width="200" height="95" viewBox="0 0 200 95" fill="none" xmlns="http://www.w3.org/2000/svg">
<g clip-path="url(#clip0_16_71276)">
<rect width="200" height="95" fill="#F9FAFB"/>
<g filter="url(#filter0_ddd_16_71276)">
<g opacity="0.72" filter="url(#filter1_ddd_16_71276)">
<path d="M57.6895 35.0586C57.6895 30.224 61.609 26.3047 66.4434 26.3047H180.245C185.079 26.3047 188.999 30.224 188.999 35.0586V169.286C188.999 174.12 185.079 178.04 180.245 178.04H66.4434C61.609 178.04 57.6895 174.12 57.6895 169.286V35.0586Z" fill="white"/>
<path d="M58.0547 35.0572C58.0547 30.4239 61.8109 26.668 66.4439 26.668H180.245C184.878 26.668 188.634 30.4239 188.634 35.0572V169.284C188.634 173.917 184.878 177.674 180.245 177.674H66.4439C61.8109 177.674 58.0547 173.917 58.0547 169.284V35.0572Z" stroke="#E6E6E6"/>
<path d="M109.487 62.7773H70.8242C70.0184 62.7773 69.3652 63.4306 69.3652 64.2363V67.1543C69.3652 67.9601 70.0184 68.6133 70.8242 68.6133H109.487C110.293 68.6133 110.946 67.9601 110.946 67.1543V64.2363C110.946 63.4306 110.293 62.7773 109.487 62.7773Z" fill="#EBECEF"/>
<path d="M141.577 36.5117H105.832C104.22 36.5117 102.914 37.8181 102.914 39.4297C102.914 41.0413 104.22 42.3477 105.832 42.3477H141.577C143.189 42.3477 144.495 41.0413 144.495 39.4297C144.495 37.8181 143.189 36.5117 141.577 36.5117Z" fill="#EBECEF"/>
<path d="M121.159 71.5312H70.8242C70.0184 71.5312 69.3652 72.1845 69.3652 72.9902V75.9082C69.3652 76.714 70.0184 77.3672 70.8242 77.3672H121.159C121.965 77.3672 122.618 76.714 122.618 75.9082V72.9902C122.618 72.1845 121.965 71.5312 121.159 71.5312Z" fill="#EBECEF"/>
<path d="M174.857 42.3516H132.38C131.016 42.3516 129.91 43.4576 129.91 44.8219V93.1344C129.91 94.4987 131.016 95.6047 132.38 95.6047H174.857C176.221 95.6047 177.327 94.4987 177.327 93.1344V44.8219C177.327 43.4576 176.221 42.3516 174.857 42.3516Z" fill="#F3F4F6"/>
<path d="M121.607 83.2109H71.8356C70.4712 83.2109 69.3652 84.3169 69.3652 85.6813V89.4946C69.3652 90.8589 70.4712 91.9649 71.8356 91.9649H121.607C122.971 91.9649 124.077 90.8589 124.077 89.4946V85.6813C124.077 84.3169 122.971 83.2109 121.607 83.2109Z" fill="#101010"/>
<mask id="mask0_16_71276" style="mask-type:luminance" maskUnits="userSpaceOnUse" x="69" y="36" width="24" height="6">
<path d="M92.7052 36.5078H69.3613V41.6143H92.7052V36.5078Z" fill="white"/>
</mask>
<g mask="url(#mask0_16_71276)">
<g opacity="0.8">
<path d="M71.6862 41.3405C70.36 41.3405 69.3613 40.2866 69.3613 38.9853C69.3613 37.6798 70.3089 36.6172 71.6862 36.6172C72.4172 36.6172 72.9227 36.8427 73.3181 37.3589L72.6805 37.8923C72.4128 37.6061 72.0896 37.463 71.6862 37.463C70.7889 37.463 70.2965 38.1526 70.2965 38.9853C70.2965 39.8181 70.8364 40.4947 71.6862 40.4947C72.0853 40.4947 72.4252 40.3516 72.6929 40.0654L73.3225 40.6205C72.9439 41.115 72.4252 41.3405 71.6862 41.3405Z" fill="#292929"/>
<path d="M76.0703 37.8697H76.9289V41.2528H76.0703V40.7583C75.8916 41.1097 75.5939 41.3439 75.0249 41.3439C74.1152 41.3439 73.3887 40.5501 73.3887 39.5743C73.3887 38.5984 74.1152 37.8047 75.0249 37.8047C75.5896 37.8047 75.8916 38.0389 76.0703 38.3902V37.8697ZM76.0958 39.5743C76.0958 39.0451 75.734 38.6071 75.165 38.6071C74.6164 38.6071 74.2597 39.0494 74.2597 39.5743C74.2597 40.086 74.6164 40.5415 75.165 40.5415C75.7304 40.5415 76.0958 40.0991 76.0958 39.5743Z" fill="#292929"/>
<path d="M77.5371 36.5078H78.3957V41.2528H77.5371V36.5078Z" fill="#292929"/>
<path d="M78.7754 40.8048C78.7754 40.5272 78.9964 40.293 79.2984 40.293C79.6004 40.293 79.8127 40.5272 79.8127 40.8048C79.8127 41.091 79.5961 41.3253 79.2984 41.3253C79.0008 41.3253 78.7754 41.091 78.7754 40.8048Z" fill="#292929"/>
<path d="M83.097 40.7063C82.7782 41.0967 82.2938 41.3439 81.7197 41.3439C80.6955 41.3439 79.9434 40.5501 79.9434 39.5743C79.9434 38.5984 80.6955 37.8047 81.7197 37.8047C82.2719 37.8047 82.7527 38.0389 83.0714 38.4075L82.4083 38.9671C82.2427 38.7589 82.0261 38.6027 81.7197 38.6027C81.1718 38.6027 80.8144 39.0451 80.8144 39.5699C80.8144 40.0947 81.1718 40.5372 81.7197 40.5372C82.0509 40.5372 82.2807 40.3637 82.4506 40.1294L83.097 40.7063Z" fill="#292929"/>
<path d="M83.1738 39.5743C83.1738 38.5984 83.9259 37.8047 84.9502 37.8047C85.9744 37.8047 86.7265 38.5984 86.7265 39.5743C86.7265 40.5501 85.9744 41.3439 84.9502 41.3439C83.9259 41.3395 83.1738 40.5501 83.1738 39.5743ZM85.8555 39.5743C85.8555 39.0451 85.498 38.6071 84.9502 38.6071C84.4016 38.6027 84.0448 39.0451 84.0448 39.5743C84.0448 40.0991 84.4016 40.5415 84.9502 40.5415C85.498 40.5415 85.8555 40.0991 85.8555 39.5743Z" fill="#292929"/>
<path d="M92.5292 39.1857V41.2502H91.6706V39.3982C91.6706 38.8127 91.3985 38.5611 90.9907 38.5611C90.6085 38.5611 90.3364 38.7519 90.3364 39.3982V41.2502H89.4778V39.3982C89.4778 38.8127 89.2013 38.5611 88.7979 38.5611C88.4156 38.5611 88.0793 38.7519 88.0793 39.3982V41.2502H87.2207V37.8671H88.0793V38.3356C88.258 37.9712 88.5812 37.7891 89.078 37.7891C89.55 37.7891 89.9454 38.0233 90.162 38.418C90.3787 38.0146 90.6975 37.7891 91.2752 37.7891C91.9807 37.7934 92.5292 38.3312 92.5292 39.1857Z" fill="#292929"/>
</g>
</g>
</g>
<g opacity="0.72" filter="url(#filter2_ddd_16_71276)">
<mask id="mask1_16_71276" style="mask-type:luminance" maskUnits="userSpaceOnUse" x="11" y="26" width="132" height="153">
<path d="M11 35.0743C11 30.2396 14.9193 26.3203 19.7539 26.3203H133.555C138.39 26.3203 142.309 30.2396 142.309 35.0743V169.301C142.309 174.136 138.39 178.055 133.555 178.055H19.7539C14.9193 178.055 11 174.136 11 169.301V35.0743Z" fill="white"/>
</mask>
<g mask="url(#mask1_16_71276)">
<path d="M11 35.0743C11 30.2396 14.9193 26.3203 19.7539 26.3203H133.555C138.39 26.3203 142.309 30.2396 142.309 35.0743V169.301C142.309 174.136 138.39 178.055 133.555 178.055H19.7539C14.9193 178.055 11 174.136 11 169.301V35.0743Z" fill="white"/>
<path d="M62.798 37.9922H24.1348C23.329 37.9922 22.6758 38.6454 22.6758 39.4512V78.1144C22.6758 78.9202 23.329 79.5734 24.1348 79.5734H62.798C63.6038 79.5734 64.257 78.9202 64.257 78.1144V39.4512C64.257 38.6454 63.6038 37.9922 62.798 37.9922Z" fill="#EBECEF"/>
<path d="M94.8879 36.5273H59.1426C57.531 36.5273 56.2246 37.8338 56.2246 39.4453C56.2246 41.0569 57.531 42.3633 59.1426 42.3633H94.8879C96.4994 42.3633 97.8059 41.0569 97.8059 39.4453C97.8059 37.8338 96.4994 36.5273 94.8879 36.5273Z" fill="#EBECEF"/>
<path d="M74.47 85.4141H24.1348C23.329 85.4141 22.6758 86.0673 22.6758 86.8731V89.791C22.6758 90.5968 23.329 91.25 24.1348 91.25H74.47C75.2757 91.25 75.929 90.5968 75.929 89.791V86.8731C75.929 86.0673 75.2757 85.4141 74.47 85.4141Z" fill="#EBECEF"/>
<path d="M128.168 42.3672H85.691C84.3267 42.3672 83.2207 43.4732 83.2207 44.8375V93.15C83.2207 94.5144 84.3267 95.6204 85.691 95.6204H128.168C129.532 95.6204 130.638 94.5144 130.638 93.15V44.8375C130.638 43.4732 129.532 42.3672 128.168 42.3672Z" fill="#F3F4F6"/>
</g>
<path d="M11.3652 35.065C11.3652 30.4317 15.1212 26.6758 19.7544 26.6758H133.556C138.189 26.6758 141.945 30.4317 141.945 35.065V169.292C141.945 173.925 138.189 177.681 133.556 177.681H19.7544C15.1212 177.681 11.3652 173.925 11.3652 169.292V35.065Z" stroke="#E6E6E6"/>
</g>
<g filter="url(#filter3_ddd_16_71276)">
<mask id="mask2_16_71276" style="mask-type:luminance" maskUnits="userSpaceOnUse" x="34" y="11" width="132" height="152">
<path d="M34.3516 19.7539C34.3516 14.9193 38.2709 11 43.1055 11H156.907C161.741 11 165.661 14.9193 165.661 19.7539V153.981C165.661 158.816 161.741 162.735 156.907 162.735H43.1055C38.2709 162.735 34.3516 158.816 34.3516 153.981V19.7539Z" fill="white"/>
</mask>
<g mask="url(#mask2_16_71276)">
<path d="M34.3516 19.7539C34.3516 14.9193 38.2709 11 43.1055 11H156.907C161.741 11 165.661 14.9193 165.661 19.7539V153.981C165.661 158.816 161.741 162.735 156.907 162.735H43.1055C38.2709 162.735 34.3516 158.816 34.3516 153.981V19.7539Z" fill="white"/>
<path d="M86.1496 47.4727H47.4863C46.6806 47.4727 46.0273 48.1259 46.0273 48.9316V51.8496C46.0273 52.6554 46.6806 53.3086 47.4863 53.3086H86.1496C86.9554 53.3086 87.6086 52.6554 87.6086 51.8496V48.9316C87.6086 48.1259 86.9554 47.4727 86.1496 47.4727Z" fill="#EBECEF"/>
<path d="M118.239 21.207H82.4942C80.8826 21.207 79.5762 22.5135 79.5762 24.125C79.5762 25.7366 80.8826 27.043 82.4942 27.043H118.239C119.851 27.043 121.157 25.7366 121.157 24.125C121.157 22.5135 119.851 21.207 118.239 21.207Z" fill="#EBECEF"/>
<path d="M97.8215 56.2266H47.4863C46.6806 56.2266 46.0273 56.8798 46.0273 57.6856V60.6035C46.0273 61.4093 46.6806 62.0625 47.4863 62.0625H97.8215C98.6273 62.0625 99.2805 61.4093 99.2805 60.6035V57.6856C99.2805 56.8798 98.6273 56.2266 97.8215 56.2266Z" fill="#EBECEF"/>
<path d="M151.519 32.8867H109.043C107.678 32.8867 106.572 33.9927 106.572 35.3571V71.2681C106.572 72.6325 107.678 73.7385 109.043 73.7385H151.519C152.883 73.7385 153.989 72.6325 153.989 71.2681V35.3571C153.989 33.9927 152.883 32.8867 151.519 32.8867Z" fill="#F3F4F6"/>
<path d="M129.53 52.7C129.172 52.7 128.829 52.5578 128.575 52.3046C128.322 52.0514 128.18 51.708 128.18 51.35C128.18 50.992 128.322 50.6486 128.575 50.3954C128.829 50.1422 129.172 50 129.53 50C129.888 50 130.231 50.1422 130.485 50.3954C130.738 50.6486 130.88 50.992 130.88 51.35C130.88 51.708 130.738 52.0514 130.485 52.3046C130.231 52.5578 129.888 52.7 129.53 52.7ZM129.8 57.6488V55.64C129.8 55.3472 129.886 55.0778 130.042 54.8372C129.508 54.7611 128.963 54.7974 128.443 54.9438C127.923 55.0902 127.439 55.3435 127.023 55.6874C127.678 56.6579 128.666 57.3556 129.8 57.6494V57.6488ZM126.472 54.596C127.348 53.9475 128.41 53.5983 129.5 53.6C130.126 53.6 130.726 53.7128 131.28 53.9192C131.807 53.7134 132.435 53.6 133.1 53.6C134.096 53.6 135.011 53.8544 135.624 54.2936C135.826 53.5675 135.855 52.804 135.707 52.0647C135.56 51.3255 135.24 50.6314 134.775 50.0387C134.309 49.4459 133.71 48.9712 133.027 48.6529C132.344 48.3346 131.595 48.1817 130.842 48.2066C130.088 48.2315 129.351 48.4335 128.69 48.7962C128.03 49.1589 127.464 49.6721 127.038 50.2943C126.613 50.9165 126.34 51.6302 126.241 52.3775C126.143 53.1249 126.222 53.8849 126.472 54.596ZM135.127 55.4516C134.892 55.1318 134.103 54.8 133.1 54.8C131.896 54.8 131 55.2782 131 55.64V57.8C131.833 57.8005 132.651 57.5842 133.375 57.1724C134.099 56.7607 134.703 56.1676 135.128 55.4516H135.127ZM131 59C127.686 59 125 56.3138 125 53C125 49.6862 127.686 47 131 47C134.314 47 137 49.6862 137 53C137 56.3138 134.314 59 131 59ZM133.1 53.3C132.782 53.3 132.477 53.1736 132.251 52.9485C132.026 52.7235 131.9 52.4183 131.9 52.1C131.9 51.7817 132.026 51.4765 132.251 51.2515C132.477 51.0264 132.782 50.9 133.1 50.9C133.418 50.9 133.723 51.0264 133.949 51.2515C134.174 51.4765 134.3 51.7817 134.3 52.1C134.3 52.4183 134.174 52.7235 133.949 52.9485C133.723 53.1736 133.418 53.3 133.1 53.3Z" fill="white"/>
</g>
<path d="M34.7109 19.7447C34.7109 15.1114 38.4669 11.3555 43.1001 11.3555H156.901C161.534 11.3555 165.291 15.1114 165.291 19.7447V153.972C165.291 158.605 161.534 162.361 156.901 162.361H43.1001C38.4669 162.361 34.7109 158.605 34.7109 153.972V19.7447Z" stroke="#E6E6E6"/>
</g>
</g>
</g>
<defs>
<filter id="filter0_ddd_16_71276" x="5.86523" y="10.8555" width="188.27" height="177.324" filterUnits="userSpaceOnUse" color-interpolation-filters="sRGB">
<feFlood flood-opacity="0" result="BackgroundImageFix"/>
<feColorMatrix in="SourceAlpha" type="matrix" values="0 0 0 0 0 0 0 0 0 0 0 0 0 0 0 0 0 0 127 0" result="hardAlpha"/>
<feOffset dy="2"/>
<feGaussianBlur stdDeviation="1"/>
<feColorMatrix type="matrix" values="0 0 0 0 0.121569 0 0 0 0 0.156863 0 0 0 0 0.215686 0 0 0 0.02 0"/>
<feBlend mode="normal" in2="BackgroundImageFix" result="effect1_dropShadow_16_71276"/>
<feColorMatrix in="SourceAlpha" type="matrix" values="0 0 0 0 0 0 0 0 0 0 0 0 0 0 0 0 0 0 127 0" result="hardAlpha"/>
<feOffset dy="5"/>
<feGaussianBlur stdDeviation="2.5"/>
<feColorMatrix type="matrix" values="0 0 0 0 0.121569 0 0 0 0 0.156863 0 0 0 0 0.215686 0 0 0 0.02 0"/>
<feBlend mode="normal" in2="effect1_dropShadow_16_71276" result="effect2_dropShadow_16_71276"/>
<feColorMatrix in="SourceAlpha" type="matrix" values="0 0 0 0 0 0 0 0 0 0 0 0 0 0 0 0 0 0 127 0" result="hardAlpha"/>
<feOffset dy="4.23"/>
<feComposite in2="hardAlpha" operator="out"/>
<feColorMatrix type="matrix" values="0 0 0 0 0.97 0 0 0 0 0.97 0 0 0 0 0.97 0 0 0 1 0"/>
<feBlend mode="normal" in2="effect2_dropShadow_16_71276" result="effect3_dropShadow_16_71276"/>
<feBlend mode="normal" in="SourceGraphic" in2="effect3_dropShadow_16_71276" result="shape"/>
</filter>
<filter id="filter1_ddd_16_71276" x="53.3217" y="22.168" width="140.046" height="164.47" filterUnits="userSpaceOnUse" color-interpolation-filters="sRGB">
<feFlood flood-opacity="0" result="BackgroundImageFix"/>
<feColorMatrix in="SourceAlpha" type="matrix" values="0 0 0 0 0 0 0 0 0 0 0 0 0 0 0 0 0 0 127 0" result="hardAlpha"/>
<feOffset dy="1.69318"/>
<feGaussianBlur stdDeviation="0.846589"/>
<feColorMatrix type="matrix" values="0 0 0 0 0.121569 0 0 0 0 0.156863 0 0 0 0 0.215686 0 0 0 0.02 0"/>
<feBlend mode="normal" in2="BackgroundImageFix" result="effect1_dropShadow_16_71276"/>
<feColorMatrix in="SourceAlpha" type="matrix" values="0 0 0 0 0 0 0 0 0 0 0 0 0 0 0 0 0 0 127 0" result="hardAlpha"/>
<feOffset dy="4.23295"/>
<feGaussianBlur stdDeviation="2.11647"/>
<feColorMatrix type="matrix" values="0 0 0 0 0.121569 0 0 0 0 0.156863 0 0 0 0 0.215686 0 0 0 0.02 0"/>
<feBlend mode="normal" in2="effect1_dropShadow_16_71276" result="effect2_dropShadow_16_71276"/>
<feColorMatrix in="SourceAlpha" type="matrix" values="0 0 0 0 0 0 0 0 0 0 0 0 0 0 0 0 0 0 127 0" result="hardAlpha"/>
<feOffset dy="-4"/>
<feComposite in2="hardAlpha" operator="out"/>
<feColorMatrix type="matrix" values="0 0 0 0 0.97 0 0 0 0 0.97 0 0 0 0 0.97 0 0 0 1 0"/>
<feBlend mode="normal" in2="effect2_dropShadow_16_71276" result="effect3_dropShadow_16_71276"/>
<feBlend mode="normal" in="SourceGraphic" in2="effect3_dropShadow_16_71276" result="shape"/>
</filter>
<filter id="filter2_ddd_16_71276" x="6.63229" y="22.1758" width="140.046" height="164.47" filterUnits="userSpaceOnUse" color-interpolation-filters="sRGB">
<feFlood flood-opacity="0" result="BackgroundImageFix"/>
<feColorMatrix in="SourceAlpha" type="matrix" values="0 0 0 0 0 0 0 0 0 0 0 0 0 0 0 0 0 0 127 0" result="hardAlpha"/>
<feOffset dy="1.69318"/>
<feGaussianBlur stdDeviation="0.846589"/>
<feColorMatrix type="matrix" values="0 0 0 0 0.121569 0 0 0 0 0.156863 0 0 0 0 0.215686 0 0 0 0.02 0"/>
<feBlend mode="normal" in2="BackgroundImageFix" result="effect1_dropShadow_16_71276"/>
<feColorMatrix in="SourceAlpha" type="matrix" values="0 0 0 0 0 0 0 0 0 0 0 0 0 0 0 0 0 0 127 0" result="hardAlpha"/>
<feOffset dy="4.23295"/>
<feGaussianBlur stdDeviation="2.11647"/>
<feColorMatrix type="matrix" values="0 0 0 0 0.121569 0 0 0 0 0.156863 0 0 0 0 0.215686 0 0 0 0.02 0"/>
<feBlend mode="normal" in2="effect1_dropShadow_16_71276" result="effect2_dropShadow_16_71276"/>
<feColorMatrix in="SourceAlpha" type="matrix" values="0 0 0 0 0 0 0 0 0 0 0 0 0 0 0 0 0 0 127 0" result="hardAlpha"/>
<feOffset dy="-4"/>
<feComposite in2="hardAlpha" operator="out"/>
<feColorMatrix type="matrix" values="0 0 0 0 0.97 0 0 0 0 0.97 0 0 0 0 0.97 0 0 0 1 0"/>
<feBlend mode="normal" in2="effect2_dropShadow_16_71276" result="effect3_dropShadow_16_71276"/>
<feBlend mode="normal" in="SourceGraphic" in2="effect3_dropShadow_16_71276" result="shape"/>
</filter>
<filter id="filter3_ddd_16_71276" x="29.978" y="6.85547" width="140.046" height="164.47" filterUnits="userSpaceOnUse" color-interpolation-filters="sRGB">
<feFlood flood-opacity="0" result="BackgroundImageFix"/>
<feColorMatrix in="SourceAlpha" type="matrix" values="0 0 0 0 0 0 0 0 0 0 0 0 0 0 0 0 0 0 127 0" result="hardAlpha"/>
<feOffset dy="1.69318"/>
<feGaussianBlur stdDeviation="0.846589"/>
<feColorMatrix type="matrix" values="0 0 0 0 0.121569 0 0 0 0 0.156863 0 0 0 0 0.215686 0 0 0 0.02 0"/>
<feBlend mode="normal" in2="BackgroundImageFix" result="effect1_dropShadow_16_71276"/>
<feColorMatrix in="SourceAlpha" type="matrix" values="0 0 0 0 0 0 0 0 0 0 0 0 0 0 0 0 0 0 127 0" result="hardAlpha"/>
<feOffset dy="4.23295"/>
<feGaussianBlur stdDeviation="2.11647"/>
<feColorMatrix type="matrix" values="0 0 0 0 0.121569 0 0 0 0 0.156863 0 0 0 0 0.215686 0 0 0 0.02 0"/>
<feBlend mode="normal" in2="effect1_dropShadow_16_71276" result="effect2_dropShadow_16_71276"/>
<feColorMatrix in="SourceAlpha" type="matrix" values="0 0 0 0 0 0 0 0 0 0 0 0 0 0 0 0 0 0 127 0" result="hardAlpha"/>
<feOffset dy="-4"/>
<feComposite in2="hardAlpha" operator="out"/>
<feColorMatrix type="matrix" values="0 0 0 0 0.97 0 0 0 0 0.97 0 0 0 0 0.97 0 0 0 1 0"/>
<feBlend mode="normal" in2="effect2_dropShadow_16_71276" result="effect3_dropShadow_16_71276"/>
<feBlend mode="normal" in="SourceGraphic" in2="effect3_dropShadow_16_71276" result="shape"/>
</filter>
<clipPath id="clip0_16_71276">
<rect width="200" height="95" fill="white"/>
</clipPath>
</defs>
</svg>
