<svg width="200" height="95" viewBox="0 0 200 95" fill="none" xmlns="http://www.w3.org/2000/svg">
<g clip-path="url(#clip0_16_71623)">
<rect width="200" height="95" fill="#F9FAFB"/>
<g filter="url(#filter0_ddd_16_71623)">
<g opacity="0.72" filter="url(#filter1_ddd_16_71623)">
<path d="M57.6895 35.0586C57.6895 30.224 61.609 26.3047 66.4434 26.3047H180.245C185.079 26.3047 188.999 30.224 188.999 35.0586V169.286C188.999 174.12 185.079 178.04 180.245 178.04H66.4434C61.609 178.04 57.6895 174.12 57.6895 169.286V35.0586Z" fill="white"/>
<path d="M58.0547 35.0572C58.0547 30.4239 61.8109 26.668 66.4439 26.668H180.245C184.878 26.668 188.634 30.4239 188.634 35.0572V169.284C188.634 173.917 184.878 177.674 180.245 177.674H66.4439C61.8109 177.674 58.0547 173.917 58.0547 169.284V35.0572Z" stroke="#E6E6E6"/>
<path d="M109.487 62.7773H70.8242C70.0184 62.7773 69.3652 63.4306 69.3652 64.2363V67.1543C69.3652 67.9601 70.0184 68.6133 70.8242 68.6133H109.487C110.293 68.6133 110.946 67.9601 110.946 67.1543V64.2363C110.946 63.4306 110.293 62.7773 109.487 62.7773Z" fill="#EBECEF"/>
<path d="M141.577 36.5117H105.832C104.22 36.5117 102.914 37.8181 102.914 39.4297C102.914 41.0413 104.22 42.3477 105.832 42.3477H141.577C143.189 42.3477 144.495 41.0413 144.495 39.4297C144.495 37.8181 143.189 36.5117 141.577 36.5117Z" fill="#EBECEF"/>
<path d="M121.159 71.5312H70.8242C70.0184 71.5312 69.3652 72.1845 69.3652 72.9902V75.9082C69.3652 76.714 70.0184 77.3672 70.8242 77.3672H121.159C121.965 77.3672 122.618 76.714 122.618 75.9082V72.9902C122.618 72.1845 121.965 71.5312 121.159 71.5312Z" fill="#EBECEF"/>
<path d="M174.857 42.3516H132.38C131.016 42.3516 129.91 43.4576 129.91 44.8219V93.1344C129.91 94.4987 131.016 95.6047 132.38 95.6047H174.857C176.221 95.6047 177.327 94.4987 177.327 93.1344V44.8219C177.327 43.4576 176.221 42.3516 174.857 42.3516Z" fill="#F3F4F6"/>
<path d="M121.607 83.2109H71.8356C70.4712 83.2109 69.3652 84.3169 69.3652 85.6813V89.4946C69.3652 90.8589 70.4712 91.9649 71.8356 91.9649H121.607C122.971 91.9649 124.077 90.8589 124.077 89.4946V85.6813C124.077 84.3169 122.971 83.2109 121.607 83.2109Z" fill="#101010"/>
<mask id="mask0_16_71623" style="mask-type:luminance" maskUnits="userSpaceOnUse" x="69" y="36" width="24" height="6">
<path d="M92.7052 36.5078H69.3613V41.6143H92.7052V36.5078Z" fill="white"/>
</mask>
<g mask="url(#mask0_16_71623)">
<g opacity="0.8">
<path d="M71.6862 41.3405C70.36 41.3405 69.3613 40.2866 69.3613 38.9853C69.3613 37.6798 70.3089 36.6172 71.6862 36.6172C72.4172 36.6172 72.9227 36.8427 73.3181 37.3589L72.6805 37.8923C72.4128 37.6061 72.0896 37.463 71.6862 37.463C70.7889 37.463 70.2965 38.1526 70.2965 38.9853C70.2965 39.8181 70.8364 40.4947 71.6862 40.4947C72.0853 40.4947 72.4252 40.3516 72.6929 40.0654L73.3225 40.6205C72.9439 41.115 72.4252 41.3405 71.6862 41.3405Z" fill="#292929"/>
<path d="M76.0703 37.8697H76.9289V41.2528H76.0703V40.7583C75.8916 41.1097 75.5939 41.3439 75.0249 41.3439C74.1152 41.3439 73.3887 40.5501 73.3887 39.5743C73.3887 38.5984 74.1152 37.8047 75.0249 37.8047C75.5896 37.8047 75.8916 38.0389 76.0703 38.3902V37.8697ZM76.0958 39.5743C76.0958 39.0451 75.734 38.6071 75.165 38.6071C74.6164 38.6071 74.2597 39.0494 74.2597 39.5743C74.2597 40.086 74.6164 40.5415 75.165 40.5415C75.7304 40.5415 76.0958 40.0991 76.0958 39.5743Z" fill="#292929"/>
<path d="M77.5371 36.5078H78.3957V41.2528H77.5371V36.5078Z" fill="#292929"/>
<path d="M78.7754 40.8048C78.7754 40.5272 78.9964 40.293 79.2984 40.293C79.6004 40.293 79.8127 40.5272 79.8127 40.8048C79.8127 41.091 79.5961 41.3253 79.2984 41.3253C79.0008 41.3253 78.7754 41.091 78.7754 40.8048Z" fill="#292929"/>
<path d="M83.097 40.7063C82.7782 41.0967 82.2938 41.3439 81.7197 41.3439C80.6955 41.3439 79.9434 40.5501 79.9434 39.5743C79.9434 38.5984 80.6955 37.8047 81.7197 37.8047C82.2719 37.8047 82.7527 38.0389 83.0714 38.4075L82.4083 38.9671C82.2427 38.7589 82.0261 38.6027 81.7197 38.6027C81.1718 38.6027 80.8144 39.0451 80.8144 39.5699C80.8144 40.0947 81.1718 40.5372 81.7197 40.5372C82.0509 40.5372 82.2807 40.3637 82.4506 40.1294L83.097 40.7063Z" fill="#292929"/>
<path d="M83.1738 39.5743C83.1738 38.5984 83.9259 37.8047 84.9502 37.8047C85.9744 37.8047 86.7265 38.5984 86.7265 39.5743C86.7265 40.5501 85.9744 41.3439 84.9502 41.3439C83.9259 41.3395 83.1738 40.5501 83.1738 39.5743ZM85.8555 39.5743C85.8555 39.0451 85.498 38.6071 84.9502 38.6071C84.4016 38.6027 84.0448 39.0451 84.0448 39.5743C84.0448 40.0991 84.4016 40.5415 84.9502 40.5415C85.498 40.5415 85.8555 40.0991 85.8555 39.5743Z" fill="#292929"/>
<path d="M92.5292 39.1857V41.2502H91.6706V39.3982C91.6706 38.8127 91.3985 38.5611 90.9907 38.5611C90.6085 38.5611 90.3364 38.7519 90.3364 39.3982V41.2502H89.4778V39.3982C89.4778 38.8127 89.2013 38.5611 88.7979 38.5611C88.4156 38.5611 88.0793 38.7519 88.0793 39.3982V41.2502H87.2207V37.8671H88.0793V38.3356C88.258 37.9712 88.5812 37.7891 89.078 37.7891C89.55 37.7891 89.9454 38.0233 90.162 38.418C90.3787 38.0146 90.6975 37.7891 91.2752 37.7891C91.9807 37.7934 92.5292 38.3312 92.5292 39.1857Z" fill="#292929"/>
</g>
</g>
</g>
<g opacity="0.72" filter="url(#filter2_ddd_16_71623)">
<mask id="mask1_16_71623" style="mask-type:luminance" maskUnits="userSpaceOnUse" x="11" y="26" width="132" height="153">
<path d="M11 35.0743C11 30.2396 14.9193 26.3203 19.7539 26.3203H133.555C138.39 26.3203 142.309 30.2396 142.309 35.0743V169.301C142.309 174.136 138.39 178.055 133.555 178.055H19.7539C14.9193 178.055 11 174.136 11 169.301V35.0743Z" fill="white"/>
</mask>
<g mask="url(#mask1_16_71623)">
<path d="M11 35.0743C11 30.2396 14.9193 26.3203 19.7539 26.3203H133.555C138.39 26.3203 142.309 30.2396 142.309 35.0743V169.301C142.309 174.136 138.39 178.055 133.555 178.055H19.7539C14.9193 178.055 11 174.136 11 169.301V35.0743Z" fill="white"/>
<path d="M62.798 37.9922H24.1348C23.329 37.9922 22.6758 38.6454 22.6758 39.4512V78.1144C22.6758 78.9202 23.329 79.5734 24.1348 79.5734H62.798C63.6038 79.5734 64.257 78.9202 64.257 78.1144V39.4512C64.257 38.6454 63.6038 37.9922 62.798 37.9922Z" fill="#EBECEF"/>
<path d="M94.8879 36.5273H59.1426C57.531 36.5273 56.2246 37.8338 56.2246 39.4453C56.2246 41.0569 57.531 42.3633 59.1426 42.3633H94.8879C96.4994 42.3633 97.8059 41.0569 97.8059 39.4453C97.8059 37.8338 96.4994 36.5273 94.8879 36.5273Z" fill="#EBECEF"/>
<path d="M74.47 85.4141H24.1348C23.329 85.4141 22.6758 86.0673 22.6758 86.8731V89.791C22.6758 90.5968 23.329 91.25 24.1348 91.25H74.47C75.2757 91.25 75.929 90.5968 75.929 89.791V86.8731C75.929 86.0673 75.2757 85.4141 74.47 85.4141Z" fill="#EBECEF"/>
<path d="M128.168 42.3672H85.691C84.3267 42.3672 83.2207 43.4732 83.2207 44.8375V93.15C83.2207 94.5144 84.3267 95.6204 85.691 95.6204H128.168C129.532 95.6204 130.638 94.5144 130.638 93.15V44.8375C130.638 43.4732 129.532 42.3672 128.168 42.3672Z" fill="#F3F4F6"/>
</g>
<path d="M11.3652 35.065C11.3652 30.4317 15.1212 26.6758 19.7544 26.6758H133.556C138.189 26.6758 141.945 30.4317 141.945 35.065V169.292C141.945 173.925 138.189 177.681 133.556 177.681H19.7544C15.1212 177.681 11.3652 173.925 11.3652 169.292V35.065Z" stroke="#E6E6E6"/>
</g>
<g filter="url(#filter3_ddd_16_71623)">
<mask id="mask2_16_71623" style="mask-type:luminance" maskUnits="userSpaceOnUse" x="34" y="11" width="132" height="152">
<path d="M34.3516 19.7539C34.3516 14.9193 38.2709 11 43.1055 11H156.907C161.741 11 165.661 14.9193 165.661 19.7539V153.981C165.661 158.816 161.741 162.735 156.907 162.735H43.1055C38.2709 162.735 34.3516 158.816 34.3516 153.981V19.7539Z" fill="white"/>
</mask>
<g mask="url(#mask2_16_71623)">
<path d="M34.3516 19.7539C34.3516 14.9193 38.2709 11 43.1055 11H156.907C161.741 11 165.661 14.9193 165.661 19.7539V153.981C165.661 158.816 161.741 162.735 156.907 162.735H43.1055C38.2709 162.735 34.3516 158.816 34.3516 153.981V19.7539Z" fill="white"/>
<path d="M42.504 90V86.7H43.146V87.33H43.302L43.146 87.48C43.146 87.216 43.224 87.01 43.38 86.862C43.536 86.714 43.752 86.64 44.028 86.64C44.356 86.64 44.618 86.746 44.814 86.958C45.01 87.166 45.108 87.448 45.108 87.804V90H44.46V87.876C44.46 87.66 44.402 87.494 44.286 87.378C44.17 87.262 44.012 87.204 43.812 87.204C43.608 87.204 43.446 87.266 43.326 87.39C43.21 87.51 43.152 87.686 43.152 87.918V90H42.504ZM47.2777 90.054C47.0057 90.054 46.7697 90.002 46.5697 89.898C46.3697 89.794 46.2157 89.646 46.1077 89.454C45.9997 89.262 45.9457 89.036 45.9457 88.776V87.924C45.9457 87.66 45.9997 87.434 46.1077 87.246C46.2157 87.054 46.3697 86.906 46.5697 86.802C46.7697 86.698 47.0057 86.646 47.2777 86.646C47.5497 86.646 47.7857 86.698 47.9857 86.802C48.1857 86.906 48.3397 87.054 48.4477 87.246C48.5557 87.434 48.6097 87.66 48.6097 87.924V88.776C48.6097 89.036 48.5557 89.262 48.4477 89.454C48.3397 89.646 48.1857 89.794 47.9857 89.898C47.7857 90.002 47.5497 90.054 47.2777 90.054ZM47.2777 89.484C47.4977 89.484 47.6677 89.424 47.7877 89.304C47.9077 89.18 47.9677 89.004 47.9677 88.776V87.924C47.9677 87.692 47.9077 87.516 47.7877 87.396C47.6677 87.276 47.4977 87.216 47.2777 87.216C47.0617 87.216 46.8917 87.276 46.7677 87.396C46.6477 87.516 46.5877 87.692 46.5877 87.924V88.776C46.5877 89.004 46.6477 89.18 46.7677 89.304C46.8917 89.424 47.0617 89.484 47.2777 89.484ZM50.3293 90L49.2373 86.7H49.8973L50.5753 88.812C50.6193 88.936 50.6573 89.062 50.6893 89.19C50.7253 89.314 50.7513 89.412 50.7673 89.484C50.7873 89.412 50.8133 89.314 50.8453 89.19C50.8813 89.062 50.9173 88.936 50.9533 88.812L51.6193 86.7H52.2733L51.1813 90H50.3293ZM54.227 90.06C53.831 90.06 53.515 89.946 53.279 89.718C53.043 89.486 52.925 89.172 52.925 88.776V86.7H53.573V88.776C53.573 89.004 53.631 89.182 53.747 89.31C53.863 89.434 54.023 89.496 54.227 89.496C54.435 89.496 54.597 89.434 54.713 89.31C54.833 89.182 54.893 89.004 54.893 88.776V86.7H55.541V88.776C55.541 89.172 55.421 89.486 55.181 89.718C54.945 89.946 54.627 90.06 54.227 90.06ZM63.8979 86.25H64.6599L66.0219 88.02L64.6539 89.79H63.8979L64.9779 88.41C64.9899 88.394 65.0019 88.378 65.0139 88.362C65.0259 88.346 65.0379 88.33 65.0499 88.314H59.7699V87.726H65.0439C65.0319 87.71 65.0179 87.694 65.0019 87.678C64.9899 87.658 64.9759 87.638 64.9599 87.618L63.8979 86.25ZM71.5073 90.054C71.2713 90.054 71.0633 90.016 70.8833 89.94C70.7073 89.864 70.5673 89.76 70.4633 89.628C70.3633 89.492 70.3053 89.332 70.2893 89.148H70.9373C70.9533 89.256 71.0113 89.344 71.1113 89.412C71.2113 89.476 71.3433 89.508 71.5073 89.508H71.7653C71.9613 89.508 72.1093 89.468 72.2093 89.388C72.3093 89.308 72.3593 89.202 72.3593 89.07C72.3593 88.942 72.3133 88.842 72.2213 88.77C72.1333 88.694 72.0013 88.644 71.8253 88.62L71.3993 88.554C71.0473 88.498 70.7873 88.398 70.6193 88.254C70.4553 88.106 70.3733 87.888 70.3733 87.6C70.3733 87.296 70.4713 87.062 70.6673 86.898C70.8673 86.73 71.1613 86.646 71.5493 86.646H71.7773C72.1213 86.646 72.3953 86.726 72.5993 86.886C72.8073 87.042 72.9253 87.252 72.9533 87.516H72.3053C72.2893 87.42 72.2353 87.342 72.1433 87.282C72.0553 87.222 71.9333 87.192 71.7773 87.192H71.5493C71.3613 87.192 71.2233 87.228 71.1353 87.3C71.0513 87.368 71.0093 87.47 71.0093 87.606C71.0093 87.726 71.0473 87.816 71.1233 87.876C71.1993 87.936 71.3173 87.978 71.4773 88.002L71.9153 88.074C72.2873 88.126 72.5593 88.23 72.7313 88.386C72.9073 88.538 72.9953 88.76 72.9953 89.052C72.9953 89.368 72.8913 89.614 72.6833 89.79C72.4793 89.966 72.1733 90.054 71.7653 90.054H71.5073ZM75.0929 90.06C74.6969 90.06 74.3809 89.946 74.1449 89.718C73.9089 89.486 73.7909 89.172 73.7909 88.776V86.7H74.4389V88.776C74.4389 89.004 74.4969 89.182 74.6129 89.31C74.7289 89.434 74.8889 89.496 75.0929 89.496C75.3009 89.496 75.4629 89.434 75.5789 89.31C75.6989 89.182 75.7589 89.004 75.7589 88.776V86.7H76.4069V88.776C76.4069 89.172 76.2869 89.486 76.0469 89.718C75.8109 89.946 75.4929 90.06 75.0929 90.06ZM78.8106 90.06C78.5386 90.06 78.3226 89.986 78.1626 89.838C78.0026 89.686 77.9226 89.48 77.9226 89.22L78.0606 89.37H77.9226V90H77.2806V85.62H77.9286V86.562L77.9106 87.33H78.0606L77.9226 87.48C77.9226 87.22 78.0026 87.016 78.1626 86.868C78.3266 86.716 78.5426 86.64 78.8106 86.64C79.1426 86.64 79.4086 86.752 79.6086 86.976C79.8086 87.2 79.9086 87.504 79.9086 87.888V88.818C79.9086 89.198 79.8086 89.5 79.6086 89.724C79.4086 89.948 79.1426 90.06 78.8106 90.06ZM78.5886 89.496C78.8006 89.496 78.9666 89.436 79.0866 89.316C79.2066 89.192 79.2666 89.014 79.2666 88.782V87.918C79.2666 87.686 79.2066 87.51 79.0866 87.39C78.9666 87.266 78.8006 87.204 78.5886 87.204C78.3846 87.204 78.2226 87.268 78.1026 87.396C77.9866 87.52 77.9286 87.694 77.9286 87.918V88.782C77.9286 89.006 77.9866 89.182 78.1026 89.31C78.2226 89.434 78.3846 89.496 78.5886 89.496ZM81.9402 90.054C81.7042 90.054 81.4962 90.016 81.3162 89.94C81.1402 89.864 81.0002 89.76 80.8962 89.628C80.7962 89.492 80.7382 89.332 80.7222 89.148H81.3702C81.3862 89.256 81.4442 89.344 81.5442 89.412C81.6442 89.476 81.7762 89.508 81.9402 89.508H82.1982C82.3942 89.508 82.5422 89.468 82.6422 89.388C82.7422 89.308 82.7922 89.202 82.7922 89.07C82.7922 88.942 82.7462 88.842 82.6542 88.77C82.5662 88.694 82.4342 88.644 82.2582 88.62L81.8322 88.554C81.4802 88.498 81.2202 88.398 81.0522 88.254C80.8882 88.106 80.8062 87.888 80.8062 87.6C80.8062 87.296 80.9042 87.062 81.1002 86.898C81.3002 86.73 81.5942 86.646 81.9822 86.646H82.2102C82.5542 86.646 82.8282 86.726 83.0322 86.886C83.2402 87.042 83.3582 87.252 83.3862 87.516H82.7382C82.7222 87.42 82.6682 87.342 82.5762 87.282C82.4882 87.222 82.3662 87.192 82.2102 87.192H81.9822C81.7942 87.192 81.6562 87.228 81.5682 87.3C81.4842 87.368 81.4422 87.47 81.4422 87.606C81.4422 87.726 81.4802 87.816 81.5562 87.876C81.6322 87.936 81.7502 87.978 81.9102 88.002L82.3482 88.074C82.7202 88.126 82.9922 88.23 83.1642 88.386C83.3402 88.538 83.4282 88.76 83.4282 89.052C83.4282 89.368 83.3242 89.614 83.1162 89.79C82.9122 89.966 82.6062 90.054 82.1982 90.054H81.9402ZM85.5559 90.06C85.2839 90.06 85.0439 90.01 84.8359 89.91C84.6319 89.806 84.4739 89.658 84.3619 89.466C84.2539 89.27 84.1999 89.042 84.1999 88.782V87.918C84.1999 87.654 84.2539 87.426 84.3619 87.234C84.4739 87.042 84.6319 86.896 84.8359 86.796C85.0439 86.692 85.2839 86.64 85.5559 86.64C85.9519 86.64 86.2699 86.744 86.5099 86.952C86.7499 87.16 86.8759 87.444 86.8879 87.804H86.2399C86.2279 87.616 86.1619 87.47 86.0419 87.366C85.9219 87.262 85.7599 87.21 85.5559 87.21C85.3359 87.21 85.1619 87.272 85.0339 87.396C84.9059 87.516 84.8419 87.688 84.8419 87.912V88.782C84.8419 89.006 84.9059 89.18 85.0339 89.304C85.1619 89.428 85.3359 89.49 85.5559 89.49C85.7599 89.49 85.9219 89.438 86.0419 89.334C86.1619 89.23 86.2279 89.084 86.2399 88.896H86.8879C86.8759 89.256 86.7499 89.54 86.5099 89.748C86.2699 89.956 85.9519 90.06 85.5559 90.06ZM87.8215 90V86.7H88.4455V87.33H88.6015L88.4035 87.72C88.4035 87.364 88.4815 87.096 88.6375 86.916C88.7935 86.732 89.0255 86.64 89.3335 86.64C89.6855 86.64 89.9635 86.75 90.1675 86.97C90.3755 87.186 90.4795 87.484 90.4795 87.864V88.086H89.8135V87.918C89.8135 87.682 89.7535 87.502 89.6335 87.378C89.5175 87.25 89.3535 87.186 89.1415 87.186C88.9295 87.186 88.7635 87.25 88.6435 87.378C88.5275 87.506 88.4695 87.686 88.4695 87.918V90H87.8215ZM91.1732 90V89.412H92.3312V87.288H91.3232V86.7H92.9612V89.412H94.0232V90H91.1732ZM92.5832 86.13C92.4432 86.13 92.3312 86.094 92.2472 86.022C92.1632 85.946 92.1212 85.846 92.1212 85.722C92.1212 85.594 92.1632 85.494 92.2472 85.422C92.3312 85.346 92.4432 85.308 92.5832 85.308C92.7232 85.308 92.8352 85.346 92.9192 85.422C93.0032 85.494 93.0452 85.594 93.0452 85.722C93.0452 85.846 93.0032 85.946 92.9192 86.022C92.8352 86.094 92.7232 86.13 92.5832 86.13ZM96.1988 90.06C95.9268 90.06 95.7108 89.986 95.5508 89.838C95.3908 89.686 95.3108 89.48 95.3108 89.22L95.4488 89.37H95.3108V90H94.6688V85.62H95.3168V86.562L95.2988 87.33H95.4488L95.3108 87.48C95.3108 87.22 95.3908 87.016 95.5508 86.868C95.7148 86.716 95.9308 86.64 96.1988 86.64C96.5308 86.64 96.7968 86.752 96.9968 86.976C97.1968 87.2 97.2968 87.504 97.2968 87.888V88.818C97.2968 89.198 97.1968 89.5 96.9968 89.724C96.7968 89.948 96.5308 90.06 96.1988 90.06ZM95.9768 89.496C96.1888 89.496 96.3548 89.436 96.4748 89.316C96.5948 89.192 96.6548 89.014 96.6548 88.782V87.918C96.6548 87.686 96.5948 87.51 96.4748 87.39C96.3548 87.266 96.1888 87.204 95.9768 87.204C95.7728 87.204 95.6108 87.268 95.4908 87.396C95.3748 87.52 95.3168 87.694 95.3168 87.918V88.782C95.3168 89.006 95.3748 89.182 95.4908 89.31C95.6108 89.434 95.7728 89.496 95.9768 89.496ZM99.4425 90.06C99.1745 90.06 98.9385 90.008 98.7345 89.904C98.5345 89.796 98.3805 89.646 98.2725 89.454C98.1645 89.262 98.1105 89.038 98.1105 88.782V87.918C98.1105 87.658 98.1645 87.434 98.2725 87.246C98.3805 87.054 98.5345 86.906 98.7345 86.802C98.9385 86.694 99.1745 86.64 99.4425 86.64C99.7145 86.64 99.9505 86.694 100.151 86.802C100.351 86.906 100.505 87.054 100.613 87.246C100.721 87.434 100.775 87.658 100.775 87.918V88.506H98.7345V88.782C98.7345 89.026 98.7945 89.212 98.9145 89.34C99.0385 89.468 99.2165 89.532 99.4485 89.532C99.6365 89.532 99.7885 89.5 99.9045 89.436C100.021 89.368 100.093 89.27 100.121 89.142H100.763C100.715 89.422 100.571 89.646 100.331 89.814C100.091 89.978 99.7945 90.06 99.4425 90.06ZM100.151 88.116V87.912C100.151 87.672 100.091 87.486 99.9705 87.354C99.8505 87.222 99.6745 87.156 99.4425 87.156C99.2145 87.156 99.0385 87.222 98.9145 87.354C98.7945 87.486 98.7345 87.674 98.7345 87.918V88.068L100.199 88.062L100.151 88.116ZM101.732 90V86.7H102.356V87.33H102.512L102.314 87.72C102.314 87.364 102.392 87.096 102.548 86.916C102.704 86.732 102.936 86.64 103.244 86.64C103.596 86.64 103.874 86.75 104.078 86.97C104.286 87.186 104.39 87.484 104.39 87.864V88.086H103.724V87.918C103.724 87.682 103.664 87.502 103.544 87.378C103.428 87.25 103.264 87.186 103.052 87.186C102.84 87.186 102.674 87.25 102.554 87.378C102.438 87.506 102.38 87.686 102.38 87.918V90H101.732ZM106.284 90.054C106.048 90.054 105.84 90.016 105.66 89.94C105.484 89.864 105.344 89.76 105.24 89.628C105.14 89.492 105.082 89.332 105.066 89.148H105.714C105.73 89.256 105.788 89.344 105.888 89.412C105.988 89.476 106.12 89.508 106.284 89.508H106.542C106.738 89.508 106.886 89.468 106.986 89.388C107.086 89.308 107.136 89.202 107.136 89.07C107.136 88.942 107.09 88.842 106.998 88.77C106.91 88.694 106.778 88.644 106.602 88.62L106.176 88.554C105.824 88.498 105.564 88.398 105.396 88.254C105.232 88.106 105.15 87.888 105.15 87.6C105.15 87.296 105.248 87.062 105.444 86.898C105.644 86.73 105.938 86.646 106.326 86.646H106.554C106.898 86.646 107.172 86.726 107.376 86.886C107.584 87.042 107.702 87.252 107.73 87.516H107.082C107.066 87.42 107.012 87.342 106.92 87.282C106.832 87.222 106.71 87.192 106.554 87.192H106.326C106.138 87.192 106 87.228 105.912 87.3C105.828 87.368 105.786 87.47 105.786 87.606C105.786 87.726 105.824 87.816 105.9 87.876C105.976 87.936 106.094 87.978 106.254 88.002L106.692 88.074C107.064 88.126 107.336 88.23 107.508 88.386C107.684 88.538 107.772 88.76 107.772 89.052C107.772 89.368 107.668 89.614 107.46 89.79C107.256 89.966 106.95 90.054 106.542 90.054H106.284Z" fill="#BCBCBC"/>
<rect x="70.25" y="25.25" width="59" height="19.625" rx="3.75" stroke="#E6E6E6" stroke-width="0.5"/>
<rect x="72.5" y="27.5" width="54.5" height="15.125" rx="2.5" stroke="#F3F4F6" stroke-opacity="0.24"/>
<path d="M99.015 34.9125C98.836 34.9125 98.6643 34.8414 98.5377 34.7148C98.4111 34.5882 98.34 34.4165 98.34 34.2375C98.34 34.0585 98.4111 33.8868 98.5377 33.7602C98.6643 33.6336 98.836 33.5625 99.015 33.5625C99.194 33.5625 99.3657 33.6336 99.4923 33.7602C99.6189 33.8868 99.69 34.0585 99.69 34.2375C99.69 34.4165 99.6189 34.5882 99.4923 34.7148C99.3657 34.8414 99.194 34.9125 99.015 34.9125ZM99.15 37.3869V36.3825C99.15 36.2361 99.1932 36.1014 99.2712 35.9811C99.0038 35.9431 98.7314 35.9612 98.4714 36.0344C98.2114 36.1076 97.9696 36.2342 97.7613 36.4062C98.0892 36.8915 98.583 37.2403 99.15 37.3872V37.3869ZM97.4859 35.8605C97.924 35.5363 98.4549 35.3616 99 35.3625C99.3129 35.3625 99.6129 35.4189 99.8901 35.5221C100.154 35.4192 100.468 35.3625 100.8 35.3625C101.298 35.3625 101.756 35.4897 102.062 35.7093C102.163 35.3463 102.177 34.9645 102.104 34.5949C102.03 34.2253 101.87 33.8782 101.637 33.5818C101.404 33.2855 101.105 33.0481 100.763 32.8889C100.422 32.7298 100.047 32.6533 99.6708 32.6658C99.2941 32.6782 98.9256 32.7792 98.5952 32.9606C98.2648 33.1419 97.9818 33.3985 97.769 33.7096C97.5563 34.0207 97.4198 34.3776 97.3706 34.7513C97.3214 35.1249 97.3609 35.5049 97.4859 35.8605V35.8605ZM101.814 36.2883C101.696 36.1284 101.301 35.9625 100.8 35.9625C100.198 35.9625 99.75 36.2016 99.75 36.3825V37.4625C100.166 37.4627 100.576 37.3546 100.937 37.1487C101.299 36.9428 101.601 36.6463 101.814 36.2883H101.814ZM99.75 38.0625C98.0931 38.0625 96.75 36.7194 96.75 35.0625C96.75 33.4056 98.0931 32.0625 99.75 32.0625C101.407 32.0625 102.75 33.4056 102.75 35.0625C102.75 36.7194 101.407 38.0625 99.75 38.0625ZM100.8 35.2125C100.641 35.2125 100.488 35.1493 100.376 35.0368C100.263 34.9242 100.2 34.7716 100.2 34.6125C100.2 34.4534 100.263 34.3008 100.376 34.1882C100.488 34.0757 100.641 34.0125 100.8 34.0125C100.959 34.0125 101.112 34.0757 101.224 34.1882C101.337 34.3008 101.4 34.4534 101.4 34.6125C101.4 34.7716 101.337 34.9242 101.224 35.0368C101.112 35.1493 100.959 35.2125 100.8 35.2125V35.2125Z" fill="#E6E6E6"/>
</g>
<path d="M34.7109 19.7447C34.7109 15.1114 38.4669 11.3555 43.1001 11.3555H156.901C161.534 11.3555 165.291 15.1114 165.291 19.7447V153.972C165.291 158.605 161.534 162.361 156.901 162.361H43.1001C38.4669 162.361 34.7109 158.605 34.7109 153.972V19.7447Z" stroke="#E6E6E6"/>
</g>
</g>
</g>
<defs>
<filter id="filter0_ddd_16_71623" x="5.86523" y="10.8555" width="188.27" height="177.324" filterUnits="userSpaceOnUse" color-interpolation-filters="sRGB">
<feFlood flood-opacity="0" result="BackgroundImageFix"/>
<feColorMatrix in="SourceAlpha" type="matrix" values="0 0 0 0 0 0 0 0 0 0 0 0 0 0 0 0 0 0 127 0" result="hardAlpha"/>
<feOffset dy="2"/>
<feGaussianBlur stdDeviation="1"/>
<feColorMatrix type="matrix" values="0 0 0 0 0.121569 0 0 0 0 0.156863 0 0 0 0 0.215686 0 0 0 0.02 0"/>
<feBlend mode="normal" in2="BackgroundImageFix" result="effect1_dropShadow_16_71623"/>
<feColorMatrix in="SourceAlpha" type="matrix" values="0 0 0 0 0 0 0 0 0 0 0 0 0 0 0 0 0 0 127 0" result="hardAlpha"/>
<feOffset dy="5"/>
<feGaussianBlur stdDeviation="2.5"/>
<feColorMatrix type="matrix" values="0 0 0 0 0.121569 0 0 0 0 0.156863 0 0 0 0 0.215686 0 0 0 0.02 0"/>
<feBlend mode="normal" in2="effect1_dropShadow_16_71623" result="effect2_dropShadow_16_71623"/>
<feColorMatrix in="SourceAlpha" type="matrix" values="0 0 0 0 0 0 0 0 0 0 0 0 0 0 0 0 0 0 127 0" result="hardAlpha"/>
<feOffset dy="4.23"/>
<feComposite in2="hardAlpha" operator="out"/>
<feColorMatrix type="matrix" values="0 0 0 0 0.97 0 0 0 0 0.97 0 0 0 0 0.97 0 0 0 1 0"/>
<feBlend mode="normal" in2="effect2_dropShadow_16_71623" result="effect3_dropShadow_16_71623"/>
<feBlend mode="normal" in="SourceGraphic" in2="effect3_dropShadow_16_71623" result="shape"/>
</filter>
<filter id="filter1_ddd_16_71623" x="53.3217" y="22.168" width="140.046" height="164.47" filterUnits="userSpaceOnUse" color-interpolation-filters="sRGB">
<feFlood flood-opacity="0" result="BackgroundImageFix"/>
<feColorMatrix in="SourceAlpha" type="matrix" values="0 0 0 0 0 0 0 0 0 0 0 0 0 0 0 0 0 0 127 0" result="hardAlpha"/>
<feOffset dy="1.69318"/>
<feGaussianBlur stdDeviation="0.846589"/>
<feColorMatrix type="matrix" values="0 0 0 0 0.121569 0 0 0 0 0.156863 0 0 0 0 0.215686 0 0 0 0.02 0"/>
<feBlend mode="normal" in2="BackgroundImageFix" result="effect1_dropShadow_16_71623"/>
<feColorMatrix in="SourceAlpha" type="matrix" values="0 0 0 0 0 0 0 0 0 0 0 0 0 0 0 0 0 0 127 0" result="hardAlpha"/>
<feOffset dy="4.23295"/>
<feGaussianBlur stdDeviation="2.11647"/>
<feColorMatrix type="matrix" values="0 0 0 0 0.121569 0 0 0 0 0.156863 0 0 0 0 0.215686 0 0 0 0.02 0"/>
<feBlend mode="normal" in2="effect1_dropShadow_16_71623" result="effect2_dropShadow_16_71623"/>
<feColorMatrix in="SourceAlpha" type="matrix" values="0 0 0 0 0 0 0 0 0 0 0 0 0 0 0 0 0 0 127 0" result="hardAlpha"/>
<feOffset dy="-4"/>
<feComposite in2="hardAlpha" operator="out"/>
<feColorMatrix type="matrix" values="0 0 0 0 0.97 0 0 0 0 0.97 0 0 0 0 0.97 0 0 0 1 0"/>
<feBlend mode="normal" in2="effect2_dropShadow_16_71623" result="effect3_dropShadow_16_71623"/>
<feBlend mode="normal" in="SourceGraphic" in2="effect3_dropShadow_16_71623" result="shape"/>
</filter>
<filter id="filter2_ddd_16_71623" x="6.63229" y="22.1758" width="140.046" height="164.47" filterUnits="userSpaceOnUse" color-interpolation-filters="sRGB">
<feFlood flood-opacity="0" result="BackgroundImageFix"/>
<feColorMatrix in="SourceAlpha" type="matrix" values="0 0 0 0 0 0 0 0 0 0 0 0 0 0 0 0 0 0 127 0" result="hardAlpha"/>
<feOffset dy="1.69318"/>
<feGaussianBlur stdDeviation="0.846589"/>
<feColorMatrix type="matrix" values="0 0 0 0 0.121569 0 0 0 0 0.156863 0 0 0 0 0.215686 0 0 0 0.02 0"/>
<feBlend mode="normal" in2="BackgroundImageFix" result="effect1_dropShadow_16_71623"/>
<feColorMatrix in="SourceAlpha" type="matrix" values="0 0 0 0 0 0 0 0 0 0 0 0 0 0 0 0 0 0 127 0" result="hardAlpha"/>
<feOffset dy="4.23295"/>
<feGaussianBlur stdDeviation="2.11647"/>
<feColorMatrix type="matrix" values="0 0 0 0 0.121569 0 0 0 0 0.156863 0 0 0 0 0.215686 0 0 0 0.02 0"/>
<feBlend mode="normal" in2="effect1_dropShadow_16_71623" result="effect2_dropShadow_16_71623"/>
<feColorMatrix in="SourceAlpha" type="matrix" values="0 0 0 0 0 0 0 0 0 0 0 0 0 0 0 0 0 0 127 0" result="hardAlpha"/>
<feOffset dy="-4"/>
<feComposite in2="hardAlpha" operator="out"/>
<feColorMatrix type="matrix" values="0 0 0 0 0.97 0 0 0 0 0.97 0 0 0 0 0.97 0 0 0 1 0"/>
<feBlend mode="normal" in2="effect2_dropShadow_16_71623" result="effect3_dropShadow_16_71623"/>
<feBlend mode="normal" in="SourceGraphic" in2="effect3_dropShadow_16_71623" result="shape"/>
</filter>
<filter id="filter3_ddd_16_71623" x="29.978" y="6.85547" width="140.046" height="164.47" filterUnits="userSpaceOnUse" color-interpolation-filters="sRGB">
<feFlood flood-opacity="0" result="BackgroundImageFix"/>
<feColorMatrix in="SourceAlpha" type="matrix" values="0 0 0 0 0 0 0 0 0 0 0 0 0 0 0 0 0 0 127 0" result="hardAlpha"/>
<feOffset dy="1.69318"/>
<feGaussianBlur stdDeviation="0.846589"/>
<feColorMatrix type="matrix" values="0 0 0 0 0.121569 0 0 0 0 0.156863 0 0 0 0 0.215686 0 0 0 0.02 0"/>
<feBlend mode="normal" in2="BackgroundImageFix" result="effect1_dropShadow_16_71623"/>
<feColorMatrix in="SourceAlpha" type="matrix" values="0 0 0 0 0 0 0 0 0 0 0 0 0 0 0 0 0 0 127 0" result="hardAlpha"/>
<feOffset dy="4.23295"/>
<feGaussianBlur stdDeviation="2.11647"/>
<feColorMatrix type="matrix" values="0 0 0 0 0.121569 0 0 0 0 0.156863 0 0 0 0 0.215686 0 0 0 0.02 0"/>
<feBlend mode="normal" in2="effect1_dropShadow_16_71623" result="effect2_dropShadow_16_71623"/>
<feColorMatrix in="SourceAlpha" type="matrix" values="0 0 0 0 0 0 0 0 0 0 0 0 0 0 0 0 0 0 127 0" result="hardAlpha"/>
<feOffset dy="-4"/>
<feComposite in2="hardAlpha" operator="out"/>
<feColorMatrix type="matrix" values="0 0 0 0 0.97 0 0 0 0 0.97 0 0 0 0 0.97 0 0 0 1 0"/>
<feBlend mode="normal" in2="effect2_dropShadow_16_71623" result="effect3_dropShadow_16_71623"/>
<feBlend mode="normal" in="SourceGraphic" in2="effect3_dropShadow_16_71623" result="shape"/>
</filter>
<clipPath id="clip0_16_71623">
<rect width="200" height="95" fill="white"/>
</clipPath>
</defs>
</svg>
