<svg width="200" height="95" viewBox="0 0 200 95" fill="none" xmlns="http://www.w3.org/2000/svg">
<rect width="200" height="95" fill="#F9FAFB"/>
<g filter="url(#filter0_dd_15_71250)">
<path d="M70.9799 42.7952H129.968C132.363 42.7952 134.305 40.8533 134.305 38.4578V23.2771C134.305 20.8817 132.363 18.9398 129.968 18.9398H99.8233C97.9071 18.9398 96.3534 17.3863 96.3534 15.4699C96.3534 13.5535 94.7998 12 92.8835 12H70.9799C68.5845 12 66.6426 13.9419 66.6426 16.3373V38.4578C66.6426 40.8533 68.5845 42.7952 70.9799 42.7952Z" fill="#F9FAFB"/>
<path d="M129.968 42.5802H70.9799C68.7042 42.5802 66.8594 40.7354 66.8594 38.4597V16.3392C66.8594 14.0636 68.7042 12.2188 70.9799 12.2188H92.8835C94.68 12.2188 96.1365 13.6752 96.1365 15.4718C96.1365 17.5079 97.7873 19.1585 99.8232 19.1585H129.968C132.244 19.1585 134.088 21.0033 134.088 23.279V38.4597C134.088 40.7354 132.244 42.5802 129.968 42.5802Z" stroke="#F0F0F0"/>
</g>
<path opacity="0.6" d="M124.763 22.1055H76.1852C74.8198 22.1055 73.7129 23.2124 73.7129 24.5778V39.7585C73.7129 41.1239 74.8198 42.2308 76.1852 42.2308H124.763C126.129 42.2308 127.236 41.1239 127.236 39.7585V24.5778C127.236 23.2124 126.129 22.1055 124.763 22.1055Z" fill="#E5E7EB" stroke="#E1E1E1" stroke-width="0.6"/>
<path d="M127.799 24.2734H73.1481C71.7827 24.2734 70.6758 25.3803 70.6758 26.7457V41.9264C70.6758 43.2919 71.7827 44.3987 73.1481 44.3987H127.799C129.164 44.3987 130.271 43.2919 130.271 41.9264V26.7457C130.271 25.3803 129.164 24.2734 127.799 24.2734Z" fill="#E5E7EB" stroke="#E1E1E1" stroke-width="0.6"/>
<g filter="url(#filter1_ddd_15_71250)">
<path d="M62.0215 35.9647C61.7064 31.9312 64.8944 28.4844 68.9402 28.4844H132.006C136.052 28.4844 139.24 31.9312 138.925 35.9647L135.672 77.6031C135.39 81.2153 132.376 84.0024 128.753 84.0024H72.1933C68.5701 84.0024 65.5567 81.2153 65.2745 77.6031L62.0215 35.9647Z" fill="white"/>
<path d="M62.2376 35.9496C61.9324 32.0422 65.0208 28.7031 68.9401 28.7031H132.006C135.926 28.7031 139.014 32.0422 138.709 35.9497L135.456 77.5881C135.182 81.0875 132.263 83.7875 128.753 83.7875H72.1932C68.6833 83.7875 65.764 81.0875 65.4906 77.5881L62.2376 35.9496Z" stroke="#F0F0F0"/>
</g>
<path d="M99.53 67.7C99.172 67.7 98.8286 67.5578 98.5754 67.3046C98.3222 67.0514 98.18 66.708 98.18 66.35C98.18 65.992 98.3222 65.6486 98.5754 65.3954C98.8286 65.1422 99.172 65 99.53 65C99.888 65 100.231 65.1422 100.485 65.3954C100.738 65.6486 100.88 65.992 100.88 66.35C100.88 66.708 100.738 67.0514 100.485 67.3046C100.231 67.5578 99.888 67.7 99.53 67.7ZM99.8 72.6488V70.64C99.8 70.3472 99.8864 70.0778 100.042 69.8372C99.5076 69.7611 98.9628 69.7974 98.4428 69.9438C97.9229 70.0902 97.4391 70.3435 97.0226 70.6874C97.6784 71.6579 98.6661 72.3556 99.8 72.6494V72.6488ZM96.4718 69.596C97.3481 68.9475 98.4098 68.5983 99.5 68.6C100.126 68.6 100.726 68.7128 101.28 68.9192C101.807 68.7134 102.435 68.6 103.1 68.6C104.096 68.6 105.011 68.8544 105.624 69.2936C105.826 68.5675 105.855 67.804 105.707 67.0647C105.56 66.3255 105.24 65.6314 104.775 65.0387C104.309 64.4459 103.71 63.9712 103.027 63.6529C102.344 63.3346 101.595 63.1817 100.842 63.2066C100.088 63.2315 99.3513 63.4335 98.6905 63.7962C98.0297 64.1589 97.4636 64.6721 97.0381 65.2943C96.6125 65.9165 96.3395 66.6302 96.2411 67.3775C96.1428 68.1249 96.2218 68.8849 96.4718 69.596ZM105.127 70.4516C104.892 70.1318 104.103 69.8 103.1 69.8C101.896 69.8 101 70.2782 101 70.64V72.8C101.833 72.8005 102.651 72.5842 103.375 72.1724C104.099 71.7607 104.703 71.1676 105.128 70.4516H105.127ZM101 74C97.6862 74 95 71.3138 95 68C95 64.6862 97.6862 62 101 62C104.314 62 107 64.6862 107 68C107 71.3138 104.314 74 101 74ZM103.1 68.3C102.782 68.3 102.477 68.1736 102.251 67.9485C102.026 67.7235 101.9 67.4183 101.9 67.1C101.9 66.7817 102.026 66.4765 102.251 66.2515C102.477 66.0264 102.782 65.9 103.1 65.9C103.418 65.9 103.723 66.0264 103.949 66.2515C104.174 66.4765 104.3 66.7817 104.3 67.1C104.3 67.4183 104.174 67.7235 103.949 67.9485C103.723 68.1736 103.418 68.3 103.1 68.3Z" fill="#E5E7EB"/>
<defs>
<filter id="filter0_dd_15_71250" x="62.1264" y="11.7188" width="76.6944" height="39.8292" filterUnits="userSpaceOnUse" color-interpolation-filters="sRGB">
<feFlood flood-opacity="0" result="BackgroundImageFix"/>
<feColorMatrix in="SourceAlpha" type="matrix" values="0 0 0 0 0 0 0 0 0 0 0 0 0 0 0 0 0 0 127 0" result="hardAlpha"/>
<feOffset dy="1.69318"/>
<feGaussianBlur stdDeviation="0.846589"/>
<feColorMatrix type="matrix" values="0 0 0 0 0.121569 0 0 0 0 0.156863 0 0 0 0 0.215686 0 0 0 0.02 0"/>
<feBlend mode="normal" in2="BackgroundImageFix" result="effect1_dropShadow_15_71250"/>
<feColorMatrix in="SourceAlpha" type="matrix" values="0 0 0 0 0 0 0 0 0 0 0 0 0 0 0 0 0 0 127 0" result="hardAlpha"/>
<feOffset dy="4.23295"/>
<feGaussianBlur stdDeviation="2.11647"/>
<feColorMatrix type="matrix" values="0 0 0 0 0.121569 0 0 0 0 0.156863 0 0 0 0 0.215686 0 0 0 0.02 0"/>
<feBlend mode="normal" in2="effect1_dropShadow_15_71250" result="effect2_dropShadow_15_71250"/>
<feBlend mode="normal" in="SourceGraphic" in2="effect2_dropShadow_15_71250" result="shape"/>
</filter>
<filter id="filter1_ddd_15_71250" x="57.4839" y="28.2031" width="85.9796" height="64.5518" filterUnits="userSpaceOnUse" color-interpolation-filters="sRGB">
<feFlood flood-opacity="0" result="BackgroundImageFix"/>
<feColorMatrix in="SourceAlpha" type="matrix" values="0 0 0 0 0 0 0 0 0 0 0 0 0 0 0 0 0 0 127 0" result="hardAlpha"/>
<feOffset dy="1.69318"/>
<feGaussianBlur stdDeviation="0.846589"/>
<feColorMatrix type="matrix" values="0 0 0 0 0.121569 0 0 0 0 0.156863 0 0 0 0 0.215686 0 0 0 0.02 0"/>
<feBlend mode="normal" in2="BackgroundImageFix" result="effect1_dropShadow_15_71250"/>
<feColorMatrix in="SourceAlpha" type="matrix" values="0 0 0 0 0 0 0 0 0 0 0 0 0 0 0 0 0 0 127 0" result="hardAlpha"/>
<feOffset dy="4.23295"/>
<feGaussianBlur stdDeviation="2.11647"/>
<feColorMatrix type="matrix" values="0 0 0 0 0.121569 0 0 0 0 0.156863 0 0 0 0 0.215686 0 0 0 0.02 0"/>
<feBlend mode="normal" in2="effect1_dropShadow_15_71250" result="effect2_dropShadow_15_71250"/>
<feColorMatrix in="SourceAlpha" type="matrix" values="0 0 0 0 0 0 0 0 0 0 0 0 0 0 0 0 0 0 127 0" result="hardAlpha"/>
<feOffset dy="2"/>
<feComposite in2="hardAlpha" operator="out"/>
<feColorMatrix type="matrix" values="0 0 0 0 0.96 0 0 0 0 0.96 0 0 0 0 0.96 0 0 0 1 0"/>
<feBlend mode="normal" in2="effect2_dropShadow_15_71250" result="effect3_dropShadow_15_71250"/>
<feBlend mode="normal" in="SourceGraphic" in2="effect3_dropShadow_15_71250" result="shape"/>
</filter>
</defs>
</svg>
