<svg width="200" height="95" viewBox="0 0 200 95" fill="none" xmlns="http://www.w3.org/2000/svg">
<g clip-path="url(#clip0_16_71446)">
<rect width="200" height="95" fill="#F9FAFB"/>
<g filter="url(#filter0_ddd_16_71446)">
<g opacity="0.72" filter="url(#filter1_ddd_16_71446)">
<path d="M57.6895 35.0586C57.6895 30.224 61.609 26.3047 66.4434 26.3047H180.245C185.079 26.3047 188.999 30.224 188.999 35.0586V169.286C188.999 174.12 185.079 178.04 180.245 178.04H66.4434C61.609 178.04 57.6895 174.12 57.6895 169.286V35.0586Z" fill="white"/>
<path d="M58.0547 35.0572C58.0547 30.4239 61.8109 26.668 66.4439 26.668H180.245C184.878 26.668 188.634 30.4239 188.634 35.0572V169.284C188.634 173.917 184.878 177.674 180.245 177.674H66.4439C61.8109 177.674 58.0547 173.917 58.0547 169.284V35.0572Z" stroke="#E6E6E6"/>
<path d="M109.487 62.7773H70.8242C70.0184 62.7773 69.3652 63.4306 69.3652 64.2363V67.1543C69.3652 67.9601 70.0184 68.6133 70.8242 68.6133H109.487C110.293 68.6133 110.946 67.9601 110.946 67.1543V64.2363C110.946 63.4306 110.293 62.7773 109.487 62.7773Z" fill="#EBECEF"/>
<path d="M141.577 36.5117H105.832C104.22 36.5117 102.914 37.8181 102.914 39.4297C102.914 41.0413 104.22 42.3477 105.832 42.3477H141.577C143.189 42.3477 144.495 41.0413 144.495 39.4297C144.495 37.8181 143.189 36.5117 141.577 36.5117Z" fill="#EBECEF"/>
<path d="M121.159 71.5312H70.8242C70.0184 71.5312 69.3652 72.1845 69.3652 72.9902V75.9082C69.3652 76.714 70.0184 77.3672 70.8242 77.3672H121.159C121.965 77.3672 122.618 76.714 122.618 75.9082V72.9902C122.618 72.1845 121.965 71.5312 121.159 71.5312Z" fill="#EBECEF"/>
<path d="M174.857 42.3516H132.38C131.016 42.3516 129.91 43.4576 129.91 44.8219V93.1344C129.91 94.4987 131.016 95.6047 132.38 95.6047H174.857C176.221 95.6047 177.327 94.4987 177.327 93.1344V44.8219C177.327 43.4576 176.221 42.3516 174.857 42.3516Z" fill="#F3F4F6"/>
<path d="M121.607 83.2109H71.8356C70.4712 83.2109 69.3652 84.3169 69.3652 85.6813V89.4946C69.3652 90.8589 70.4712 91.9649 71.8356 91.9649H121.607C122.971 91.9649 124.077 90.8589 124.077 89.4946V85.6813C124.077 84.3169 122.971 83.2109 121.607 83.2109Z" fill="#101010"/>
<mask id="mask0_16_71446" style="mask-type:luminance" maskUnits="userSpaceOnUse" x="69" y="36" width="24" height="6">
<path d="M92.7052 36.5078H69.3613V41.6143H92.7052V36.5078Z" fill="white"/>
</mask>
<g mask="url(#mask0_16_71446)">
<g opacity="0.8">
<path d="M71.6862 41.3405C70.36 41.3405 69.3613 40.2866 69.3613 38.9853C69.3613 37.6798 70.3089 36.6172 71.6862 36.6172C72.4172 36.6172 72.9227 36.8427 73.3181 37.3589L72.6805 37.8923C72.4128 37.6061 72.0896 37.463 71.6862 37.463C70.7889 37.463 70.2965 38.1526 70.2965 38.9853C70.2965 39.8181 70.8364 40.4947 71.6862 40.4947C72.0853 40.4947 72.4252 40.3516 72.6929 40.0654L73.3225 40.6205C72.9439 41.115 72.4252 41.3405 71.6862 41.3405Z" fill="#292929"/>
<path d="M76.0703 37.8697H76.9289V41.2528H76.0703V40.7583C75.8916 41.1097 75.5939 41.3439 75.0249 41.3439C74.1152 41.3439 73.3887 40.5501 73.3887 39.5743C73.3887 38.5984 74.1152 37.8047 75.0249 37.8047C75.5896 37.8047 75.8916 38.0389 76.0703 38.3902V37.8697ZM76.0958 39.5743C76.0958 39.0451 75.734 38.6071 75.165 38.6071C74.6164 38.6071 74.2597 39.0494 74.2597 39.5743C74.2597 40.086 74.6164 40.5415 75.165 40.5415C75.7304 40.5415 76.0958 40.0991 76.0958 39.5743Z" fill="#292929"/>
<path d="M77.5371 36.5078H78.3957V41.2528H77.5371V36.5078Z" fill="#292929"/>
<path d="M78.7754 40.8048C78.7754 40.5272 78.9964 40.293 79.2984 40.293C79.6004 40.293 79.8127 40.5272 79.8127 40.8048C79.8127 41.091 79.5961 41.3253 79.2984 41.3253C79.0008 41.3253 78.7754 41.091 78.7754 40.8048Z" fill="#292929"/>
<path d="M83.097 40.7063C82.7782 41.0967 82.2938 41.3439 81.7197 41.3439C80.6955 41.3439 79.9434 40.5501 79.9434 39.5743C79.9434 38.5984 80.6955 37.8047 81.7197 37.8047C82.2719 37.8047 82.7527 38.0389 83.0714 38.4075L82.4083 38.9671C82.2427 38.7589 82.0261 38.6027 81.7197 38.6027C81.1718 38.6027 80.8144 39.0451 80.8144 39.5699C80.8144 40.0947 81.1718 40.5372 81.7197 40.5372C82.0509 40.5372 82.2807 40.3637 82.4506 40.1294L83.097 40.7063Z" fill="#292929"/>
<path d="M83.1738 39.5743C83.1738 38.5984 83.9259 37.8047 84.9502 37.8047C85.9744 37.8047 86.7265 38.5984 86.7265 39.5743C86.7265 40.5501 85.9744 41.3439 84.9502 41.3439C83.9259 41.3395 83.1738 40.5501 83.1738 39.5743ZM85.8555 39.5743C85.8555 39.0451 85.498 38.6071 84.9502 38.6071C84.4016 38.6027 84.0448 39.0451 84.0448 39.5743C84.0448 40.0991 84.4016 40.5415 84.9502 40.5415C85.498 40.5415 85.8555 40.0991 85.8555 39.5743Z" fill="#292929"/>
<path d="M92.5292 39.1857V41.2502H91.6706V39.3982C91.6706 38.8127 91.3985 38.5611 90.9907 38.5611C90.6085 38.5611 90.3364 38.7519 90.3364 39.3982V41.2502H89.4778V39.3982C89.4778 38.8127 89.2013 38.5611 88.7979 38.5611C88.4156 38.5611 88.0793 38.7519 88.0793 39.3982V41.2502H87.2207V37.8671H88.0793V38.3356C88.258 37.9712 88.5812 37.7891 89.078 37.7891C89.55 37.7891 89.9454 38.0233 90.162 38.418C90.3787 38.0146 90.6975 37.7891 91.2752 37.7891C91.9807 37.7934 92.5292 38.3312 92.5292 39.1857Z" fill="#292929"/>
</g>
</g>
</g>
<g opacity="0.72" filter="url(#filter2_ddd_16_71446)">
<mask id="mask1_16_71446" style="mask-type:luminance" maskUnits="userSpaceOnUse" x="11" y="26" width="132" height="153">
<path d="M11 35.0743C11 30.2396 14.9193 26.3203 19.7539 26.3203H133.555C138.39 26.3203 142.309 30.2396 142.309 35.0743V169.301C142.309 174.136 138.39 178.055 133.555 178.055H19.7539C14.9193 178.055 11 174.136 11 169.301V35.0743Z" fill="white"/>
</mask>
<g mask="url(#mask1_16_71446)">
<path d="M11 35.0743C11 30.2396 14.9193 26.3203 19.7539 26.3203H133.555C138.39 26.3203 142.309 30.2396 142.309 35.0743V169.301C142.309 174.136 138.39 178.055 133.555 178.055H19.7539C14.9193 178.055 11 174.136 11 169.301V35.0743Z" fill="white"/>
<path d="M62.798 37.9922H24.1348C23.329 37.9922 22.6758 38.6454 22.6758 39.4512V78.1144C22.6758 78.9202 23.329 79.5734 24.1348 79.5734H62.798C63.6038 79.5734 64.257 78.9202 64.257 78.1144V39.4512C64.257 38.6454 63.6038 37.9922 62.798 37.9922Z" fill="#EBECEF"/>
<path d="M94.8879 36.5273H59.1426C57.531 36.5273 56.2246 37.8338 56.2246 39.4453C56.2246 41.0569 57.531 42.3633 59.1426 42.3633H94.8879C96.4994 42.3633 97.8059 41.0569 97.8059 39.4453C97.8059 37.8338 96.4994 36.5273 94.8879 36.5273Z" fill="#EBECEF"/>
<path d="M74.47 85.4141H24.1348C23.329 85.4141 22.6758 86.0673 22.6758 86.8731V89.791C22.6758 90.5968 23.329 91.25 24.1348 91.25H74.47C75.2757 91.25 75.929 90.5968 75.929 89.791V86.8731C75.929 86.0673 75.2757 85.4141 74.47 85.4141Z" fill="#EBECEF"/>
<path d="M128.168 42.3672H85.691C84.3267 42.3672 83.2207 43.4732 83.2207 44.8375V93.15C83.2207 94.5144 84.3267 95.6204 85.691 95.6204H128.168C129.532 95.6204 130.638 94.5144 130.638 93.15V44.8375C130.638 43.4732 129.532 42.3672 128.168 42.3672Z" fill="#F3F4F6"/>
</g>
<path d="M11.3652 35.065C11.3652 30.4317 15.1212 26.6758 19.7544 26.6758H133.556C138.189 26.6758 141.945 30.4317 141.945 35.065V169.292C141.945 173.925 138.189 177.681 133.556 177.681H19.7544C15.1212 177.681 11.3652 173.925 11.3652 169.292V35.065Z" stroke="#E6E6E6"/>
</g>
<g filter="url(#filter3_ddd_16_71446)">
<mask id="mask2_16_71446" style="mask-type:luminance" maskUnits="userSpaceOnUse" x="34" y="11" width="132" height="152">
<path d="M34.3516 19.7539C34.3516 14.9193 38.2709 11 43.1055 11H156.907C161.741 11 165.661 14.9193 165.661 19.7539V153.981C165.661 158.816 161.741 162.735 156.907 162.735H43.1055C38.2709 162.735 34.3516 158.816 34.3516 153.981V19.7539Z" fill="white"/>
</mask>
<g mask="url(#mask2_16_71446)">
<path d="M34.3516 19.7539C34.3516 14.9193 38.2709 11 43.1055 11H156.907C161.741 11 165.661 14.9193 165.661 19.7539V153.981C165.661 158.816 161.741 162.735 156.907 162.735H43.1055C38.2709 162.735 34.3516 158.816 34.3516 153.981V19.7539Z" fill="white"/>
<path d="M70.7784 75.0284V74.392L74.5511 72.5625V73.429L71.767 74.6989L71.7926 74.6477V74.7699L71.767 74.7216L74.5511 75.9886V76.858L70.7784 75.0284ZM79.1406 72.7102C79.1103 72.4413 78.9853 72.233 78.7656 72.0852C78.5459 71.9356 78.2694 71.8608 77.9361 71.8608C77.6974 71.8608 77.491 71.8987 77.3168 71.9744C77.1425 72.0483 77.0071 72.1506 76.9105 72.2812C76.8158 72.41 76.7685 72.5568 76.7685 72.7216C76.7685 72.8598 76.8007 72.9792 76.8651 73.0795C76.9313 73.1799 77.0175 73.2642 77.1236 73.3324C77.2315 73.3987 77.3471 73.4545 77.4702 73.5C77.5933 73.5436 77.7116 73.5795 77.8253 73.608L78.3935 73.7557C78.5791 73.8011 78.7694 73.8627 78.9645 73.9403C79.1596 74.018 79.3404 74.1203 79.5071 74.2472C79.6738 74.3741 79.8082 74.5312 79.9105 74.7188C80.0147 74.9062 80.0668 75.1307 80.0668 75.392C80.0668 75.7216 79.9815 76.0142 79.8111 76.2699C79.6425 76.5256 79.3973 76.7273 79.0753 76.875C78.7552 77.0227 78.3679 77.0966 77.9134 77.0966C77.4777 77.0966 77.1009 77.0275 76.7827 76.8892C76.4645 76.7509 76.2154 76.5549 76.0355 76.3011C75.8556 76.0455 75.7562 75.7424 75.7372 75.392H76.6179C76.6349 75.6023 76.7031 75.7775 76.8224 75.9176C76.9437 76.0559 77.098 76.1591 77.2855 76.2273C77.4749 76.2936 77.6823 76.3267 77.9077 76.3267C78.1558 76.3267 78.3764 76.2879 78.5696 76.2102C78.7647 76.1307 78.9181 76.0208 79.0298 75.8807C79.1416 75.7386 79.1974 75.5729 79.1974 75.3835C79.1974 75.2112 79.1482 75.0701 79.0497 74.9602C78.9531 74.8504 78.8215 74.7595 78.6548 74.6875C78.4901 74.6155 78.3035 74.5521 78.0952 74.4972L77.4077 74.3097C76.9418 74.1828 76.5724 73.9962 76.2997 73.75C76.0289 73.5038 75.8935 73.178 75.8935 72.7727C75.8935 72.4375 75.9844 72.1449 76.1662 71.8949C76.348 71.6449 76.5942 71.4508 76.9048 71.3125C77.2154 71.1723 77.5658 71.1023 77.956 71.1023C78.3499 71.1023 78.6974 71.1714 78.9986 71.3097C79.3016 71.4479 79.5402 71.6383 79.7145 71.8807C79.8887 72.1212 79.9796 72.3977 79.9872 72.7102H79.1406ZM83.8118 75.1903V72.6364H84.6641V77H83.8288V76.2443H83.7834C83.683 76.4773 83.522 76.6714 83.3004 76.8267C83.0807 76.9801 82.8071 77.0568 82.4794 77.0568C82.1991 77.0568 81.951 76.9953 81.7351 76.8722C81.5211 76.7472 81.3525 76.5625 81.2294 76.3182C81.1082 76.0739 81.0476 75.7718 81.0476 75.4119V72.6364H81.897V75.3097C81.897 75.607 81.9794 75.8437 82.1442 76.0199C82.3089 76.196 82.523 76.2841 82.7862 76.2841C82.9453 76.2841 83.1035 76.2443 83.2607 76.1648C83.4197 76.0852 83.5514 75.965 83.6555 75.804C83.7616 75.643 83.8137 75.4384 83.8118 75.1903ZM85.8736 77V71.1818H86.723V73.3438H86.7741C86.8234 73.2528 86.8944 73.1477 86.9872 73.0284C87.08 72.9091 87.2088 72.8049 87.3736 72.7159C87.5384 72.625 87.7562 72.5795 88.027 72.5795C88.3793 72.5795 88.6937 72.6686 88.9702 72.8466C89.2467 73.0246 89.4635 73.2812 89.6207 73.6165C89.7798 73.9517 89.8594 74.3551 89.8594 74.8267C89.8594 75.2983 89.7808 75.7027 89.6236 76.0398C89.4664 76.375 89.2505 76.6335 88.9759 76.8153C88.7012 76.9953 88.3878 77.0852 88.0355 77.0852C87.7704 77.0852 87.5535 77.0407 87.3849 76.9517C87.2183 76.8627 87.0876 76.7585 86.9929 76.6392C86.8982 76.5199 86.8253 76.4138 86.7741 76.321H86.7031V77H85.8736ZM86.706 74.8182C86.706 75.125 86.7505 75.3939 86.8395 75.625C86.9285 75.8561 87.0573 76.0369 87.2259 76.1676C87.3944 76.2964 87.6009 76.3608 87.8452 76.3608C88.099 76.3608 88.3111 76.2936 88.4815 76.1591C88.652 76.0227 88.7808 75.8381 88.8679 75.6051C88.9569 75.3722 89.0014 75.1098 89.0014 74.8182C89.0014 74.5303 88.9579 74.2718 88.8707 74.0426C88.7855 73.8134 88.6567 73.6326 88.4844 73.5C88.3139 73.3674 88.1009 73.3011 87.8452 73.3011C87.599 73.3011 87.3906 73.3646 87.2202 73.4915C87.0516 73.6184 86.9238 73.7955 86.8366 74.0227C86.7495 74.25 86.706 74.5152 86.706 74.8182ZM94.0831 73.7017L93.3132 73.8381C93.281 73.7396 93.2299 73.6458 93.1598 73.5568C93.0916 73.4678 92.9988 73.3949 92.8814 73.3381C92.764 73.2812 92.6172 73.2528 92.4411 73.2528C92.2005 73.2528 91.9998 73.3068 91.8388 73.4148C91.6778 73.5208 91.5973 73.6581 91.5973 73.8267C91.5973 73.9725 91.6513 74.09 91.7592 74.179C91.8672 74.268 92.0414 74.3409 92.282 74.3977L92.9751 74.5568C93.3767 74.6496 93.6759 74.7926 93.8729 74.9858C94.0698 75.179 94.1683 75.4299 94.1683 75.7386C94.1683 76 94.0926 76.233 93.9411 76.4375C93.7914 76.6402 93.5821 76.7992 93.3132 76.9148C93.0462 77.0303 92.7365 77.0881 92.3842 77.0881C91.8956 77.0881 91.4969 76.9839 91.1882 76.7756C90.8795 76.5653 90.6901 76.267 90.62 75.8807L91.4411 75.7557C91.4922 75.9697 91.5973 76.1316 91.7564 76.2415C91.9155 76.3494 92.1229 76.4034 92.3786 76.4034C92.657 76.4034 92.8795 76.3456 93.0462 76.2301C93.2128 76.1127 93.2962 75.9697 93.2962 75.8011C93.2962 75.6648 93.245 75.5502 93.1428 75.4574C93.0424 75.3646 92.888 75.2945 92.6797 75.2472L91.9411 75.0852C91.5339 74.9924 91.2327 74.8447 91.0376 74.642C90.8445 74.4394 90.7479 74.1828 90.7479 73.8722C90.7479 73.6146 90.8198 73.3892 90.9638 73.196C91.1077 73.0028 91.3066 72.8523 91.5604 72.7443C91.8142 72.6345 92.1049 72.5795 92.4325 72.5795C92.9041 72.5795 93.2753 72.6818 93.5462 72.8864C93.817 73.089 93.996 73.3608 94.0831 73.7017ZM96.9403 77.0881C96.518 77.0881 96.1544 76.9924 95.8494 76.8011C95.5464 76.608 95.3134 76.3419 95.1506 76.0028C94.9877 75.6638 94.9062 75.2756 94.9062 74.8381C94.9062 74.3949 94.9896 74.0038 95.1562 73.6648C95.3229 73.3239 95.5578 73.0578 95.8608 72.8665C96.1638 72.6752 96.5208 72.5795 96.9318 72.5795C97.2633 72.5795 97.5587 72.6411 97.8182 72.7642C98.0777 72.8854 98.2869 73.0559 98.446 73.2756C98.607 73.4953 98.7027 73.7519 98.733 74.0455H97.9062C97.8608 73.8409 97.7566 73.6648 97.5938 73.517C97.4328 73.3693 97.2169 73.2955 96.946 73.2955C96.7093 73.2955 96.5019 73.358 96.3239 73.483C96.1477 73.6061 96.0104 73.7822 95.9119 74.0114C95.8134 74.2386 95.7642 74.5076 95.7642 74.8182C95.7642 75.1364 95.8125 75.411 95.9091 75.642C96.0057 75.8731 96.142 76.0521 96.3182 76.179C96.4962 76.3059 96.7055 76.3693 96.946 76.3693C97.107 76.3693 97.2528 76.34 97.3835 76.2812C97.5161 76.2206 97.6269 76.1345 97.7159 76.0227C97.8068 75.911 97.8703 75.7765 97.9062 75.6193H98.733C98.7027 75.9015 98.6108 76.1534 98.4574 76.375C98.304 76.5966 98.0985 76.7708 97.8409 76.8977C97.5852 77.0246 97.285 77.0881 96.9403 77.0881ZM99.6413 77V72.6364H100.462V73.3295H100.508C100.587 73.0947 100.728 72.91 100.928 72.7756C101.131 72.6392 101.36 72.571 101.616 72.571C101.669 72.571 101.731 72.5729 101.803 72.5767C101.877 72.5805 101.935 72.5852 101.977 72.5909V73.4034C101.942 73.3939 101.882 73.3835 101.795 73.3722C101.708 73.3589 101.621 73.3523 101.533 73.3523C101.333 73.3523 101.154 73.3949 100.996 73.4801C100.841 73.5634 100.718 73.6799 100.627 73.8295C100.536 73.9773 100.491 74.1458 100.491 74.3352V77H99.6413ZM102.712 77V72.6364H103.561V77H102.712ZM103.141 71.9631C102.993 71.9631 102.866 71.9138 102.76 71.8153C102.656 71.715 102.604 71.5956 102.604 71.4574C102.604 71.3172 102.656 71.1979 102.76 71.0994C102.866 70.9991 102.993 70.9489 103.141 70.9489C103.288 70.9489 103.414 70.9991 103.518 71.0994C103.625 71.1979 103.678 71.3172 103.678 71.4574C103.678 71.5956 103.625 71.715 103.518 71.8153C103.414 71.9138 103.288 71.9631 103.141 71.9631ZM104.772 77V71.1818H105.621V73.3438H105.673C105.722 73.2528 105.793 73.1477 105.886 73.0284C105.978 72.9091 106.107 72.8049 106.272 72.7159C106.437 72.625 106.655 72.5795 106.925 72.5795C107.278 72.5795 107.592 72.6686 107.869 72.8466C108.145 73.0246 108.362 73.2812 108.519 73.6165C108.678 73.9517 108.758 74.3551 108.758 74.8267C108.758 75.2983 108.679 75.7027 108.522 76.0398C108.365 76.375 108.149 76.6335 107.874 76.8153C107.6 76.9953 107.286 77.0852 106.934 77.0852C106.669 77.0852 106.452 77.0407 106.283 76.9517C106.117 76.8627 105.986 76.7585 105.891 76.6392C105.797 76.5199 105.724 76.4138 105.673 76.321H105.602V77H104.772ZM105.604 74.8182C105.604 75.125 105.649 75.3939 105.738 75.625C105.827 75.8561 105.956 76.0369 106.124 76.1676C106.293 76.2964 106.499 76.3608 106.744 76.3608C106.997 76.3608 107.21 76.2936 107.38 76.1591C107.55 76.0227 107.679 75.8381 107.766 75.6051C107.855 75.3722 107.9 75.1098 107.9 74.8182C107.9 74.5303 107.856 74.2718 107.769 74.0426C107.684 73.8134 107.555 73.6326 107.383 73.5C107.212 73.3674 106.999 73.3011 106.744 73.3011C106.497 73.3011 106.289 73.3646 106.119 73.4915C105.95 73.6184 105.822 73.7955 105.735 74.0227C105.648 74.25 105.604 74.5152 105.604 74.8182ZM111.592 77.0881C111.162 77.0881 110.792 76.9962 110.482 76.8125C110.173 76.6269 109.934 76.3665 109.766 76.0312C109.599 75.6941 109.516 75.2992 109.516 74.8466C109.516 74.3996 109.599 74.0057 109.766 73.6648C109.934 73.3239 110.169 73.0578 110.47 72.8665C110.773 72.6752 111.127 72.5795 111.533 72.5795C111.779 72.5795 112.018 72.6203 112.249 72.7017C112.48 72.7831 112.687 72.911 112.871 73.0852C113.054 73.2595 113.199 73.4858 113.305 73.7642C113.411 74.0407 113.464 74.3769 113.464 74.7727V75.0739H109.996V74.4375H112.632C112.632 74.214 112.587 74.0161 112.496 73.8438C112.405 73.6695 112.277 73.5322 112.112 73.4318C111.949 73.3314 111.758 73.2812 111.538 73.2812C111.3 73.2812 111.091 73.34 110.913 73.4574C110.737 73.5729 110.601 73.7244 110.504 73.9119C110.41 74.0975 110.362 74.2992 110.362 74.517V75.0142C110.362 75.3059 110.413 75.554 110.516 75.7585C110.62 75.9631 110.765 76.1193 110.95 76.2273C111.136 76.3333 111.353 76.3864 111.601 76.3864C111.762 76.3864 111.909 76.3636 112.041 76.3182C112.174 76.2708 112.288 76.2008 112.385 76.108C112.482 76.0152 112.555 75.9006 112.607 75.7642L113.411 75.9091C113.346 76.1458 113.231 76.3532 113.064 76.5312C112.899 76.7074 112.692 76.8447 112.442 76.9432C112.194 77.0398 111.911 77.0881 111.592 77.0881ZM114.407 77V72.6364H115.228V73.3295H115.273C115.353 73.0947 115.493 72.91 115.694 72.7756C115.897 72.6392 116.126 72.571 116.381 72.571C116.434 72.571 116.497 72.5729 116.569 72.5767C116.643 72.5805 116.701 72.5852 116.742 72.5909V73.4034C116.708 73.3939 116.647 73.3835 116.56 73.3722C116.473 73.3589 116.386 73.3523 116.299 73.3523C116.098 73.3523 115.919 73.3949 115.762 73.4801C115.607 73.5634 115.484 73.6799 115.393 73.8295C115.302 73.9773 115.256 74.1458 115.256 74.3352V77H114.407ZM120.747 73.7017L119.977 73.8381C119.945 73.7396 119.894 73.6458 119.824 73.5568C119.756 73.4678 119.663 73.3949 119.545 73.3381C119.428 73.2812 119.281 73.2528 119.105 73.2528C118.865 73.2528 118.664 73.3068 118.503 73.4148C118.342 73.5208 118.261 73.6581 118.261 73.8267C118.261 73.9725 118.315 74.09 118.423 74.179C118.531 74.268 118.705 74.3409 118.946 74.3977L119.639 74.5568C120.041 74.6496 120.34 74.7926 120.537 74.9858C120.734 75.179 120.832 75.4299 120.832 75.7386C120.832 76 120.757 76.233 120.605 76.4375C120.455 76.6402 120.246 76.7992 119.977 76.9148C119.71 77.0303 119.401 77.0881 119.048 77.0881C118.56 77.0881 118.161 76.9839 117.852 76.7756C117.544 76.5653 117.354 76.267 117.284 75.8807L118.105 75.7557C118.156 75.9697 118.261 76.1316 118.42 76.2415C118.58 76.3494 118.787 76.4034 119.043 76.4034C119.321 76.4034 119.544 76.3456 119.71 76.2301C119.877 76.1127 119.96 75.9697 119.96 75.8011C119.96 75.6648 119.909 75.5502 119.807 75.4574C119.706 75.3646 119.552 75.2945 119.344 75.2472L118.605 75.0852C118.198 74.9924 117.897 74.8447 117.702 74.642C117.509 74.4394 117.412 74.1828 117.412 73.8722C117.412 73.6146 117.484 73.3892 117.628 73.196C117.772 73.0028 117.971 72.8523 118.224 72.7443C118.478 72.6345 118.769 72.5795 119.097 72.5795C119.568 72.5795 119.939 72.6818 120.21 72.8864C120.481 73.089 120.66 73.3608 120.747 73.7017ZM123.982 70.9091L122.107 77.875H121.349L123.224 70.9091H123.982ZM128.684 75.0284L124.911 76.858V75.9886L127.695 74.7216L127.667 74.7699V74.6477L127.695 74.6989L124.911 73.429V72.5625L128.684 74.392V75.0284Z" fill="#BCBCBC"/>
<path fill-rule="evenodd" clip-rule="evenodd" d="M107.127 41.4767C107.127 42.1795 106.274 42.5275 105.783 42.0251L95.7204 31.7411C97.081 31.2611 98.5448 31 100.07 31C102.669 31 105.092 31.759 107.127 33.0675V41.4767ZM110.787 36.5871V41.4767C110.787 45.459 105.952 47.4309 103.167 44.5844L92.3462 33.5251C89.1045 35.9035 87 39.7408 87 44.0696C87 46.8527 87.8699 49.4325 89.3525 51.5522V46.6887C89.3525 42.7064 94.1874 40.7345 96.9724 43.581L107.778 54.625C111.028 52.2475 113.139 48.4051 113.139 44.0696C113.139 41.2866 112.269 38.7067 110.787 36.5871ZM94.3567 46.1402L104.4 56.4048C103.045 56.8805 101.587 57.1392 100.07 57.1392C97.47 57.1392 95.0476 56.3802 93.012 55.0718V46.6887C93.012 45.9859 93.8652 45.6379 94.3567 46.1402Z" fill="#EBECEF"/>
</g>
<path d="M34.7109 19.7447C34.7109 15.1114 38.4669 11.3555 43.1001 11.3555H156.901C161.534 11.3555 165.291 15.1114 165.291 19.7447V153.972C165.291 158.605 161.534 162.361 156.901 162.361H43.1001C38.4669 162.361 34.7109 158.605 34.7109 153.972V19.7447Z" stroke="#E6E6E6"/>
</g>
</g>
</g>
<defs>
<filter id="filter0_ddd_16_71446" x="5.86523" y="10.8555" width="188.27" height="177.324" filterUnits="userSpaceOnUse" color-interpolation-filters="sRGB">
<feFlood flood-opacity="0" result="BackgroundImageFix"/>
<feColorMatrix in="SourceAlpha" type="matrix" values="0 0 0 0 0 0 0 0 0 0 0 0 0 0 0 0 0 0 127 0" result="hardAlpha"/>
<feOffset dy="2"/>
<feGaussianBlur stdDeviation="1"/>
<feColorMatrix type="matrix" values="0 0 0 0 0.121569 0 0 0 0 0.156863 0 0 0 0 0.215686 0 0 0 0.02 0"/>
<feBlend mode="normal" in2="BackgroundImageFix" result="effect1_dropShadow_16_71446"/>
<feColorMatrix in="SourceAlpha" type="matrix" values="0 0 0 0 0 0 0 0 0 0 0 0 0 0 0 0 0 0 127 0" result="hardAlpha"/>
<feOffset dy="5"/>
<feGaussianBlur stdDeviation="2.5"/>
<feColorMatrix type="matrix" values="0 0 0 0 0.121569 0 0 0 0 0.156863 0 0 0 0 0.215686 0 0 0 0.02 0"/>
<feBlend mode="normal" in2="effect1_dropShadow_16_71446" result="effect2_dropShadow_16_71446"/>
<feColorMatrix in="SourceAlpha" type="matrix" values="0 0 0 0 0 0 0 0 0 0 0 0 0 0 0 0 0 0 127 0" result="hardAlpha"/>
<feOffset dy="4.23"/>
<feComposite in2="hardAlpha" operator="out"/>
<feColorMatrix type="matrix" values="0 0 0 0 0.97 0 0 0 0 0.97 0 0 0 0 0.97 0 0 0 1 0"/>
<feBlend mode="normal" in2="effect2_dropShadow_16_71446" result="effect3_dropShadow_16_71446"/>
<feBlend mode="normal" in="SourceGraphic" in2="effect3_dropShadow_16_71446" result="shape"/>
</filter>
<filter id="filter1_ddd_16_71446" x="53.3217" y="22.168" width="140.046" height="164.47" filterUnits="userSpaceOnUse" color-interpolation-filters="sRGB">
<feFlood flood-opacity="0" result="BackgroundImageFix"/>
<feColorMatrix in="SourceAlpha" type="matrix" values="0 0 0 0 0 0 0 0 0 0 0 0 0 0 0 0 0 0 127 0" result="hardAlpha"/>
<feOffset dy="1.69318"/>
<feGaussianBlur stdDeviation="0.846589"/>
<feColorMatrix type="matrix" values="0 0 0 0 0.121569 0 0 0 0 0.156863 0 0 0 0 0.215686 0 0 0 0.02 0"/>
<feBlend mode="normal" in2="BackgroundImageFix" result="effect1_dropShadow_16_71446"/>
<feColorMatrix in="SourceAlpha" type="matrix" values="0 0 0 0 0 0 0 0 0 0 0 0 0 0 0 0 0 0 127 0" result="hardAlpha"/>
<feOffset dy="4.23295"/>
<feGaussianBlur stdDeviation="2.11647"/>
<feColorMatrix type="matrix" values="0 0 0 0 0.121569 0 0 0 0 0.156863 0 0 0 0 0.215686 0 0 0 0.02 0"/>
<feBlend mode="normal" in2="effect1_dropShadow_16_71446" result="effect2_dropShadow_16_71446"/>
<feColorMatrix in="SourceAlpha" type="matrix" values="0 0 0 0 0 0 0 0 0 0 0 0 0 0 0 0 0 0 127 0" result="hardAlpha"/>
<feOffset dy="-4"/>
<feComposite in2="hardAlpha" operator="out"/>
<feColorMatrix type="matrix" values="0 0 0 0 0.97 0 0 0 0 0.97 0 0 0 0 0.97 0 0 0 1 0"/>
<feBlend mode="normal" in2="effect2_dropShadow_16_71446" result="effect3_dropShadow_16_71446"/>
<feBlend mode="normal" in="SourceGraphic" in2="effect3_dropShadow_16_71446" result="shape"/>
</filter>
<filter id="filter2_ddd_16_71446" x="6.63229" y="22.1758" width="140.046" height="164.47" filterUnits="userSpaceOnUse" color-interpolation-filters="sRGB">
<feFlood flood-opacity="0" result="BackgroundImageFix"/>
<feColorMatrix in="SourceAlpha" type="matrix" values="0 0 0 0 0 0 0 0 0 0 0 0 0 0 0 0 0 0 127 0" result="hardAlpha"/>
<feOffset dy="1.69318"/>
<feGaussianBlur stdDeviation="0.846589"/>
<feColorMatrix type="matrix" values="0 0 0 0 0.121569 0 0 0 0 0.156863 0 0 0 0 0.215686 0 0 0 0.02 0"/>
<feBlend mode="normal" in2="BackgroundImageFix" result="effect1_dropShadow_16_71446"/>
<feColorMatrix in="SourceAlpha" type="matrix" values="0 0 0 0 0 0 0 0 0 0 0 0 0 0 0 0 0 0 127 0" result="hardAlpha"/>
<feOffset dy="4.23295"/>
<feGaussianBlur stdDeviation="2.11647"/>
<feColorMatrix type="matrix" values="0 0 0 0 0.121569 0 0 0 0 0.156863 0 0 0 0 0.215686 0 0 0 0.02 0"/>
<feBlend mode="normal" in2="effect1_dropShadow_16_71446" result="effect2_dropShadow_16_71446"/>
<feColorMatrix in="SourceAlpha" type="matrix" values="0 0 0 0 0 0 0 0 0 0 0 0 0 0 0 0 0 0 127 0" result="hardAlpha"/>
<feOffset dy="-4"/>
<feComposite in2="hardAlpha" operator="out"/>
<feColorMatrix type="matrix" values="0 0 0 0 0.97 0 0 0 0 0.97 0 0 0 0 0.97 0 0 0 1 0"/>
<feBlend mode="normal" in2="effect2_dropShadow_16_71446" result="effect3_dropShadow_16_71446"/>
<feBlend mode="normal" in="SourceGraphic" in2="effect3_dropShadow_16_71446" result="shape"/>
</filter>
<filter id="filter3_ddd_16_71446" x="29.978" y="6.85547" width="140.046" height="164.47" filterUnits="userSpaceOnUse" color-interpolation-filters="sRGB">
<feFlood flood-opacity="0" result="BackgroundImageFix"/>
<feColorMatrix in="SourceAlpha" type="matrix" values="0 0 0 0 0 0 0 0 0 0 0 0 0 0 0 0 0 0 127 0" result="hardAlpha"/>
<feOffset dy="1.69318"/>
<feGaussianBlur stdDeviation="0.846589"/>
<feColorMatrix type="matrix" values="0 0 0 0 0.121569 0 0 0 0 0.156863 0 0 0 0 0.215686 0 0 0 0.02 0"/>
<feBlend mode="normal" in2="BackgroundImageFix" result="effect1_dropShadow_16_71446"/>
<feColorMatrix in="SourceAlpha" type="matrix" values="0 0 0 0 0 0 0 0 0 0 0 0 0 0 0 0 0 0 127 0" result="hardAlpha"/>
<feOffset dy="4.23295"/>
<feGaussianBlur stdDeviation="2.11647"/>
<feColorMatrix type="matrix" values="0 0 0 0 0.121569 0 0 0 0 0.156863 0 0 0 0 0.215686 0 0 0 0.02 0"/>
<feBlend mode="normal" in2="effect1_dropShadow_16_71446" result="effect2_dropShadow_16_71446"/>
<feColorMatrix in="SourceAlpha" type="matrix" values="0 0 0 0 0 0 0 0 0 0 0 0 0 0 0 0 0 0 127 0" result="hardAlpha"/>
<feOffset dy="-4"/>
<feComposite in2="hardAlpha" operator="out"/>
<feColorMatrix type="matrix" values="0 0 0 0 0.97 0 0 0 0 0.97 0 0 0 0 0.97 0 0 0 1 0"/>
<feBlend mode="normal" in2="effect2_dropShadow_16_71446" result="effect3_dropShadow_16_71446"/>
<feBlend mode="normal" in="SourceGraphic" in2="effect3_dropShadow_16_71446" result="shape"/>
</filter>
<clipPath id="clip0_16_71446">
<rect width="200" height="95" fill="white"/>
</clipPath>
</defs>
</svg>
