<svg width="200" height="95" viewBox="0 0 200 95" fill="none" xmlns="http://www.w3.org/2000/svg">
<g clip-path="url(#clip0_21_69217)">
<rect width="200" height="95" fill="#F9FAFB"/>
<g clip-path="url(#clip1_21_69217)">
<g filter="url(#filter0_ddd_21_69217)">
<path d="M133.53 39.043H65.281C62.6589 39.043 60.5332 40.9765 60.5332 43.3616V51.9987C60.5332 54.3838 62.6589 56.3173 65.281 56.3173H133.53C136.152 56.3173 138.278 54.3838 138.278 51.9987V43.3616C138.278 40.9765 136.152 39.043 133.53 39.043Z" fill="white"/>
<path d="M133.53 39.043H65.281C62.6589 39.043 60.5332 40.9765 60.5332 43.3616V51.9987C60.5332 54.3838 62.6589 56.3173 65.281 56.3173H133.53C136.152 56.3173 138.278 54.3838 138.278 51.9987V43.3616C138.278 40.9765 136.152 39.043 133.53 39.043Z" stroke="#E6E6E6" stroke-width="0.6"/>
<path d="M80.686 50.054C80.45 50.054 80.242 50.016 80.062 49.94C79.886 49.864 79.746 49.76 79.642 49.628C79.542 49.492 79.484 49.332 79.468 49.148H80.116C80.132 49.256 80.19 49.344 80.29 49.412C80.39 49.476 80.522 49.508 80.686 49.508H80.944C81.14 49.508 81.288 49.468 81.388 49.388C81.488 49.308 81.538 49.202 81.538 49.07C81.538 48.942 81.492 48.842 81.4 48.77C81.312 48.694 81.18 48.644 81.004 48.62L80.578 48.554C80.226 48.498 79.966 48.398 79.798 48.254C79.634 48.106 79.552 47.888 79.552 47.6C79.552 47.296 79.65 47.062 79.846 46.898C80.046 46.73 80.34 46.646 80.728 46.646H80.956C81.3 46.646 81.574 46.726 81.778 46.886C81.986 47.042 82.104 47.252 82.132 47.516H81.484C81.468 47.42 81.414 47.342 81.322 47.282C81.234 47.222 81.112 47.192 80.956 47.192H80.728C80.54 47.192 80.402 47.228 80.314 47.3C80.23 47.368 80.188 47.47 80.188 47.606C80.188 47.726 80.226 47.816 80.302 47.876C80.378 47.936 80.496 47.978 80.656 48.002L81.094 48.074C81.466 48.126 81.738 48.23 81.91 48.386C82.086 48.538 82.174 48.76 82.174 49.052C82.174 49.368 82.07 49.614 81.862 49.79C81.658 49.966 81.352 50.054 80.944 50.054H80.686ZM84.2717 50.06C83.8757 50.06 83.5597 49.946 83.3237 49.718C83.0877 49.486 82.9697 49.172 82.9697 48.776V46.7H83.6177V48.776C83.6177 49.004 83.6757 49.182 83.7917 49.31C83.9077 49.434 84.0677 49.496 84.2717 49.496C84.4797 49.496 84.6417 49.434 84.7577 49.31C84.8777 49.182 84.9377 49.004 84.9377 48.776V46.7H85.5857V48.776C85.5857 49.172 85.4657 49.486 85.2257 49.718C84.9897 49.946 84.6717 50.06 84.2717 50.06ZM87.9893 50.06C87.7173 50.06 87.5013 49.986 87.3413 49.838C87.1813 49.686 87.1013 49.48 87.1013 49.22L87.2393 49.37H87.1013V50H86.4593V45.62H87.1073V46.562L87.0893 47.33H87.2393L87.1013 47.48C87.1013 47.22 87.1813 47.016 87.3413 46.868C87.5053 46.716 87.7213 46.64 87.9893 46.64C88.3213 46.64 88.5873 46.752 88.7873 46.976C88.9873 47.2 89.0873 47.504 89.0873 47.888V48.818C89.0873 49.198 88.9873 49.5 88.7873 49.724C88.5873 49.948 88.3213 50.06 87.9893 50.06ZM87.7673 49.496C87.9793 49.496 88.1453 49.436 88.2653 49.316C88.3853 49.192 88.4453 49.014 88.4453 48.782V47.918C88.4453 47.686 88.3853 47.51 88.2653 47.39C88.1453 47.266 87.9793 47.204 87.7673 47.204C87.5633 47.204 87.4013 47.268 87.2813 47.396C87.1653 47.52 87.1073 47.694 87.1073 47.918V48.782C87.1073 49.006 87.1653 49.182 87.2813 49.31C87.4013 49.434 87.5633 49.496 87.7673 49.496ZM91.119 50.054C90.883 50.054 90.675 50.016 90.495 49.94C90.319 49.864 90.179 49.76 90.075 49.628C89.975 49.492 89.917 49.332 89.901 49.148H90.549C90.565 49.256 90.623 49.344 90.723 49.412C90.823 49.476 90.955 49.508 91.119 49.508H91.377C91.573 49.508 91.721 49.468 91.821 49.388C91.921 49.308 91.971 49.202 91.971 49.07C91.971 48.942 91.925 48.842 91.833 48.77C91.745 48.694 91.613 48.644 91.437 48.62L91.011 48.554C90.659 48.498 90.399 48.398 90.231 48.254C90.067 48.106 89.985 47.888 89.985 47.6C89.985 47.296 90.083 47.062 90.279 46.898C90.479 46.73 90.773 46.646 91.161 46.646H91.389C91.733 46.646 92.007 46.726 92.211 46.886C92.419 47.042 92.537 47.252 92.565 47.516H91.917C91.901 47.42 91.847 47.342 91.755 47.282C91.667 47.222 91.545 47.192 91.389 47.192H91.161C90.973 47.192 90.835 47.228 90.747 47.3C90.663 47.368 90.621 47.47 90.621 47.606C90.621 47.726 90.659 47.816 90.735 47.876C90.811 47.936 90.929 47.978 91.089 48.002L91.527 48.074C91.899 48.126 92.171 48.23 92.343 48.386C92.519 48.538 92.607 48.76 92.607 49.052C92.607 49.368 92.503 49.614 92.295 49.79C92.091 49.966 91.785 50.054 91.377 50.054H91.119ZM94.7346 50.06C94.4626 50.06 94.2226 50.01 94.0146 49.91C93.8106 49.806 93.6526 49.658 93.5406 49.466C93.4326 49.27 93.3786 49.042 93.3786 48.782V47.918C93.3786 47.654 93.4326 47.426 93.5406 47.234C93.6526 47.042 93.8106 46.896 94.0146 46.796C94.2226 46.692 94.4626 46.64 94.7346 46.64C95.1306 46.64 95.4486 46.744 95.6886 46.952C95.9286 47.16 96.0546 47.444 96.0666 47.804H95.4186C95.4066 47.616 95.3406 47.47 95.2206 47.366C95.1006 47.262 94.9386 47.21 94.7346 47.21C94.5146 47.21 94.3406 47.272 94.2126 47.396C94.0846 47.516 94.0206 47.688 94.0206 47.912V48.782C94.0206 49.006 94.0846 49.18 94.2126 49.304C94.3406 49.428 94.5146 49.49 94.7346 49.49C94.9386 49.49 95.1006 49.438 95.2206 49.334C95.3406 49.23 95.4066 49.084 95.4186 48.896H96.0666C96.0546 49.256 95.9286 49.54 95.6886 49.748C95.4486 49.956 95.1306 50.06 94.7346 50.06ZM97.0003 50V46.7H97.6243V47.33H97.7803L97.5823 47.72C97.5823 47.364 97.6603 47.096 97.8163 46.916C97.9723 46.732 98.2043 46.64 98.5123 46.64C98.8643 46.64 99.1423 46.75 99.3463 46.97C99.5543 47.186 99.6583 47.484 99.6583 47.864V48.086H98.9923V47.918C98.9923 47.682 98.9323 47.502 98.8123 47.378C98.6963 47.25 98.5323 47.186 98.3203 47.186C98.1083 47.186 97.9423 47.25 97.8223 47.378C97.7063 47.506 97.6483 47.686 97.6483 47.918V50H97.0003ZM100.352 50V49.412H101.51V47.288H100.502V46.7H102.14V49.412H103.202V50H100.352ZM101.762 46.13C101.622 46.13 101.51 46.094 101.426 46.022C101.342 45.946 101.3 45.846 101.3 45.722C101.3 45.594 101.342 45.494 101.426 45.422C101.51 45.346 101.622 45.308 101.762 45.308C101.902 45.308 102.014 45.346 102.098 45.422C102.182 45.494 102.224 45.594 102.224 45.722C102.224 45.846 102.182 45.946 102.098 46.022C102.014 46.094 101.902 46.13 101.762 46.13ZM105.378 50.06C105.106 50.06 104.89 49.986 104.73 49.838C104.57 49.686 104.49 49.48 104.49 49.22L104.628 49.37H104.49V50L103.848 50V45.62H104.496V46.562L104.478 47.33H104.628L104.49 47.48C104.49 47.22 104.57 47.016 104.73 46.868C104.894 46.716 105.11 46.64 105.378 46.64C105.71 46.64 105.976 46.752 106.176 46.976C106.376 47.2 106.476 47.504 106.476 47.888V48.818C106.476 49.198 106.376 49.5 106.176 49.724C105.976 49.948 105.71 50.06 105.378 50.06ZM105.156 49.496C105.368 49.496 105.534 49.436 105.654 49.316C105.774 49.192 105.834 49.014 105.834 48.782V47.918C105.834 47.686 105.774 47.51 105.654 47.39C105.534 47.266 105.368 47.204 105.156 47.204C104.952 47.204 104.79 47.268 104.67 47.396C104.554 47.52 104.496 47.694 104.496 47.918V48.782C104.496 49.006 104.554 49.182 104.67 49.31C104.79 49.434 104.952 49.496 105.156 49.496ZM108.621 50.06C108.353 50.06 108.117 50.008 107.913 49.904C107.713 49.796 107.559 49.646 107.451 49.454C107.343 49.262 107.289 49.038 107.289 48.782V47.918C107.289 47.658 107.343 47.434 107.451 47.246C107.559 47.054 107.713 46.906 107.913 46.802C108.117 46.694 108.353 46.64 108.621 46.64C108.893 46.64 109.129 46.694 109.329 46.802C109.529 46.906 109.683 47.054 109.791 47.246C109.899 47.434 109.953 47.658 109.953 47.918V48.506H107.913V48.782C107.913 49.026 107.973 49.212 108.093 49.34C108.217 49.468 108.395 49.532 108.627 49.532C108.815 49.532 108.967 49.5 109.083 49.436C109.199 49.368 109.271 49.27 109.299 49.142H109.941C109.893 49.422 109.749 49.646 109.509 49.814C109.269 49.978 108.973 50.06 108.621 50.06ZM109.329 48.116V47.912C109.329 47.672 109.269 47.486 109.149 47.354C109.029 47.222 108.853 47.156 108.621 47.156C108.393 47.156 108.217 47.222 108.093 47.354C107.973 47.486 107.913 47.674 107.913 47.918V48.068L109.377 48.062L109.329 48.116ZM110.911 50V46.7H111.535V47.33H111.691L111.493 47.72C111.493 47.364 111.571 47.096 111.727 46.916C111.883 46.732 112.115 46.64 112.423 46.64C112.775 46.64 113.053 46.75 113.257 46.97C113.465 47.186 113.569 47.484 113.569 47.864V48.086H112.903V47.918C112.903 47.682 112.843 47.502 112.723 47.378C112.607 47.25 112.443 47.186 112.231 47.186C112.019 47.186 111.853 47.25 111.733 47.378C111.617 47.506 111.559 47.686 111.559 47.918V50H110.911ZM115.463 50.054C115.227 50.054 115.019 50.016 114.839 49.94C114.663 49.864 114.523 49.76 114.419 49.628C114.319 49.492 114.261 49.332 114.245 49.148H114.893C114.909 49.256 114.967 49.344 115.067 49.412C115.167 49.476 115.299 49.508 115.463 49.508H115.721C115.917 49.508 116.065 49.468 116.165 49.388C116.265 49.308 116.315 49.202 116.315 49.07C116.315 48.942 116.269 48.842 116.177 48.77C116.089 48.694 115.957 48.644 115.781 48.62L115.355 48.554C115.003 48.498 114.743 48.398 114.575 48.254C114.411 48.106 114.329 47.888 114.329 47.6C114.329 47.296 114.427 47.062 114.623 46.898C114.823 46.73 115.117 46.646 115.505 46.646H115.733C116.077 46.646 116.351 46.726 116.555 46.886C116.763 47.042 116.881 47.252 116.909 47.516H116.261C116.245 47.42 116.191 47.342 116.099 47.282C116.011 47.222 115.889 47.192 115.733 47.192H115.505C115.317 47.192 115.179 47.228 115.091 47.3C115.007 47.368 114.965 47.47 114.965 47.606C114.965 47.726 115.003 47.816 115.079 47.876C115.155 47.936 115.273 47.978 115.433 48.002L115.871 48.074C116.243 48.126 116.515 48.23 116.687 48.386C116.863 48.538 116.951 48.76 116.951 49.052C116.951 49.368 116.847 49.614 116.639 49.79C116.435 49.966 116.129 50.054 115.721 50.054H115.463Z" fill="#D6D6D6"/>
<g clip-path="url(#clip2_21_69217)">
<path d="M69.265 47.85C69.086 47.85 68.9143 47.7789 68.7877 47.6523C68.6611 47.5257 68.59 47.354 68.59 47.175C68.59 46.996 68.6611 46.8243 68.7877 46.6977C68.9143 46.5711 69.086 46.5 69.265 46.5C69.444 46.5 69.6157 46.5711 69.7423 46.6977C69.8689 46.8243 69.94 46.996 69.94 47.175C69.94 47.354 69.8689 47.5257 69.7423 47.6523C69.6157 47.7789 69.444 47.85 69.265 47.85ZM69.4 50.3244V49.32C69.4 49.1736 69.4432 49.0389 69.5212 48.9186C69.2538 48.8806 68.9814 48.8987 68.7214 48.9719C68.4614 49.0451 68.2196 49.1717 68.0113 49.3437C68.3392 49.829 68.833 50.1778 69.4 50.3247V50.3244ZM67.7359 48.798C68.174 48.4738 68.7049 48.2991 69.25 48.3C69.5629 48.3 69.8629 48.3564 70.1401 48.4596C70.4035 48.3567 70.7176 48.3 71.05 48.3C71.548 48.3 72.0055 48.4272 72.3118 48.6468C72.4131 48.2838 72.4274 47.902 72.3537 47.5324C72.2799 47.1628 72.1201 46.8157 71.8873 46.5193C71.6545 46.223 71.3551 45.9856 71.0135 45.8264C70.6718 45.6673 70.2975 45.5908 69.9208 45.6033C69.5441 45.6157 69.1756 45.7167 68.8452 45.8981C68.5148 46.0794 68.2318 46.336 68.019 46.6471C67.8063 46.9582 67.6698 47.3151 67.6206 47.6888C67.5714 48.0624 67.6109 48.4424 67.7359 48.798V48.798ZM72.0637 49.2258C71.9458 49.0659 71.5513 48.9 71.05 48.9C70.4482 48.9 70 49.1391 70 49.32V50.4C70.4164 50.4002 70.8256 50.2921 71.1875 50.0862C71.5494 49.8803 71.8514 49.5838 72.064 49.2258H72.0637ZM70 51C68.3431 51 67 49.6569 67 48C67 46.3431 68.3431 45 70 45C71.6569 45 73 46.3431 73 48C73 49.6569 71.6569 51 70 51ZM71.05 48.15C70.8909 48.15 70.7383 48.0868 70.6257 47.9743C70.5132 47.8617 70.45 47.7091 70.45 47.55C70.45 47.3909 70.5132 47.2383 70.6257 47.1257C70.7383 47.0132 70.8909 46.95 71.05 46.95C71.2091 46.95 71.3617 47.0132 71.4743 47.1257C71.5868 47.2383 71.65 47.3909 71.65 47.55C71.65 47.7091 71.5868 47.8617 71.4743 47.9743C71.3617 48.0868 71.2091 48.15 71.05 48.15V48.15Z" fill="#D6D6D6"/>
</g>
</g>
<g filter="url(#filter1_ddd_21_69217)">
<path d="M133.53 69.8125H65.281C62.6589 69.8125 60.5332 71.746 60.5332 74.1311V82.7683C60.5332 85.1533 62.6589 87.0868 65.281 87.0868H133.53C136.152 87.0868 138.278 85.1533 138.278 82.7683V74.1311C138.278 71.746 136.152 69.8125 133.53 69.8125Z" fill="white"/>
<path d="M133.53 69.8125H65.281C62.6589 69.8125 60.5332 71.746 60.5332 74.1311V82.7683C60.5332 85.1533 62.6589 87.0868 65.281 87.0868H133.53C136.152 87.0868 138.278 85.1533 138.278 82.7683V74.1311C138.278 71.746 136.152 69.8125 133.53 69.8125Z" stroke="#E6E6E6" stroke-width="0.6"/>
<path d="M124.993 75.2109H80.3476C79.2377 75.2109 78.3379 76.0294 78.3379 77.039V79.8608C78.3379 80.8704 79.2377 81.6888 80.3476 81.6888H124.993C126.103 81.6888 127.003 80.8704 127.003 79.8608V77.039C127.003 76.0294 126.103 75.2109 124.993 75.2109Z" fill="#EBECEF"/>
<path d="M73.5904 78.4499C73.5904 76.6611 71.9962 75.2109 70.0296 75.2109C68.063 75.2109 66.4688 76.6611 66.4688 78.4499C66.4688 80.2387 68.063 81.6888 70.0296 81.6888C71.9962 81.6888 73.5904 80.2387 73.5904 78.4499Z" fill="#EBECEF"/>
</g>
<g filter="url(#filter2_ddd_21_69217)">
<path d="M133.53 8.8125H65.281C62.6589 8.8125 60.5332 10.746 60.5332 13.1311V21.7683C60.5332 24.1533 62.6589 26.0868 65.281 26.0868H133.53C136.152 26.0868 138.278 24.1533 138.278 21.7683V13.1311C138.278 10.746 136.152 8.8125 133.53 8.8125Z" fill="white"/>
<path d="M133.53 8.8125H65.281C62.6589 8.8125 60.5332 10.746 60.5332 13.1311V21.7683C60.5332 24.1533 62.6589 26.0868 65.281 26.0868H133.53C136.152 26.0868 138.278 24.1533 138.278 21.7683V13.1311C138.278 10.746 136.152 8.8125 133.53 8.8125Z" stroke="#E6E6E6" stroke-width="0.6"/>
<path d="M124.993 14.2109H80.3476C79.2377 14.2109 78.3379 15.0294 78.3379 16.039V18.8608C78.3379 19.8704 79.2377 20.6888 80.3476 20.6888H124.993C126.103 20.6888 127.003 19.8704 127.003 18.8608V16.039C127.003 15.0294 126.103 14.2109 124.993 14.2109Z" fill="#EBECEF"/>
<path d="M73.5904 17.4499C73.5904 15.6611 71.9962 14.2109 70.0296 14.2109C68.063 14.2109 66.4688 15.6611 66.4688 17.4499C66.4688 19.2387 68.063 20.6888 70.0296 20.6888C71.9962 20.6888 73.5904 19.2387 73.5904 17.4499Z" fill="#EBECEF"/>
</g>
<mask id="path-13-inside-1_21_69217" fill="white">
<path d="M99.5544 57.8029C99.5544 57.7284 99.488 57.668 99.4061 57.668C99.3242 57.668 99.2577 57.7284 99.2577 57.8029H99.5544ZM98.7473 66.9799C98.6654 66.9799 98.6073 67.0711 98.6482 67.1359L99.307 68.1735C99.3479 68.2382 99.4642 68.2382 99.5052 68.1735L100.164 67.1359C100.205 67.0711 100.147 66.9799 100.065 66.9799H98.7473ZM99.2577 57.8029V58.6801H99.5544V57.8029H99.2577ZM99.2577 60.4346V62.189H99.5544V60.4346H99.2577ZM99.2577 63.9434V65.6978H99.5544V63.9434H99.2577Z"/>
</mask>
<path d="M99.5544 57.8029C99.5544 57.7284 99.488 57.668 99.4061 57.668C99.3242 57.668 99.2577 57.7284 99.2577 57.8029H99.5544ZM98.7473 66.9799C98.6654 66.9799 98.6073 67.0711 98.6482 67.1359L99.307 68.1735C99.3479 68.2382 99.4642 68.2382 99.5052 68.1735L100.164 67.1359C100.205 67.0711 100.147 66.9799 100.065 66.9799H98.7473ZM99.2577 57.8029V58.6801H99.5544V57.8029H99.2577ZM99.2577 60.4346V62.189H99.5544V60.4346H99.2577ZM99.2577 63.9434V65.6978H99.5544V63.9434H99.2577Z" fill="#B7BEC7"/>
<path d="M99.2577 58.3029H99.5544V57.3029H99.2577V58.3029ZM98.6482 67.1359L97.8029 67.6703L97.804 67.6719L98.6482 67.1359ZM99.307 68.1735L100.152 67.6391L100.151 67.6375L99.307 68.1735ZM99.5052 68.1735L98.661 67.6375L98.6599 67.6391L99.5052 68.1735ZM100.164 67.1359L101.008 67.6719L101.009 67.6703L100.164 67.1359ZM99.2577 58.6801H98.2577V59.6801H99.2577V58.6801ZM99.5544 58.6801V59.6801H100.554V58.6801H99.5544ZM99.2577 60.4346V59.4346H98.2577V60.4346H99.2577ZM99.2577 62.189H98.2577V63.189H99.2577V62.189ZM99.5544 62.189V63.189H100.554V62.189H99.5544ZM99.5544 60.4346H100.554V59.4346H99.5544V60.4346ZM99.2577 63.9434V62.9434H98.2577V63.9434H99.2577ZM99.2577 65.6978H98.2577V66.6978H99.2577V65.6978ZM99.5544 65.6978V66.6978H100.554V65.6978H99.5544ZM99.5544 63.9434H100.554V62.9434H99.5544V63.9434ZM100.554 57.8029C100.554 57.0891 99.949 56.668 99.4061 56.668V58.668C99.027 58.668 98.5544 58.3678 98.5544 57.8029H100.554ZM99.4061 56.668C98.8632 56.668 98.2577 57.0891 98.2577 57.8029H100.258C100.258 58.3678 99.7852 58.668 99.4061 58.668V56.668ZM98.7473 65.9799C98.3233 65.9799 97.9879 66.214 97.8079 66.4969C97.6279 66.78 97.5323 67.2421 97.8029 67.6703L99.4935 66.6016C99.7232 66.9649 99.6362 67.3491 99.4955 67.5703C99.3548 67.7915 99.0895 67.9799 98.7473 67.9799V65.9799ZM97.804 67.6719L98.4627 68.7095L100.151 67.6375L99.4924 66.5999L97.804 67.6719ZM98.4617 68.7078C98.7158 69.1097 99.13 69.222 99.4061 69.222C99.6822 69.222 100.096 69.1097 100.35 68.7078L98.6599 67.6391C98.873 67.302 99.2086 67.222 99.4061 67.222C99.6035 67.222 99.9391 67.302 100.152 67.6391L98.4617 68.7078ZM100.349 68.7095L101.008 67.6719L99.3197 66.5999L98.661 67.6375L100.349 68.7095ZM101.009 67.6703C101.28 67.2421 101.184 66.78 101.004 66.4969C100.824 66.214 100.489 65.9799 100.065 65.9799V67.9799C99.7227 67.9799 99.4573 67.7915 99.3167 67.5703C99.1759 67.3491 99.089 66.9649 99.3187 66.6016L101.009 67.6703ZM100.065 65.9799H98.7473V67.9799H100.065V65.9799ZM98.2577 57.8029V58.6801H100.258V57.8029H98.2577ZM99.2577 59.6801H99.5544V57.6801H99.2577V59.6801ZM100.554 58.6801V57.8029H98.5544V58.6801H100.554ZM98.2577 60.4346V62.189H100.258V60.4346H98.2577ZM99.2577 63.189H99.5544V61.189H99.2577V63.189ZM100.554 62.189V60.4346H98.5544V62.189H100.554ZM99.5544 59.4346H99.2577V61.4346H99.5544V59.4346ZM98.2577 63.9434V65.6978H100.258V63.9434H98.2577ZM99.2577 66.6978H99.5544V64.6978H99.2577V66.6978ZM100.554 65.6978V63.9434H98.5544V65.6978H100.554ZM99.5544 62.9434H99.2577V64.9434H99.5544V62.9434Z" fill="#E9E9E9" mask="url(#path-13-inside-1_21_69217)"/>
<mask id="path-15-inside-2_21_69217" fill="white">
<path d="M99.5544 27.5725C99.5544 27.4979 99.488 27.4375 99.4061 27.4375C99.3242 27.4375 99.2577 27.4979 99.2577 27.5725H99.5544ZM98.7473 36.2096C98.6654 36.2096 98.6073 36.3009 98.6482 36.3655L99.307 37.4033C99.3479 37.4679 99.4642 37.4679 99.5052 37.4033L100.164 36.3655C100.205 36.3009 100.147 36.2096 100.065 36.2096H98.7473ZM99.2577 27.5725V28.4047H99.5544V27.5725H99.2577ZM99.2577 30.0691V31.7336H99.5544V30.0691H99.2577ZM99.2577 33.3981V35.0625H99.5544V33.3981H99.2577Z"/>
</mask>
<path d="M99.5544 27.5725C99.5544 27.4979 99.488 27.4375 99.4061 27.4375C99.3242 27.4375 99.2577 27.4979 99.2577 27.5725H99.5544ZM98.7473 36.2096C98.6654 36.2096 98.6073 36.3009 98.6482 36.3655L99.307 37.4033C99.3479 37.4679 99.4642 37.4679 99.5052 37.4033L100.164 36.3655C100.205 36.3009 100.147 36.2096 100.065 36.2096H98.7473ZM99.2577 27.5725V28.4047H99.5544V27.5725H99.2577ZM99.2577 30.0691V31.7336H99.5544V30.0691H99.2577ZM99.2577 33.3981V35.0625H99.5544V33.3981H99.2577Z" fill="#B7BEC7"/>
<path d="M99.2577 28.0725H99.5544V27.0725H99.2577V28.0725ZM98.6482 36.3655L97.8037 36.9011L97.8039 36.9014L98.6482 36.3655ZM99.307 37.4033L100.151 36.8677L100.151 36.8675L99.307 37.4033ZM99.5052 37.4033L98.6609 36.8675L98.6607 36.8677L99.5052 37.4033ZM100.164 36.3655L101.008 36.9014L101.008 36.9011L100.164 36.3655ZM99.2577 28.4047H98.2577V29.4047H99.2577V28.4047ZM99.5544 28.4047V29.4047H100.554V28.4047H99.5544ZM99.2577 30.0691V29.0691H98.2577V30.0691H99.2577ZM99.2577 31.7336H98.2577V32.7336H99.2577V31.7336ZM99.5544 31.7336V32.7336H100.554V31.7336H99.5544ZM99.5544 30.0691H100.554V29.0691H99.5544V30.0691ZM99.2577 33.3981V32.3981H98.2577V33.3981H99.2577ZM99.2577 35.0625H98.2577V36.0625H99.2577V35.0625ZM99.5544 35.0625V36.0625H100.554V35.0625H99.5544ZM99.5544 33.3981H100.554V32.3981H99.5544V33.3981ZM100.554 27.5725C100.554 26.8583 99.9487 26.4375 99.4061 26.4375V28.4375C99.0272 28.4375 98.5544 28.1375 98.5544 27.5725H100.554ZM99.4061 26.4375C98.8634 26.4375 98.2577 26.8583 98.2577 27.5725H100.258C100.258 28.1375 99.7849 28.4375 99.4061 28.4375V26.4375ZM98.7473 35.2096C98.3231 35.2096 97.9879 35.4438 97.808 35.7265C97.6283 36.0089 97.5316 36.472 97.8037 36.9011L99.4927 35.8299C99.7239 36.1944 99.6358 36.5795 99.4954 36.8002C99.3548 37.021 99.0896 37.2096 98.7473 37.2096V35.2096ZM97.8039 36.9014L98.4627 37.9392L100.151 36.8675L99.4925 35.8296L97.8039 36.9014ZM98.4625 37.9389C98.7172 38.3405 99.1314 38.4518 99.4061 38.4518C99.6808 38.4518 100.095 38.3405 100.35 37.9389L98.6607 36.8677C98.8745 36.5307 99.21 36.4518 99.4061 36.4518C99.6021 36.4518 99.9377 36.5307 100.151 36.8677L98.4625 37.9389ZM100.349 37.9392L101.008 36.9014L99.3196 35.8296L98.6609 36.8675L100.349 37.9392ZM101.008 36.9011C101.281 36.472 101.184 36.0089 101.004 35.7265C100.824 35.4438 100.489 35.2096 100.065 35.2096V37.2096C99.7225 37.2096 99.4573 37.021 99.3168 36.8002C99.1764 36.5795 99.0883 36.1944 99.3195 35.8299L101.008 36.9011ZM100.065 35.2096H98.7473V37.2096H100.065V35.2096ZM98.2577 27.5725V28.4047H100.258V27.5725H98.2577ZM99.2577 29.4047H99.5544V27.4047H99.2577V29.4047ZM100.554 28.4047V27.5725H98.5544V28.4047H100.554ZM98.2577 30.0691V31.7336H100.258V30.0691H98.2577ZM99.2577 32.7336H99.5544V30.7336H99.2577V32.7336ZM100.554 31.7336V30.0691H98.5544V31.7336H100.554ZM99.5544 29.0691H99.2577V31.0691H99.5544V29.0691ZM98.2577 33.3981V35.0625H100.258V33.3981H98.2577ZM99.2577 36.0625H99.5544V34.0625H99.2577V36.0625ZM100.554 35.0625V33.3981H98.5544V35.0625H100.554ZM99.5544 32.3981H99.2577V34.3981H99.5544V32.3981Z" fill="#E9E9E9" mask="url(#path-15-inside-2_21_69217)"/>
<path d="M182.492 -9V112.46" stroke="#E9E9E9" stroke-width="0.5" stroke-dasharray="3 3"/>
<path d="M15.7266 -9V112.46" stroke="#E9E9E9" stroke-width="0.5" stroke-dasharray="3 3"/>
<path d="M60.2383 -8.73047V112.73" stroke="#E9E9E9" stroke-width="0.5" stroke-dasharray="3 3"/>
<path d="M138.576 -8.73047V112.73" stroke="#E9E9E9" stroke-width="0.5" stroke-dasharray="3 3"/>
<path d="M0.296875 86.8203H199.703" stroke="#E9E9E9" stroke-width="0.5" stroke-dasharray="3 3"/>
<path d="M0 8.54297H198.516" stroke="#E9E9E9" stroke-width="0.5" stroke-dasharray="3 3"/>
</g>
</g>
<defs>
<filter id="filter0_ddd_21_69217" x="55.9995" y="35.7422" width="86.8116" height="29.3409" filterUnits="userSpaceOnUse" color-interpolation-filters="sRGB">
<feFlood flood-opacity="0" result="BackgroundImageFix"/>
<feColorMatrix in="SourceAlpha" type="matrix" values="0 0 0 0 0 0 0 0 0 0 0 0 0 0 0 0 0 0 127 0" result="hardAlpha"/>
<feOffset dy="1.69318"/>
<feGaussianBlur stdDeviation="0.846589"/>
<feColorMatrix type="matrix" values="0 0 0 0 0.121569 0 0 0 0 0.156863 0 0 0 0 0.215686 0 0 0 0.02 0"/>
<feBlend mode="normal" in2="BackgroundImageFix" result="effect1_dropShadow_21_69217"/>
<feColorMatrix in="SourceAlpha" type="matrix" values="0 0 0 0 0 0 0 0 0 0 0 0 0 0 0 0 0 0 127 0" result="hardAlpha"/>
<feOffset dy="4.23295"/>
<feGaussianBlur stdDeviation="2.11647"/>
<feColorMatrix type="matrix" values="0 0 0 0 0.121569 0 0 0 0 0.156863 0 0 0 0 0.215686 0 0 0 0.02 0"/>
<feBlend mode="normal" in2="effect1_dropShadow_21_69217" result="effect2_dropShadow_21_69217"/>
<feColorMatrix in="SourceAlpha" type="matrix" values="0 0 0 0 0 0 0 0 0 0 0 0 0 0 0 0 0 0 127 0" result="hardAlpha"/>
<feOffset dy="-3"/>
<feComposite in2="hardAlpha" operator="out"/>
<feColorMatrix type="matrix" values="0 0 0 0 0.97 0 0 0 0 0.97 0 0 0 0 0.97 0 0 0 1 0"/>
<feBlend mode="normal" in2="effect2_dropShadow_21_69217" result="effect3_dropShadow_21_69217"/>
<feBlend mode="normal" in="SourceGraphic" in2="effect3_dropShadow_21_69217" result="shape"/>
</filter>
<filter id="filter1_ddd_21_69217" x="55.9995" y="66.5117" width="86.8116" height="29.3409" filterUnits="userSpaceOnUse" color-interpolation-filters="sRGB">
<feFlood flood-opacity="0" result="BackgroundImageFix"/>
<feColorMatrix in="SourceAlpha" type="matrix" values="0 0 0 0 0 0 0 0 0 0 0 0 0 0 0 0 0 0 127 0" result="hardAlpha"/>
<feOffset dy="1.69318"/>
<feGaussianBlur stdDeviation="0.846589"/>
<feColorMatrix type="matrix" values="0 0 0 0 0.121569 0 0 0 0 0.156863 0 0 0 0 0.215686 0 0 0 0.02 0"/>
<feBlend mode="normal" in2="BackgroundImageFix" result="effect1_dropShadow_21_69217"/>
<feColorMatrix in="SourceAlpha" type="matrix" values="0 0 0 0 0 0 0 0 0 0 0 0 0 0 0 0 0 0 127 0" result="hardAlpha"/>
<feOffset dy="4.23295"/>
<feGaussianBlur stdDeviation="2.11647"/>
<feColorMatrix type="matrix" values="0 0 0 0 0.121569 0 0 0 0 0.156863 0 0 0 0 0.215686 0 0 0 0.02 0"/>
<feBlend mode="normal" in2="effect1_dropShadow_21_69217" result="effect2_dropShadow_21_69217"/>
<feColorMatrix in="SourceAlpha" type="matrix" values="0 0 0 0 0 0 0 0 0 0 0 0 0 0 0 0 0 0 127 0" result="hardAlpha"/>
<feOffset dy="-3"/>
<feComposite in2="hardAlpha" operator="out"/>
<feColorMatrix type="matrix" values="0 0 0 0 0.97 0 0 0 0 0.97 0 0 0 0 0.97 0 0 0 1 0"/>
<feBlend mode="normal" in2="effect2_dropShadow_21_69217" result="effect3_dropShadow_21_69217"/>
<feBlend mode="normal" in="SourceGraphic" in2="effect3_dropShadow_21_69217" result="shape"/>
</filter>
<filter id="filter2_ddd_21_69217" x="55.9995" y="5.51172" width="86.8116" height="29.3409" filterUnits="userSpaceOnUse" color-interpolation-filters="sRGB">
<feFlood flood-opacity="0" result="BackgroundImageFix"/>
<feColorMatrix in="SourceAlpha" type="matrix" values="0 0 0 0 0 0 0 0 0 0 0 0 0 0 0 0 0 0 127 0" result="hardAlpha"/>
<feOffset dy="1.69318"/>
<feGaussianBlur stdDeviation="0.846589"/>
<feColorMatrix type="matrix" values="0 0 0 0 0.121569 0 0 0 0 0.156863 0 0 0 0 0.215686 0 0 0 0.02 0"/>
<feBlend mode="normal" in2="BackgroundImageFix" result="effect1_dropShadow_21_69217"/>
<feColorMatrix in="SourceAlpha" type="matrix" values="0 0 0 0 0 0 0 0 0 0 0 0 0 0 0 0 0 0 127 0" result="hardAlpha"/>
<feOffset dy="4.23295"/>
<feGaussianBlur stdDeviation="2.11647"/>
<feColorMatrix type="matrix" values="0 0 0 0 0.121569 0 0 0 0 0.156863 0 0 0 0 0.215686 0 0 0 0.02 0"/>
<feBlend mode="normal" in2="effect1_dropShadow_21_69217" result="effect2_dropShadow_21_69217"/>
<feColorMatrix in="SourceAlpha" type="matrix" values="0 0 0 0 0 0 0 0 0 0 0 0 0 0 0 0 0 0 127 0" result="hardAlpha"/>
<feOffset dy="-3"/>
<feComposite in2="hardAlpha" operator="out"/>
<feColorMatrix type="matrix" values="0 0 0 0 0.97 0 0 0 0 0.97 0 0 0 0 0.97 0 0 0 1 0"/>
<feBlend mode="normal" in2="effect2_dropShadow_21_69217" result="effect3_dropShadow_21_69217"/>
<feBlend mode="normal" in="SourceGraphic" in2="effect3_dropShadow_21_69217" result="shape"/>
</filter>
<clipPath id="clip0_21_69217">
<rect width="200" height="95" fill="white"/>
</clipPath>
<clipPath id="clip1_21_69217">
<rect width="200" height="122" fill="white" transform="translate(0 -9)"/>
</clipPath>
<clipPath id="clip2_21_69217">
<rect width="8" height="8" fill="white" transform="translate(66 44)"/>
</clipPath>
</defs>
</svg>
