<svg width="200" height="95" viewBox="0 0 200 95" fill="none" xmlns="http://www.w3.org/2000/svg">
<g clip-path="url(#clip0_21_69046)">
<rect width="200" height="95" fill="#F9FAFB"/>
<g clip-path="url(#clip1_21_69046)">
<g filter="url(#filter0_ddd_21_69046)">
<path d="M133.53 39.043H65.281C62.6589 39.043 60.5332 40.9765 60.5332 43.3616V51.9987C60.5332 54.3838 62.6589 56.3173 65.281 56.3173H133.53C136.152 56.3173 138.278 54.3838 138.278 51.9987V43.3616C138.278 40.9765 136.152 39.043 133.53 39.043Z" fill="white"/>
<path d="M133.53 39.043H65.281C62.6589 39.043 60.5332 40.9765 60.5332 43.3616V51.9987C60.5332 54.3838 62.6589 56.3173 65.281 56.3173H133.53C136.152 56.3173 138.278 54.3838 138.278 51.9987V43.3616C138.278 40.9765 136.152 39.043 133.53 39.043Z" stroke="#E6E6E6" stroke-width="0.6"/>
<path d="M81.16 50C80.86 50 80.626 49.918 80.458 49.754C80.29 49.59 80.206 49.362 80.206 49.07V47.288H79.294V46.7H80.206V45.77H80.854V46.7H82.144V47.288H80.854V49.07C80.854 49.298 80.964 49.412 81.184 49.412H82.084V50H81.16ZM84.2777 50.054C84.0057 50.054 83.7697 50.002 83.5697 49.898C83.3697 49.794 83.2157 49.646 83.1077 49.454C82.9997 49.262 82.9457 49.036 82.9457 48.776V47.924C82.9457 47.66 82.9997 47.434 83.1077 47.246C83.2157 47.054 83.3697 46.906 83.5697 46.802C83.7697 46.698 84.0057 46.646 84.2777 46.646C84.5497 46.646 84.7857 46.698 84.9857 46.802C85.1857 46.906 85.3397 47.054 85.4477 47.246C85.5557 47.434 85.6097 47.66 85.6097 47.924V48.776C85.6097 49.036 85.5557 49.262 85.4477 49.454C85.3397 49.646 85.1857 49.794 84.9857 49.898C84.7857 50.002 84.5497 50.054 84.2777 50.054ZM84.2777 49.484C84.4977 49.484 84.6677 49.424 84.7877 49.304C84.9077 49.18 84.9677 49.004 84.9677 48.776V47.924C84.9677 47.692 84.9077 47.516 84.7877 47.396C84.6677 47.276 84.4977 47.216 84.2777 47.216C84.0617 47.216 83.8917 47.276 83.7677 47.396C83.6477 47.516 83.5877 47.692 83.5877 47.924V48.776C83.5877 49.004 83.6477 49.18 83.7677 49.304C83.8917 49.424 84.0617 49.484 84.2777 49.484ZM86.4593 51.08V46.7H87.1013V47.33H87.2393L87.1013 47.48C87.1013 47.22 87.1813 47.016 87.3413 46.868C87.5053 46.716 87.7233 46.64 87.9953 46.64C88.3273 46.64 88.5913 46.752 88.7873 46.976C88.9873 47.196 89.0873 47.498 89.0873 47.882V48.812C89.0873 49.068 89.0413 49.29 88.9493 49.478C88.8613 49.662 88.7353 49.806 88.5713 49.91C88.4113 50.01 88.2193 50.06 87.9953 50.06C87.7273 50.06 87.5113 49.986 87.3473 49.838C87.1833 49.686 87.1013 49.48 87.1013 49.22L87.2393 49.37H87.0893L87.1073 50.138V51.08H86.4593ZM87.7733 49.496C87.9853 49.496 88.1493 49.436 88.2653 49.316C88.3853 49.192 88.4453 49.014 88.4453 48.782V47.918C88.4453 47.686 88.3853 47.51 88.2653 47.39C88.1493 47.266 87.9853 47.204 87.7733 47.204C87.5693 47.204 87.4073 47.268 87.2873 47.396C87.1673 47.52 87.1073 47.694 87.1073 47.918V48.782C87.1073 49.006 87.1673 49.182 87.2873 49.31C87.4073 49.434 87.5693 49.496 87.7733 49.496ZM89.919 50V49.412H91.077V47.288H90.069V46.7H91.707V49.412H92.769V50H89.919ZM91.329 46.13C91.189 46.13 91.077 46.094 90.993 46.022C90.909 45.946 90.867 45.846 90.867 45.722C90.867 45.594 90.909 45.494 90.993 45.422C91.077 45.346 91.189 45.308 91.329 45.308C91.469 45.308 91.581 45.346 91.665 45.422C91.749 45.494 91.791 45.594 91.791 45.722C91.791 45.846 91.749 45.946 91.665 46.022C91.581 46.094 91.469 46.13 91.329 46.13ZM94.7346 50.06C94.4626 50.06 94.2226 50.01 94.0146 49.91C93.8106 49.806 93.6526 49.658 93.5406 49.466C93.4326 49.27 93.3786 49.042 93.3786 48.782V47.918C93.3786 47.654 93.4326 47.426 93.5406 47.234C93.6526 47.042 93.8106 46.896 94.0146 46.796C94.2226 46.692 94.4626 46.64 94.7346 46.64C95.1306 46.64 95.4486 46.744 95.6886 46.952C95.9286 47.16 96.0546 47.444 96.0666 47.804H95.4186C95.4066 47.616 95.3406 47.47 95.2206 47.366C95.1006 47.262 94.9386 47.21 94.7346 47.21C94.5146 47.21 94.3406 47.272 94.2126 47.396C94.0846 47.516 94.0206 47.688 94.0206 47.912V48.782C94.0206 49.006 94.0846 49.18 94.2126 49.304C94.3406 49.428 94.5146 49.49 94.7346 49.49C94.9386 49.49 95.1006 49.438 95.2206 49.334C95.3406 49.23 95.4066 49.084 95.4186 48.896H96.0666C96.0546 49.256 95.9286 49.54 95.6886 49.748C95.4486 49.956 95.1306 50.06 94.7346 50.06ZM98.0743 50.054C97.8383 50.054 97.6303 50.016 97.4503 49.94C97.2743 49.864 97.1343 49.76 97.0303 49.628C96.9303 49.492 96.8723 49.332 96.8563 49.148H97.5043C97.5203 49.256 97.5783 49.344 97.6783 49.412C97.7783 49.476 97.9103 49.508 98.0743 49.508H98.3323C98.5283 49.508 98.6763 49.468 98.7763 49.388C98.8763 49.308 98.9263 49.202 98.9263 49.07C98.9263 48.942 98.8803 48.842 98.7883 48.77C98.7003 48.694 98.5683 48.644 98.3923 48.62L97.9663 48.554C97.6143 48.498 97.3543 48.398 97.1863 48.254C97.0223 48.106 96.9403 47.888 96.9403 47.6C96.9403 47.296 97.0383 47.062 97.2343 46.898C97.4343 46.73 97.7283 46.646 98.1163 46.646H98.3443C98.6883 46.646 98.9623 46.726 99.1663 46.886C99.3743 47.042 99.4923 47.252 99.5203 47.516H98.8723C98.8563 47.42 98.8023 47.342 98.7103 47.282C98.6223 47.222 98.5003 47.192 98.3443 47.192H98.1163C97.9283 47.192 97.7903 47.228 97.7023 47.3C97.6183 47.368 97.5763 47.47 97.5763 47.606C97.5763 47.726 97.6143 47.816 97.6903 47.876C97.7663 47.936 97.8843 47.978 98.0443 48.002L98.4823 48.074C98.8543 48.126 99.1263 48.23 99.2983 48.386C99.4743 48.538 99.5623 48.76 99.5623 49.052C99.5623 49.368 99.4583 49.614 99.2503 49.79C99.0463 49.966 98.7403 50.054 98.3323 50.054H98.0743Z" fill="#D6D6D6"/>
<g clip-path="url(#clip2_21_69046)">
<path fill-rule="evenodd" clip-rule="evenodd" d="M69.6248 51.5V49.5156C69.6248 49.1307 69.2081 48.8901 68.8748 49.0826L67.1562 50.0747L66.7812 49.4253L68.4998 48.433C68.8332 48.2406 68.8332 47.7594 68.4998 47.567L66.7813 46.5748L67.1563 45.9252L68.8748 46.9174C69.2081 47.1099 69.6248 46.8693 69.6248 46.4844V44.5H70.3748V46.4845C70.3748 46.8694 70.7915 47.1099 71.1248 46.9175L72.8434 45.9252L73.2184 46.5748L71.4999 47.567C71.1665 47.7594 71.1665 48.2406 71.4999 48.433L73.2185 49.4253L72.8435 50.0747L71.1248 49.0825C70.7915 48.8901 70.3748 49.1306 70.3748 49.5155V51.5H69.6248Z" fill="#D6D6D6"/>
</g>
</g>
<g filter="url(#filter1_ddd_21_69046)">
<path d="M133.53 69.8125H65.281C62.6589 69.8125 60.5332 71.746 60.5332 74.1311V82.7683C60.5332 85.1533 62.6589 87.0868 65.281 87.0868H133.53C136.152 87.0868 138.278 85.1533 138.278 82.7683V74.1311C138.278 71.746 136.152 69.8125 133.53 69.8125Z" fill="white"/>
<path d="M133.53 69.8125H65.281C62.6589 69.8125 60.5332 71.746 60.5332 74.1311V82.7683C60.5332 85.1533 62.6589 87.0868 65.281 87.0868H133.53C136.152 87.0868 138.278 85.1533 138.278 82.7683V74.1311C138.278 71.746 136.152 69.8125 133.53 69.8125Z" stroke="#E6E6E6" stroke-width="0.6"/>
<path d="M124.993 75.2109H80.3476C79.2377 75.2109 78.3379 76.0294 78.3379 77.039V79.8608C78.3379 80.8704 79.2377 81.6888 80.3476 81.6888H124.993C126.103 81.6888 127.003 80.8704 127.003 79.8608V77.039C127.003 76.0294 126.103 75.2109 124.993 75.2109Z" fill="#EBECEF"/>
<path d="M73.5904 78.4499C73.5904 76.6611 71.9962 75.2109 70.0296 75.2109C68.063 75.2109 66.4688 76.6611 66.4688 78.4499C66.4688 80.2387 68.063 81.6888 70.0296 81.6888C71.9962 81.6888 73.5904 80.2387 73.5904 78.4499Z" fill="#EBECEF"/>
</g>
<g filter="url(#filter2_ddd_21_69046)">
<path d="M133.53 8.8125H65.281C62.6589 8.8125 60.5332 10.746 60.5332 13.1311V21.7683C60.5332 24.1533 62.6589 26.0868 65.281 26.0868H133.53C136.152 26.0868 138.278 24.1533 138.278 21.7683V13.1311C138.278 10.746 136.152 8.8125 133.53 8.8125Z" fill="white"/>
<path d="M133.53 8.8125H65.281C62.6589 8.8125 60.5332 10.746 60.5332 13.1311V21.7683C60.5332 24.1533 62.6589 26.0868 65.281 26.0868H133.53C136.152 26.0868 138.278 24.1533 138.278 21.7683V13.1311C138.278 10.746 136.152 8.8125 133.53 8.8125Z" stroke="#E6E6E6" stroke-width="0.6"/>
<path d="M124.993 14.2109H80.3476C79.2377 14.2109 78.3379 15.0294 78.3379 16.039V18.8608C78.3379 19.8704 79.2377 20.6888 80.3476 20.6888H124.993C126.103 20.6888 127.003 19.8704 127.003 18.8608V16.039C127.003 15.0294 126.103 14.2109 124.993 14.2109Z" fill="#EBECEF"/>
<path d="M73.5904 17.4499C73.5904 15.6611 71.9962 14.2109 70.0296 14.2109C68.063 14.2109 66.4688 15.6611 66.4688 17.4499C66.4688 19.2387 68.063 20.6888 70.0296 20.6888C71.9962 20.6888 73.5904 19.2387 73.5904 17.4499Z" fill="#EBECEF"/>
</g>
<mask id="path-13-inside-1_21_69046" fill="white">
<path d="M99.5544 57.8029C99.5544 57.7284 99.488 57.668 99.4061 57.668C99.3242 57.668 99.2577 57.7284 99.2577 57.8029H99.5544ZM98.7473 66.9799C98.6654 66.9799 98.6073 67.0711 98.6482 67.1359L99.307 68.1735C99.3479 68.2382 99.4642 68.2382 99.5052 68.1735L100.164 67.1359C100.205 67.0711 100.147 66.9799 100.065 66.9799H98.7473ZM99.2577 57.8029V58.6801H99.5544V57.8029H99.2577ZM99.2577 60.4346V62.189H99.5544V60.4346H99.2577ZM99.2577 63.9434V65.6978H99.5544V63.9434H99.2577Z"/>
</mask>
<path d="M99.5544 57.8029C99.5544 57.7284 99.488 57.668 99.4061 57.668C99.3242 57.668 99.2577 57.7284 99.2577 57.8029H99.5544ZM98.7473 66.9799C98.6654 66.9799 98.6073 67.0711 98.6482 67.1359L99.307 68.1735C99.3479 68.2382 99.4642 68.2382 99.5052 68.1735L100.164 67.1359C100.205 67.0711 100.147 66.9799 100.065 66.9799H98.7473ZM99.2577 57.8029V58.6801H99.5544V57.8029H99.2577ZM99.2577 60.4346V62.189H99.5544V60.4346H99.2577ZM99.2577 63.9434V65.6978H99.5544V63.9434H99.2577Z" fill="#B7BEC7"/>
<path d="M99.2577 58.3029H99.5544V57.3029H99.2577V58.3029ZM98.6482 67.1359L97.8029 67.6703L97.804 67.6719L98.6482 67.1359ZM99.307 68.1735L100.152 67.6391L100.151 67.6375L99.307 68.1735ZM99.5052 68.1735L98.661 67.6375L98.6599 67.6391L99.5052 68.1735ZM100.164 67.1359L101.008 67.6719L101.009 67.6703L100.164 67.1359ZM99.2577 58.6801H98.2577V59.6801H99.2577V58.6801ZM99.5544 58.6801V59.6801H100.554V58.6801H99.5544ZM99.2577 60.4346V59.4346H98.2577V60.4346H99.2577ZM99.2577 62.189H98.2577V63.189H99.2577V62.189ZM99.5544 62.189V63.189H100.554V62.189H99.5544ZM99.5544 60.4346H100.554V59.4346H99.5544V60.4346ZM99.2577 63.9434V62.9434H98.2577V63.9434H99.2577ZM99.2577 65.6978H98.2577V66.6978H99.2577V65.6978ZM99.5544 65.6978V66.6978H100.554V65.6978H99.5544ZM99.5544 63.9434H100.554V62.9434H99.5544V63.9434ZM100.554 57.8029C100.554 57.0891 99.949 56.668 99.4061 56.668V58.668C99.027 58.668 98.5544 58.3678 98.5544 57.8029H100.554ZM99.4061 56.668C98.8632 56.668 98.2577 57.0891 98.2577 57.8029H100.258C100.258 58.3678 99.7852 58.668 99.4061 58.668V56.668ZM98.7473 65.9799C98.3233 65.9799 97.9879 66.214 97.8079 66.4969C97.6279 66.78 97.5323 67.2421 97.8029 67.6703L99.4935 66.6016C99.7232 66.9649 99.6362 67.3491 99.4955 67.5703C99.3548 67.7915 99.0895 67.9799 98.7473 67.9799V65.9799ZM97.804 67.6719L98.4627 68.7095L100.151 67.6375L99.4924 66.5999L97.804 67.6719ZM98.4617 68.7078C98.7158 69.1097 99.13 69.222 99.4061 69.222C99.6822 69.222 100.096 69.1097 100.35 68.7078L98.6599 67.6391C98.873 67.302 99.2086 67.222 99.4061 67.222C99.6035 67.222 99.9391 67.302 100.152 67.6391L98.4617 68.7078ZM100.349 68.7095L101.008 67.6719L99.3197 66.5999L98.661 67.6375L100.349 68.7095ZM101.009 67.6703C101.28 67.2421 101.184 66.78 101.004 66.4969C100.824 66.214 100.489 65.9799 100.065 65.9799V67.9799C99.7227 67.9799 99.4573 67.7915 99.3167 67.5703C99.1759 67.3491 99.089 66.9649 99.3187 66.6016L101.009 67.6703ZM100.065 65.9799H98.7473V67.9799H100.065V65.9799ZM98.2577 57.8029V58.6801H100.258V57.8029H98.2577ZM99.2577 59.6801H99.5544V57.6801H99.2577V59.6801ZM100.554 58.6801V57.8029H98.5544V58.6801H100.554ZM98.2577 60.4346V62.189H100.258V60.4346H98.2577ZM99.2577 63.189H99.5544V61.189H99.2577V63.189ZM100.554 62.189V60.4346H98.5544V62.189H100.554ZM99.5544 59.4346H99.2577V61.4346H99.5544V59.4346ZM98.2577 63.9434V65.6978H100.258V63.9434H98.2577ZM99.2577 66.6978H99.5544V64.6978H99.2577V66.6978ZM100.554 65.6978V63.9434H98.5544V65.6978H100.554ZM99.5544 62.9434H99.2577V64.9434H99.5544V62.9434Z" fill="#E9E9E9" mask="url(#path-13-inside-1_21_69046)"/>
<mask id="path-15-inside-2_21_69046" fill="white">
<path d="M99.5544 27.5725C99.5544 27.4979 99.488 27.4375 99.4061 27.4375C99.3242 27.4375 99.2577 27.4979 99.2577 27.5725H99.5544ZM98.7473 36.2096C98.6654 36.2096 98.6073 36.3009 98.6482 36.3655L99.307 37.4033C99.3479 37.4679 99.4642 37.4679 99.5052 37.4033L100.164 36.3655C100.205 36.3009 100.147 36.2096 100.065 36.2096H98.7473ZM99.2577 27.5725V28.4047H99.5544V27.5725H99.2577ZM99.2577 30.0691V31.7336H99.5544V30.0691H99.2577ZM99.2577 33.3981V35.0625H99.5544V33.3981H99.2577Z"/>
</mask>
<path d="M99.5544 27.5725C99.5544 27.4979 99.488 27.4375 99.4061 27.4375C99.3242 27.4375 99.2577 27.4979 99.2577 27.5725H99.5544ZM98.7473 36.2096C98.6654 36.2096 98.6073 36.3009 98.6482 36.3655L99.307 37.4033C99.3479 37.4679 99.4642 37.4679 99.5052 37.4033L100.164 36.3655C100.205 36.3009 100.147 36.2096 100.065 36.2096H98.7473ZM99.2577 27.5725V28.4047H99.5544V27.5725H99.2577ZM99.2577 30.0691V31.7336H99.5544V30.0691H99.2577ZM99.2577 33.3981V35.0625H99.5544V33.3981H99.2577Z" fill="#B7BEC7"/>
<path d="M99.2577 28.0725H99.5544V27.0725H99.2577V28.0725ZM98.6482 36.3655L97.8037 36.9011L97.8039 36.9014L98.6482 36.3655ZM99.307 37.4033L100.151 36.8677L100.151 36.8675L99.307 37.4033ZM99.5052 37.4033L98.6609 36.8675L98.6607 36.8677L99.5052 37.4033ZM100.164 36.3655L101.008 36.9014L101.008 36.9011L100.164 36.3655ZM99.2577 28.4047H98.2577V29.4047H99.2577V28.4047ZM99.5544 28.4047V29.4047H100.554V28.4047H99.5544ZM99.2577 30.0691V29.0691H98.2577V30.0691H99.2577ZM99.2577 31.7336H98.2577V32.7336H99.2577V31.7336ZM99.5544 31.7336V32.7336H100.554V31.7336H99.5544ZM99.5544 30.0691H100.554V29.0691H99.5544V30.0691ZM99.2577 33.3981V32.3981H98.2577V33.3981H99.2577ZM99.2577 35.0625H98.2577V36.0625H99.2577V35.0625ZM99.5544 35.0625V36.0625H100.554V35.0625H99.5544ZM99.5544 33.3981H100.554V32.3981H99.5544V33.3981ZM100.554 27.5725C100.554 26.8583 99.9487 26.4375 99.4061 26.4375V28.4375C99.0272 28.4375 98.5544 28.1375 98.5544 27.5725H100.554ZM99.4061 26.4375C98.8634 26.4375 98.2577 26.8583 98.2577 27.5725H100.258C100.258 28.1375 99.7849 28.4375 99.4061 28.4375V26.4375ZM98.7473 35.2096C98.3231 35.2096 97.9879 35.4438 97.808 35.7265C97.6283 36.0089 97.5316 36.472 97.8037 36.9011L99.4927 35.8299C99.7239 36.1944 99.6358 36.5795 99.4954 36.8002C99.3548 37.021 99.0896 37.2096 98.7473 37.2096V35.2096ZM97.8039 36.9014L98.4627 37.9392L100.151 36.8675L99.4925 35.8296L97.8039 36.9014ZM98.4625 37.9389C98.7172 38.3405 99.1314 38.4518 99.4061 38.4518C99.6808 38.4518 100.095 38.3405 100.35 37.9389L98.6607 36.8677C98.8745 36.5307 99.21 36.4518 99.4061 36.4518C99.6021 36.4518 99.9377 36.5307 100.151 36.8677L98.4625 37.9389ZM100.349 37.9392L101.008 36.9014L99.3196 35.8296L98.6609 36.8675L100.349 37.9392ZM101.008 36.9011C101.281 36.472 101.184 36.0089 101.004 35.7265C100.824 35.4438 100.489 35.2096 100.065 35.2096V37.2096C99.7225 37.2096 99.4573 37.021 99.3168 36.8002C99.1764 36.5795 99.0883 36.1944 99.3195 35.8299L101.008 36.9011ZM100.065 35.2096H98.7473V37.2096H100.065V35.2096ZM98.2577 27.5725V28.4047H100.258V27.5725H98.2577ZM99.2577 29.4047H99.5544V27.4047H99.2577V29.4047ZM100.554 28.4047V27.5725H98.5544V28.4047H100.554ZM98.2577 30.0691V31.7336H100.258V30.0691H98.2577ZM99.2577 32.7336H99.5544V30.7336H99.2577V32.7336ZM100.554 31.7336V30.0691H98.5544V31.7336H100.554ZM99.5544 29.0691H99.2577V31.0691H99.5544V29.0691ZM98.2577 33.3981V35.0625H100.258V33.3981H98.2577ZM99.2577 36.0625H99.5544V34.0625H99.2577V36.0625ZM100.554 35.0625V33.3981H98.5544V35.0625H100.554ZM99.5544 32.3981H99.2577V34.3981H99.5544V32.3981Z" fill="#E9E9E9" mask="url(#path-15-inside-2_21_69046)"/>
<path d="M182.492 -9V112.46" stroke="#E9E9E9" stroke-width="0.5" stroke-dasharray="3 3"/>
<path d="M15.7266 -9V112.46" stroke="#E9E9E9" stroke-width="0.5" stroke-dasharray="3 3"/>
<path d="M60.2383 -8.73047V112.73" stroke="#E9E9E9" stroke-width="0.5" stroke-dasharray="3 3"/>
<path d="M138.576 -8.73047V112.73" stroke="#E9E9E9" stroke-width="0.5" stroke-dasharray="3 3"/>
<path d="M0.296875 86.8203H199.703" stroke="#E9E9E9" stroke-width="0.5" stroke-dasharray="3 3"/>
<path d="M0 8.54297H198.516" stroke="#E9E9E9" stroke-width="0.5" stroke-dasharray="3 3"/>
</g>
</g>
<defs>
<filter id="filter0_ddd_21_69046" x="55.9995" y="35.7422" width="86.8116" height="29.3409" filterUnits="userSpaceOnUse" color-interpolation-filters="sRGB">
<feFlood flood-opacity="0" result="BackgroundImageFix"/>
<feColorMatrix in="SourceAlpha" type="matrix" values="0 0 0 0 0 0 0 0 0 0 0 0 0 0 0 0 0 0 127 0" result="hardAlpha"/>
<feOffset dy="1.69318"/>
<feGaussianBlur stdDeviation="0.846589"/>
<feColorMatrix type="matrix" values="0 0 0 0 0.121569 0 0 0 0 0.156863 0 0 0 0 0.215686 0 0 0 0.02 0"/>
<feBlend mode="normal" in2="BackgroundImageFix" result="effect1_dropShadow_21_69046"/>
<feColorMatrix in="SourceAlpha" type="matrix" values="0 0 0 0 0 0 0 0 0 0 0 0 0 0 0 0 0 0 127 0" result="hardAlpha"/>
<feOffset dy="4.23295"/>
<feGaussianBlur stdDeviation="2.11647"/>
<feColorMatrix type="matrix" values="0 0 0 0 0.121569 0 0 0 0 0.156863 0 0 0 0 0.215686 0 0 0 0.02 0"/>
<feBlend mode="normal" in2="effect1_dropShadow_21_69046" result="effect2_dropShadow_21_69046"/>
<feColorMatrix in="SourceAlpha" type="matrix" values="0 0 0 0 0 0 0 0 0 0 0 0 0 0 0 0 0 0 127 0" result="hardAlpha"/>
<feOffset dy="-3"/>
<feComposite in2="hardAlpha" operator="out"/>
<feColorMatrix type="matrix" values="0 0 0 0 0.97 0 0 0 0 0.97 0 0 0 0 0.97 0 0 0 1 0"/>
<feBlend mode="normal" in2="effect2_dropShadow_21_69046" result="effect3_dropShadow_21_69046"/>
<feBlend mode="normal" in="SourceGraphic" in2="effect3_dropShadow_21_69046" result="shape"/>
</filter>
<filter id="filter1_ddd_21_69046" x="55.9995" y="66.5117" width="86.8116" height="29.3409" filterUnits="userSpaceOnUse" color-interpolation-filters="sRGB">
<feFlood flood-opacity="0" result="BackgroundImageFix"/>
<feColorMatrix in="SourceAlpha" type="matrix" values="0 0 0 0 0 0 0 0 0 0 0 0 0 0 0 0 0 0 127 0" result="hardAlpha"/>
<feOffset dy="1.69318"/>
<feGaussianBlur stdDeviation="0.846589"/>
<feColorMatrix type="matrix" values="0 0 0 0 0.121569 0 0 0 0 0.156863 0 0 0 0 0.215686 0 0 0 0.02 0"/>
<feBlend mode="normal" in2="BackgroundImageFix" result="effect1_dropShadow_21_69046"/>
<feColorMatrix in="SourceAlpha" type="matrix" values="0 0 0 0 0 0 0 0 0 0 0 0 0 0 0 0 0 0 127 0" result="hardAlpha"/>
<feOffset dy="4.23295"/>
<feGaussianBlur stdDeviation="2.11647"/>
<feColorMatrix type="matrix" values="0 0 0 0 0.121569 0 0 0 0 0.156863 0 0 0 0 0.215686 0 0 0 0.02 0"/>
<feBlend mode="normal" in2="effect1_dropShadow_21_69046" result="effect2_dropShadow_21_69046"/>
<feColorMatrix in="SourceAlpha" type="matrix" values="0 0 0 0 0 0 0 0 0 0 0 0 0 0 0 0 0 0 127 0" result="hardAlpha"/>
<feOffset dy="-3"/>
<feComposite in2="hardAlpha" operator="out"/>
<feColorMatrix type="matrix" values="0 0 0 0 0.97 0 0 0 0 0.97 0 0 0 0 0.97 0 0 0 1 0"/>
<feBlend mode="normal" in2="effect2_dropShadow_21_69046" result="effect3_dropShadow_21_69046"/>
<feBlend mode="normal" in="SourceGraphic" in2="effect3_dropShadow_21_69046" result="shape"/>
</filter>
<filter id="filter2_ddd_21_69046" x="55.9995" y="5.51172" width="86.8116" height="29.3409" filterUnits="userSpaceOnUse" color-interpolation-filters="sRGB">
<feFlood flood-opacity="0" result="BackgroundImageFix"/>
<feColorMatrix in="SourceAlpha" type="matrix" values="0 0 0 0 0 0 0 0 0 0 0 0 0 0 0 0 0 0 127 0" result="hardAlpha"/>
<feOffset dy="1.69318"/>
<feGaussianBlur stdDeviation="0.846589"/>
<feColorMatrix type="matrix" values="0 0 0 0 0.121569 0 0 0 0 0.156863 0 0 0 0 0.215686 0 0 0 0.02 0"/>
<feBlend mode="normal" in2="BackgroundImageFix" result="effect1_dropShadow_21_69046"/>
<feColorMatrix in="SourceAlpha" type="matrix" values="0 0 0 0 0 0 0 0 0 0 0 0 0 0 0 0 0 0 127 0" result="hardAlpha"/>
<feOffset dy="4.23295"/>
<feGaussianBlur stdDeviation="2.11647"/>
<feColorMatrix type="matrix" values="0 0 0 0 0.121569 0 0 0 0 0.156863 0 0 0 0 0.215686 0 0 0 0.02 0"/>
<feBlend mode="normal" in2="effect1_dropShadow_21_69046" result="effect2_dropShadow_21_69046"/>
<feColorMatrix in="SourceAlpha" type="matrix" values="0 0 0 0 0 0 0 0 0 0 0 0 0 0 0 0 0 0 127 0" result="hardAlpha"/>
<feOffset dy="-3"/>
<feComposite in2="hardAlpha" operator="out"/>
<feColorMatrix type="matrix" values="0 0 0 0 0.97 0 0 0 0 0.97 0 0 0 0 0.97 0 0 0 1 0"/>
<feBlend mode="normal" in2="effect2_dropShadow_21_69046" result="effect3_dropShadow_21_69046"/>
<feBlend mode="normal" in="SourceGraphic" in2="effect3_dropShadow_21_69046" result="shape"/>
</filter>
<clipPath id="clip0_21_69046">
<rect width="200" height="95" fill="white"/>
</clipPath>
<clipPath id="clip1_21_69046">
<rect width="200" height="122" fill="white" transform="translate(0 -9)"/>
</clipPath>
<clipPath id="clip2_21_69046">
<rect width="8" height="8" fill="white" transform="translate(66 44)"/>
</clipPath>
</defs>
</svg>
