<svg width="200" height="95" viewBox="0 0 200 95" fill="none" xmlns="http://www.w3.org/2000/svg">
<g clip-path="url(#clip0_16_71718)">
<rect width="200" height="95" fill="#F9FAFB"/>
<g filter="url(#filter0_ddd_16_71718)">
<g opacity="0.72" filter="url(#filter1_ddd_16_71718)">
<path d="M57.6895 35.0586C57.6895 30.224 61.609 26.3047 66.4434 26.3047H180.245C185.079 26.3047 188.999 30.224 188.999 35.0586V169.286C188.999 174.12 185.079 178.04 180.245 178.04H66.4434C61.609 178.04 57.6895 174.12 57.6895 169.286V35.0586Z" fill="white"/>
<path d="M58.0547 35.0572C58.0547 30.4239 61.8109 26.668 66.4439 26.668H180.245C184.878 26.668 188.634 30.4239 188.634 35.0572V169.284C188.634 173.917 184.878 177.674 180.245 177.674H66.4439C61.8109 177.674 58.0547 173.917 58.0547 169.284V35.0572Z" stroke="#E6E6E6"/>
<path d="M109.487 62.7773H70.8242C70.0184 62.7773 69.3652 63.4306 69.3652 64.2363V67.1543C69.3652 67.9601 70.0184 68.6133 70.8242 68.6133H109.487C110.293 68.6133 110.946 67.9601 110.946 67.1543V64.2363C110.946 63.4306 110.293 62.7773 109.487 62.7773Z" fill="#EBECEF"/>
<path d="M141.577 36.5117H105.832C104.22 36.5117 102.914 37.8181 102.914 39.4297C102.914 41.0413 104.22 42.3477 105.832 42.3477H141.577C143.189 42.3477 144.495 41.0413 144.495 39.4297C144.495 37.8181 143.189 36.5117 141.577 36.5117Z" fill="#EBECEF"/>
<path d="M121.159 71.5312H70.8242C70.0184 71.5312 69.3652 72.1845 69.3652 72.9902V75.9082C69.3652 76.714 70.0184 77.3672 70.8242 77.3672H121.159C121.965 77.3672 122.618 76.714 122.618 75.9082V72.9902C122.618 72.1845 121.965 71.5312 121.159 71.5312Z" fill="#EBECEF"/>
<path d="M174.857 42.3516H132.38C131.016 42.3516 129.91 43.4576 129.91 44.8219V93.1344C129.91 94.4987 131.016 95.6047 132.38 95.6047H174.857C176.221 95.6047 177.327 94.4987 177.327 93.1344V44.8219C177.327 43.4576 176.221 42.3516 174.857 42.3516Z" fill="#F3F4F6"/>
<path d="M121.607 83.2109H71.8356C70.4712 83.2109 69.3652 84.3169 69.3652 85.6813V89.4946C69.3652 90.8589 70.4712 91.9649 71.8356 91.9649H121.607C122.971 91.9649 124.077 90.8589 124.077 89.4946V85.6813C124.077 84.3169 122.971 83.2109 121.607 83.2109Z" fill="#101010"/>
<mask id="mask0_16_71718" style="mask-type:luminance" maskUnits="userSpaceOnUse" x="69" y="36" width="24" height="6">
<path d="M92.7052 36.5078H69.3613V41.6143H92.7052V36.5078Z" fill="white"/>
</mask>
<g mask="url(#mask0_16_71718)">
<g opacity="0.8">
<path d="M71.6862 41.3405C70.36 41.3405 69.3613 40.2866 69.3613 38.9853C69.3613 37.6798 70.3089 36.6172 71.6862 36.6172C72.4172 36.6172 72.9227 36.8427 73.3181 37.3589L72.6805 37.8923C72.4128 37.6061 72.0896 37.463 71.6862 37.463C70.7889 37.463 70.2965 38.1526 70.2965 38.9853C70.2965 39.8181 70.8364 40.4947 71.6862 40.4947C72.0853 40.4947 72.4252 40.3516 72.6929 40.0654L73.3225 40.6205C72.9439 41.115 72.4252 41.3405 71.6862 41.3405Z" fill="#292929"/>
<path d="M76.0703 37.8697H76.9289V41.2528H76.0703V40.7583C75.8916 41.1097 75.5939 41.3439 75.0249 41.3439C74.1152 41.3439 73.3887 40.5501 73.3887 39.5743C73.3887 38.5984 74.1152 37.8047 75.0249 37.8047C75.5896 37.8047 75.8916 38.0389 76.0703 38.3902V37.8697ZM76.0958 39.5743C76.0958 39.0451 75.734 38.6071 75.165 38.6071C74.6164 38.6071 74.2597 39.0494 74.2597 39.5743C74.2597 40.086 74.6164 40.5415 75.165 40.5415C75.7304 40.5415 76.0958 40.0991 76.0958 39.5743Z" fill="#292929"/>
<path d="M77.5371 36.5078H78.3957V41.2528H77.5371V36.5078Z" fill="#292929"/>
<path d="M78.7754 40.8048C78.7754 40.5272 78.9964 40.293 79.2984 40.293C79.6004 40.293 79.8127 40.5272 79.8127 40.8048C79.8127 41.091 79.5961 41.3253 79.2984 41.3253C79.0008 41.3253 78.7754 41.091 78.7754 40.8048Z" fill="#292929"/>
<path d="M83.097 40.7063C82.7782 41.0967 82.2938 41.3439 81.7197 41.3439C80.6955 41.3439 79.9434 40.5501 79.9434 39.5743C79.9434 38.5984 80.6955 37.8047 81.7197 37.8047C82.2719 37.8047 82.7527 38.0389 83.0714 38.4075L82.4083 38.9671C82.2427 38.7589 82.0261 38.6027 81.7197 38.6027C81.1718 38.6027 80.8144 39.0451 80.8144 39.5699C80.8144 40.0947 81.1718 40.5372 81.7197 40.5372C82.0509 40.5372 82.2807 40.3637 82.4506 40.1294L83.097 40.7063Z" fill="#292929"/>
<path d="M83.1738 39.5743C83.1738 38.5984 83.9259 37.8047 84.9502 37.8047C85.9744 37.8047 86.7265 38.5984 86.7265 39.5743C86.7265 40.5501 85.9744 41.3439 84.9502 41.3439C83.9259 41.3395 83.1738 40.5501 83.1738 39.5743ZM85.8555 39.5743C85.8555 39.0451 85.498 38.6071 84.9502 38.6071C84.4016 38.6027 84.0448 39.0451 84.0448 39.5743C84.0448 40.0991 84.4016 40.5415 84.9502 40.5415C85.498 40.5415 85.8555 40.0991 85.8555 39.5743Z" fill="#292929"/>
<path d="M92.5292 39.1857V41.2502H91.6706V39.3982C91.6706 38.8127 91.3985 38.5611 90.9907 38.5611C90.6085 38.5611 90.3364 38.7519 90.3364 39.3982V41.2502H89.4778V39.3982C89.4778 38.8127 89.2013 38.5611 88.7979 38.5611C88.4156 38.5611 88.0793 38.7519 88.0793 39.3982V41.2502H87.2207V37.8671H88.0793V38.3356C88.258 37.9712 88.5812 37.7891 89.078 37.7891C89.55 37.7891 89.9454 38.0233 90.162 38.418C90.3787 38.0146 90.6975 37.7891 91.2752 37.7891C91.9807 37.7934 92.5292 38.3312 92.5292 39.1857Z" fill="#292929"/>
</g>
</g>
</g>
<g opacity="0.72" filter="url(#filter2_ddd_16_71718)">
<mask id="mask1_16_71718" style="mask-type:luminance" maskUnits="userSpaceOnUse" x="11" y="26" width="132" height="153">
<path d="M11 35.0743C11 30.2396 14.9193 26.3203 19.7539 26.3203H133.555C138.39 26.3203 142.309 30.2396 142.309 35.0743V169.301C142.309 174.136 138.39 178.055 133.555 178.055H19.7539C14.9193 178.055 11 174.136 11 169.301V35.0743Z" fill="white"/>
</mask>
<g mask="url(#mask1_16_71718)">
<path d="M11 35.0743C11 30.2396 14.9193 26.3203 19.7539 26.3203H133.555C138.39 26.3203 142.309 30.2396 142.309 35.0743V169.301C142.309 174.136 138.39 178.055 133.555 178.055H19.7539C14.9193 178.055 11 174.136 11 169.301V35.0743Z" fill="white"/>
<path d="M62.798 37.9922H24.1348C23.329 37.9922 22.6758 38.6454 22.6758 39.4512V78.1144C22.6758 78.9202 23.329 79.5734 24.1348 79.5734H62.798C63.6038 79.5734 64.257 78.9202 64.257 78.1144V39.4512C64.257 38.6454 63.6038 37.9922 62.798 37.9922Z" fill="#EBECEF"/>
<path d="M94.8879 36.5273H59.1426C57.531 36.5273 56.2246 37.8338 56.2246 39.4453C56.2246 41.0569 57.531 42.3633 59.1426 42.3633H94.8879C96.4994 42.3633 97.8059 41.0569 97.8059 39.4453C97.8059 37.8338 96.4994 36.5273 94.8879 36.5273Z" fill="#EBECEF"/>
<path d="M74.47 85.4141H24.1348C23.329 85.4141 22.6758 86.0673 22.6758 86.8731V89.791C22.6758 90.5968 23.329 91.25 24.1348 91.25H74.47C75.2757 91.25 75.929 90.5968 75.929 89.791V86.8731C75.929 86.0673 75.2757 85.4141 74.47 85.4141Z" fill="#EBECEF"/>
<path d="M128.168 42.3672H85.691C84.3267 42.3672 83.2207 43.4732 83.2207 44.8375V93.15C83.2207 94.5144 84.3267 95.6204 85.691 95.6204H128.168C129.532 95.6204 130.638 94.5144 130.638 93.15V44.8375C130.638 43.4732 129.532 42.3672 128.168 42.3672Z" fill="#F3F4F6"/>
</g>
<path d="M11.3652 35.065C11.3652 30.4317 15.1212 26.6758 19.7544 26.6758H133.556C138.189 26.6758 141.945 30.4317 141.945 35.065V169.292C141.945 173.925 138.189 177.681 133.556 177.681H19.7544C15.1212 177.681 11.3652 173.925 11.3652 169.292V35.065Z" stroke="#E6E6E6"/>
</g>
<g filter="url(#filter3_ddd_16_71718)">
<mask id="mask2_16_71718" style="mask-type:luminance" maskUnits="userSpaceOnUse" x="34" y="11" width="132" height="152">
<path d="M34.3516 19.7539C34.3516 14.9193 38.2709 11 43.1055 11H156.907C161.741 11 165.661 14.9193 165.661 19.7539V153.981C165.661 158.816 161.741 162.735 156.907 162.735H43.1055C38.2709 162.735 34.3516 158.816 34.3516 153.981V19.7539Z" fill="white"/>
</mask>
<g mask="url(#mask2_16_71718)">
<path d="M34.3516 19.7539C34.3516 14.9193 38.2709 11 43.1055 11H156.907C161.741 11 165.661 14.9193 165.661 19.7539V153.981C165.661 158.816 161.741 162.735 156.907 162.735H43.1055C38.2709 162.735 34.3516 158.816 34.3516 153.981V19.7539Z" fill="white"/>
<path d="M42.504 90V86.7H43.146V87.33H43.302L43.146 87.48C43.146 87.216 43.224 87.01 43.38 86.862C43.536 86.714 43.752 86.64 44.028 86.64C44.356 86.64 44.618 86.746 44.814 86.958C45.01 87.166 45.108 87.448 45.108 87.804V90H44.46V87.876C44.46 87.66 44.402 87.494 44.286 87.378C44.17 87.262 44.012 87.204 43.812 87.204C43.608 87.204 43.446 87.266 43.326 87.39C43.21 87.51 43.152 87.686 43.152 87.918V90H42.504ZM47.2777 90.054C47.0057 90.054 46.7697 90.002 46.5697 89.898C46.3697 89.794 46.2157 89.646 46.1077 89.454C45.9997 89.262 45.9457 89.036 45.9457 88.776V87.924C45.9457 87.66 45.9997 87.434 46.1077 87.246C46.2157 87.054 46.3697 86.906 46.5697 86.802C46.7697 86.698 47.0057 86.646 47.2777 86.646C47.5497 86.646 47.7857 86.698 47.9857 86.802C48.1857 86.906 48.3397 87.054 48.4477 87.246C48.5557 87.434 48.6097 87.66 48.6097 87.924V88.776C48.6097 89.036 48.5557 89.262 48.4477 89.454C48.3397 89.646 48.1857 89.794 47.9857 89.898C47.7857 90.002 47.5497 90.054 47.2777 90.054ZM47.2777 89.484C47.4977 89.484 47.6677 89.424 47.7877 89.304C47.9077 89.18 47.9677 89.004 47.9677 88.776V87.924C47.9677 87.692 47.9077 87.516 47.7877 87.396C47.6677 87.276 47.4977 87.216 47.2777 87.216C47.0617 87.216 46.8917 87.276 46.7677 87.396C46.6477 87.516 46.5877 87.692 46.5877 87.924V88.776C46.5877 89.004 46.6477 89.18 46.7677 89.304C46.8917 89.424 47.0617 89.484 47.2777 89.484ZM50.3293 90L49.2373 86.7H49.8973L50.5753 88.812C50.6193 88.936 50.6573 89.062 50.6893 89.19C50.7253 89.314 50.7513 89.412 50.7673 89.484C50.7873 89.412 50.8133 89.314 50.8453 89.19C50.8813 89.062 50.9173 88.936 50.9533 88.812L51.6193 86.7H52.2733L51.1813 90H50.3293ZM54.227 90.06C53.831 90.06 53.515 89.946 53.279 89.718C53.043 89.486 52.925 89.172 52.925 88.776V86.7H53.573V88.776C53.573 89.004 53.631 89.182 53.747 89.31C53.863 89.434 54.023 89.496 54.227 89.496C54.435 89.496 54.597 89.434 54.713 89.31C54.833 89.182 54.893 89.004 54.893 88.776V86.7H55.541V88.776C55.541 89.172 55.421 89.486 55.181 89.718C54.945 89.946 54.627 90.06 54.227 90.06ZM63.8979 86.25H64.6599L66.0219 88.02L64.6539 89.79H63.8979L64.9779 88.41C64.9899 88.394 65.0019 88.378 65.0139 88.362C65.0259 88.346 65.0379 88.33 65.0499 88.314H59.7699V87.726H65.0439C65.0319 87.71 65.0179 87.694 65.0019 87.678C64.9899 87.658 64.9759 87.638 64.9599 87.618L63.8979 86.25ZM71.9813 90C71.6813 90 71.4473 89.918 71.2793 89.754C71.1113 89.59 71.0273 89.362 71.0273 89.07V87.288H70.1153V86.7H71.0273V85.77H71.6753V86.7H72.9653V87.288H71.6753V89.07C71.6753 89.298 71.7853 89.412 72.0053 89.412H72.9053V90H71.9813ZM75.0989 90.054C74.8269 90.054 74.5909 90.002 74.3909 89.898C74.1909 89.794 74.0369 89.646 73.9289 89.454C73.8209 89.262 73.7669 89.036 73.7669 88.776V87.924C73.7669 87.66 73.8209 87.434 73.9289 87.246C74.0369 87.054 74.1909 86.906 74.3909 86.802C74.5909 86.698 74.8269 86.646 75.0989 86.646C75.3709 86.646 75.6069 86.698 75.8069 86.802C76.0069 86.906 76.1609 87.054 76.2689 87.246C76.3769 87.434 76.4309 87.66 76.4309 87.924V88.776C76.4309 89.036 76.3769 89.262 76.2689 89.454C76.1609 89.646 76.0069 89.794 75.8069 89.898C75.6069 90.002 75.3709 90.054 75.0989 90.054ZM75.0989 89.484C75.3189 89.484 75.4889 89.424 75.6089 89.304C75.7289 89.18 75.7889 89.004 75.7889 88.776V87.924C75.7889 87.692 75.7289 87.516 75.6089 87.396C75.4889 87.276 75.3189 87.216 75.0989 87.216C74.8829 87.216 74.7129 87.276 74.5889 87.396C74.4689 87.516 74.4089 87.692 74.4089 87.924V88.776C74.4089 89.004 74.4689 89.18 74.5889 89.304C74.7129 89.424 74.8829 89.484 75.0989 89.484ZM77.2806 91.08V86.7H77.9226V87.33H78.0606L77.9226 87.48C77.9226 87.22 78.0026 87.016 78.1626 86.868C78.3266 86.716 78.5446 86.64 78.8166 86.64C79.1486 86.64 79.4126 86.752 79.6086 86.976C79.8086 87.196 79.9086 87.498 79.9086 87.882V88.812C79.9086 89.068 79.8626 89.29 79.7706 89.478C79.6826 89.662 79.5566 89.806 79.3926 89.91C79.2326 90.01 79.0406 90.06 78.8166 90.06C78.5486 90.06 78.3326 89.986 78.1686 89.838C78.0046 89.686 77.9226 89.48 77.9226 89.22L78.0606 89.37H77.9106L77.9286 90.138V91.08H77.2806ZM78.5946 89.496C78.8066 89.496 78.9706 89.436 79.0866 89.316C79.2066 89.192 79.2666 89.014 79.2666 88.782V87.918C79.2666 87.686 79.2066 87.51 79.0866 87.39C78.9706 87.266 78.8066 87.204 78.5946 87.204C78.3906 87.204 78.2286 87.268 78.1086 87.396C77.9886 87.52 77.9286 87.694 77.9286 87.918V88.782C77.9286 89.006 77.9886 89.182 78.1086 89.31C78.2286 89.434 78.3906 89.496 78.5946 89.496ZM80.7402 90V89.412H81.8982V87.288H80.8902V86.7H82.5282V89.412H83.5902V90H80.7402ZM82.1502 86.13C82.0102 86.13 81.8982 86.094 81.8142 86.022C81.7302 85.946 81.6882 85.846 81.6882 85.722C81.6882 85.594 81.7302 85.494 81.8142 85.422C81.8982 85.346 82.0102 85.308 82.1502 85.308C82.2902 85.308 82.4022 85.346 82.4862 85.422C82.5702 85.494 82.6122 85.594 82.6122 85.722C82.6122 85.846 82.5702 85.946 82.4862 86.022C82.4022 86.094 82.2902 86.13 82.1502 86.13ZM85.5559 90.06C85.2839 90.06 85.0439 90.01 84.8359 89.91C84.6319 89.806 84.4739 89.658 84.3619 89.466C84.2539 89.27 84.1999 89.042 84.1999 88.782V87.918C84.1999 87.654 84.2539 87.426 84.3619 87.234C84.4739 87.042 84.6319 86.896 84.8359 86.796C85.0439 86.692 85.2839 86.64 85.5559 86.64C85.9519 86.64 86.2699 86.744 86.5099 86.952C86.7499 87.16 86.8759 87.444 86.8879 87.804H86.2399C86.2279 87.616 86.1619 87.47 86.0419 87.366C85.9219 87.262 85.7599 87.21 85.5559 87.21C85.3359 87.21 85.1619 87.272 85.0339 87.396C84.9059 87.516 84.8419 87.688 84.8419 87.912V88.782C84.8419 89.006 84.9059 89.18 85.0339 89.304C85.1619 89.428 85.3359 89.49 85.5559 89.49C85.7599 89.49 85.9219 89.438 86.0419 89.334C86.1619 89.23 86.2279 89.084 86.2399 88.896H86.8879C86.8759 89.256 86.7499 89.54 86.5099 89.748C86.2699 89.956 85.9519 90.06 85.5559 90.06ZM88.8955 90.054C88.6595 90.054 88.4515 90.016 88.2715 89.94C88.0955 89.864 87.9555 89.76 87.8515 89.628C87.7515 89.492 87.6935 89.332 87.6775 89.148H88.3255C88.3415 89.256 88.3995 89.344 88.4995 89.412C88.5995 89.476 88.7315 89.508 88.8955 89.508L89.1535 89.508C89.3495 89.508 89.4975 89.468 89.5975 89.388C89.6975 89.308 89.7475 89.202 89.7475 89.07C89.7475 88.942 89.7015 88.842 89.6095 88.77C89.5215 88.694 89.3895 88.644 89.2135 88.62L88.7875 88.554C88.4355 88.498 88.1755 88.398 88.0075 88.254C87.8435 88.106 87.7615 87.888 87.7615 87.6C87.7615 87.296 87.8595 87.062 88.0555 86.898C88.2555 86.73 88.5495 86.646 88.9375 86.646H89.1655C89.5095 86.646 89.7835 86.726 89.9875 86.886C90.1955 87.042 90.3135 87.252 90.3415 87.516H89.6935C89.6775 87.42 89.6235 87.342 89.5315 87.282C89.4435 87.222 89.3215 87.192 89.1655 87.192H88.9375C88.7495 87.192 88.6115 87.228 88.5235 87.3C88.4395 87.368 88.3975 87.47 88.3975 87.606C88.3975 87.726 88.4355 87.816 88.5115 87.876C88.5875 87.936 88.7055 87.978 88.8655 88.002L89.3035 88.074C89.6755 88.126 89.9475 88.23 90.1195 88.386C90.2955 88.538 90.3835 88.76 90.3835 89.052C90.3835 89.368 90.2795 89.614 90.0715 89.79C89.8675 89.966 89.5615 90.054 89.1535 90.054L88.8955 90.054Z" fill="#BCBCBC"/>
<rect x="70.25" y="25.25" width="59" height="19.625" rx="3.75" stroke="#E6E6E6" stroke-width="0.5"/>
<rect x="72.5" y="27.5" width="54.5" height="15.125" rx="2.5" stroke="#F3F4F6" stroke-opacity="0.24"/>
<g clip-path="url(#clip1_16_71718)">
<path fill-rule="evenodd" clip-rule="evenodd" d="M99.3748 38.5625V36.5781C99.3748 36.1932 98.9581 35.9526 98.6248 36.1451L96.9062 37.1372L96.5312 36.4878L98.2498 35.4955C98.5832 35.3031 98.5832 34.8219 98.2498 34.6295L96.5313 33.6373L96.9063 32.9877L98.6248 33.9799C98.9581 34.1724 99.3748 33.9318 99.3748 33.5469V31.5625H100.125V33.547C100.125 33.9319 100.541 34.1724 100.875 33.98L102.593 32.9877L102.968 33.6373L101.25 34.6295C100.917 34.8219 100.917 35.3031 101.25 35.4955L102.968 36.4878L102.593 37.1372L100.875 36.145C100.541 35.9526 100.125 36.1931 100.125 36.578V38.5625H99.3748Z" fill="#E6E6E6"/>
</g>
</g>
<path d="M34.7109 19.7447C34.7109 15.1114 38.4669 11.3555 43.1001 11.3555H156.901C161.534 11.3555 165.291 15.1114 165.291 19.7447V153.972C165.291 158.605 161.534 162.361 156.901 162.361H43.1001C38.4669 162.361 34.7109 158.605 34.7109 153.972V19.7447Z" stroke="#E6E6E6"/>
</g>
</g>
</g>
<defs>
<filter id="filter0_ddd_16_71718" x="5.86523" y="10.8555" width="188.27" height="177.324" filterUnits="userSpaceOnUse" color-interpolation-filters="sRGB">
<feFlood flood-opacity="0" result="BackgroundImageFix"/>
<feColorMatrix in="SourceAlpha" type="matrix" values="0 0 0 0 0 0 0 0 0 0 0 0 0 0 0 0 0 0 127 0" result="hardAlpha"/>
<feOffset dy="2"/>
<feGaussianBlur stdDeviation="1"/>
<feColorMatrix type="matrix" values="0 0 0 0 0.121569 0 0 0 0 0.156863 0 0 0 0 0.215686 0 0 0 0.02 0"/>
<feBlend mode="normal" in2="BackgroundImageFix" result="effect1_dropShadow_16_71718"/>
<feColorMatrix in="SourceAlpha" type="matrix" values="0 0 0 0 0 0 0 0 0 0 0 0 0 0 0 0 0 0 127 0" result="hardAlpha"/>
<feOffset dy="5"/>
<feGaussianBlur stdDeviation="2.5"/>
<feColorMatrix type="matrix" values="0 0 0 0 0.121569 0 0 0 0 0.156863 0 0 0 0 0.215686 0 0 0 0.02 0"/>
<feBlend mode="normal" in2="effect1_dropShadow_16_71718" result="effect2_dropShadow_16_71718"/>
<feColorMatrix in="SourceAlpha" type="matrix" values="0 0 0 0 0 0 0 0 0 0 0 0 0 0 0 0 0 0 127 0" result="hardAlpha"/>
<feOffset dy="4.23"/>
<feComposite in2="hardAlpha" operator="out"/>
<feColorMatrix type="matrix" values="0 0 0 0 0.97 0 0 0 0 0.97 0 0 0 0 0.97 0 0 0 1 0"/>
<feBlend mode="normal" in2="effect2_dropShadow_16_71718" result="effect3_dropShadow_16_71718"/>
<feBlend mode="normal" in="SourceGraphic" in2="effect3_dropShadow_16_71718" result="shape"/>
</filter>
<filter id="filter1_ddd_16_71718" x="53.3217" y="22.168" width="140.046" height="164.47" filterUnits="userSpaceOnUse" color-interpolation-filters="sRGB">
<feFlood flood-opacity="0" result="BackgroundImageFix"/>
<feColorMatrix in="SourceAlpha" type="matrix" values="0 0 0 0 0 0 0 0 0 0 0 0 0 0 0 0 0 0 127 0" result="hardAlpha"/>
<feOffset dy="1.69318"/>
<feGaussianBlur stdDeviation="0.846589"/>
<feColorMatrix type="matrix" values="0 0 0 0 0.121569 0 0 0 0 0.156863 0 0 0 0 0.215686 0 0 0 0.02 0"/>
<feBlend mode="normal" in2="BackgroundImageFix" result="effect1_dropShadow_16_71718"/>
<feColorMatrix in="SourceAlpha" type="matrix" values="0 0 0 0 0 0 0 0 0 0 0 0 0 0 0 0 0 0 127 0" result="hardAlpha"/>
<feOffset dy="4.23295"/>
<feGaussianBlur stdDeviation="2.11647"/>
<feColorMatrix type="matrix" values="0 0 0 0 0.121569 0 0 0 0 0.156863 0 0 0 0 0.215686 0 0 0 0.02 0"/>
<feBlend mode="normal" in2="effect1_dropShadow_16_71718" result="effect2_dropShadow_16_71718"/>
<feColorMatrix in="SourceAlpha" type="matrix" values="0 0 0 0 0 0 0 0 0 0 0 0 0 0 0 0 0 0 127 0" result="hardAlpha"/>
<feOffset dy="-4"/>
<feComposite in2="hardAlpha" operator="out"/>
<feColorMatrix type="matrix" values="0 0 0 0 0.97 0 0 0 0 0.97 0 0 0 0 0.97 0 0 0 1 0"/>
<feBlend mode="normal" in2="effect2_dropShadow_16_71718" result="effect3_dropShadow_16_71718"/>
<feBlend mode="normal" in="SourceGraphic" in2="effect3_dropShadow_16_71718" result="shape"/>
</filter>
<filter id="filter2_ddd_16_71718" x="6.63229" y="22.1758" width="140.046" height="164.47" filterUnits="userSpaceOnUse" color-interpolation-filters="sRGB">
<feFlood flood-opacity="0" result="BackgroundImageFix"/>
<feColorMatrix in="SourceAlpha" type="matrix" values="0 0 0 0 0 0 0 0 0 0 0 0 0 0 0 0 0 0 127 0" result="hardAlpha"/>
<feOffset dy="1.69318"/>
<feGaussianBlur stdDeviation="0.846589"/>
<feColorMatrix type="matrix" values="0 0 0 0 0.121569 0 0 0 0 0.156863 0 0 0 0 0.215686 0 0 0 0.02 0"/>
<feBlend mode="normal" in2="BackgroundImageFix" result="effect1_dropShadow_16_71718"/>
<feColorMatrix in="SourceAlpha" type="matrix" values="0 0 0 0 0 0 0 0 0 0 0 0 0 0 0 0 0 0 127 0" result="hardAlpha"/>
<feOffset dy="4.23295"/>
<feGaussianBlur stdDeviation="2.11647"/>
<feColorMatrix type="matrix" values="0 0 0 0 0.121569 0 0 0 0 0.156863 0 0 0 0 0.215686 0 0 0 0.02 0"/>
<feBlend mode="normal" in2="effect1_dropShadow_16_71718" result="effect2_dropShadow_16_71718"/>
<feColorMatrix in="SourceAlpha" type="matrix" values="0 0 0 0 0 0 0 0 0 0 0 0 0 0 0 0 0 0 127 0" result="hardAlpha"/>
<feOffset dy="-4"/>
<feComposite in2="hardAlpha" operator="out"/>
<feColorMatrix type="matrix" values="0 0 0 0 0.97 0 0 0 0 0.97 0 0 0 0 0.97 0 0 0 1 0"/>
<feBlend mode="normal" in2="effect2_dropShadow_16_71718" result="effect3_dropShadow_16_71718"/>
<feBlend mode="normal" in="SourceGraphic" in2="effect3_dropShadow_16_71718" result="shape"/>
</filter>
<filter id="filter3_ddd_16_71718" x="29.978" y="6.85547" width="140.046" height="164.47" filterUnits="userSpaceOnUse" color-interpolation-filters="sRGB">
<feFlood flood-opacity="0" result="BackgroundImageFix"/>
<feColorMatrix in="SourceAlpha" type="matrix" values="0 0 0 0 0 0 0 0 0 0 0 0 0 0 0 0 0 0 127 0" result="hardAlpha"/>
<feOffset dy="1.69318"/>
<feGaussianBlur stdDeviation="0.846589"/>
<feColorMatrix type="matrix" values="0 0 0 0 0.121569 0 0 0 0 0.156863 0 0 0 0 0.215686 0 0 0 0.02 0"/>
<feBlend mode="normal" in2="BackgroundImageFix" result="effect1_dropShadow_16_71718"/>
<feColorMatrix in="SourceAlpha" type="matrix" values="0 0 0 0 0 0 0 0 0 0 0 0 0 0 0 0 0 0 127 0" result="hardAlpha"/>
<feOffset dy="4.23295"/>
<feGaussianBlur stdDeviation="2.11647"/>
<feColorMatrix type="matrix" values="0 0 0 0 0.121569 0 0 0 0 0.156863 0 0 0 0 0.215686 0 0 0 0.02 0"/>
<feBlend mode="normal" in2="effect1_dropShadow_16_71718" result="effect2_dropShadow_16_71718"/>
<feColorMatrix in="SourceAlpha" type="matrix" values="0 0 0 0 0 0 0 0 0 0 0 0 0 0 0 0 0 0 127 0" result="hardAlpha"/>
<feOffset dy="-4"/>
<feComposite in2="hardAlpha" operator="out"/>
<feColorMatrix type="matrix" values="0 0 0 0 0.97 0 0 0 0 0.97 0 0 0 0 0.97 0 0 0 1 0"/>
<feBlend mode="normal" in2="effect2_dropShadow_16_71718" result="effect3_dropShadow_16_71718"/>
<feBlend mode="normal" in="SourceGraphic" in2="effect3_dropShadow_16_71718" result="shape"/>
</filter>
<clipPath id="clip0_16_71718">
<rect width="200" height="95" fill="white"/>
</clipPath>
<clipPath id="clip1_16_71718">
<rect width="8" height="8" fill="white" transform="translate(95.75 31.0625)"/>
</clipPath>
</defs>
</svg>
